<svg xmlns="http://www.w3.org/2000/svg" height="1024" preserveAspectRatio="none" style="display: block;" version="1.1" viewBox="0 0 2048 2048" width="1024">
<defs>
	<linearGradient gradientUnits="userSpaceOnUse" id="Gradient1" x1="1222.65" x2="1262.13" y1="883.56" y2="888.18">
		<stop class="stop0" offset="0" stop-color="rgb(253,252,251)" stop-opacity="0.32549"></stop>
		<stop class="stop1" offset="1" stop-color="rgb(252,251,250)" stop-opacity="0.388235"></stop>
	</linearGradient>
	<linearGradient gradientUnits="userSpaceOnUse" id="Gradient2" x1="1507.19" x2="1521.81" y1="277.488" y2="256.929">
		<stop class="stop0" offset="0" stop-color="rgb(255,255,255)" stop-opacity="0.807843"></stop>
		<stop class="stop1" offset="1" stop-color="rgb(255,255,255)" stop-opacity="0.905882"></stop>
	</linearGradient>
	<linearGradient gradientUnits="userSpaceOnUse" id="Gradient3" x1="1528.15" x2="1549.39" y1="366.317" y2="374.713">
		<stop class="stop0" offset="0" stop-color="rgb(255,255,254)" stop-opacity="0.333333"></stop>
		<stop class="stop1" offset="1" stop-color="rgb(255,255,254)" stop-opacity="0.384314"></stop>
	</linearGradient>
	<linearGradient gradientUnits="userSpaceOnUse" id="Gradient4" x1="1480.44" x2="1488.22" y1="303.91" y2="283.578">
		<stop class="stop0" offset="0" stop-color="rgb(255,255,255)" stop-opacity="0.898039"></stop>
		<stop class="stop1" offset="1" stop-color="rgb(255,255,254)" stop-opacity="1"></stop>
	</linearGradient>
	<linearGradient gradientUnits="userSpaceOnUse" id="Gradient5" x1="1201.88" x2="1220.5" y1="1304.92" y2="1277">
		<stop class="stop0" offset="0" stop-color="rgb(255,255,255)" stop-opacity="0.811765"></stop>
		<stop class="stop1" offset="1" stop-color="rgb(255,255,255)" stop-opacity="0.878431"></stop>
	</linearGradient>
	<linearGradient gradientUnits="userSpaceOnUse" id="Gradient6" x1="1154.05" x2="1109.97" y1="1172.49" y2="1166.38">
		<stop class="stop0" offset="0" stop-color="rgb(255,255,255)" stop-opacity="0"></stop>
		<stop class="stop1" offset="1" stop-color="rgb(255,255,255)" stop-opacity="0.117647"></stop>
	</linearGradient>
	<linearGradient gradientUnits="userSpaceOnUse" id="Gradient7" x1="226.194" x2="236.365" y1="1841.44" y2="1821.4">
		<stop class="stop0" offset="0" stop-color="rgb(255,255,255)" stop-opacity="0.964706"></stop>
		<stop class="stop1" offset="1" stop-color="rgb(255,255,255)" stop-opacity="1"></stop>
	</linearGradient>
	<linearGradient gradientUnits="userSpaceOnUse" id="Gradient8" x1="1183.39" x2="1194.02" y1="1272.27" y2="1281.2">
		<stop class="stop0" offset="0" stop-color="rgb(255,255,255)" stop-opacity="0.968627"></stop>
		<stop class="stop1" offset="1" stop-color="rgb(255,255,254)" stop-opacity="1"></stop>
	</linearGradient>
	<linearGradient gradientUnits="userSpaceOnUse" id="Gradient9" x1="920.505" x2="913.236" y1="800.072" y2="812.366">
		<stop class="stop0" offset="0" stop-color="rgb(255,255,254)" stop-opacity="0.145098"></stop>
		<stop class="stop1" offset="1" stop-color="rgb(255,255,255)" stop-opacity="0.176471"></stop>
	</linearGradient>
</defs>
<path d="M 577.468 1312.89 C 563.384 1303.32 536.8 1296.62 519.758 1289.64 C 321.436 1208.4 193.649 1023.67 188.132 809.33 C 180.864 526.961 412.329 286.295 693.675 279.353 C 829.912 275.453 962.144 325.688 1061.43 419.063 C 1169 521.59 1229.44 650.965 1233.05 799.777 C 1232.73 811.647 1232.57 823.763 1231.73 835.59 C 1230.69 849.709 1228.68 865.538 1227.82 879.017 C 1226.07 887.298 1224.84 895.932 1223.34 904.294 C 1219.99 921.251 1217.1 934.136 1212.03 950.875 L 1207.22 967.231 L 1206.89 968.251 L 1203.96 977.417 C 1201.55 984.007 1198.95 991.644 1196.3 998.048 L 1191.81 1009.2 C 1188.29 1017.39 1184.53 1026.72 1180.77 1034.7 C 1173.69 1048.37 1167.5 1059.78 1159.72 1073.1 C 1155.45 1079.5 1151.75 1085.68 1147.81 1092.3 C 1158.05 1095.35 1178.81 1097.9 1180.1 1110.57 C 1181.66 1125.82 1182.84 1149.96 1174.3 1163.21 C 1192.4 1175.81 1213.05 1195.22 1228.75 1210.53 C 1245.7 1198.33 1270.71 1212.7 1280.29 1228.29 C 1285.8 1237.26 1285.03 1246.85 1282.62 1256.63 L 1301.96 1274.01 C 1319.28 1273.68 1328.72 1282.48 1339.32 1295.34 C 1345.57 1302.92 1346.77 1309.78 1348.51 1319.08 C 1358.06 1324.18 1373.18 1334.32 1382.78 1340.29 C 1417.53 1362.22 1451.8 1384.89 1485.57 1408.29 C 1508.8 1424.37 1533.09 1439.4 1555.65 1456.49 C 1608.95 1496.88 1662.02 1538.1 1713.78 1580.44 C 1730.38 1594.01 1748.1 1607.78 1764.09 1621.86 C 1692.48 1654.85 1641.98 1706.43 1601.37 1773.11 C 1590.42 1765.12 1579.28 1754.4 1568.92 1745.31 C 1550.47 1729.28 1532.2 1713.07 1514.09 1696.67 C 1485.33 1670.48 1451.28 1639.57 1423.54 1612.35 C 1362.46 1551.76 1304.61 1487.99 1250.22 1421.31 C 1239.08 1423.54 1234.08 1425.58 1225.39 1416.43 C 1212.81 1403.21 1205.38 1397.54 1204.55 1378.87 C 1196.99 1371.97 1189.89 1364.66 1182.69 1357.39 C 1178.29 1357.15 1172.47 1356.67 1168.32 1355.41 C 1146.6 1348.83 1124.85 1322.94 1131.85 1299.5 C 1121.2 1290.68 1105 1271.99 1094.54 1261.05 C 1081.46 1262.39 1066.53 1263.69 1054.81 1256.29 C 1044.38 1249.7 1043.23 1240.14 1040.67 1229.16 L 1023.82 1223.24 C 949.232 1275.41 863.071 1308.67 772.767 1320.13 C 748.277 1323.06 727.087 1323.4 702.457 1324.27 C 710.871 1343.43 708.149 1350.72 699.041 1369.05 C 711.612 1389.57 697.473 1396.89 679.282 1404.36 C 675.646 1412.16 665.448 1425.54 660.089 1432.79 C 662.862 1458.02 649.735 1472.1 625.059 1476.21 C 599.68 1519.95 570.967 1560.84 542.357 1602.43 C 487.761 1681.8 427.587 1756.32 361.076 1826.09 C 357.605 1841.94 349.056 1855.62 330.749 1854.22 C 322.816 1863.71 312.802 1872.7 305.74 1881.71 C 304.097 1904.71 287.082 1909.14 267.698 1907.97 C 199.232 1972.87 91.9112 1916.24 111.232 1822.98 C 113.639 1811.36 120.468 1799.82 126.356 1789.63 C 125.268 1782.56 126.41 1775.33 129.623 1768.94 C 134.733 1758.97 143.106 1755.1 153.01 1751.82 L 152.538 1752.43 C 157.293 1747.34 179.234 1725.72 179.161 1724.71 C 177.348 1699.6 187.938 1702.41 206.304 1691.12 C 206.774 1690.83 226.678 1666.8 229.012 1664.04 C 240.814 1650.17 252.895 1636.54 265.249 1623.16 C 323.042 1560.17 383.263 1499.45 445.776 1441.13 C 465.346 1422.88 496.609 1392.73 517.228 1376.23 C 516.242 1362.51 517.99 1354.18 529.837 1345.2 C 536.922 1339.82 546.298 1335.63 555.201 1337.28 C 560.754 1332.53 571.489 1319.29 577.468 1312.89 z M 720.808 1300.94 C 864.913 1293.06 984.226 1244.68 1082.6 1136.43 C 1195.94 1011.72 1236.16 836.576 1190.72 674.542 C 1163.79 577.297 1109.05 490.032 1033.22 423.461 C 944.974 344.822 806.156 291.518 687.287 301.387 C 527.909 312.947 394.165 384.074 301.077 514.863 C 101.083 795.852 249.579 1188.83 575.8 1285.69 C 581.064 1283.31 589.722 1281.21 593.479 1279.1 C 620.224 1264.07 641.993 1279.41 665.314 1299.04 C 683.76 1300.04 702.355 1301.35 720.808 1300.94 z M 1303.9 1369.29 C 1372.7 1422.37 1440.5 1476.74 1507.26 1532.36 C 1529.06 1550.44 1551.24 1567.87 1572.79 1586.28 C 1601.01 1610.39 1628.25 1635.72 1654.48 1661.98 C 1664.71 1652.68 1675.94 1641.03 1686.14 1632.5 C 1664.9 1616.06 1645.84 1596.92 1625.35 1579.7 C 1598.11 1556.8 1569.7 1535.01 1542.15 1512.45 C 1489.43 1471.51 1434.89 1432.7 1381.61 1392.45 C 1376.93 1388.92 1371.93 1385.62 1367.43 1381.86 C 1360.64 1376.65 1353.63 1371.59 1347.68 1365.45 C 1353.7 1368.59 1359.89 1374.17 1365.71 1377.94 C 1473.81 1447.87 1579.58 1522.54 1675.26 1608.94 C 1682.02 1615.05 1686.97 1620.58 1691.97 1628.14 C 1699.6 1622.57 1703.26 1619.78 1711.44 1615.46 C 1697.89 1603.27 1681.88 1591.44 1667.7 1579.56 C 1631.03 1548.55 1593.49 1518.58 1555.13 1489.69 C 1500.8 1450.06 1445.36 1411.98 1388.87 1375.48 C 1378.73 1368.8 1343.03 1342.22 1334.17 1338.69 C 1325.1 1348.68 1314.13 1360.64 1303.9 1369.29 z M 1202.07 1333.86 C 1199.4 1335.81 1196.76 1337.8 1194.14 1339.82 C 1200.98 1346.73 1211.8 1358.31 1219.47 1363.48 L 1224.21 1358.98 C 1223.98 1354.12 1206.55 1334.64 1202.07 1333.86 z M 1085.81 1189.29 C 1090.25 1186.12 1109.28 1164.72 1113.44 1160.02 C 1123.11 1150.34 1147.96 1121.93 1157.41 1117.03 C 1148.75 1114.69 1141.22 1113.37 1132.43 1111.79 C 1125.97 1121.83 1103.07 1147.24 1094.65 1156.13 C 1092.15 1158.66 1084.36 1166.28 1082.73 1168.69 L 1042.72 1206.37 C 1050.37 1208.59 1054.89 1211.18 1061.44 1215.82 C 1069.68 1207.08 1077.8 1198.23 1085.81 1189.29 z M 592.988 1293.69 C 590.172 1296.98 588.133 1299.58 584.749 1302.37 C 595.61 1309.68 605.132 1315.05 616.827 1320.86 C 621.16 1323.01 629.625 1334.12 634.135 1337.37 C 652.288 1353.35 668.378 1368.3 683.191 1387.5 L 684.516 1387.26 L 692.768 1382.49 C 680.923 1361.85 656.629 1334.61 634.456 1324.89 C 620.532 1318.78 621.06 1313.96 609.943 1304.4 C 606.71 1301.62 596.955 1295.79 592.988 1293.69 z M 613.914 1283.77 C 613.262 1287.54 612.664 1287.42 613.834 1290.43 C 620.269 1293.57 624.447 1297.5 630.127 1301.73 C 651.056 1317.31 670.22 1334.57 688.516 1353.14 C 689.045 1353.17 689.573 1353.19 690.101 1353.21 L 692.703 1351.58 C 692.143 1330.71 650.148 1302.49 633.514 1291.82 C 627.384 1287.89 620.796 1288.46 613.914 1283.77 z M 291.742 1862.27 C 297.965 1856.3 304.395 1849.92 310.731 1844.12 L 301.562 1835.67 C 296.286 1841.72 286.108 1851.98 284.464 1859.32 C 285.51 1862.73 284.56 1861.28 287.807 1863.51 C 290.604 1863.74 289.276 1863.98 291.742 1862.27 z M 1592.35 1727.22 L 1599.89 1720.52 C 1587.27 1706.07 1561.05 1685.16 1545.64 1671.29 C 1511.01 1640.32 1477.24 1608.4 1444.36 1575.57 C 1411.18 1542.08 1372.24 1503.01 1341.22 1468.32 L 1293.93 1414.98 C 1290.36 1410.89 1275.99 1393.77 1273.39 1391.67 C 1271.09 1394.26 1268.37 1397.16 1266.2 1399.8 C 1341.63 1493.81 1434.51 1585.21 1523.03 1666.8 C 1539.66 1682.13 1575.78 1715.69 1592.35 1727.22 z M 1117.14 1182.34 C 1110.49 1183.59 1082.83 1216.08 1075.67 1222.05 C 1075.26 1222.39 1074.77 1223.47 1074.5 1224.03 L 1074.98 1225.35 C 1070.62 1225.64 1067 1230.9 1064.52 1234.14 C 1071.34 1238 1072.9 1240.25 1080.75 1237.29 C 1081.95 1231.67 1083.24 1226.08 1084.61 1220.5 C 1088.37 1219.6 1093.5 1212.93 1096.23 1209.61 C 1100.37 1206 1103.46 1202.73 1107.22 1198.79 C 1113.91 1191.5 1121.55 1183.16 1130.67 1179.37 C 1138.63 1171.52 1160.18 1151.22 1160.94 1141.06 L 1159.77 1139.16 C 1152.36 1137.94 1124.24 1172.87 1118.69 1180.8 C 1116.78 1183.52 1119.94 1180.6 1117.14 1182.34 z M 1251.02 1398.15 C 1254.29 1396.13 1257.59 1394.17 1259 1390.43 C 1262.46 1381.31 1273.07 1380.25 1277.11 1375.78 C 1288.22 1363.49 1323.41 1330.03 1330.51 1317.31 L 1320.98 1309.02 C 1300.61 1330.39 1288.4 1352.41 1268.53 1373.54 C 1263.31 1379.09 1245.45 1392.05 1244.53 1397.92 L 1245.67 1399.33 C 1248.53 1399.19 1248.38 1399.24 1251.02 1398.15 z M 1108.8 1240.99 C 1111.17 1247.38 1146.43 1284.87 1152.79 1289.55 C 1156.17 1288.76 1154.55 1289.31 1157.66 1286.5 L 1158.54 1284.97 C 1153.92 1279.7 1148.29 1272.87 1143.32 1268.07 C 1133.72 1258.79 1123.09 1241.02 1108.8 1240.99 z M 635.086 1411.81 C 636.928 1413.49 640.801 1417.5 642.847 1418.08 C 649.57 1409.45 661.087 1393.79 668.122 1386.38 C 665.661 1384.32 662.631 1381.93 660.454 1379.67 C 652.745 1390.12 641.617 1402.05 635.086 1411.81 z M 1257.73 1233.17 C 1252.15 1241.09 1244.56 1248.56 1238.44 1256.09 C 1235.28 1259.99 1235.1 1259.99 1235.44 1264.1 L 1233.41 1262.08 C 1228.32 1265.63 1224.22 1271.06 1220.11 1275.85 L 1218.88 1277.28 L 1190.31 1305.72 C 1184.42 1311.52 1176.81 1318.28 1171.78 1324.56 C 1175.79 1326.21 1172.6 1322.42 1176.47 1326.01 C 1176.76 1329.64 1176.68 1330.05 1176.28 1333.51 C 1176.65 1333.06 1177.76 1331.77 1177.81 1331.32 C 1178.58 1324.88 1182.24 1321.96 1187.08 1317.48 C 1199.68 1316.39 1196.3 1311.42 1205.07 1310.26 C 1208.78 1307.47 1244.7 1270.58 1247.48 1266.45 L 1244.47 1265.61 C 1249.17 1265.39 1251.95 1262.29 1255.04 1259.05 C 1266.33 1247.24 1270.47 1245.28 1257.73 1233.17 z M 1110.1 1229.98 C 1112.29 1218.8 1121.42 1219.17 1127.09 1209.08 L 1126.49 1208.14 C 1119.82 1208.78 1113.21 1221.63 1104.86 1225.28 C 1102.73 1230.32 1102.16 1229.56 1102.73 1234.23 L 1103.97 1235.29 C 1107.48 1234.02 1107.24 1233.24 1110.1 1229.98 z M 243.163 1880.86 C 248.033 1886.25 252.566 1889.1 258.501 1893.17 C 261.023 1891.46 264.265 1889.61 266.912 1888 C 262.456 1884.15 258.05 1880.16 253.18 1876.86 C 249.734 1872.87 240.459 1865.13 236.188 1861.36 C 225.51 1851.95 214.887 1842.49 204.318 1832.96 C 183.903 1811.98 167.89 1797.12 151.648 1772.33 C 149.544 1778.26 148.424 1780.01 145.261 1785.21 C 156.15 1801.89 181.426 1826.57 196.534 1840.45 C 201.048 1845.78 238.58 1879.81 243.163 1880.86 z M 582.359 1372.23 L 561.044 1356.83 C 556.389 1353.84 553.706 1350.86 548.282 1353.97 C 547.266 1356.82 547.404 1355.33 548.349 1358.59 C 550.223 1359.84 550.369 1359.96 552.418 1360.96 C 561.305 1366.02 567.482 1378.34 578.011 1383.54 C 584.029 1389.35 590.425 1395.44 596.627 1401.06 C 606.843 1410.33 613.489 1422.05 627.099 1425.3 L 627.701 1424.17 C 625.642 1420.44 625.788 1414.3 623.691 1411.64 C 612.164 1397.01 596.742 1384.05 582.359 1372.23 z M 337.478 1834.41 C 333.541 1831.26 328.726 1826.83 324.06 1825.58 C 319.79 1824.96 319.87 1824.23 316.756 1825.79 C 317.062 1829.01 318.295 1830.8 319.78 1833.67 C 323.052 1836.77 325.574 1838.96 329.953 1839.47 C 333.616 1838.84 334.799 1837.05 337.478 1834.41 z M 263.043 1774.75 L 254.238 1765.22 L 253.725 1763.7 C 252.687 1757.14 238.285 1744.05 232.922 1738.46 C 223.821 1729.06 214.993 1719.4 206.451 1709.48 C 204.387 1712.65 201.527 1716.75 199.738 1719.96 C 211.608 1733.86 230.291 1755.68 244.55 1767.33 C 246.529 1767.93 249.162 1768.63 251.039 1769.33 C 252.791 1772.28 256.641 1775.01 259.389 1777.27 C 261.858 1779.5 264.745 1782.91 268.118 1782 C 267.434 1778.41 265.697 1777.33 263.043 1774.75 z M 1142.99 1187.28 C 1146.14 1189.06 1146.08 1189.23 1149.83 1189.62 C 1162.21 1186.03 1197.27 1222.85 1207.63 1231.87 C 1209.52 1230.09 1212.93 1227.55 1215.08 1225.85 C 1203.3 1212.24 1163.91 1183.75 1159.58 1172.93 C 1158.9 1171.23 1158.52 1171.28 1157.03 1170.27 C 1153.43 1172.83 1145.44 1183.14 1142.99 1187.28 z M 550.502 1409.18 C 543.559 1403.87 539.196 1400.14 532.82 1394.16 C 463.523 1457.49 396.38 1523.15 331.505 1591.01 C 304.778 1618.26 278.663 1646.11 253.183 1674.54 C 244.619 1684.08 230.194 1699.32 222.726 1709.19 C 237.706 1725.36 249.681 1738.26 266.251 1752.64 C 267.007 1750.97 267.829 1749.43 268.831 1747.9 C 268.057 1745.37 267.348 1743.56 266.389 1741.1 C 265.982 1737.66 263.881 1735.83 261.346 1732.78 C 282.109 1704.31 306.593 1676.11 329.562 1649.38 C 371.865 1599.78 415.672 1551.49 460.92 1504.56 C 486.511 1477.64 511.588 1450.23 537.539 1423.64 C 541.674 1419.41 546.837 1413.78 550.502 1409.18 z M 1165.41 1310.3 C 1170.58 1307.27 1224.85 1250.64 1229.95 1244.38 C 1235.65 1238.97 1240.66 1234.06 1246.07 1228.37 C 1241.56 1226.83 1235.49 1225.44 1230.77 1224.22 C 1226.37 1229.06 1219.12 1235.16 1219.31 1240.86 L 1217.38 1239.48 C 1204.17 1249.99 1165.05 1290.4 1156.15 1303.41 C 1153.63 1306.77 1151.44 1311.41 1153.56 1315.54 C 1159.84 1317.5 1161.04 1314.61 1165.41 1310.3 z M 1303.82 1290.75 C 1289.6 1309.91 1267.21 1327.64 1252.41 1346.74 C 1250.94 1348.64 1251.25 1350.35 1251.56 1352.59 C 1257.06 1351.69 1259.54 1350.9 1264.32 1348.2 C 1276.65 1345.31 1305.31 1309.37 1314.53 1298.65 L 1303.82 1290.75 z M 350.983 1806.26 C 357.145 1798.9 368.134 1787.39 373.057 1779.78 C 459.727 1682.46 534.906 1573.61 607.17 1465.42 C 604.779 1462.55 602.434 1459.46 600.13 1456.51 C 588.199 1476.93 566.415 1506.62 552.498 1526.57 C 510.682 1586.68 467.03 1645.49 421.603 1702.92 C 411.809 1715.73 401.771 1728.35 391.495 1740.77 C 384.36 1749.46 374.672 1760.58 368.594 1769.46 C 368.043 1772.16 367.701 1774.68 366.537 1777.16 C 362.89 1780.61 346.313 1800.63 343.722 1804.63 C 339.831 1808.44 336.004 1806.74 333.361 1810.16 L 333.662 1811.92 L 339.935 1815.59 L 338.907 1817.8 L 340.448 1818.92 C 343.065 1817.34 348.781 1809.16 350.983 1806.26 z M 281.671 1885.04 C 285.024 1881.68 286.592 1879.41 289.382 1875.61 C 283.423 1870.47 279.906 1866.64 272.027 1864.72 L 273.211 1863.53 C 272.637 1861.73 214.183 1809.28 206.762 1802.61 L 205.094 1802.75 L 203.659 1799.02 C 205.173 1792.27 218.41 1776.7 223.579 1771.32 L 227.435 1769.14 C 218.607 1760.19 205.922 1747.82 198.641 1737.83 C 187.267 1749.86 176.188 1761.71 163.662 1772.59 C 170.542 1780.17 193.739 1806.11 201.2 1809.66 L 204.957 1807.17 C 204.066 1808.75 203.186 1810.19 201.962 1811.53 C 205.288 1817.41 263.938 1870.83 271.787 1875.61 L 281.671 1885.04 z M 600.261 1366.3 C 602.852 1365.56 616.953 1347.08 619.647 1343.57 C 612.872 1338.54 605.984 1333.67 598.99 1328.95 C 591.998 1337.06 585.014 1342.84 577.268 1350.13 C 585.091 1354.33 592.902 1360.95 600.261 1366.3 z M 563.211 1402.5 C 575.412 1412.59 585.812 1422.4 596.992 1433.48 C 601.742 1438.19 616.24 1456.26 618.639 1457.35 C 622.087 1457.5 621.879 1457.64 624.827 1455.9 L 624.616 1453.96 C 613.092 1437.92 586.999 1402.97 568.658 1396.96 L 567.478 1396.56 C 558.73 1384.66 551.665 1378.69 538.786 1371.17 C 541.655 1374.72 543.997 1377.64 547.167 1380.97 L 546.912 1382.41 C 543.342 1383.23 542.1 1383.18 538.532 1383.27 C 540.129 1384.97 561.019 1401.21 563.211 1402.5 z M 145.487 1803.71 C 109.98 1870.2 162.32 1924.6 231.689 1904.89 C 235.391 1903.84 247.068 1900.6 248.915 1897.98 C 247.161 1895.86 247.121 1895.95 244.767 1894.45 L 234.162 1888.24 C 224.704 1896.7 216.677 1902.34 203.382 1901.08 C 164.872 1897.44 149.98 1868.54 179.05 1840.56 C 165.898 1828.24 156.88 1817.44 145.487 1803.71 z M 1265.95 1316.47 C 1273.6 1307.79 1281.19 1299.04 1288.7 1290.23 C 1280.88 1282.52 1273.13 1274.73 1265.44 1266.88 C 1258.77 1273.9 1250.17 1283.53 1244.3 1291.39 C 1246.99 1294.97 1262.41 1315.45 1265.95 1316.47 z M 1153.69 1194.79 C 1146.58 1200.05 1142.67 1202.87 1137.57 1210.45 C 1151.1 1225.63 1168.69 1242.23 1184.33 1255.39 C 1189.78 1249.8 1195.52 1244.07 1200.79 1238.34 C 1192.79 1230.53 1160.37 1198.02 1153.69 1194.79 z" fill="rgb(11,62,42)" transform="translate(0,0)"></path>
<path d="M 671.622 340.475 C 926.985 319.561 1150.9 509.747 1171.58 765.129 C 1192.27 1020.51 1001.88 1244.25 746.478 1264.71 C 491.402 1285.13 268.008 1095.04 247.351 839.985 C 226.693 584.928 416.584 361.363 671.622 340.475 z M 921.989 1182.8 C 933.774 1157.33 953.911 1106.31 960.682 1078.53 C 943.552 1075.12 935.242 1073.02 918.535 1066.74 C 902.276 1084.29 890.857 1086.99 870.345 1098.31 C 865.825 1100.81 854.852 1110.46 849.583 1114.21 C 833.669 1125.55 811.417 1134.9 791.897 1136.21 C 777.809 1137.15 763.675 1130.58 753.669 1120.92 C 737.105 1104.92 734.059 1086.54 732.63 1064.5 C 705.4 1056.14 696.799 1047.9 688.694 1020.22 C 661.298 1010.36 672.779 997.012 673.678 974.168 C 654.384 978.383 617.181 990.186 613.383 959.794 C 609.342 927.466 612.64 893.785 619.189 862.006 C 622.123 848.026 627.048 833.417 629.217 819.971 C 624.81 819.905 619.722 819.961 615.385 819.744 C 600.637 811.023 598.525 801.316 592.342 785.701 C 586.109 793.485 578.712 802.891 570.879 808.973 C 527.623 842.562 430.371 861.275 390.158 814.309 C 399.117 801.169 435.036 767.101 449.209 753.19 C 467.893 734.852 490.153 710.707 508.749 693.418 C 459.353 571.648 483.728 456.521 602.253 388.453 L 600.676 385.103 C 501.608 415.938 444.82 446.191 377.722 526.304 C 201.704 736.465 269.927 1064.61 514.796 1187.77 C 649.185 1255.37 788.909 1248.97 921.989 1182.8 z M 861.658 529.994 C 886.811 523.49 913.836 516.028 939.028 510.407 L 970.678 502.201 C 963.118 483.558 941.413 440.985 926.053 427.762 C 918.368 421.146 890.117 408.433 879.605 403.818 C 832.259 383.03 764.539 368.223 712.302 372.425 C 706.867 372.885 701.584 373.147 696.267 374.337 C 712.566 380.692 728.612 384.509 744.679 392.022 C 797.629 416.782 846.317 473.709 861.658 529.994 z M 535.098 671.246 C 539.301 668.823 543.999 666.286 547.933 663.516 C 577.897 646.813 602.267 634.712 632.245 619.381 C 606.463 573.23 590.557 505.04 605.307 453.495 C 608.418 442.781 612.398 432.34 617.208 422.274 C 620.165 416.137 623.565 411.321 625.674 404.883 L 625.034 404.12 C 580.614 430.449 539.375 479.721 524.858 529.808 C 514.58 565.27 521.193 636.168 535.098 671.246 z M 926.314 819.674 C 929.534 816.681 934.411 810.691 936.549 806.787 C 955.036 770.333 964.443 739.377 956.1 699.011 C 942.459 633.005 871.895 622.197 847.753 686.307 C 843.812 696.772 839.495 742.23 829.144 744.664 C 819.165 740.13 779.416 706.128 769.944 696.75 C 765.378 692.23 758.678 683.903 754.722 678.551 C 728.537 688.652 693.982 710.648 670.881 726.245 L 673.714 727.035 C 699.256 717.315 721.346 720.418 746.234 731.582 C 728.752 733.289 712.059 730.288 695.825 738.642 C 678.473 747.572 667.747 762.438 659.523 779.621 C 687.145 768.653 708.769 765.873 735.892 781.03 C 709.437 780.133 685.748 779.364 662.602 794.668 C 656.454 798.733 652.525 802.672 646.94 806.771 C 670.976 795.698 714.142 790.909 740.528 793.52 C 727.298 801.675 710.076 804.548 695.493 809.778 C 697.553 819.205 697.356 824.585 696.995 834.281 L 698.038 833.267 C 704.695 826.738 710.211 818.318 715.713 810.69 L 716.787 810.876 L 716.517 809.952 C 716.173 818.64 699.171 840.647 692.847 846.947 C 654.248 842.143 654.409 843.75 646.846 804.199 C 640.817 831.915 620.907 936.836 629.561 959.067 C 641.851 971.038 669.901 949.222 683.054 944.896 C 691.56 942.099 702.752 942.932 708.951 936.514 C 715.045 929.575 710.735 920.566 713.168 913.674 C 722.404 915.625 718.77 935.496 716.309 941.719 C 711.619 953.576 703.568 957.847 692.37 962.362 L 690.938 962.936 C 691.464 978.414 690.814 987.998 689.703 1003.63 L 690.905 1003.51 C 698.156 1002.73 703.905 1000.92 710.964 999.931 C 734.91 996.585 748.696 1000.55 768.58 1013.02 C 744.723 1012.96 729.749 1011.98 706.646 1019.37 C 710.72 1028.84 718.395 1040.02 728.618 1042.28 C 775.82 1052.72 730.994 1078.79 771.224 1108.54 C 848.585 1123.41 932.686 974.853 931.678 909.386 C 931.253 881.77 924.776 864.364 919.903 838.891 C 908.163 833.967 906.825 829.681 904.343 817.556 C 911.169 820.964 917.468 825.575 924.878 821.216 L 926.314 819.674 z M 644.836 743.544 C 628.689 755 612.2 765.225 596.458 777.116 C 600.468 782.818 601.843 784.384 606.769 789.256 C 617.726 775.511 632.841 756.133 645.991 744.868 L 644.836 743.544 z M 859.402 530.773 C 850.444 516.221 838.012 495.156 828.382 481.788 C 798.758 440.661 750.113 398.324 699.543 386.703 C 689.051 384.291 671.379 381.707 660.349 380.83 C 632.961 403.143 616.662 446.402 613.398 480.519 C 609.738 518.765 623.791 579.701 635.624 617.299 C 644.276 613.575 652.63 609.667 661.178 605.729 C 693.717 590.738 727.51 576.891 760.94 564.035 C 792.469 552.271 827.269 541.246 859.402 530.773 z M 946.866 1050.2 C 954.165 1053.27 958.537 1054.87 966.118 1057.15 C 972.974 1037.82 979.204 1014.73 986.143 996.49 C 1005.54 935.428 1026.01 872.313 1049.51 812.756 C 1054.63 799.806 1064.32 775.55 1070.91 764.359 C 1054.84 756.665 1051.75 752.602 1037.93 741.543 C 1031.26 747.29 1020.26 757.342 1013.28 761.929 C 1000.55 754.925 1000.19 749.398 990.73 741.658 C 958.68 793.329 968.224 892.101 962.19 952.725 C 958.971 985.074 952.781 1018.22 946.866 1050.2 z M 1131.19 743.734 L 1134.82 744.603 C 1138.52 736.26 1117.28 670.42 1112.45 657.861 C 1091.89 604.338 1062.08 550.749 1023.65 507.97 C 1018.63 502.38 1007.42 489.961 1000.88 486.597 C 1010.56 510.084 1018.79 530.909 1025.86 555.517 C 1028.77 565.62 1041.74 580.849 1045.56 591.36 C 1064.75 629.467 1084.87 692.649 1070.51 734.485 C 1073.17 738.057 1075.42 741.27 1078.51 744.503 C 1095.45 738.147 1114.07 737.875 1131.19 743.734 z M 1003.12 1127.01 C 1013 1118.02 1029.01 1101.2 1028.56 1086.75 C 1025.22 1092.87 1003.01 1125.6 1003.12 1127.01 z M 532.608 713.474 C 516.918 730.018 500.996 746.34 484.846 762.435 C 471.321 775.664 455.354 790.176 442.467 803.822 L 442.931 804.896 L 445.764 805.255 C 527.812 800.502 589.992 751.202 656.701 709.72 C 699.096 683.358 742.846 661.274 788.779 641.87 C 851.161 615.518 914.208 593.546 978.875 573.511 C 986.445 571.129 1001.37 569.94 1006.99 564.976 C 1007.13 562.277 1006.05 560.211 1003.85 558.462 C 985.919 562.683 968.26 568.14 950.604 573.392 C 887.332 592.214 824.625 611.236 763.008 635.027 C 688.189 663.915 611.279 696.837 532.608 713.474 z" fill="rgb(11,62,42)" transform="translate(0,0)"></path>
<path d="M 899.935 666.302 C 908.228 665.665 929.273 670.663 928.847 680.609 C 924.571 680.69 918.464 677.221 913.307 676.887 C 892.695 675.552 890.149 691.415 888.823 707.994 C 894.108 708.04 899.794 707.917 904.715 710.152 C 922.821 718.373 925.648 744.373 921.704 761.685 C 920.692 766.123 917.791 771.507 915.696 775.628 C 912.113 779.631 909.913 780.913 905.57 783.359 C 905.946 783.147 902.513 792.109 902.019 793.277 L 899.793 794.123 C 891.335 791.744 892.369 780.091 891.984 772.719 C 891.449 762.494 891.292 751.885 892.053 741.675 L 891.391 741.006 C 882.384 731.745 868.788 728.727 867.544 715.647 C 865.274 691.779 875.049 670.563 899.935 666.302 z" fill="rgb(11,62,42)" transform="translate(0,0)"></path>
<path d="M 901.871 722.61 C 912.208 726.949 913.978 745.939 913.564 755.789 L 912.286 755.673 C 911.283 754.682 909.407 742.577 908.235 739.076 C 906.128 732.78 904.555 728.729 901.871 722.61 z" fill="rgb(254,254,254)" transform="translate(0,0)"></path>
<path d="M 924.878 821.216 C 921.22 817.065 916.989 819.778 913.649 816.794 C 908.808 812.189 905.129 804.897 904.525 798.334 C 904.093 793.627 914.046 785.947 918.199 785.915 L 919.741 787.457 C 917.842 801.473 925.509 796.083 924.921 808.39 C 924.715 812.685 923.573 815.84 926.314 819.674 L 924.878 821.216 z" fill="url(#Gradient9)" transform="translate(0,0)"></path>
<path d="M 1028.56 1086.75 C 1029.01 1101.2 1013 1118.02 1003.12 1127.01 C 1003.01 1125.6 1025.22 1092.87 1028.56 1086.75 z" fill="rgb(254,254,254)" fill-opacity="0.0235294" transform="translate(0,0)"></path>
<path d="M 644.836 743.544 C 649.496 739.08 665.017 728.52 670.881 726.245 L 673.714 727.035 C 663.486 733.067 655.752 737.921 645.991 744.868 L 644.836 743.544 z" fill="rgb(149,173,163)" transform="translate(0,0)"></path>
<path d="M 600.676 385.103 C 606.559 382.486 616.965 380.127 623.482 378.575 C 616.662 381.921 609.28 385.745 602.253 388.453 L 600.676 385.103 z" fill="rgb(254,254,254)" transform="translate(0,0)"></path>
<path d="M 1156.15 1303.41 C 1165.05 1290.4 1204.17 1249.99 1217.38 1239.48 L 1219.31 1240.86 L 1229.95 1244.38 C 1224.85 1250.64 1170.58 1307.27 1165.41 1310.3 C 1165.45 1307.4 1165.73 1306.13 1164.41 1303.53 C 1160.87 1302.1 1160.55 1302.85 1156.15 1303.41 z" fill="url(#Gradient8)" transform="translate(0,0)"></path>
<path d="M 266.389 1741.1 C 270.56 1741.65 292.148 1763.86 296.628 1767.93 C 310.242 1780.28 324.14 1792.22 338.074 1804.21 C 344.226 1797.32 363.434 1773.78 368.594 1769.46 C 368.043 1772.16 367.701 1774.68 366.537 1777.16 C 362.89 1780.61 346.313 1800.63 343.722 1804.63 C 339.831 1808.44 336.004 1806.74 333.361 1810.16 L 333.662 1811.92 L 339.935 1815.59 L 338.907 1817.8 C 330.018 1812.87 268.866 1758.89 266.251 1752.64 C 267.007 1750.97 267.829 1749.43 268.831 1747.9 C 268.057 1745.37 267.348 1743.56 266.389 1741.1 z" fill="rgb(254,254,254)" transform="translate(0,0)"></path>
<path d="M 253.725 1763.7 L 254.722 1761.88 C 256.829 1763.13 270.92 1776.39 273.767 1779.09 C 289.51 1794.05 309.602 1809.43 324.686 1824.51 L 324.06 1825.58 C 319.79 1824.96 319.87 1824.23 316.756 1825.79 C 317.062 1829.01 318.295 1830.8 319.78 1833.67 C 309.002 1828.18 253.359 1777.92 244.55 1767.33 C 246.529 1767.93 249.162 1768.63 251.039 1769.33 C 252.791 1772.28 256.641 1775.01 259.389 1777.27 C 261.858 1779.5 264.745 1782.91 268.118 1782 C 267.434 1778.41 265.697 1777.33 263.043 1774.75 L 254.238 1765.22 L 253.725 1763.7 z" fill="rgb(254,254,254)" transform="translate(0,0)"></path>
<path d="M 205.094 1802.75 L 206.762 1802.61 C 214.183 1809.28 272.637 1861.73 273.211 1863.53 L 272.027 1864.72 C 269.511 1862.98 268.345 1861.75 265.311 1861.68 C 264.321 1865.32 270.29 1870.61 271.787 1875.61 C 263.938 1870.83 205.288 1817.41 201.962 1811.53 C 203.186 1810.19 204.066 1808.75 204.957 1807.17 L 205.094 1802.75 z" fill="url(#Gradient7)" transform="translate(0,0)"></path>
<path d="M 1220.11 1275.85 C 1224.22 1271.06 1228.32 1265.63 1233.41 1262.08 L 1235.44 1264.1 C 1238.32 1264.61 1241.61 1265.26 1244.47 1265.61 L 1247.48 1266.45 C 1244.7 1270.58 1208.78 1307.47 1205.07 1310.26 C 1196.3 1311.42 1199.68 1316.39 1187.08 1317.48 C 1182.24 1321.96 1178.58 1324.88 1177.81 1331.32 C 1177.76 1331.77 1176.65 1333.06 1176.28 1333.51 C 1176.68 1330.05 1176.76 1329.64 1176.47 1326.01 C 1172.6 1322.42 1175.79 1326.21 1171.78 1324.56 C 1176.81 1318.28 1184.42 1311.52 1190.31 1305.72 L 1218.88 1277.28 C 1218.16 1286.11 1199.59 1296.49 1198.43 1304.55 L 1200.9 1305.51 C 1210.16 1304.04 1224.31 1283.97 1225.27 1275.57 L 1220.11 1275.85 z" fill="rgb(254,254,254)" fill-opacity="0.917647" transform="translate(0,0)"></path>
<path d="M 204.318 1832.96 C 214.887 1842.49 225.51 1851.95 236.188 1861.36 C 240.459 1865.13 249.734 1872.87 253.18 1876.86 C 249.411 1876.28 243.689 1873.52 241.558 1874.95 C 241.884 1877.69 242.683 1878.61 243.163 1880.86 C 238.58 1879.81 201.048 1845.78 196.534 1840.45 C 199.531 1840.68 200.824 1840.89 203.868 1840.46 C 205.547 1837.52 204.757 1837.19 204.318 1832.96 z" fill="rgb(254,254,254)" fill-opacity="0.6" transform="translate(0,0)"></path>
<path d="M 1117.14 1182.34 C 1119.94 1180.6 1116.78 1183.52 1118.69 1180.8 C 1124.24 1172.87 1152.36 1137.94 1159.77 1139.16 L 1160.94 1141.06 C 1160.18 1151.22 1138.63 1171.52 1130.67 1179.37 C 1121.55 1183.16 1113.91 1191.5 1107.22 1198.79 L 1105.42 1196.6 C 1109.8 1192.27 1113.38 1187.24 1117.14 1182.34 z" fill="url(#Gradient6)" transform="translate(0,0)"></path>
<path d="M 1094.65 1156.13 L 1095.64 1158.19 C 1102.8 1154.87 1107.85 1152.46 1113.44 1160.02 C 1109.28 1164.72 1090.25 1186.12 1085.81 1189.29 C 1083.39 1187.95 1084.02 1188.33 1081.96 1186.43 C 1080.77 1180.52 1084.25 1172.15 1082.73 1168.69 C 1084.36 1166.28 1092.15 1158.66 1094.65 1156.13 z" fill="rgb(254,254,254)" fill-opacity="0.231373" transform="translate(0,0)"></path>
<path d="M 1251.56 1352.59 C 1257.06 1351.69 1259.54 1350.9 1264.32 1348.2 L 1266.24 1349.81 C 1264.02 1355.91 1236.84 1380.58 1230.29 1388.29 L 1228.55 1388.32 L 1227.14 1385.61 C 1230.19 1382.04 1231.87 1379.43 1231.4 1374.53 L 1230.1 1373.22 L 1225.58 1374.01 C 1228.24 1368.75 1243.9 1354.64 1248.98 1349.72 C 1250.81 1351.11 1250.22 1350.6 1251.56 1352.59 z" fill="rgb(254,254,254)" transform="translate(0,0)"></path>
<path d="M 1104.86 1225.28 C 1113.95 1213.33 1131.04 1197.93 1141.87 1186.81 L 1142.99 1187.28 C 1146.14 1189.06 1146.08 1189.23 1149.83 1189.62 C 1141.8 1197.41 1115.34 1226.33 1110.1 1229.98 C 1112.29 1218.8 1121.42 1219.17 1127.09 1209.08 L 1126.49 1208.14 C 1119.82 1208.78 1113.21 1221.63 1104.86 1225.28 z" fill="rgb(254,254,254)" transform="translate(0,0)"></path>
<path d="M 1130.67 1179.37 C 1116.83 1200.77 1094.7 1212.86 1081.35 1238.6 L 1080.75 1237.29 C 1081.95 1231.67 1083.24 1226.08 1084.61 1220.5 C 1088.37 1219.6 1093.5 1212.93 1096.23 1209.61 C 1100.37 1206 1103.46 1202.73 1107.22 1198.79 C 1113.91 1191.5 1121.55 1183.16 1130.67 1179.37 z" fill="rgb(254,254,254)" transform="translate(0,0)"></path>
<path d="M 538.786 1371.17 C 551.665 1378.69 558.73 1384.66 567.478 1396.56 C 566.159 1400.66 567.006 1400.39 563.211 1402.5 C 561.019 1401.21 540.129 1384.97 538.532 1383.27 C 542.1 1383.18 543.342 1383.23 546.912 1382.41 L 547.167 1380.97 C 543.997 1377.64 541.655 1374.72 538.786 1371.17 z" fill="rgb(254,254,254)" fill-opacity="0.341176" transform="translate(0,0)"></path>
<path d="M 561.044 1356.83 L 582.359 1372.23 C 579.597 1372.67 578.3 1372.88 575.459 1372.99 L 573.98 1374.53 C 574.649 1378.55 576.253 1380.03 578.011 1383.54 C 567.482 1378.34 561.305 1366.02 552.418 1360.96 C 554.88 1360.61 558.634 1358.15 561.044 1356.83 z" fill="rgb(254,254,254)" fill-opacity="0.266667" transform="translate(0,0)"></path>
<path d="M 366.537 1777.16 C 367.61 1777.49 373.103 1779.79 373.057 1779.78 C 368.134 1787.39 357.145 1798.9 350.983 1806.26 L 343.722 1804.63 C 346.313 1800.63 362.89 1780.61 366.537 1777.16 z" fill="rgb(254,254,254)" fill-opacity="0.196078" transform="translate(0,0)"></path>
<path d="M 1074.98 1225.35 L 1074.5 1224.03 C 1074.77 1223.47 1075.26 1222.39 1075.67 1222.05 C 1082.83 1216.08 1110.49 1183.59 1117.14 1182.34 C 1113.38 1187.24 1109.8 1192.27 1105.42 1196.6 C 1101.11 1200.94 1097.15 1203.78 1096.23 1209.61 C 1093.5 1212.93 1088.37 1219.6 1084.61 1220.5 C 1081.44 1222.45 1078.6 1224.53 1074.98 1225.35 z" fill="rgb(254,254,254)" fill-opacity="0.862745" transform="translate(0,0)"></path>
<path d="M 1220.11 1275.85 L 1225.27 1275.57 C 1224.31 1283.97 1210.16 1304.04 1200.9 1305.51 L 1198.43 1304.55 C 1199.59 1296.49 1218.16 1286.11 1218.88 1277.28 L 1220.11 1275.85 z" fill="url(#Gradient5)" transform="translate(0,0)"></path>
<path d="M 227.435 1769.14 C 244.55 1784.83 270.097 1808.22 285.946 1824.29 C 267.441 1813.89 241.069 1784.76 223.579 1771.32 L 227.435 1769.14 z" fill="rgb(254,254,254)" transform="translate(0,0)"></path>
<path d="M 1187.08 1317.48 C 1199.68 1316.39 1196.3 1311.42 1205.07 1310.26 C 1200.81 1314.73 1180.93 1335.1 1175.65 1335.33 L 1176.28 1333.51 C 1176.65 1333.06 1177.76 1331.77 1177.81 1331.32 C 1178.58 1324.88 1182.24 1321.96 1187.08 1317.48 z" fill="rgb(254,254,254)" transform="translate(0,0)"></path>
<path d="M 1104.86 1225.28 C 1113.21 1221.63 1119.82 1208.78 1126.49 1208.14 L 1127.09 1209.08 C 1121.42 1219.17 1112.29 1218.8 1110.1 1229.98 C 1107.24 1233.24 1107.48 1234.02 1103.97 1235.29 L 1102.73 1234.23 C 1102.16 1229.56 1102.73 1230.32 1104.86 1225.28 z" fill="rgb(254,254,254)" fill-opacity="0.0745098" transform="translate(0,0)"></path>
<path d="M 338.907 1817.8 L 339.935 1815.59 L 333.662 1811.92 L 333.361 1810.16 C 336.004 1806.74 339.831 1808.44 343.722 1804.63 L 350.983 1806.26 C 348.781 1809.16 343.065 1817.34 340.448 1818.92 L 338.907 1817.8 z" fill="rgb(254,254,254)" fill-opacity="0.368627" transform="translate(0,0)"></path>
<path d="M 254.238 1765.22 L 263.043 1774.75 L 259.389 1777.27 C 256.641 1775.01 252.791 1772.28 251.039 1769.33 L 251.677 1768.54 C 252.086 1766.06 251.613 1767.27 254.238 1765.22 z" fill="rgb(254,254,254)" fill-opacity="0.282353" transform="translate(0,0)"></path>
<path d="M 189.519 1849.71 C 196.192 1852.17 203.826 1860.14 209.045 1865.22 C 202.35 1863.57 194.573 1854.7 189.519 1849.71 z" fill="rgb(58,101,84)" transform="translate(0,0)"></path>
<path d="M 1096.23 1209.61 C 1097.15 1203.78 1101.11 1200.94 1105.42 1196.6 L 1107.22 1198.79 C 1103.46 1202.73 1100.37 1206 1096.23 1209.61 z" fill="rgb(254,254,254)" fill-opacity="0.639216" transform="translate(0,0)"></path>
<path d="M 263.043 1774.75 C 265.697 1777.33 267.434 1778.41 268.118 1782 C 264.745 1782.91 261.858 1779.5 259.389 1777.27 L 263.043 1774.75 z" fill="rgb(254,254,254)" fill-opacity="0.643137" transform="translate(0,0)"></path>
<path d="M 1513.72 172.377 C 1519.51 165.134 1523.96 156.913 1528.65 148.945 C 1531.65 143.847 1539.85 113.343 1547.68 116.027 C 1551.31 121.069 1552.95 138.707 1550.17 144.239 C 1547.85 144.744 1548.76 144.205 1547.3 145.612 C 1547.65 152.542 1548.38 175.005 1550.05 180.153 C 1564.62 186.967 1559.62 205.631 1549.23 208.219 L 1547.04 211.44 C 1571.52 232.84 1581.4 257.7 1579.08 289.639 C 1584.04 297.083 1586.75 301.645 1590.82 309.601 C 1587.16 328.121 1584.7 335.086 1570.22 347.675 C 1564.96 366.077 1561.92 387.804 1557.6 406.633 C 1555.93 413.891 1554.07 426.025 1551.45 432.621 L 1550.91 434.679 C 1566.42 450.947 1563.23 463.377 1558.73 483.536 L 1559.88 484.212 C 1571.25 490.8 1588.11 498.316 1600.38 504.496 C 1622.98 515.88 1641 526.657 1662.31 540.422 C 1734.4 587.565 1794.84 650.477 1839.05 724.406 C 1862.06 762.851 1871.67 788.07 1884.23 830.353 C 1906.22 904.367 1900.91 966.396 1889.9 1041.34 C 1902.3 1055 1911.63 1063.26 1922.65 1078.82 C 1964.12 1137.42 1927.7 1185.18 1905.53 1241.58 C 1896.89 1263.56 1888.81 1287.15 1879.62 1309.55 C 1897.21 1317.55 1917.77 1326.31 1934.8 1334.96 C 1920.22 1345.65 1906.68 1355.06 1892.64 1366.54 C 1722.43 1287.01 1544.67 1224.77 1362.02 1180.77 C 1333.41 1173.57 1304.67 1166.94 1275.8 1160.87 C 1257.54 1156.96 1235.71 1152.17 1217.27 1150.35 C 1218.66 1123.02 1218.42 1099.41 1203.39 1075.97 C 1210.95 1062.97 1230.12 1021.48 1234.42 1007.16 C 1236.74 1001.46 1239.25 993.453 1241.31 987.482 C 1243.9 979.546 1246.3 971.552 1248.53 963.508 C 1252.46 952.867 1257.59 926.463 1259.38 915.052 C 1260.88 910.351 1261.7 902.802 1262.44 897.724 C 1266.38 898.238 1275.46 899.636 1278.98 899.573 C 1447.59 928.675 1613.77 958.542 1767.51 1038.52 C 1773.69 1041.74 1788.34 1045.5 1789.37 1046.07 L 1786.45 1047.19 C 1787.49 1049.23 1794.61 1052.52 1797.27 1054.04 C 1831.65 1073.71 1861.55 1093.49 1889.44 1121.85 C 1891.86 1125.05 1893.12 1127.1 1896.25 1129.55 C 1898.46 1132.68 1899.22 1134.37 1902.68 1136.03 L 1903.86 1135.31 C 1903.81 1131.27 1902.08 1129.56 1899.76 1125.98 C 1897.28 1119.04 1881.16 1103.64 1875.35 1097.91 L 1872.77 1095.79 C 1858.87 1081.54 1834.73 1063.93 1818.28 1053 L 1816.25 1051.47 C 1812.99 1053.18 1813.71 1054.88 1810.01 1055.82 L 1812.71 1052.29 C 1812.62 1050.94 1812.83 1049.85 1811.88 1049.16 C 1799.9 1040.47 1780.23 1028.79 1767.57 1022.02 C 1722.97 998.16 1675.77 979.5 1628.29 962.866 C 1541.6 932.496 1452.01 911.432 1361.51 896.274 C 1336.62 892.105 1312.11 887.077 1286.97 883.407 C 1279.87 882.035 1272.77 881.23 1265.6 880.323 C 1267.25 871.221 1268.81 856.298 1269.24 847.222 C 1269.83 845.44 1269.71 843.874 1269.79 841.943 C 1270.29 836.213 1270.24 827.47 1271.73 822.353 C 1293.06 826.533 1319.15 830.462 1340.81 833.39 L 1346.06 834.771 C 1351.23 835.625 1367.58 838.675 1371.89 838.587 C 1389.83 842.243 1407.71 846.039 1425.76 849.2 C 1435.45 850.897 1436.4 846.279 1441.28 847.724 C 1441.48 848.81 1441.82 851.864 1443.14 852.176 C 1592.82 887.597 1735.53 935.367 1864.61 1022.18 C 1866.57 1000.96 1870.66 979.143 1872.25 957.591 C 1694.01 827.871 1483.12 768.708 1267.35 738.94 C 1263.94 724.425 1260.93 708.326 1257.66 693.534 C 1276.11 694.855 1307.98 700.756 1326.17 704.138 C 1348.01 631.861 1381.88 510.129 1447.96 467.644 C 1370 456.308 1298.76 525.204 1262.23 586.844 C 1253.9 600.903 1246.65 615.15 1238.44 629.205 C 1236.25 619.817 1230.72 607.633 1227.06 598.263 C 1240.19 574.003 1282.64 527.584 1303.94 509.742 C 1314.48 501.04 1325.64 493.114 1337.33 486.024 C 1342.68 482.779 1353.48 478.668 1356.32 473.579 C 1356.42 469.817 1356.95 471.446 1354.85 468.473 L 1353.98 467.699 C 1307.45 471.87 1240.15 509.558 1202.31 536.524 L 1195.87 523.763 C 1220.47 508.656 1244.84 495.746 1270.65 482.874 C 1272.72 481.843 1275.77 479.987 1276.68 477.869 C 1275.65 476.68 1269.83 476.444 1267.78 476.435 C 1248.64 476.352 1197.67 492.477 1183.35 501.602 C 1179.54 495.479 1177.69 493.438 1172.94 488.083 C 1182.63 482.325 1201.35 476.46 1212.62 473.075 C 1265.71 456.889 1320.71 447.784 1376.19 445.997 C 1377.57 433.875 1378.95 426.601 1384.08 415.562 C 1389.34 411.331 1398.14 407.293 1404.42 403.8 L 1403.25 401.63 C 1403.75 393.402 1407.12 380.057 1408.91 371.738 C 1413.35 351.03 1418.77 330.533 1422.42 309.642 C 1409.65 292.945 1412.74 285.392 1419.28 266.091 C 1426.2 260.852 1433.23 256.117 1441.63 253.731 C 1451.19 223.909 1469.44 210.774 1499.24 203.192 C 1495.75 189.605 1496.2 185.614 1502.69 173.969 C 1506.16 173.319 1510.18 172.866 1513.72 172.377 z M 1454.99 301.719 L 1455.86 301.711 C 1461.36 301.611 1465.76 299.698 1469.85 301.06 C 1471.5 302.996 1471.3 302.978 1471.69 305.546 C 1476.5 304.745 1481.06 304.062 1485.81 302.891 C 1490.21 297.688 1501.67 300.556 1506.23 303.692 C 1511.38 304.798 1513.27 304.984 1517.99 307.379 C 1519.64 309.45 1518.9 308.865 1521.35 310.035 C 1526.12 312.572 1535.91 315.875 1538.86 318.327 C 1536.81 325.954 1535.83 333.536 1534.66 341.335 C 1531.13 353.352 1528.41 373.617 1525.2 386.99 C 1524.22 392.16 1522.31 400.866 1522.16 405.837 C 1528.25 410.336 1527.26 414.86 1538.94 423.274 L 1541.01 423.852 C 1543.89 426.27 1549.13 430.226 1551.45 432.621 C 1554.07 426.025 1555.93 413.891 1557.6 406.633 C 1561.92 387.804 1564.96 366.077 1570.22 347.675 C 1584.7 335.086 1587.16 328.121 1590.82 309.601 C 1586.75 301.645 1584.04 297.083 1579.08 289.639 C 1581.4 257.7 1571.52 232.84 1547.04 211.44 L 1549.23 208.219 C 1559.62 205.631 1564.62 186.967 1550.05 180.153 C 1548.38 175.005 1547.65 152.542 1547.3 145.612 C 1548.76 144.205 1547.85 144.744 1550.17 144.239 C 1552.95 138.707 1551.31 121.069 1547.68 116.027 C 1539.85 113.343 1531.65 143.847 1528.65 148.945 C 1523.96 156.913 1519.51 165.134 1513.72 172.377 C 1510.18 172.866 1506.16 173.319 1502.69 173.969 C 1496.2 185.614 1495.75 189.605 1499.24 203.192 C 1469.44 210.774 1451.19 223.909 1441.63 253.731 C 1433.23 256.117 1426.2 260.852 1419.28 266.091 C 1412.74 285.392 1409.65 292.945 1422.42 309.642 C 1418.77 330.533 1413.35 351.03 1408.91 371.738 C 1407.12 380.057 1403.75 393.402 1403.25 401.63 C 1408.75 400.315 1413.41 400.526 1415.4 394.992 C 1428.71 401.078 1430.72 388.16 1436.31 382.608 C 1437.53 380.652 1442.11 358.583 1443.16 354.728 L 1443.68 349.815 C 1446.46 339.185 1451 308.514 1454.99 301.719 z M 1542.14 373.402 C 1543.02 376.491 1543.07 377.701 1545.43 379.9 C 1545.49 383.394 1545.62 383.272 1544.49 386.528 L 1542.88 387.131 C 1535.94 381.262 1537.75 371.408 1538.49 363.556 C 1540.59 367.621 1540.87 368.918 1542.14 373.402 z M 1457.92 373.915 C 1462.9 382.415 1453.75 389.372 1460.73 394.429 C 1471.23 393.777 1464.93 372.054 1472.41 366.184 L 1473.56 367.704 C 1474.43 363.945 1475.39 362.949 1474.25 360.015 C 1471.77 358.75 1470.73 358.674 1468.03 358.068 C 1463.35 360.614 1462.71 360.051 1460.8 365.275 C 1458.73 369.169 1458.59 369.612 1457.92 373.915 z M 1489.1 396.241 C 1494.42 394.666 1492.68 399.25 1499.62 400.735 C 1501.13 393.777 1501.1 389.132 1506.27 384.717 C 1507.09 383.074 1507.06 380.533 1507.24 378.541 C 1495.24 378.829 1499.13 382.413 1492.06 384.62 L 1491.28 382.266 L 1489.1 396.241 z M 1731.29 1080.85 C 1721.97 1086.23 1714.39 1091.96 1708.13 1100.84 C 1693.39 1121.74 1676.54 1190.19 1667.88 1218.31 C 1675.07 1221.21 1681.36 1223.47 1688.72 1225.95 C 1695.44 1228.26 1702.97 1231.04 1709.71 1233.03 C 1718.67 1195.92 1733.06 1159.73 1739.98 1122.18 C 1741.32 1114.92 1737.71 1082.83 1731.29 1080.85 z M 1516.38 447.276 C 1525.67 450.591 1533.99 455.716 1542.35 460.866 L 1542.86 459.235 C 1542.47 457.452 1542.56 457.355 1542.53 455.512 L 1543.89 454.807 C 1548.63 458.511 1547.88 458.935 1545.95 463.461 C 1547.76 465.722 1546.6 465.165 1549.2 465.66 L 1550.1 464.11 C 1550.31 460.843 1549.89 454.857 1547.98 452.483 C 1538.76 441.004 1519.56 429.577 1506.56 425.278 C 1499.85 427.891 1497.68 425.722 1491.63 427.284 C 1488.42 430.85 1488.36 429.839 1487.64 433.85 L 1489.48 437.41 C 1495.57 439.458 1502.58 441.642 1508.47 444.022 L 1512.51 445.638 L 1516.38 447.276 z M 1558.71 1013.81 C 1522.31 1039.62 1520.52 1070.94 1509.68 1110.99 C 1504.94 1128.53 1499.52 1147.18 1496.2 1164.93 C 1503.5 1166.73 1511.95 1168.61 1519.04 1170.8 C 1526.94 1173.2 1535.31 1175.9 1543.29 1177.91 C 1554.74 1141.49 1565.74 1096.85 1572.37 1058.97 C 1574.15 1048.78 1567.93 1019.64 1558.71 1013.81 z M 1743.35 1249.07 L 1761.59 1255.95 L 1778.22 1262.81 C 1787.95 1234.03 1796.09 1204.57 1804.55 1175.39 C 1809.38 1158.73 1811.35 1141.07 1806.01 1124.25 C 1805.38 1122.26 1804.29 1120.54 1802.34 1119.84 C 1795.41 1123.87 1783.63 1133.22 1780.18 1140.03 C 1764.52 1170.95 1753.81 1215.83 1743.35 1249.07 z M 1322.89 951.912 C 1287.49 983.915 1284.46 1007.15 1274.87 1053.11 C 1271.09 1071.23 1267.21 1090.28 1264.04 1108.6 L 1287.59 1112.93 L 1317.23 1119.56 C 1321.33 1098.34 1325.68 1077.17 1330.31 1056.06 C 1338.92 1016.21 1347.96 990.494 1323.69 952.94 C 1323.2 952.182 1323.29 952.322 1322.89 951.912 z M 1480.94 741.502 C 1505.91 748.104 1535.74 758.86 1560.56 767.359 L 1574.57 771.519 C 1577.69 754.095 1579.07 727.735 1580.01 709.45 C 1583.54 640.703 1577.06 567.201 1537.19 508.751 C 1516.78 478.825 1512.17 485.002 1485.87 473.687 C 1518.31 532.55 1503.55 632.858 1491.52 696.664 C 1488.71 711.557 1483.4 727.309 1480.94 741.502 z M 1651.14 1046.7 C 1634.15 1056.84 1615.67 1082.26 1611.01 1101.35 C 1603.86 1130.71 1594.41 1159.74 1586.71 1188.83 C 1586.54 1189.5 1586.37 1190.17 1586.22 1190.85 C 1593.34 1193.16 1599.76 1195.29 1606.73 1198 C 1614.73 1200.99 1623.87 1204.65 1631.89 1207.27 C 1639.19 1183.6 1646 1159.78 1652.34 1135.84 C 1656.57 1120.09 1661.74 1103.6 1662.71 1087.29 C 1663.22 1078.82 1658.19 1050.3 1651.14 1046.7 z M 1808.01 1276.62 C 1812.71 1278.62 1817.6 1280.78 1822.32 1282.68 L 1839.46 1291.32 L 1858.53 1228.1 C 1866.03 1202.37 1872.79 1185.5 1864.71 1158.94 L 1863.2 1157.9 C 1840.15 1169.59 1836.24 1190.01 1828.8 1212.76 L 1808.01 1276.62 z M 1456.83 983.131 C 1435.6 994.291 1421.59 1016.22 1414.86 1038.62 C 1405.47 1069.91 1399.59 1104.15 1390.85 1135.4 L 1414.25 1141.73 C 1424.38 1144.47 1434.49 1147.31 1444.57 1150.24 C 1451.82 1123.16 1458.41 1095.91 1464.35 1068.51 C 1470.21 1042.06 1476.57 1021.92 1464.65 996.07 C 1462.58 991.583 1460.52 986.523 1456.83 983.131 z M 1711.84 612.448 C 1772.31 696.135 1800.07 774.183 1800.12 878.507 C 1816.03 887.738 1831.02 897.786 1846.21 908.145 C 1848.72 888.564 1843.43 840.821 1838.83 822.264 C 1818.9 741.924 1773.27 665.87 1713.36 608.951 C 1708.07 603.109 1707.17 601.988 1700.24 597.893 C 1703.94 602.873 1707.81 607.727 1711.84 612.448 z M 1395.79 431.312 C 1399.01 428.504 1408.93 422.673 1410.1 420.374 L 1408.39 419.039 C 1403 420.435 1394.57 424.875 1393.06 430.589 L 1394.08 431.78 L 1395.79 431.312 z M 1615.59 538.671 L 1616.67 540.266 C 1622.06 548.091 1630.23 556.721 1636.26 564.644 C 1696.08 643.246 1710.53 730.526 1706.42 828.044 C 1728.99 840.39 1760.81 855.106 1781.81 867.647 C 1784.7 767.559 1744.6 664.097 1676.68 590.243 C 1667.49 580.241 1626.59 539.486 1615.59 538.671 z M 1401.02 718.81 C 1420.82 722.997 1437.35 727.547 1456.74 733.412 C 1474.93 688.274 1487.1 581.548 1485.64 531.495 C 1485.1 513.064 1481.09 489.699 1476.95 471.694 C 1472.03 471.051 1462.54 469.543 1458.05 469.801 C 1406.7 505.582 1367.39 648.425 1355.6 708.405 L 1401.02 718.81 z M 1544.36 498.811 C 1546.7 504.312 1554.95 514.159 1558.79 519.555 C 1565.89 529.426 1572.09 539.909 1577.32 550.879 C 1612.22 624.586 1606.4 703.541 1601.82 782.53 C 1626.04 793.316 1655.56 804.837 1680.55 815.337 C 1684.83 788.213 1683.54 772.434 1682.16 746.313 C 1678.92 682.064 1658.43 618.171 1620.43 565.926 C 1603.66 542.855 1582.24 517.831 1556.8 504.285 C 1553.36 502.455 1548.13 499.049 1544.36 498.811 z" fill="rgb(11,62,42)" transform="translate(0,0)"></path>
<path d="M 1485.81 302.891 C 1490.21 297.688 1501.67 300.556 1506.23 303.692 C 1501.94 328.515 1496.98 357.773 1491.28 382.266 L 1489.1 396.241 C 1486.92 398.416 1472.57 395.175 1468.86 394.598 C 1470.64 387.233 1472.25 375.471 1473.56 367.704 C 1474.43 363.945 1475.39 362.949 1474.25 360.015 C 1471.77 358.75 1470.73 358.674 1468.03 358.068 C 1469.97 357.542 1471.93 357.885 1474.03 358.002 C 1477.62 354.179 1487.66 307.567 1485.81 302.891 z" fill="rgb(11,62,42)" transform="translate(0,0)"></path>
<path d="M 1454.99 301.719 L 1455.86 301.711 C 1461.36 301.611 1465.76 299.698 1469.85 301.06 C 1471.5 302.996 1471.3 302.978 1471.69 305.546 C 1468.47 315.238 1461.97 354.565 1460.8 365.275 C 1458.73 369.169 1458.59 369.612 1457.92 373.915 C 1456.49 380.909 1455.26 386.725 1454.49 393.833 C 1449.58 393.557 1439.92 394.114 1436.26 392.153 C 1434.44 389.19 1434.9 388.583 1435.86 384.51 L 1436.31 382.608 C 1437.53 380.652 1442.11 358.583 1443.16 354.728 L 1443.68 349.815 C 1446.46 339.185 1451 308.514 1454.99 301.719 z" fill="rgb(11,62,42)" transform="translate(0,0)"></path>
<path d="M 1507.24 378.541 C 1510.67 364.772 1520.28 322.415 1521.35 310.035 C 1526.12 312.572 1535.91 315.875 1538.86 318.327 C 1536.81 325.954 1535.83 333.536 1534.66 341.335 C 1531.13 353.352 1528.41 373.617 1525.2 386.99 C 1524.22 392.16 1522.31 400.866 1522.16 405.837 L 1521.44 408.086 C 1518.14 408.426 1507.57 404.231 1503.63 402.853 C 1504.68 397.317 1505.48 390.407 1506.27 384.717 C 1507.09 383.074 1507.06 380.533 1507.24 378.541 z" fill="rgb(11,62,42)" transform="translate(0,0)"></path>
<path d="M 1458.14 287.527 C 1477.87 284.143 1491.37 284.89 1511.04 289.997 C 1507.3 297.071 1515.2 300.173 1517.99 307.379 C 1513.27 304.984 1511.38 304.798 1506.23 303.692 C 1501.67 300.556 1490.21 297.688 1485.81 302.891 C 1481.06 304.062 1476.5 304.745 1471.69 305.546 C 1471.3 302.978 1471.5 302.996 1469.85 301.06 C 1465.76 299.698 1461.36 301.611 1455.86 301.711 L 1454.99 301.719 C 1458.42 295.489 1459.99 294.125 1458.14 287.527 z" fill="url(#Gradient4)" transform="translate(0,0)"></path>
<path d="M 1534.66 341.335 L 1535.29 342.216 C 1539.66 337.966 1543.24 327.71 1548.22 327.706 L 1548.76 329.684 L 1546.78 330.721 C 1546.56 337.8 1544.95 350.914 1548.84 355.378 C 1552.34 356.527 1551.52 355.484 1552.8 357.759 C 1549.07 362.196 1548.3 364.179 1545.88 369.27 L 1548.33 378.06 L 1549.65 377.988 L 1548.22 386.392 L 1545.43 379.9 C 1543.07 377.701 1543.02 376.491 1542.14 373.402 C 1541.7 365.961 1542.36 364.17 1538.11 358.123 L 1538.16 358.087 L 1538.42 359.353 L 1535.94 359.711 C 1528.8 369.302 1542.42 392.005 1539.03 401.957 L 1537.38 402.217 C 1533.88 399.642 1526.21 390.898 1525.2 386.99 C 1528.41 373.617 1531.13 353.352 1534.66 341.335 z" fill="url(#Gradient3)" transform="translate(0,0)"></path>
<path d="M 1525.2 386.99 C 1526.21 390.898 1533.88 399.642 1537.38 402.217 L 1539.03 401.957 C 1542.42 392.005 1528.8 369.302 1535.94 359.711 L 1538.42 359.353 L 1538.16 358.087 L 1538.11 358.123 C 1542.36 364.17 1541.7 365.961 1542.14 373.402 C 1540.87 368.918 1540.59 367.621 1538.49 363.556 C 1537.75 371.408 1535.94 381.262 1542.88 387.131 L 1544.49 386.528 C 1545.62 383.272 1545.49 383.394 1545.43 379.9 L 1548.22 386.392 C 1545.63 398.868 1542.91 411.248 1541.01 423.852 L 1538.94 423.274 C 1527.26 414.86 1528.25 410.336 1522.16 405.837 C 1522.31 400.866 1524.22 392.16 1525.2 386.99 z" fill="rgb(254,254,254)" fill-opacity="0.454902" transform="translate(0,0)"></path>
<path d="M 1415.4 394.992 C 1416.33 383.474 1422.4 364.006 1424.09 351.311 C 1428.96 359.077 1423.33 359.9 1431.05 368.782 L 1433.1 369.287 C 1439.98 364.5 1433.65 359.771 1443.16 354.728 C 1442.11 358.583 1437.53 380.652 1436.31 382.608 C 1430.72 388.16 1428.71 401.078 1415.4 394.992 z" fill="rgb(254,254,254)" fill-opacity="0.545098" transform="translate(0,0)"></path>
<path d="M 1511.04 289.997 C 1524.76 294.667 1536.7 300.636 1546.19 311.963 L 1544.96 313.296 C 1543.1 315.354 1542.36 316.736 1541.01 319.12 C 1539.23 319.011 1539.9 319.375 1538.86 318.327 C 1535.91 315.875 1526.12 312.572 1521.35 310.035 C 1518.9 308.865 1519.64 309.45 1517.99 307.379 C 1515.2 300.173 1507.3 297.071 1511.04 289.997 z" fill="rgb(254,254,254)" fill-opacity="0.815686" transform="translate(0,0)"></path>
<path d="M 1538.86 318.327 C 1539.9 319.375 1539.23 319.011 1541.01 319.12 C 1542.36 316.736 1543.1 315.354 1544.96 313.296 L 1546.19 311.963 C 1552.3 318.377 1555.24 322.466 1560.39 329.796 L 1557.66 339.968 L 1556.82 340.373 C 1552.41 336.789 1550.9 334.808 1548.76 329.684 L 1548.22 327.706 C 1543.24 327.71 1539.66 337.966 1535.29 342.216 L 1534.66 341.335 C 1535.83 333.536 1536.81 325.954 1538.86 318.327 z" fill="rgb(254,254,254)" fill-opacity="0.0470588" transform="translate(0,0)"></path>
<path d="M 1468.03 358.068 C 1470.73 358.674 1471.77 358.75 1474.25 360.015 C 1475.39 362.949 1474.43 363.945 1473.56 367.704 L 1472.41 366.184 C 1464.93 372.054 1471.23 393.777 1460.73 394.429 C 1453.75 389.372 1462.9 382.415 1457.92 373.915 C 1458.59 369.612 1458.73 369.169 1460.8 365.275 C 1462.71 360.051 1463.35 360.614 1468.03 358.068 z" fill="rgb(254,254,254)" fill-opacity="0.815686" transform="translate(0,0)"></path>
<path d="M 1425.51 347.281 L 1426.55 348.71 L 1427.98 347.446 C 1431.18 346.928 1434.93 346.447 1437.96 345.508 C 1439.22 346.556 1442.42 349.577 1443.68 349.815 L 1443.16 354.728 C 1433.65 359.771 1439.98 364.5 1433.1 369.287 L 1431.05 368.782 C 1423.33 359.9 1428.96 359.077 1424.09 351.311 L 1425.51 347.281 z" fill="rgb(254,254,254)" fill-opacity="0.321569" transform="translate(0,0)"></path>
<path d="M 1491.28 382.266 L 1492.06 384.62 C 1499.13 382.413 1495.24 378.829 1507.24 378.541 C 1507.06 380.533 1507.09 383.074 1506.27 384.717 C 1501.1 389.132 1501.13 393.777 1499.62 400.735 C 1492.68 399.25 1494.42 394.666 1489.1 396.241 L 1491.28 382.266 z" fill="rgb(254,254,254)" fill-opacity="0.537255" transform="translate(0,0)"></path>
<path d="M 1552.8 357.759 C 1551.52 355.484 1552.34 356.527 1548.84 355.378 C 1544.95 350.914 1546.56 337.8 1546.78 330.721 L 1548.76 329.684 C 1550.9 334.808 1552.41 336.789 1556.82 340.373 L 1557.66 339.968 C 1556.56 348.42 1554.95 355.831 1553.19 364.137 L 1552.8 357.759 z" fill="rgb(254,254,254)" fill-opacity="0.4" transform="translate(0,0)"></path>
<path d="M 1552.8 357.759 L 1553.19 364.137 L 1549.65 377.988 L 1548.33 378.06 L 1545.88 369.27 C 1548.3 364.179 1549.07 362.196 1552.8 357.759 z" fill="rgb(254,254,254)" fill-opacity="0.0627451" transform="translate(0,0)"></path>
<path d="M 1513.72 172.377 C 1519.51 165.134 1523.96 156.913 1528.65 148.945 C 1531.65 143.847 1539.85 113.343 1547.68 116.027 C 1551.31 121.069 1552.95 138.707 1550.17 144.239 C 1547.85 144.744 1548.76 144.205 1547.3 145.612 C 1547.65 152.542 1548.38 175.005 1550.05 180.153 C 1564.62 186.967 1559.62 205.631 1549.23 208.219 L 1547.04 211.44 C 1571.52 232.84 1581.4 257.7 1579.08 289.639 C 1584.04 297.083 1586.75 301.645 1590.82 309.601 C 1587.16 328.121 1584.7 335.086 1570.22 347.675 C 1564.96 366.077 1561.92 387.804 1557.6 406.633 C 1555.93 413.891 1554.07 426.025 1551.45 432.621 C 1549.13 430.226 1543.89 426.27 1541.01 423.852 C 1542.91 411.248 1545.63 398.868 1548.22 386.392 L 1549.65 377.988 L 1553.19 364.137 C 1554.95 355.831 1556.56 348.42 1557.66 339.968 L 1560.39 329.796 C 1555.24 322.466 1552.3 318.377 1546.19 311.963 C 1536.7 300.636 1524.76 294.667 1511.04 289.997 C 1491.37 284.89 1477.87 284.143 1458.14 287.527 C 1450.11 289.324 1445.84 289.928 1438.93 294.68 C 1433.24 312.652 1429.5 328.852 1425.51 347.281 L 1424.09 351.311 C 1422.4 364.006 1416.33 383.474 1415.4 394.992 C 1413.41 400.526 1408.75 400.315 1403.25 401.63 C 1403.75 393.402 1407.12 380.057 1408.91 371.738 C 1413.35 351.03 1418.77 330.533 1422.42 309.642 C 1409.65 292.945 1412.74 285.392 1419.28 266.091 C 1426.2 260.852 1433.23 256.117 1441.63 253.731 C 1451.19 223.909 1469.44 210.774 1499.24 203.192 C 1495.75 189.605 1496.2 185.614 1502.69 173.969 C 1506.16 173.319 1510.18 172.866 1513.72 172.377 z M 1557.69 297.744 C 1565.67 307.186 1570.98 307.744 1577.51 321.098 L 1582.07 310.14 C 1578.11 302.332 1567.84 283.395 1558.64 281.986 L 1560.2 280.644 C 1558.96 277.847 1556.36 276.476 1553.79 274.601 C 1550.21 274.564 1543.67 269.632 1539.89 267.53 C 1531.94 263.119 1504.85 265.784 1505.95 253.538 C 1491.52 250.493 1474.75 251.691 1460.56 255.481 C 1456.27 256.503 1448.87 258.131 1445.24 260.317 C 1434.35 264.252 1423.72 265.682 1424.92 279.499 C 1428.94 284.972 1437.94 277.262 1444.74 275.354 C 1447.26 274.893 1450.21 274.151 1452.75 273.579 C 1482.22 268.954 1510.6 272.042 1537.86 284.65 C 1541.07 286.923 1554.57 296.416 1557.69 297.744 z" fill="rgb(11,62,42)" transform="translate(0,0)"></path>
<path d="M 1501.94 202.719 C 1518.03 199.051 1534.57 200.001 1549.23 208.219 L 1547.04 211.44 C 1545.52 210.884 1541.12 207.65 1537.7 206.312 C 1526.14 201.792 1514.14 202.634 1501.94 202.719 z" fill="rgb(149,173,163)" transform="translate(0,0)"></path>
<path d="M 1460.56 255.481 C 1474.75 251.691 1491.52 250.493 1505.95 253.538 C 1504.85 265.784 1531.94 263.119 1539.89 267.53 C 1543.67 269.632 1550.21 274.564 1553.79 274.601 C 1556.36 276.476 1558.96 277.847 1560.2 280.644 L 1558.64 281.986 C 1554.76 282.847 1556.29 281.892 1553.79 284.765 C 1553.42 288.882 1556.07 293.407 1557.69 297.744 C 1554.57 296.416 1541.07 286.923 1537.86 284.65 C 1537.28 283.288 1536 280.764 1534.7 280.208 C 1523.94 275.632 1517.12 273.777 1506.97 267.724 C 1487.28 270.954 1481.51 263.819 1459.65 267.317 C 1466.09 263.792 1480.28 263.623 1482.75 259.526 C 1476.78 254.051 1466.79 261.308 1460.56 255.481 z" fill="url(#Gradient2)" transform="translate(0,0)"></path>
<path d="M 1459.65 267.317 C 1481.51 263.819 1487.28 270.954 1506.97 267.724 C 1517.12 273.777 1523.94 275.632 1534.7 280.208 C 1536 280.764 1537.28 283.288 1537.86 284.65 C 1510.6 272.042 1482.22 268.954 1452.75 273.579 C 1452.07 273.375 1450.4 272.454 1449.7 272.092 L 1449.66 270.84 C 1452.94 268.433 1455.56 268.254 1459.65 267.317 z" fill="rgb(254,254,254)" fill-opacity="0.988235" transform="translate(0,0)"></path>
<path d="M 1445.24 260.317 C 1448.87 258.131 1456.27 256.503 1460.56 255.481 C 1466.79 261.308 1476.78 254.051 1482.75 259.526 C 1480.28 263.623 1466.09 263.792 1459.65 267.317 C 1455.56 268.254 1452.94 268.433 1449.66 270.84 L 1449.7 272.092 C 1450.4 272.454 1452.07 273.375 1452.75 273.579 C 1450.21 274.151 1447.26 274.893 1444.74 275.354 C 1446.32 271.543 1448.1 270.351 1450.16 266.296 C 1449.35 262.654 1448.92 263.365 1445.24 260.317 z" fill="rgb(254,254,254)" fill-opacity="0.647059" transform="translate(0,0)"></path>
<path d="M 1505.95 253.538 C 1521.38 256.006 1542.39 263.501 1553.79 274.601 C 1550.21 274.564 1543.67 269.632 1539.89 267.53 C 1531.94 263.119 1504.85 265.784 1505.95 253.538 z" fill="rgb(254,254,254)" transform="translate(0,0)"></path>
<path d="M 1457.92 373.915 C 1462.9 382.415 1453.75 389.372 1460.73 394.429 C 1471.23 393.777 1464.93 372.054 1472.41 366.184 L 1473.56 367.704 C 1472.25 375.471 1470.64 387.233 1468.86 394.598 C 1472.57 395.175 1486.92 398.416 1489.1 396.241 C 1494.42 394.666 1492.68 399.25 1499.62 400.735 C 1501.13 393.777 1501.1 389.132 1506.27 384.717 C 1505.48 390.407 1504.68 397.317 1503.63 402.853 C 1507.57 404.231 1518.14 408.426 1521.44 408.086 L 1522.16 405.837 C 1528.25 410.336 1527.26 414.86 1538.94 423.274 L 1537.08 424.86 C 1504.9 406.084 1464.27 397.237 1426.8 399.167 C 1421.33 399.449 1411.64 402.939 1405.77 403.649 L 1404.42 403.8 L 1403.25 401.63 C 1408.75 400.315 1413.41 400.526 1415.4 394.992 C 1428.71 401.078 1430.72 388.16 1436.31 382.608 L 1435.86 384.51 C 1434.9 388.583 1434.44 389.19 1436.26 392.153 C 1439.92 394.114 1449.58 393.557 1454.49 393.833 C 1455.26 386.725 1456.49 380.909 1457.92 373.915 z" fill="rgb(254,254,254)" transform="translate(0,0)"></path>
<path d="M 1353.98 467.699 C 1366.24 464.482 1377.99 463.589 1390.66 464.182 C 1385.26 465.578 1360.48 474.246 1357.69 474.315 C 1358.15 471.644 1357.9 472.859 1360.57 470.339 C 1358.03 469.194 1357.59 469.113 1354.85 468.473 L 1353.98 467.699 z" fill="rgb(254,254,254)" transform="translate(0,0)"></path>
<path d="M 1541.01 423.852 C 1543.89 426.27 1549.13 430.226 1551.45 432.621 L 1550.91 434.679 C 1546.54 431.862 1541.39 427.964 1537.08 424.86 L 1538.94 423.274 L 1541.01 423.852 z" fill="rgb(254,254,254)" transform="translate(0,0)"></path>
<path d="M 1387.38 436.038 C 1395.3 413.1 1417.33 412.742 1438.24 412.49 C 1460.86 412.217 1485.89 415.61 1506.56 425.278 C 1499.85 427.891 1497.68 425.722 1491.63 427.284 C 1488.42 430.85 1488.36 429.839 1487.64 433.85 L 1489.48 437.41 C 1457.36 426.969 1420 429.202 1387.38 436.038 z M 1395.79 431.312 C 1399.01 428.504 1408.93 422.673 1410.1 420.374 L 1408.39 419.039 C 1403 420.435 1394.57 424.875 1393.06 430.589 L 1394.08 431.78 L 1395.79 431.312 z" fill="rgb(254,254,254)" transform="translate(0,0)"></path>
<path d="M 1408.39 419.039 L 1410.1 420.374 C 1408.93 422.673 1399.01 428.504 1395.79 431.312 L 1394.08 431.78 L 1393.06 430.589 C 1394.57 424.875 1403 420.435 1408.39 419.039 z" fill="rgb(254,254,254)" fill-opacity="0.533333" transform="translate(0,0)"></path>
<path d="M 1506.56 425.278 C 1519.56 429.577 1538.76 441.004 1547.98 452.483 C 1549.89 454.857 1550.31 460.843 1550.1 464.11 L 1549.2 465.66 C 1546.6 465.165 1547.76 465.722 1545.95 463.461 C 1547.88 458.935 1548.63 458.511 1543.89 454.807 L 1542.53 455.512 C 1542.56 457.355 1542.47 457.452 1542.86 459.235 L 1542.35 460.866 C 1533.99 455.716 1525.67 450.591 1516.38 447.276 C 1520.07 444.76 1521.8 443.889 1522.99 439.74 C 1521.22 433.611 1514.91 433.49 1507.83 429.077 L 1506.94 428.511 C 1500.8 428.553 1497.7 428.794 1491.63 427.284 C 1497.68 425.722 1499.85 427.891 1506.56 425.278 z" fill="rgb(254,254,254)" fill-opacity="0.972549" transform="translate(0,0)"></path>
<path d="M 1489.48 437.41 L 1487.64 433.85 C 1488.36 429.839 1488.42 430.85 1491.63 427.284 C 1497.7 428.794 1500.8 428.553 1506.94 428.511 L 1507.83 429.077 C 1514.91 433.49 1521.22 433.611 1522.99 439.74 C 1521.8 443.889 1520.07 444.76 1516.38 447.276 L 1512.51 445.638 C 1516.66 444.877 1517.27 444.685 1519.94 441.601 C 1520.59 438.257 1520.94 439.675 1519.42 437.11 L 1516.8 436.649 C 1513.17 437.932 1511.06 441.052 1508.47 444.022 C 1502.58 441.642 1495.57 439.458 1489.48 437.41 z" fill="rgb(254,254,254)" fill-opacity="0.858824" transform="translate(0,0)"></path>
<path d="M 1321.53 465.593 L 1322.64 465.434 L 1322.91 466.138 C 1314.69 468.49 1286.73 477.553 1280.7 478.594 L 1280.58 476.703 L 1279.08 475.889 C 1275.91 476.133 1272.6 476.376 1269.71 475.007 C 1277.24 471.533 1312.44 466.503 1321.53 465.593 z" fill="rgb(254,254,254)" transform="translate(0,0)"></path>
<path d="M 1508.47 444.022 C 1511.06 441.052 1513.17 437.932 1516.8 436.649 L 1519.42 437.11 C 1520.94 439.675 1520.59 438.257 1519.94 441.601 C 1517.27 444.685 1516.66 444.877 1512.51 445.638 L 1508.47 444.022 z" fill="rgb(254,254,254)" fill-opacity="0.662745" transform="translate(0,0)"></path>
<path d="M 1700.24 597.893 C 1707.17 601.988 1708.07 603.109 1713.36 608.951 L 1711.84 612.448 C 1707.81 607.727 1703.94 602.873 1700.24 597.893 z" fill="rgb(254,254,254)" fill-opacity="0.0784314" transform="translate(0,0)"></path>
<path d="M 1299.93 1191.53 C 1307.57 1194.49 1323.69 1197.57 1332.02 1199.41 C 1346.59 1202.63 1361.12 1206.04 1375.6 1209.63 C 1410.8 1218.24 1446.14 1229.23 1481.06 1239.35 C 1614.06 1277.92 1744.09 1326.09 1870.12 1383.49 C 1844.39 1404.18 1818.46 1424.64 1792.35 1444.85 C 1770.27 1461.3 1748.27 1478.88 1727.76 1497.23 C 1717.82 1506.13 1708.15 1515.12 1697.86 1523.63 C 1680.99 1511.73 1663.39 1496.7 1646.79 1483.91 C 1609.68 1455.06 1572.02 1426.92 1533.82 1399.52 C 1498.28 1374.27 1461.04 1350.02 1424.8 1325.75 C 1412.24 1317.33 1398.56 1310.13 1386.11 1301.51 C 1379.71 1297.08 1376.15 1288.76 1371.17 1282.26 C 1355.24 1261.5 1342.45 1251.35 1319.73 1239.7 C 1315.46 1219.02 1312.89 1208.79 1299.93 1191.53 z" fill="rgb(11,62,42)" transform="translate(0,0)"></path>
<path d="M 1232.32 842.378 C 1233.72 840.548 1235.88 836.969 1236.09 834.656 C 1237.42 820.017 1239.14 806.413 1241.86 791.968 L 1242.03 796.02 C 1243.21 791.676 1244.13 781.101 1244.76 776.076 L 1245.78 775.578 L 1246.4 778.659 C 1248.57 781.171 1247.18 780.337 1250.99 780.691 C 1257.27 770.443 1257.2 765.218 1270.81 767.423 C 1270.77 773.383 1269.96 798.893 1272.08 802.782 L 1274.05 803.511 C 1273.8 807.445 1271.68 817.864 1270.67 821.956 L 1271.73 822.353 C 1270.24 827.47 1270.29 836.213 1269.79 841.943 C 1266.43 840.718 1267.74 841.769 1265.88 838.516 C 1265.71 834.38 1266.82 829.222 1265.53 827.206 C 1263.89 830.944 1266.05 841.414 1264.64 846.467 C 1264.16 844.28 1264.11 843.706 1263.88 841.506 L 1262.9 841.591 C 1261.9 844.205 1261.92 844.494 1260.52 846.888 C 1259.93 844.384 1259.41 842.227 1258.7 839.742 L 1257.51 840.164 C 1253.1 851.375 1255.05 867.961 1253.38 880.001 C 1252.58 885.754 1257.56 890.403 1255.78 895.788 C 1251.71 899.379 1247.53 900.362 1247.68 905.657 C 1247.82 910.333 1250.25 914.872 1252.4 918.768 L 1254.05 919.777 C 1256.9 919.002 1257.58 917.465 1259.38 915.052 C 1257.59 926.463 1252.46 952.867 1248.53 963.508 C 1239.96 970.601 1246.36 973.023 1239.09 976.264 C 1237.34 977.042 1237.13 977.642 1236.26 979.282 C 1236.04 982.5 1235.77 980.996 1237.15 983.954 L 1239.84 983.74 L 1240.3 984.347 C 1237.15 991.302 1234.04 989.304 1234.49 997.471 C 1234.72 1001.76 1232.45 1004.1 1228.24 1005.11 C 1223.99 1002.09 1226.16 993.681 1226.22 988.459 L 1224.98 988.029 C 1221.91 991.673 1223.12 994.173 1220.43 999.102 L 1219.51 1000.8 C 1219.29 1001.21 1219.06 1001.61 1218.83 1002.01 L 1217.77 996.95 C 1212.37 995.667 1208.96 1005.04 1207.38 1009.33 C 1204.64 1008.87 1204.74 1009 1202.4 1007.56 C 1203.82 1006.32 1204.75 1005.58 1205.38 1003.71 C 1209.93 990.14 1226.99 977.94 1207.22 967.231 L 1212.03 950.875 C 1213.7 953.607 1213.87 953.46 1216.54 955.366 C 1221.84 954.658 1225.83 945.549 1231.14 939.207 C 1232.22 931.05 1235.1 911.817 1226.29 906.869 C 1224.48 905.856 1224.48 905.883 1223.34 904.294 C 1224.84 895.932 1226.07 887.298 1227.82 879.017 C 1230.11 875.831 1228.66 875.574 1231.98 873.491 L 1233.57 874.968 C 1234.14 878.566 1236.94 889.706 1236.13 891.783 C 1236.96 895.574 1237.33 895.57 1239.85 898.411 L 1241.2 898.295 C 1246.21 891.209 1233.96 872.444 1238.86 852.781 L 1239.25 851.253 C 1238.34 851.294 1237.44 851.335 1236.54 851.376 C 1236.5 846.682 1236.83 846.221 1232.95 844.264 L 1232.32 842.378 z M 1248.45 956.487 C 1249.53 952.346 1250.07 951.447 1249.3 947.397 C 1247.32 944.356 1245.92 943.896 1242.36 943.225 C 1241.63 947.882 1241.47 948.244 1242.3 952.784 C 1244.92 956.286 1243.85 956.212 1248.45 956.487 z" fill="url(#Gradient1)" transform="translate(0,0)"></path>
<path d="M 1242.36 943.225 C 1245.92 943.896 1247.32 944.356 1249.3 947.397 C 1250.07 951.447 1249.53 952.346 1248.45 956.487 C 1243.85 956.212 1244.92 956.286 1242.3 952.784 C 1241.47 948.244 1241.63 947.882 1242.36 943.225 z" fill="rgb(254,254,254)" fill-opacity="0.427451" transform="translate(0,0)"></path>
<path d="M 1383.24 782.398 C 1405.15 785.132 1432.07 791.442 1453.92 796.685 C 1451.63 807.467 1448.57 839.759 1436.17 840.292 C 1433.02 837.377 1435.34 832.82 1432.6 832.17 C 1416.42 828.343 1394.53 824.115 1378.73 821.418 L 1375.01 820.409 L 1374.69 819.167 L 1383.24 782.398 z" fill="rgb(11,62,42)" transform="translate(0,0)"></path>
<path d="M 1270.42 765.298 C 1282.59 765.241 1324.06 771.519 1336.75 774.408 C 1334.69 785.764 1331.37 801.562 1330.11 812.689 L 1325.57 811.192 C 1311.67 809.951 1288.86 805.641 1274.05 803.511 L 1272.08 802.782 C 1269.96 798.893 1270.77 773.383 1270.81 767.423 L 1270.42 765.298 z" fill="rgb(11,62,42)" transform="translate(0,0)"></path>
<path d="M 1498.54 810.993 C 1519.28 816.376 1540.68 822.847 1561.32 828.798 C 1560.89 837.48 1560.04 851.855 1558.42 860.285 L 1556.72 860.532 C 1535.15 854.595 1513.5 849.015 1491.75 843.795 C 1493.5 832.101 1495.8 822.419 1498.54 810.993 z" fill="rgb(11,62,42)" transform="translate(0,0)"></path>
<path d="M 1605.92 844.826 C 1627.18 851.274 1653.37 860.267 1673.33 869.765 C 1672.82 878.608 1670.83 889.728 1669.37 898.474 C 1650.84 890.321 1622.46 880.622 1602.94 873.428 C 1602.8 863.014 1604.18 855.073 1605.92 844.826 z" fill="rgb(11,62,42)" transform="translate(0,0)"></path>
<path d="M 1711.78 886.457 C 1726.3 892.731 1758.62 910.121 1771.34 918.336 C 1771 924.682 1769.16 937.41 1767.84 943.515 C 1752.51 937.843 1726 923.77 1708.95 916.299 C 1709.7 905.972 1710.42 896.764 1711.78 886.457 z" fill="rgb(11,62,42)" transform="translate(0,0)"></path>
<path d="M 1801.84 936.249 C 1812.41 940.241 1835.7 956.916 1845.68 963.935 C 1844.25 971.498 1842.65 978.159 1840.78 985.635 C 1838.65 985.716 1804.97 964.499 1799.33 961.189 C 1799.59 953.229 1800.88 944.242 1801.84 936.249 z" fill="rgb(11,62,42)" transform="translate(0,0)"></path>
<path d="M 1182.31 1035.18 C 1188.44 1053.75 1157.4 1070.01 1167.26 1079.09 L 1169.76 1078.8 C 1177.4 1073.46 1179.24 1059.82 1184.43 1052.42 C 1193.44 1039.6 1205.23 1028.03 1209.13 1012.26 C 1210.16 1008.08 1211.78 1003.41 1216.22 1002.43 C 1212.65 1007.45 1206.19 1027.73 1202.26 1035.2 C 1195.07 1048.89 1182.93 1066.27 1176.52 1079.79 C 1172.42 1082.37 1169.14 1085.12 1164.47 1085.49 C 1159.4 1083.46 1159.01 1078.12 1159.72 1073.1 C 1167.5 1059.78 1173.69 1048.37 1180.77 1034.7 L 1182.31 1035.18 z" fill="rgb(254,254,254)" fill-opacity="0.180392" transform="translate(0,0)"></path>
<path d="M 1259.38 915.052 C 1257.58 917.465 1256.9 919.002 1254.05 919.777 L 1252.4 918.768 C 1250.25 914.872 1247.82 910.333 1247.68 905.657 C 1247.53 900.362 1251.71 899.379 1255.78 895.788 C 1257.56 890.403 1252.58 885.754 1253.38 880.001 C 1255.05 867.961 1253.1 851.375 1257.51 840.164 L 1258.7 839.742 C 1259.41 842.227 1259.93 844.384 1260.52 846.888 C 1261.92 844.494 1261.9 844.205 1262.9 841.591 L 1263.88 841.506 C 1264.11 843.706 1264.16 844.28 1264.64 846.467 C 1266.05 841.414 1263.89 830.944 1265.53 827.206 C 1266.82 829.222 1265.71 834.38 1265.88 838.516 C 1267.74 841.769 1266.43 840.718 1269.79 841.943 C 1269.71 843.874 1269.83 845.44 1269.24 847.222 C 1267.65 849.168 1267.88 849.196 1267.69 851.762 C 1265.76 851.497 1265.41 851.431 1263.6 850.993 C 1256.84 857.675 1267.11 870.926 1259.98 882.295 C 1259.49 888.622 1263.84 888.635 1262.44 897.724 C 1261.7 902.802 1260.88 910.351 1259.38 915.052 z" fill="rgb(254,254,254)" fill-opacity="0.478431" transform="translate(0,0)"></path>
<path d="M 1789.37 1046.07 C 1796.04 1052.43 1801.22 1049.66 1808.56 1056.29 C 1808.27 1056 1822.96 1065.76 1822.53 1065.65 C 1825.53 1064.28 1824.56 1065.36 1825.71 1062.47 C 1823.63 1057.49 1819.66 1060.8 1818.28 1053 C 1834.73 1063.93 1858.87 1081.54 1872.77 1095.79 C 1867.53 1095.21 1867.26 1092.5 1860.82 1091.05 L 1860.68 1091.35 L 1862.2 1093.45 L 1863 1092.3 L 1862.41 1093.85 L 1863.65 1092.74 L 1865.22 1093.65 L 1864.27 1095.83 C 1866.7 1097.45 1867.98 1098.2 1870.11 1100.27 C 1874.97 1105.22 1886.97 1116.17 1889.44 1121.85 C 1861.55 1093.49 1831.65 1073.71 1797.27 1054.04 C 1794.61 1052.52 1787.49 1049.23 1786.45 1047.19 L 1789.37 1046.07 z" fill="rgb(254,254,254)" fill-opacity="0.972549" transform="translate(0,0)"></path>
<path d="M 1233.05 799.777 C 1234.29 802.577 1234.21 803.491 1234.47 806.486 L 1234.55 807.493 C 1236.94 792.038 1237.06 772.61 1250.74 762.075 C 1257.43 756.919 1265.93 757.898 1270.42 765.298 L 1270.81 767.423 C 1257.2 765.218 1257.27 770.443 1250.99 780.691 C 1247.18 780.337 1248.57 781.171 1246.4 778.659 L 1245.78 775.578 L 1244.76 776.076 C 1244.13 781.101 1243.21 791.676 1242.03 796.02 L 1241.86 791.968 C 1239.14 806.413 1237.42 820.017 1236.09 834.656 C 1235.88 836.969 1233.72 840.548 1232.32 842.378 L 1231.73 835.59 C 1232.57 823.763 1232.73 811.647 1233.05 799.777 z" fill="rgb(254,254,254)" fill-opacity="0.207843" transform="translate(0,0)"></path>
<path d="M 1223.34 904.294 C 1224.48 905.883 1224.48 905.856 1226.29 906.869 C 1235.1 911.817 1232.22 931.05 1231.14 939.207 C 1225.83 945.549 1221.84 954.658 1216.54 955.366 C 1213.87 953.46 1213.7 953.607 1212.03 950.875 C 1217.1 934.136 1219.99 921.251 1223.34 904.294 z" fill="rgb(254,254,254)" fill-opacity="0.65098" transform="translate(0,0)"></path>
<path d="M 1262.44 897.724 C 1263.84 888.635 1259.49 888.622 1259.98 882.295 C 1267.11 870.926 1256.84 857.675 1263.6 850.993 C 1265.41 851.431 1265.76 851.497 1267.69 851.762 C 1267.88 849.196 1267.65 849.168 1269.24 847.222 C 1268.81 856.298 1267.25 871.221 1265.6 880.323 C 1272.77 881.23 1279.87 882.035 1286.97 883.407 C 1282.56 889.341 1280.09 891.567 1278.69 898.959 L 1278.98 899.573 C 1275.46 899.636 1266.38 898.238 1262.44 897.724 z" fill="rgb(254,254,254)" fill-opacity="0.647059" transform="translate(0,0)"></path>
<path d="M 1325.57 811.192 L 1330.11 812.689 C 1338.29 811.925 1340.61 812.619 1348.18 815.984 C 1360.99 809.923 1362.58 811.709 1373.55 820.222 L 1374.69 819.167 L 1375.01 820.409 L 1373.33 821.747 L 1371.67 821.121 L 1368.22 819.86 C 1354.85 815 1352.36 830.467 1346.06 834.771 L 1340.81 833.39 C 1341.82 830.926 1341.89 829.982 1342.31 827.327 L 1341.34 826.691 C 1337.77 826.862 1334.24 827.501 1331.25 825.792 C 1328.84 822.766 1330.21 819.69 1328.93 815.579 C 1327.09 814.823 1327.24 814.91 1325.49 813.847 L 1325.57 811.192 z" fill="rgb(254,254,254)" fill-opacity="0.133333" transform="translate(0,0)"></path>
<path d="M 1207.38 1009.33 C 1208.96 1005.04 1212.37 995.667 1217.77 996.95 L 1218.83 1002.01 L 1216.22 1002.43 C 1211.78 1003.41 1210.16 1008.08 1209.13 1012.26 C 1205.23 1028.03 1193.44 1039.6 1184.43 1052.42 C 1179.24 1059.82 1177.4 1073.46 1169.76 1078.8 L 1167.26 1079.09 C 1157.4 1070.01 1188.44 1053.75 1182.31 1035.18 C 1186.24 1040.12 1182.37 1039.18 1187.55 1041.83 L 1189.95 1040.97 C 1192.74 1036.7 1195.39 1033.43 1198.53 1029.45 C 1203.08 1020.05 1200.87 1019.72 1207.38 1009.33 z" fill="rgb(254,254,254)" fill-opacity="0.223529" transform="translate(0,0)"></path>
<path d="M 1346.06 834.771 C 1352.36 830.467 1354.85 815 1368.22 819.86 L 1371.67 821.121 L 1373.33 821.747 L 1375.01 820.409 L 1378.73 821.418 C 1377.59 822.904 1371.98 836.73 1371.89 838.587 C 1367.58 838.675 1351.23 835.625 1346.06 834.771 z" fill="rgb(254,254,254)" fill-opacity="0.431373" transform="translate(0,0)"></path>
<path d="M 1227.82 879.017 C 1228.68 865.538 1230.69 849.709 1231.73 835.59 L 1232.32 842.378 L 1232.95 844.264 C 1236.83 846.221 1236.5 846.682 1236.54 851.376 C 1237.44 851.335 1238.34 851.294 1239.25 851.253 L 1238.86 852.781 C 1233.96 872.444 1246.21 891.209 1241.2 898.295 L 1239.85 898.411 C 1237.33 895.57 1236.96 895.574 1236.13 891.783 C 1236.94 889.706 1234.14 878.566 1233.57 874.968 L 1231.98 873.491 C 1228.66 875.574 1230.11 875.831 1227.82 879.017 z" fill="rgb(254,254,254)" fill-opacity="0.415686" transform="translate(0,0)"></path>
<path d="M 1180.77 1034.7 C 1184.53 1026.72 1188.29 1017.39 1191.81 1009.2 C 1201.39 1016.29 1199.46 1018.3 1198.53 1029.45 C 1195.39 1033.43 1192.74 1036.7 1189.95 1040.97 L 1187.55 1041.83 C 1182.37 1039.18 1186.24 1040.12 1182.31 1035.18 L 1180.77 1034.7 z" fill="rgb(254,254,254)" fill-opacity="0.356863" transform="translate(0,0)"></path>
<path d="M 1207.22 967.231 C 1226.99 977.94 1209.93 990.14 1205.38 1003.71 C 1204.75 1005.58 1203.82 1006.32 1202.4 1007.56 L 1196.3 998.048 C 1198.95 991.644 1201.55 984.007 1203.96 977.417 C 1204.74 981.189 1206.17 983.791 1209.42 985.677 L 1211.26 984.779 C 1213.98 977.801 1211.01 973.834 1206.89 968.251 L 1207.22 967.231 z" fill="rgb(254,254,254)" fill-opacity="0.45098" transform="translate(0,0)"></path>
<path d="M 1870.11 1100.27 C 1872.39 1098.65 1872.57 1098.86 1875.35 1097.91 C 1881.16 1103.64 1897.28 1119.04 1899.76 1125.98 L 1896.25 1129.55 C 1893.12 1127.1 1891.86 1125.05 1889.44 1121.85 C 1886.97 1116.17 1874.97 1105.22 1870.11 1100.27 z" fill="rgb(254,254,254)" fill-opacity="0.580392" transform="translate(0,0)"></path>
<path d="M 1192.32 1067.26 L 1196.42 1067.81 C 1198.26 1069.24 1198.81 1069.7 1199.83 1071.78 C 1201.55 1075.33 1201.61 1079.46 1200.01 1083.06 C 1198.3 1086.96 1197.11 1086.85 1193.69 1088.49 C 1182.37 1080.64 1187.01 1078.22 1191.56 1068.83 L 1192.32 1067.26 z" fill="rgb(254,254,254)" fill-opacity="0.203922" transform="translate(0,0)"></path>
<path d="M 1218.83 1002.01 C 1219.06 1001.61 1219.29 1001.21 1219.51 1000.8 L 1220.43 999.102 C 1223.12 994.173 1221.91 991.673 1224.98 988.029 L 1226.22 988.459 C 1226.16 993.681 1223.99 1002.09 1228.24 1005.11 C 1232.45 1004.1 1234.72 1001.76 1234.49 997.471 C 1234.04 989.304 1237.15 991.302 1240.3 984.347 L 1241.31 987.482 C 1239.25 993.453 1236.74 1001.46 1234.42 1007.16 L 1233.77 1006.77 C 1229.84 1008.14 1227.16 1007.53 1223.83 1008.95 C 1221.24 1012.47 1223.16 1013.98 1221.51 1018.1 C 1220.63 1016.07 1221.02 1013.44 1221.07 1010.99 C 1219.56 1009.02 1219.57 1009.58 1219.01 1007.39 L 1223.39 1006.2 C 1220.49 1004.58 1220.61 1004.79 1218.83 1002.01 z" fill="rgb(254,254,254)" fill-opacity="0.282353" transform="translate(0,0)"></path>
<path d="M 1196.3 998.048 L 1202.4 1007.56 C 1204.74 1009 1204.64 1008.87 1207.38 1009.33 C 1200.87 1019.72 1203.08 1020.05 1198.53 1029.45 C 1199.46 1018.3 1201.39 1016.29 1191.81 1009.2 L 1196.3 998.048 z" fill="rgb(254,254,254)" fill-opacity="0.313725" transform="translate(0,0)"></path>
<path d="M 1810.01 1055.82 C 1813.71 1054.88 1812.99 1053.18 1816.25 1051.47 L 1818.28 1053 C 1819.66 1060.8 1823.63 1057.49 1825.71 1062.47 C 1824.56 1065.36 1825.53 1064.28 1822.53 1065.65 C 1822.96 1065.76 1808.27 1056 1808.56 1056.29 L 1810.01 1055.82 z" fill="rgb(254,254,254)" fill-opacity="0.882353" transform="translate(0,0)"></path>
<path d="M 1206.89 968.251 C 1211.01 973.834 1213.98 977.801 1211.26 984.779 L 1209.42 985.677 C 1206.17 983.791 1204.74 981.189 1203.96 977.417 L 1206.89 968.251 z" fill="rgb(254,254,254)" fill-opacity="0.545098" transform="translate(0,0)"></path>
<path d="M 1545.43 379.9 C 1545.49 383.394 1545.62 383.272 1544.49 386.528 L 1542.88 387.131 C 1535.94 381.262 1537.75 371.408 1538.49 363.556 C 1540.59 367.621 1540.87 368.918 1542.14 373.402 C 1543.02 376.491 1543.07 377.701 1545.43 379.9 z" fill="rgb(254,254,254)" fill-opacity="0.498039" transform="translate(0,0)"></path>
<path d="M 1240.3 984.347 L 1239.84 983.74 L 1237.15 983.954 C 1235.77 980.996 1236.04 982.5 1236.26 979.282 C 1237.13 977.642 1237.34 977.042 1239.09 976.264 C 1246.36 973.023 1239.96 970.601 1248.53 963.508 C 1246.3 971.552 1243.9 979.546 1241.31 987.482 L 1240.3 984.347 z" fill="rgb(254,254,254)" fill-opacity="0.407843" transform="translate(0,0)"></path>
<path d="M 1870.11 1100.27 C 1867.98 1098.2 1866.7 1097.45 1864.27 1095.83 L 1865.22 1093.65 L 1863.65 1092.74 L 1862.41 1093.85 L 1863 1092.3 L 1862.2 1093.45 L 1860.68 1091.35 L 1860.82 1091.05 C 1867.26 1092.5 1867.53 1095.21 1872.77 1095.79 L 1875.35 1097.91 C 1872.57 1098.86 1872.39 1098.65 1870.11 1100.27 z" fill="rgb(254,254,254)" fill-opacity="0.772549" transform="translate(0,0)"></path>
<metadata><recraft-signature>{"signed_by": "recraft", "signature_b64": "Z2GFAfbp39FHFOqPaetfkHeT5SJ62sd2hhxS4uEKPW+5zlQYtIT38hxcNOStwLa1q+jtCHegOEsmLCroaYhmAA==", "signing_algo": "Ed25519", "generation_timestamp": 1782749798, "identifier": "3192e246-4322-426c-9e66-f8f6980fa3dc"}</recraft-signature></metadata></svg>