<svg xmlns="http://www.w3.org/2000/svg" height="1024" preserveAspectRatio="none" style="display: block;" version="1.1" viewBox="0 0 2048 2048" width="1024">
<path d="M 1023.2 81.1838 C 1041.24 80.0608 1049.95 86.2089 1051.32 104.349 C 1100 98.7099 1139.57 119.254 1160.27 164.7 C 1179.87 207.718 1190.45 201.491 1231.45 209.319 C 1249.21 212.71 1294.99 253.72 1303.13 270.08 C 1267.18 252.913 1264.9 252.205 1225.26 253.94 C 1245.37 268.21 1266.1 290.447 1281.68 309.793 C 1266.45 301.017 1242.44 287.369 1226.47 281.532 C 1203.48 273.133 1174.84 270.483 1154 256.056 C 1128.29 238.263 1128.01 204.789 1095.44 193.087 C 1075.65 185.98 1054.78 197.429 1036.96 205.534 C 1037.15 222.071 1036.98 238.61 1036.44 255.14 C 1057.8 266.126 1077.11 276.829 1099 287.265 C 1098.58 297.783 1098.23 307.567 1098.31 318.117 C 1106.11 309.972 1114.27 304.949 1123.78 298.983 C 1148.95 315.683 1178.12 326.482 1203.47 342.302 C 1203.63 352.63 1203.87 362.958 1204.2 373.283 C 1213.86 367.772 1220.29 360.891 1230.72 356.144 C 1238.78 359.055 1251.9 366.207 1259.86 370.236 C 1276.78 378.725 1293.62 387.37 1310.38 396.171 C 1311.23 406.366 1311.5 418.635 1312.02 429.078 C 1319.12 422.272 1326.38 415.628 1333.78 409.15 C 1340.48 411.518 1353.79 418.178 1360.47 421.34 C 1381.42 431.264 1401.65 441.395 1422.95 450.687 C 1419.97 454.772 1417.26 458.967 1414.48 463.186 C 1415.74 512.245 1419.94 560.97 1422.01 610.09 C 1409.28 629.061 1388.45 649.519 1373.39 669.624 C 1404.14 687.22 1443.79 705.858 1475.7 722.396 C 1585.38 779.249 1697.11 832.744 1807.35 888.531 L 1807.59 1259.68 C 1807.74 1361.49 1809.5 1467.7 1807.94 1569.24 C 1787.23 1581.24 1761.77 1593.31 1740.29 1604.2 L 1642 1655.01 C 1540.95 1707.73 1438.55 1763.15 1336.85 1814.08 L 1129.94 1921.58 L 1063.29 1956.24 C 1052.66 1961.76 1035.49 1971.27 1024.9 1975.36 C 1015.55 1971.72 998.883 1962.69 989.4 1957.86 L 910.795 1917.04 L 617.26 1764.97 L 370.816 1639.09 C 336.495 1621.76 302.607 1603.64 268.016 1586.87 C 259.156 1582.57 250.18 1578.24 241.798 1573.08 C 240.904 1549.16 241.371 1520.32 241.325 1496.06 L 241.065 1362.2 L 240.796 891.306 C 254.905 882.888 278.075 872.547 293.718 864.786 L 385.202 818.81 L 680.817 670.462 C 670.675 660.254 662.191 650.411 652.792 639.544 C 643.547 628.856 633.582 619.18 625.482 607.507 C 626.968 580.936 641.496 465.771 633.243 448.058 C 653.665 436.867 679.795 426.898 699.511 415.19 C 710.769 421.618 716.13 423.766 728.53 427.813 C 729.216 418.957 728.989 407.372 729.061 398.302 C 736.856 392.894 748.765 387.337 757.399 382.803 L 803.532 358.256 C 816.783 362.858 829.296 367.355 842.94 370.753 C 843.286 360.47 843 349.121 842.951 338.756 C 857.42 329.64 900.06 307.336 916.017 299.628 C 929.301 304.175 940.144 307.961 953.946 310.62 C 953.866 300.662 953.655 290.712 954.233 280.771 C 965.581 271.707 998.678 254.918 1012.82 247.349 C 1012.3 208.761 1012.62 170.047 1012.02 131.47 C 1011.64 128.821 1011.96 122.19 1010.96 120.005 C 1002 100.525 1001.66 91.3489 1023.2 81.1838 z M 1316.24 735.514 C 1324.9 767.556 1330.02 803.921 1335.96 836.733 L 1361.96 975.319 L 1396.76 1166.54 C 1401.67 1193.3 1407.36 1220.02 1411.99 1246.78 C 1423.85 1317.45 1436.15 1388.05 1448.89 1458.56 C 1454.11 1488.37 1458.44 1518.52 1464.23 1548.18 C 1472.45 1510.7 1480.31 1473.14 1487.81 1435.51 C 1491.07 1419.49 1496.8 1394.87 1498.79 1379.32 C 1505.75 1409.77 1521.93 1487.67 1537.16 1513.24 C 1542.42 1497.99 1546.32 1479.91 1550.03 1464.08 C 1557.6 1431.71 1564.51 1399.19 1570.75 1366.54 C 1575.98 1340.32 1586.33 1295.42 1588.86 1269.71 C 1595.9 1299.67 1600.7 1325.98 1606.75 1355.88 L 1632.28 1482.44 C 1649.59 1366.72 1675.29 1259.77 1687.55 1141.55 C 1695.67 1200.78 1707.66 1260.2 1719.08 1318.92 C 1728.93 1369.53 1737.4 1421.04 1747.23 1471.48 C 1748.91 1448.81 1746.87 1428.88 1747.06 1406.49 C 1747.88 1346.11 1748.04 1285.72 1747.52 1225.33 L 1747.43 999.206 C 1747.3 976.299 1748.17 947.386 1747.42 925.335 C 1630.68 868.409 1514.73 809.869 1399.61 749.73 C 1388.49 743.912 1377.36 737.872 1365.88 732.82 L 1369.52 719.874 C 1475.65 777.109 1586.36 827.246 1694 881.658 C 1716.77 893.166 1740.8 903.634 1762.98 916.004 L 1763.03 1387.16 C 1762.9 1438.53 1763.8 1490.65 1763.16 1541.85 L 1199.21 1834.98 L 1076.13 1898.46 C 1061.14 1906.23 1039.03 1918.98 1024.65 1925.55 C 989.281 1908.81 955.563 1889.42 920.812 1871.8 L 605.363 1709.87 L 425.885 1617.12 L 339.704 1572.64 C 323.627 1564.43 301.084 1553.97 285.912 1545.06 L 284.919 917.061 C 310.788 903.131 340.038 889.813 366.663 876.467 L 549.125 785.609 L 639.157 741.385 C 653.696 734.232 677.645 721.66 691.983 716.442 C 695.549 720.151 696.847 721.439 699.687 725.633 C 688.317 733.253 675.066 739.654 662.83 745.802 C 619.834 767.407 577.021 789.141 533.725 810.154 L 299.981 926.365 L 300.494 1274.96 L 300.93 1376.87 C 300.967 1400.65 300.218 1427.15 302.488 1450.62 C 324.678 1346.86 343.737 1242.45 359.639 1137.54 C 362.324 1165.13 367.274 1190.38 371.576 1217.58 C 379.224 1267.83 387.403 1318 396.112 1368.08 C 400.452 1393.56 404.578 1419.07 408.489 1444.62 C 410.914 1460.71 414.253 1487.81 418.65 1502.81 C 432.135 1431.09 442.672 1358.12 455.816 1286.25 C 457.322 1278.01 458.719 1268.5 459.529 1260.14 C 469.274 1321.91 479.355 1383.62 489.769 1445.28 C 494.148 1471.92 497.199 1499.73 502.264 1526.17 C 506.075 1527.4 510.649 1528.74 514.343 1530.08 C 518.023 1520.11 520.843 1507.2 523.487 1496.66 C 528.559 1476.73 533.429 1456.74 538.097 1436.71 C 541.385 1422.56 545.153 1404.26 549.639 1390.66 C 557.687 1428.78 563.826 1468.66 571.456 1506.96 C 574.41 1521.79 575.837 1539.06 579.002 1553.42 L 592.079 1549.61 C 607.954 1438.5 625.637 1327.65 645.121 1217.11 L 707.788 849.647 C 714.71 809.122 722.558 769.757 729.146 728.801 C 721.6 720.881 717.175 715.634 710.782 706.816 C 708.245 703.316 700.423 692.528 697.776 690.048 C 671.473 702.405 646.279 716.161 620.235 728.863 L 265.012 906.355 L 266.908 1558.09 C 297.29 1570.03 326.531 1587.43 355.504 1602.47 L 480.52 1666.41 L 829.151 1845.35 C 893.596 1878.56 959.233 1914.96 1024.9 1945.97 C 1042.94 1938.3 1065.26 1925.62 1083.11 1916.51 C 1119.52 1898.26 1155.77 1879.7 1191.86 1860.84 L 1518.93 1689.73 L 1698.47 1596.8 C 1714.72 1588.48 1731.01 1580.25 1747.35 1572.12 C 1757.29 1567.18 1774.47 1559.29 1782.73 1553.14 C 1784.22 1516.88 1783.73 1478.86 1783.72 1442.42 L 1783.56 1269.63 C 1783.53 1149.26 1785.58 1023.53 1783.04 903.664 C 1696.47 859.655 1607.29 817.82 1520.28 773.922 C 1486.09 757.041 1452.07 739.822 1418.22 722.268 C 1400.14 712.942 1371.72 697.218 1353.99 689.844 C 1343 704.821 1324.88 722.765 1316.24 735.514 z M 1015.63 581.428 C 1060.39 602.871 1109.33 623.93 1152.37 648.449 C 1145.69 647.087 1114.04 633.747 1105.66 630.371 C 1075.99 618.409 1045.19 604.381 1015.19 593.32 C 1010.36 779.003 1006.77 964.717 1004.43 1150.45 L 1001.69 1329 C 1001.06 1365.41 999.72 1402.68 1000.41 1439.03 C 1036.54 1450.46 1073 1460.75 1108.81 1473.17 C 1113.84 1474.92 1118.91 1476.45 1124.1 1477.67 C 1124.02 1457.59 1122.15 1436.2 1121.25 1416 L 1115.66 1297.13 C 1113.69 1261.99 1110.22 1219.71 1113.68 1186.63 C 1116.24 1162.18 1173.63 1117.54 1193.06 1117.2 C 1211.31 1116.87 1265.12 1188.56 1268.51 1207.01 C 1272.47 1228.56 1274.03 1250.32 1275.42 1270.53 L 1281.77 1363.04 L 1289.38 1462.31 C 1291.05 1482.74 1293.83 1510.64 1294.24 1531.02 C 1301.99 1532.96 1311.9 1535.89 1319.79 1535.39 L 1320.41 1534.22 C 1314.81 1528.3 1305.73 1524.93 1298.57 1520.82 C 1329.81 1530.1 1369.14 1543.79 1400.08 1555.77 C 1397.51 1542.2 1392.78 1512.47 1389.63 1500.57 C 1362.27 1486.46 1334.09 1473.11 1308.4 1456.31 C 1334.91 1466.63 1361.24 1477.44 1387.36 1488.72 C 1385.8 1471.82 1382.97 1455.59 1379.84 1438.93 C 1350.59 1422.03 1322.64 1409.77 1294.76 1390.36 C 1304.89 1394 1314.05 1397.84 1323.95 1401.99 C 1337.24 1407.62 1365.35 1421.15 1377.26 1425.2 C 1375.13 1408.97 1372.66 1392.78 1369.85 1376.65 C 1365.4 1374.81 1361.24 1372.46 1357.05 1370.11 C 1332.22 1356.2 1307.13 1342.48 1283.17 1327.11 C 1315.45 1338.94 1336 1348.76 1366.61 1362.52 C 1365.01 1347.84 1361.87 1327.81 1358.45 1313.52 C 1332.91 1297.38 1304.84 1283.7 1277.86 1266.87 C 1301.56 1273.81 1333.36 1288.16 1355.48 1299.15 C 1353.83 1284.14 1350.71 1263.73 1348 1248.69 C 1321.98 1235.29 1291.31 1219.88 1269.42 1200.36 C 1285.33 1207.39 1301.12 1214.66 1316.81 1222.17 C 1325.11 1226.07 1336.87 1232.04 1345.31 1234.95 C 1345.11 1224.8 1338.53 1196.95 1336.65 1184.92 C 1322.62 1175.2 1306.26 1167.01 1291.5 1158.22 C 1278.11 1150.23 1265.47 1141.92 1252.43 1133.35 C 1268.54 1139.46 1318.83 1162.12 1333.76 1171.14 C 1331.73 1154.55 1328.84 1137.76 1326.56 1121.11 C 1301.28 1105.44 1276.95 1090.57 1252.92 1073 C 1267.54 1077.12 1305.2 1098.36 1322.82 1106.01 C 1317.36 1065.46 1310.11 1025.31 1302.58 985.127 C 1298.29 962.256 1295.62 937.588 1291.79 914.489 C 1278 907.715 1262.35 897.15 1249.71 891.567 C 1252.15 924.692 1255.84 957.565 1258.64 990.651 C 1259.52 1000.97 1260.62 1012.69 1260.6 1023.01 C 1213.34 1010.86 1155.18 988.784 1107.54 973.713 C 1104.64 918.819 1102.11 863.908 1099.92 808.982 C 1099.32 795.672 1092.86 732.166 1099.87 726.756 C 1117.19 713.381 1157.33 694.392 1178.43 688.492 L 1179.57 689.323 C 1187.71 695.332 1199.27 711.429 1205.22 714.715 C 1222.53 724.281 1247.12 736.157 1264.82 744.534 C 1262.43 723.596 1257 701.635 1255.78 680.803 L 1015.84 570.699 L 1015.63 581.428 z M 719.217 1749.14 C 730.621 1754.97 737.939 1760.86 750.378 1764.9 C 771.792 1759.2 793.251 1753.42 814.856 1748.5 C 899.272 1729.28 989.517 1721.93 1076.09 1724.06 C 1096.79 1724.62 1117.47 1725.81 1138.09 1727.62 C 1140.65 1727.83 1168.09 1730.64 1168.54 1730.89 C 1166.48 1731.97 1141.53 1734.01 1137.31 1734.52 C 1111.81 1737.83 1086.45 1742.18 1061.3 1747.55 C 1006.2 1759.06 960.054 1774.89 908.261 1796.38 C 891.69 1803.26 870.953 1810.42 855.381 1818.7 C 864.387 1823.16 873.447 1827.77 882.605 1831.88 C 944.731 1804.83 1035.2 1784.85 1103.05 1773.33 C 1151.54 1765.68 1225.8 1756.04 1274.81 1755.34 C 1166.78 1782.98 1065.24 1821.46 969.057 1878.45 C 985.907 1888.6 1006.43 1897.71 1024.16 1907.04 L 1261.14 1783.68 C 1292.27 1767.27 1323.07 1752.39 1353.93 1735.04 C 1328.91 1730.18 1304.34 1723.38 1278.57 1718.54 C 1191.51 1702.19 1097.06 1691.18 1008.26 1695.56 C 922.481 1698.72 801.134 1720.66 719.217 1749.14 z M 788.917 1025.08 C 800.06 1021.05 815.242 1013.87 826.04 1008.5 C 852.731 996.032 881.951 980.347 909.215 970.038 C 909.519 958.224 910.754 946.992 911.438 935.263 C 914.645 880.228 917.762 825.159 920.696 770.113 C 921.05 763.475 921.264 756.687 921.165 750.048 C 906.552 731.128 895.992 717.438 869.215 720.201 C 846.024 725.689 834.22 736.342 821.213 755.999 C 803.777 782.353 805.302 808.157 802.725 838.465 C 799.503 873.893 796.848 909.37 794.76 944.883 L 790.815 998.3 C 790.23 1005.85 788.885 1017.86 788.917 1025.08 z M 1019.96 377.109 C 1049.31 392.329 1080.94 406.415 1110.92 420.728 L 1279.12 501.129 C 1303.37 512.935 1327.55 524.884 1351.65 536.975 C 1360.58 541.371 1379.34 551.075 1388.05 553.699 C 1387.55 531.375 1383.73 485.859 1381.32 463.896 L 1341.82 443.54 C 1341.87 459.73 1343.06 476.509 1343.8 492.751 L 1344.63 510.204 C 1325.69 499.526 1303.15 491.014 1285.61 480.853 C 1284.06 461.659 1285.57 434.03 1285.05 413.494 C 1271.18 408.33 1250.69 396.391 1235.14 389.821 C 1235.4 412.104 1237.06 435.07 1236.91 457.279 C 1215.35 448.078 1197.15 437.95 1176.49 428.549 C 1175.06 408.274 1175.93 378.55 1175.85 357.633 C 1162.72 351.601 1139.29 339.39 1127.31 334.812 C 1128.37 355.735 1130.38 382.558 1129.97 403.081 C 1110.08 394.501 1090.99 385.267 1071.29 376.568 C 1070.21 352.669 1069.36 328.76 1068.76 304.844 C 1052.7 297.014 1035.59 287.782 1019.73 280.369 C 1019.15 291.114 1019.84 303.55 1019.91 314.495 L 1019.96 377.109 z M 909.691 1460.27 C 894.928 1465.33 868.282 1473.62 854.777 1479.65 C 847.804 1481.52 843.698 1482.76 836.992 1485.37 L 830.549 1487.5 C 815.658 1492.16 799.767 1497.18 785.151 1502.64 C 777.965 1505.09 770.811 1507.64 763.691 1510.28 L 718.688 1525.29 L 713.498 1527.28 C 708.514 1528.78 703.553 1530.35 698.617 1532 L 687.715 1535.92 C 679.535 1538.7 671.348 1541.39 663.333 1544.62 C 657.849 1545.92 652.443 1547.23 646.902 1548.27 C 648.603 1546 649.401 1545.18 651.631 1543.43 C 653.527 1538.78 656.364 1517.15 657.368 1510.48 C 661.394 1484.23 665.219 1457.95 668.841 1431.64 L 707.491 1157.51 L 755.269 841.535 C 762.773 791.725 772.566 738.792 777.74 688.956 C 773.527 687.64 769.306 686.349 765.078 685.083 C 759.455 711.487 755.385 741.945 750.764 768.801 L 720.609 942.355 C 684.725 1146.88 651.664 1351.88 621.435 1557.32 C 619.879 1557.7 618.625 1557.82 617.332 1558.57 C 605.111 1562.21 594.065 1566.34 582.108 1570.75 C 577.312 1580.48 572.638 1590.18 567.39 1599.68 C 582.185 1596.46 606.836 1586.78 621.868 1581.57 C 628.846 1580.46 654.663 1571.17 661.96 1568.61 L 677.723 1563.43 C 691.609 1558.76 714.589 1551.83 727.216 1546.29 L 729.729 1545.89 C 746.745 1539.06 771.925 1531.57 790.092 1525.48 L 875.494 1496.23 C 889.187 1491.68 909.036 1486.85 921.703 1481.47 C 944.53 1474.36 967.307 1467.1 990.033 1459.67 C 986.113 1450.41 985.443 1445.23 984.492 1435.44 C 963.94 1441.14 931.179 1453.29 909.691 1460.27 z M 727.94 501.293 C 728.187 498.636 728.505 495.816 728.663 493.17 C 719.624 496.764 711.688 500.059 702.8 504.141 C 703.714 489.14 707.235 457.865 706.946 444.489 L 705.475 443.928 C 695.57 449.033 685.793 454.385 676.156 459.98 C 675.377 481.407 671.905 510.112 671.877 529.42 C 680.359 526.656 692.525 520.333 700.55 515.985 C 709.285 511.266 719.132 505.637 727.94 501.293 z M 1248.86 882.259 C 1259.22 887.909 1278.91 899.334 1289.45 902.617 C 1288.81 887.914 1285.24 874.335 1283.73 860.125 C 1270.58 853.261 1257.32 846.589 1243.97 840.114 C 1245.88 853.968 1246.86 868.642 1248.86 882.259 z M 1012.44 472.696 C 997.094 481.529 980.609 489.207 964.898 497.422 C 930.288 515.519 895.078 531.919 859.99 548.973 L 687.24 634.616 C 697.266 647.67 724.535 683.445 735.744 693.014 C 737.246 687.914 737.928 685.38 740.335 680.509 C 734.38 668.379 726.917 656.65 719.888 645.077 L 910.988 550.251 L 973.364 519.041 C 984.497 513.478 1000.49 505.035 1011.83 500.881 C 1018.5 503.93 1025.11 507.114 1031.65 510.433 C 1130.62 555.792 1229.31 601.743 1327.73 648.284 C 1321.72 658.019 1313.53 668.311 1306.55 677.537 C 1308.5 684.17 1309.94 689.313 1312.62 695.693 C 1328.2 674.132 1347.53 654.663 1362.42 634.484 C 1283.11 598.278 1201.08 562.05 1122.38 525.04 L 1050.85 491.111 C 1045.9 488.717 1016.38 473.346 1012.44 472.696 z M 1752.48 1525.62 C 1738.15 1521.9 1705.1 1521.44 1689.56 1522.43 C 1614.35 1525.39 1540.45 1543.1 1472.05 1574.54 L 1476.45 1589 L 1491.87 1593.11 C 1500.62 1589.74 1509.02 1585.68 1517.67 1581.99 C 1564.85 1561.89 1615.74 1552.97 1666.15 1545.28 C 1672.03 1544.38 1677.93 1543.73 1683.85 1543.37 C 1661.73 1552.59 1639.92 1562.52 1618.44 1573.15 C 1579.32 1591.67 1541.94 1613.67 1506.76 1638.9 C 1506.94 1644.58 1507 1651.06 1507.44 1656.64 C 1543.6 1638.86 1583.96 1615.32 1620.55 1596.4 L 1704.17 1553.84 C 1718.1 1546.62 1741.12 1535.35 1752.48 1525.62 z M 523.171 1648.51 C 525.776 1642 543.137 1609.67 542.982 1607.83 C 526.991 1608.03 480.992 1614.87 466.027 1619.34 C 472.587 1622.83 479.457 1626.63 486.068 1629.94 C 498.175 1635.98 511.285 1642.22 523.171 1648.51 z M 1092 1545.69 C 1092.67 1534.96 1093.05 1514.06 1092.66 1503.02 C 1079.5 1497.41 1036.02 1482.91 1021.39 1478.88 C 1021.5 1494.17 1021.98 1509.43 1022 1524.71 C 1045.43 1531.1 1068.47 1539.41 1092 1545.69 z M 1229.54 734.359 L 1224.94 738.174 C 1235.37 751.247 1235.29 764.8 1237.26 781.106 C 1247.6 784.93 1262.47 792.77 1273.14 797.618 C 1272.65 786.834 1268.5 764.255 1266.65 752.648 C 1254.52 747.803 1241.05 740.485 1229.54 734.359 z M 1242.28 831.198 C 1250.5 835.106 1273.27 846.742 1281.36 847.812 C 1280.81 835.286 1277.7 820.834 1275.29 808.289 C 1262.23 801.058 1251.55 796.025 1238.2 789.582 C 1239.11 801.923 1240.4 819.148 1242.28 831.198 z M 743.179 1647.67 C 736.458 1649.84 723.263 1653.62 717.229 1656.1 C 705.44 1659.47 693.7 1663 682.012 1666.69 C 675.796 1668.65 651.483 1677.04 646.462 1676.54 L 646.93 1669.52 C 647.674 1664.11 650.388 1647.44 648.664 1643.25 C 651.838 1640.91 651.237 1635.91 651.41 1632.08 L 682.276 1621.5 L 687.942 1619.61 L 760.891 1595.61 C 766.228 1593.8 780.881 1586.87 784.934 1589.2 L 784.867 1594.27 C 783.294 1598.1 782.193 1615.34 781.981 1619.96 C 781.121 1625.18 780.885 1627.12 780.911 1632.38 C 780.375 1633.34 779.839 1634.3 779.302 1635.26 C 769.837 1639.74 752.92 1644.62 743.179 1647.67 z M 843.993 1627.32 L 859.716 1622.72 C 859.107 1630.91 854.835 1669.02 855.381 1673.21 C 838.843 1677.45 819.149 1683.35 802.755 1688.67 C 795.271 1690.81 762.763 1699.76 758.061 1702.56 C 750.571 1704.67 733.304 1709.15 727.208 1712.65 L 727.057 1713.96 C 724.197 1712.89 724.691 1713.2 721.483 1713.38 L 720.517 1713.44 C 719.788 1710.31 721.337 1697.58 721.719 1693.57 C 722.538 1686.02 723.566 1678.23 723.648 1670.66 C 724.99 1668.02 726.456 1667.69 729.143 1666.36 C 756.045 1657.79 782.76 1647.39 809.841 1639.08 C 820.674 1635.75 833.756 1631.63 843.993 1627.32 z M 804.526 1627.59 C 800.895 1628.35 796.832 1629.66 793.221 1630.7 C 794.962 1616.14 795.97 1599.61 797.181 1584.88 C 850.243 1565.15 907.834 1548.16 959.265 1527.66 C 962.496 1526.82 966.197 1525.01 969.332 1523.65 C 974.745 1521.76 986.066 1516.04 990.249 1512.14 L 989.915 1511.31 C 977.661 1512.45 970.134 1516.4 958.419 1519.52 C 924.584 1528.55 891.566 1539.75 858.255 1550.57 L 790.858 1572.57 C 780.317 1576.04 762.776 1581.49 753.044 1585.61 C 745.944 1587.51 739.723 1591.78 733.058 1591.06 C 730.981 1588.84 731.748 1588.84 731.823 1584.68 C 732.058 1573.92 733.083 1562.63 733.317 1551.28 C 730.832 1561.71 729.37 1570.45 727.662 1580.99 L 725.784 1594.96 C 711.261 1599.71 696.276 1604.41 681.907 1609.5 C 671.802 1612.93 655.977 1618.89 646.146 1621.55 C 634.421 1625.71 622.622 1629.66 610.753 1633.4 L 603.22 1635.53 C 593.962 1638.82 583.062 1642.56 574.089 1646.36 C 568.53 1648.19 558.779 1651.42 554.215 1654.7 C 553.076 1657.68 553.392 1656.09 553.976 1659.74 C 562.38 1666.91 580.558 1652.95 590.1 1652.14 C 597.075 1650.66 610.567 1645.95 617.837 1643.65 L 618.976 1643.91 L 623.839 1641.78 C 628.2 1640.4 634.741 1637.41 638.173 1638.61 C 640.138 1642.2 639.073 1644.25 639.509 1648.04 C 637.972 1656.73 637.271 1662.78 636.537 1671.6 C 635.895 1674.91 635.332 1678.73 634.25 1681.85 C 625.182 1683.95 616.287 1686.74 607.642 1690.19 C 614.109 1694.38 619.473 1696.9 626.613 1699.86 L 636.464 1696.95 C 642.661 1695.27 648.832 1693.5 654.977 1691.64 C 670.014 1685.7 687.9 1682.33 704.027 1675.36 C 707.359 1674.32 711.329 1672.38 714.046 1673.32 C 714.933 1676.17 714.248 1678.19 713.719 1681.16 C 712.465 1693.19 711.038 1705.21 709.437 1717.2 C 707.476 1718.06 703.266 1719.75 701.539 1720.67 C 694.484 1722.65 687.466 1724.75 680.486 1726.97 C 684.447 1729.31 688.484 1731.8 692.588 1733.84 C 698.012 1732.49 701.632 1732.03 706.242 1728.87 C 707.795 1726.17 707.583 1727.58 706.807 1724.48 C 705.043 1722.3 705.037 1722.51 702.385 1721.44 C 708.174 1722.71 707.078 1722.07 709.055 1728.15 C 712.875 1730.03 718.157 1727.05 722.042 1725.4 C 733.795 1722.67 744.937 1718.21 756.107 1715.65 C 767.988 1712.88 784.214 1707.61 795.765 1703.67 C 809.636 1699.2 824.711 1695.28 838.315 1690.45 C 850.238 1687.79 877.499 1678.88 889.344 1674.92 C 899.507 1672.71 940.909 1659.08 949.509 1655.12 C 947.73 1654.74 946.327 1654.36 944.578 1653.86 C 946.449 1651.89 945.436 1652.75 948.52 1651.9 C 958.019 1655.52 957.934 1652.31 967.362 1649.57 C 974.374 1647.53 979.998 1644.66 986.507 1641.4 L 987.226 1639.58 L 988.331 1639.78 L 988.17 1639.54 C 978.486 1638.58 898.436 1661.45 883.703 1665.57 L 871.936 1668.65 C 869.38 1669.48 867.813 1670.32 865.217 1669.74 C 865.396 1664.78 868.976 1621.32 870.312 1619.43 C 882.836 1616.59 902.033 1609.35 914.413 1605.11 C 936.632 1597.5 960.107 1589.53 981.543 1580.07 L 982.167 1576.67 L 983.753 1578.09 L 983.297 1578.95 L 982.877 1576.93 C 978.179 1574.99 971.405 1577.29 966.739 1578.86 C 934.961 1589.59 898.331 1596.59 867.364 1608.73 C 856.434 1611.71 845.578 1614.96 834.807 1618.48 C 826.919 1620.43 811.898 1624.49 804.526 1627.59 z M 1134.53 723.236 C 1133.56 723.731 1129.13 725.887 1128.49 726.34 C 1122.12 729.316 1119.88 730.791 1114.12 734.678 C 1112.05 743.408 1114.72 789.432 1115.18 801.052 C 1117.77 854.573 1119.88 908.117 1121.51 961.676 C 1128.21 964.431 1135.19 966.822 1142.11 968.955 C 1176.66 979.607 1210.93 993.767 1245.78 1003.21 C 1245.15 991.627 1244.28 980.059 1243.16 968.513 L 1228.74 824.569 C 1226.95 807.277 1224.2 769.165 1219.76 754.201 C 1217.21 745.598 1185.74 712.906 1177.48 706.041 C 1173.97 704.681 1172.91 705.232 1168.91 706.981 L 1167.31 707.694 C 1160.19 710.946 1140.56 719.525 1134.53 723.236 z M 1032.75 110.833 C 1047.62 103.953 1037.28 90.9658 1024.24 91.9503 C 1019.43 95.5938 1013.02 101.631 1018.45 108.022 C 1020.45 110.338 1023.37 111.645 1026.43 111.591 C 1028.33 111.565 1030.84 111.144 1032.75 110.833 z M 879.611 618.933 C 888.553 615.524 927.149 598.363 931.993 592.542 C 931.102 590.672 931.803 591.396 929.792 590.474 C 922.351 592.022 881.68 609.627 877.779 614.707 C 877.908 617.639 877.471 616.341 879.104 618.749 L 879.611 618.933 z M 1282.19 1527.97 C 1277.97 1457.8 1270.38 1383.41 1264.89 1313.04 L 1259.69 1249.15 C 1259.09 1241.2 1257.64 1217.22 1256.24 1211.2 C 1253.08 1197.59 1204.7 1134.39 1192.54 1131.88 C 1170.8 1142.25 1136.54 1163.96 1128.9 1188.57 C 1124.22 1203.63 1129.84 1270.99 1130.73 1289.89 L 1134.92 1385.52 C 1136.33 1415.09 1136.71 1454.35 1139.97 1483.35 C 1149.91 1485.99 1160.28 1489.43 1169.93 1491.9 C 1169 1460.85 1166.62 1431.34 1164.78 1400.57 L 1158.36 1285.16 C 1156.79 1259.39 1153.94 1225.61 1153.63 1200.55 C 1161.01 1187.17 1178.44 1171.57 1191.4 1163.43 C 1195.7 1168.48 1208.17 1183.18 1211.43 1188.57 C 1215.99 1194.38 1229.83 1212.23 1231.06 1218.94 C 1235.42 1242.84 1236.34 1273.48 1237.78 1298.07 C 1242.09 1371.65 1249.14 1447.14 1252.25 1520.52 C 1262.26 1523.35 1272.08 1525.61 1282.19 1527.97 z M 851.611 1123.43 C 852.289 1117.21 855.105 1096.35 853.281 1091.91 L 851.765 1091.53 C 848.572 1098.6 848.293 1115.84 847.823 1124.24 L 851.611 1123.43 z M 787.249 1188.11 C 789.606 1182.2 787.344 1174.43 793.252 1167.69 C 792.666 1165.48 791.605 1163.32 790.691 1161.18 C 789.572 1161.78 785.675 1163.77 784.88 1164.38 C 783.88 1168.86 782.734 1171.85 777.759 1172.94 L 778.007 1174.46 L 780.884 1174.36 C 783.333 1178.25 780.083 1192.1 779.491 1197.33 C 782.252 1195.31 782.338 1195.03 783.85 1192.14 L 785.368 1189.23 L 786.07 1187.86 L 787.249 1188.11 z M 890.965 348.003 C 891.167 364.282 890.516 402.196 892.095 416.593 C 899.243 413.277 906.298 409.763 913.251 406.056 C 921.957 401.504 942.174 391.543 949.424 386.502 C 949.945 383.463 950.185 383.139 949.64 380.037 C 943.677 381.3 932.998 386.336 926.996 388.928 C 927.245 374.44 928.457 341.956 925.764 329.152 C 916.049 334.916 901.267 343.222 890.965 348.003 z M 859.945 1136.81 C 863.704 1135.33 872.471 1130.85 875.732 1128.6 L 885.734 1123.11 L 881.91 1121.29 L 871.585 1125.29 C 866.421 1126.79 859.458 1129.89 854.604 1132.39 L 859.945 1136.81 z M 753.781 1348.41 C 753.18 1354.12 752.436 1360.18 751.982 1365.88 L 754.765 1371.82 L 755.351 1372 C 757.954 1369.71 758.163 1355.32 758.612 1350.75 C 757.516 1349.22 755.994 1349.17 753.781 1348.41 z M 658.169 600.407 C 730.766 566.796 803.832 527.497 875.509 491.035 C 907.738 474.972 939.772 458.52 971.605 441.685 C 984.428 435.011 1001.83 427.017 1013.62 419.906 L 1022.94 425.861 C 1093.56 460.756 1164.35 492.897 1235.15 526.919 L 1317.96 566.524 C 1342.82 578.638 1364.73 590.171 1390.43 600.531 C 1391.23 591.11 1389.99 578.103 1389.02 568.499 C 1366.23 556.632 1341.29 545.028 1318.07 533.72 L 1138.1 447.432 C 1124.17 440.726 1029.22 393.205 1021.21 392.153 C 1015 397.138 1001.46 404.032 994.134 408.047 C 975.063 418.578 955.856 428.86 936.517 438.888 L 772.486 524.514 C 747.862 537.048 723.449 549.992 699.256 563.34 C 686.561 570.259 669.607 579.004 657.959 586.963 L 658.169 600.407 z M 809.315 1370.61 C 808.182 1378.08 807.194 1387.3 805.915 1394.49 C 803.919 1407.98 802.714 1421.03 803.057 1434.67 C 804.347 1427.61 808.738 1403.24 807.782 1396.56 C 809.766 1386.72 811.117 1378.72 811.036 1368.69 L 809.315 1370.61 z M 1413.28 1566.77 L 1441.74 1574.34 L 1392.91 1296.9 C 1381.88 1231.83 1370.49 1166.83 1358.73 1101.9 L 1311.14 838.497 C 1302.64 791.361 1290.91 741.983 1285.2 694.721 C 1280.1 692.618 1269.67 686.896 1264.67 683.864 C 1283.21 777.45 1298.09 879.28 1313.67 973.957 C 1336 1113.23 1359.61 1252.29 1384.51 1391.12 L 1405.23 1516.17 C 1407.85 1532.05 1409.9 1551.53 1413.28 1566.77 z M 819.865 1283.81 L 821.751 1283.85 C 824.76 1283.89 826.163 1284.18 828.827 1282.77 L 825.49 1281.08 C 826.599 1266.36 832.152 1249.74 829.916 1234.83 L 828.442 1233.76 C 819.408 1240.93 823.614 1272.06 819.865 1283.81 z M 807.003 449.333 C 807.276 436.633 809.303 400.131 807.917 389.483 C 795.99 394.587 784.519 401.619 773.526 408.494 C 776.264 436.984 771.977 454.065 773.162 478.096 C 783.119 473.435 792.947 468.507 802.636 463.315 C 813.832 457.312 826.596 450.35 838.216 445.235 L 836.687 437.971 L 835.923 437.515 C 828.204 440.789 814.642 446.898 807.003 449.333 z M 1150.94 739.808 C 1159.78 735.876 1164.87 733.613 1174.12 731.068 C 1180.6 736.421 1200.65 757.189 1202.74 764.196 C 1206.64 777.303 1208.16 803.066 1209.55 817.603 C 1212.55 847.851 1215.17 878.136 1217.4 908.451 C 1218.8 926.962 1220.04 947.186 1222.75 965.551 C 1223.12 968.057 1225.69 972.31 1227.03 974.65 L 1225.79 975.375 C 1198.2 964.253 1169.41 955.554 1142.24 945.008 L 1138.67 846.007 C 1137.92 829.226 1133.47 758.562 1136.03 747.794 C 1137.61 747.342 1148.79 740.997 1150.94 739.808 z M 1067.45 117.367 C 1058.09 118.468 1034.95 120.144 1035.42 132.446 L 1036.65 134.519 C 1044.29 134.207 1051.86 132.172 1058.98 132.08 C 1095.11 131.613 1120.9 151.752 1137.55 182.141 C 1150.99 206.668 1167.51 228.218 1196.78 231.288 C 1206.3 232.641 1216.82 233.065 1226.27 234.348 C 1232.16 235.584 1250.64 240.671 1255.04 238.06 C 1253.37 233.408 1243.02 227.9 1238.55 225.57 C 1219.42 215.543 1194.01 221.672 1176.22 208.67 C 1160.54 197.213 1151.28 176.736 1142.16 159.956 C 1128.45 134.747 1096.25 116.54 1067.45 117.367 z M 1021.95 1600.32 C 1021.98 1621.38 1021.75 1643.07 1022.05 1664.07 C 1047.04 1664.36 1072.02 1665.04 1096.99 1666.12 L 1097.07 1623.3 C 1074.74 1617.82 1044.27 1607.42 1021.95 1600.32 z M 1385.16 1596.37 C 1386.51 1611.21 1386.7 1625.91 1387.98 1640.13 C 1405.62 1645.66 1423.33 1650.72 1440.97 1656.28 C 1453.45 1660.22 1468.44 1667.4 1480.89 1670.28 C 1480.76 1655.22 1479.04 1639.57 1478.46 1624.34 C 1454.67 1616.81 1408.75 1601.23 1385.16 1596.37 z M 1260.05 1556.31 C 1260.94 1570.63 1261.61 1584.96 1262.08 1599.29 C 1298.9 1610.65 1339.78 1625.52 1375.83 1635.81 C 1376.14 1620.84 1374.01 1606.96 1373.84 1592.47 C 1348.81 1584.8 1323.89 1576.79 1299.08 1568.45 C 1288.31 1564.92 1270.48 1558.6 1260.05 1556.31 z M 1192.8 1590.41 L 1193.01 1638.4 C 1212.27 1644.05 1231.71 1648.94 1250.93 1654.56 C 1269.4 1659.97 1287.5 1666.3 1306.11 1671.5 C 1306.58 1656.63 1305.99 1641.44 1305.99 1626.53 L 1233.04 1603.03 C 1221.16 1599.18 1204.63 1593.31 1192.8 1590.41 z M 1317.84 1630.39 C 1317.11 1644.78 1318.92 1660.94 1319.08 1675.71 C 1347.21 1683.18 1387.71 1695.81 1415.13 1705.06 C 1425.35 1699.33 1436.16 1693.04 1446.45 1687.58 C 1452.18 1684.65 1459.72 1680.49 1465.44 1677.91 C 1437.09 1666.26 1400.72 1656.32 1370.95 1647.04 C 1355.5 1642.22 1332.68 1634.17 1317.84 1630.39 z M 459.762 1591.36 C 497.265 1589.18 514.783 1591.37 551.636 1592.53 C 557.554 1582.92 564.124 1572.95 569.868 1563.44 C 486.283 1532.05 396.946 1521.48 308.188 1522.41 C 300.254 1524.04 302.377 1528.44 302.49 1536.23 C 309.562 1539.74 316.603 1543.32 323.612 1546.96 C 356.394 1544.76 458.351 1556.13 490.176 1565.39 C 452.428 1567.98 424.535 1569.49 387.14 1580 C 397.206 1585.28 407.149 1590.78 416.964 1596.5 C 431.284 1594.98 445.623 1592.81 459.762 1591.36 z M 1108.22 1626.26 L 1108.1 1667.88 C 1183.63 1672.72 1262.85 1684.99 1335.94 1704.52 C 1351.91 1708.79 1368.98 1713.62 1384.13 1720.17 L 1392.85 1715.4 L 1395.46 1713.21 C 1394.2 1711.06 1392.86 1710.43 1390.47 1709.66 C 1352.18 1697.32 1313.18 1686.23 1274.66 1674.78 C 1236.98 1663.45 1199.23 1652.37 1161.4 1641.55 C 1146.31 1637.17 1129.32 1631.61 1114.34 1627.68 C 1112.31 1627.16 1110.27 1626.69 1108.22 1626.26 z M 1250.06 1595.5 C 1250.21 1581.12 1249.88 1566.75 1249.08 1552.4 C 1239.08 1550.11 1224.43 1544.99 1214.32 1541.75 L 1153.34 1522.01 C 1138.79 1517.25 1115.77 1511.53 1103.04 1506.94 C 1103.08 1521.05 1103 1535.35 1103.23 1549.44 C 1138.6 1560.07 1173.56 1571.99 1208.9 1582.67 C 1222.17 1586.68 1236.78 1592.34 1250.06 1595.5 z M 1021.9 1536.59 C 1021.88 1551.84 1020.95 1573.7 1021.54 1588.07 C 1073.32 1601.53 1129.75 1622.67 1180.73 1634.68 C 1181.71 1622.11 1180.68 1599.88 1180.57 1586.61 C 1128.78 1569.81 1072.64 1554.1 1021.9 1536.59 z M 1155.75 757.845 C 1152.91 759.258 1150.04 760.155 1148.6 762.775 C 1148.06 780.888 1150.11 808.01 1151.1 826.551 L 1157.07 934.281 C 1166.48 936.802 1173.8 939.62 1182.87 943.042 L 1185.83 943.551 C 1188.63 939.136 1185.85 921.088 1185.36 914.712 L 1181.16 861.147 C 1179.17 836.234 1177.54 811.075 1174.61 786.271 C 1173.93 780.502 1160.84 759.497 1155.75 757.845 z" fill="rgb(28,53,32)" transform="translate(0,0)"></path>
<path d="M 867.237 741.199 C 869.004 741.004 870.782 740.952 872.557 741.042 C 887.05 741.73 899.088 754.053 898.359 768.822 C 895.282 831.181 894.488 894.46 888.846 956.636 C 870.927 963.514 850.762 973.447 833.166 981.678 C 825.684 985.316 818.047 989.357 810.616 993.157 C 815.582 943.379 818.151 893.104 821.699 843.173 C 824.566 802.829 823.695 760.765 867.237 741.199 z M 845.481 959.074 C 855.727 954.654 865.874 950.009 875.915 945.14 L 881.706 828.95 C 882.176 820.597 885.869 768.033 884.704 762.887 C 870.051 770.691 859.205 784.859 854.414 800.755 C 851.639 809.962 844.378 944.902 845.481 959.074 z" fill="rgb(28,53,32)" transform="translate(0,0)"></path>
<path d="M 1174.12 731.068 C 1180.6 736.421 1200.65 757.189 1202.74 764.196 C 1206.64 777.303 1208.16 803.066 1209.55 817.603 C 1212.55 847.851 1215.17 878.136 1217.4 908.451 C 1218.8 926.962 1220.04 947.186 1222.75 965.551 C 1223.12 968.057 1225.69 972.31 1227.03 974.65 L 1225.79 975.375 C 1198.2 964.253 1169.41 955.554 1142.24 945.008 L 1138.67 846.007 C 1137.92 829.226 1133.47 758.562 1136.03 747.794 C 1137.61 747.342 1148.79 740.997 1150.94 739.808 C 1159.78 735.876 1164.87 733.613 1174.12 731.068 z M 1157.07 934.281 C 1166.48 936.802 1173.8 939.62 1182.87 943.042 L 1185.83 943.551 C 1188.63 939.136 1185.85 921.088 1185.36 914.712 L 1181.16 861.147 C 1179.17 836.234 1177.54 811.075 1174.61 786.271 C 1173.93 780.502 1160.84 759.497 1155.75 757.845 C 1152.91 759.258 1150.04 760.155 1148.6 762.775 C 1148.06 780.888 1150.11 808.01 1151.1 826.551 L 1157.07 934.281 z" fill="rgb(28,53,32)" transform="translate(0,0)"></path>
<path d="M 843.993 1627.32 L 859.716 1622.72 C 859.107 1630.91 854.835 1669.02 855.381 1673.21 C 838.843 1677.45 819.149 1683.35 802.755 1688.67 C 795.271 1690.81 762.763 1699.76 758.061 1702.56 C 750.571 1704.67 733.304 1709.15 727.208 1712.65 L 727.057 1713.96 C 724.197 1712.89 724.691 1713.2 721.483 1713.38 L 720.517 1713.44 C 719.788 1710.31 721.337 1697.58 721.719 1693.57 C 722.538 1686.02 723.566 1678.23 723.648 1670.66 C 724.99 1668.02 726.456 1667.69 729.143 1666.36 C 756.045 1657.79 782.76 1647.39 809.841 1639.08 C 820.674 1635.75 833.756 1631.63 843.993 1627.32 z" fill="rgb(28,53,32)" transform="translate(0,0)"></path>
<path d="M 760.891 1595.61 C 766.228 1593.8 780.881 1586.87 784.934 1589.2 L 784.867 1594.27 C 783.294 1598.1 782.193 1615.34 781.981 1619.96 C 781.121 1625.18 780.885 1627.12 780.911 1632.38 C 780.375 1633.34 779.839 1634.3 779.302 1635.26 C 769.837 1639.74 752.92 1644.62 743.179 1647.67 C 736.458 1649.84 723.263 1653.62 717.229 1656.1 C 705.44 1659.47 693.7 1663 682.012 1666.69 C 675.796 1668.65 651.483 1677.04 646.462 1676.54 L 646.93 1669.52 C 647.674 1664.11 650.388 1647.44 648.664 1643.25 C 651.838 1640.91 651.237 1635.91 651.41 1632.08 L 682.276 1621.5 L 687.942 1619.61 L 760.891 1595.61 z" fill="rgb(28,53,32)" transform="translate(0,0)"></path>
<path d="M 854.777 1479.65 C 868.282 1473.62 894.928 1465.33 909.691 1460.27 C 925.56 1464.55 929.663 1466.44 920.738 1480.63 L 921.703 1481.47 C 909.036 1486.85 889.187 1491.68 875.494 1496.23 L 790.092 1525.48 C 771.925 1531.57 746.745 1539.06 729.729 1545.89 C 728.435 1542.29 724.512 1535.45 722.772 1531.72 C 721.187 1528.34 717.044 1527.92 713.498 1527.28 L 718.688 1525.29 C 723.002 1526.43 728.001 1530.07 732.089 1530.91 C 737.726 1532.06 742.191 1523.38 747.014 1521.95 C 750.073 1521.04 759.823 1521 763.304 1520.73 C 764.837 1520.62 762.026 1518.66 764.285 1516.91 C 770.428 1512.14 781.877 1518.35 787.758 1513.2 C 793.295 1501.79 799.406 1509.93 808.931 1504.8 C 809.077 1504.72 809.83 1499.85 813.666 1496.8 C 816.778 1496.83 836.746 1496.31 838.563 1494.9 C 835.257 1493.99 832.938 1493.72 830.423 1491.43 L 830.549 1487.5 L 836.992 1485.37 C 846.685 1485.97 847.832 1486.85 855.066 1480.49 L 854.777 1479.65 z" fill="rgb(249,247,235)" fill-opacity="0.243137" transform="translate(0,0)"></path>
<path d="M 753.044 1585.61 C 762.776 1581.49 780.317 1576.04 790.858 1572.57 L 858.255 1550.57 C 891.566 1539.75 924.584 1528.55 958.419 1519.52 C 970.134 1516.4 977.661 1512.45 989.915 1511.31 L 990.249 1512.14 C 986.066 1516.04 974.745 1521.76 969.332 1523.65 C 964.024 1521.45 953.751 1523.72 948.452 1525.79 L 947.591 1526.84 C 954.449 1528.15 953.766 1525.84 959.265 1527.66 C 907.834 1548.16 850.243 1565.15 797.181 1584.88 C 795.97 1599.61 794.962 1616.14 793.221 1630.7 C 796.832 1629.66 800.895 1628.35 804.526 1627.59 C 801.649 1632.32 798.362 1632.18 793.083 1633.2 L 791.127 1636.27 C 788.581 1632.26 793.967 1623.91 792.626 1619.25 C 789.462 1624.59 790.374 1624.24 783.736 1624.01 C 782.737 1628.82 782.115 1632.18 781.588 1637.05 L 780.905 1636.72 L 780.911 1632.38 C 780.885 1627.12 781.121 1625.18 781.981 1619.96 C 786.379 1621.7 785.688 1622.22 789.582 1621.48 C 792.003 1617.3 792.896 1600.73 793.556 1595.51 C 793.772 1593.8 792.067 1592.79 790.887 1591.9 C 788.163 1592.7 788.544 1592.92 786.313 1595.2 L 785.576 1595.97 L 784.867 1594.27 L 784.934 1589.2 C 780.881 1586.87 766.228 1593.8 760.891 1595.61 C 762.553 1592.42 763.254 1591.28 761.745 1588.25 C 759.34 1587.8 758.108 1587.58 755.645 1587.44 L 753.723 1587.34 L 753.044 1585.61 z" fill="rgb(249,247,235)" fill-opacity="0.976471" transform="translate(0,0)"></path>
<path d="M 804.526 1627.59 C 811.898 1624.49 826.919 1620.43 834.807 1618.48 L 836.813 1618.75 C 841.864 1619.38 843.933 1617.89 846.44 1620.18 C 846.016 1626.18 844.901 1623.47 843.993 1627.32 C 833.756 1631.63 820.674 1635.75 809.841 1639.08 C 782.76 1647.39 756.045 1657.79 729.143 1666.36 C 730.657 1660.57 741.152 1661.02 747.829 1655.77 C 745.442 1655.41 742.974 1655.77 740.689 1656.47 C 734.153 1658.47 734.869 1656 731.814 1660.74 L 729.947 1660.78 C 727.738 1658.67 726.682 1657.34 723.672 1656.37 L 724.58 1655.25 C 727.46 1655.65 741.988 1651.36 744.542 1648.99 L 743.179 1647.67 C 752.92 1644.62 769.837 1639.74 779.302 1635.26 C 779.839 1634.3 780.375 1633.34 780.911 1632.38 L 780.905 1636.72 L 781.588 1637.05 C 782.115 1632.18 782.737 1628.82 783.736 1624.01 C 790.374 1624.24 789.462 1624.59 792.626 1619.25 C 793.967 1623.91 788.581 1632.26 791.127 1636.27 L 793.083 1633.2 C 798.362 1632.18 801.649 1632.32 804.526 1627.59 z" fill="rgb(247,248,233)" fill-opacity="0.905882" transform="translate(0,0)"></path>
<path d="M 779.491 1197.33 C 782.252 1195.31 782.338 1195.03 783.85 1192.14 L 785.368 1189.23 L 786.07 1187.86 L 787.249 1188.11 C 785.807 1202.98 783.76 1217.79 781.113 1232.5 C 804.682 1221.66 828.619 1212.58 851.732 1202.04 L 853.063 1203.03 C 853.478 1206.91 854.038 1205.42 852.56 1208.27 C 846.111 1211.69 840.51 1213.89 833.727 1216.63 C 833.081 1222.89 833.348 1229.88 827.76 1233.73 C 824.155 1229.67 825.569 1225.43 826.192 1220.33 C 789.521 1236.89 746.711 1255.14 708.858 1268.71 C 725.336 1255.3 755.159 1246.27 773.645 1235.19 C 775.207 1234.26 778.219 1201.29 779.491 1197.33 z" fill="rgb(249,247,235)" transform="translate(0,0)"></path>
<path d="M 867.364 1608.73 C 898.331 1596.59 934.961 1589.59 966.739 1578.86 C 971.405 1577.29 978.179 1574.99 982.877 1576.93 L 983.297 1578.95 L 983.753 1578.09 L 982.167 1576.67 L 981.543 1580.07 C 960.107 1589.53 936.632 1597.5 914.413 1605.11 C 902.033 1609.35 882.836 1616.59 870.312 1619.43 C 871.237 1617.89 872.905 1616.68 874.327 1615.42 L 873.956 1613.96 C 871.126 1614.23 865.494 1620.56 861.195 1613.59 C 863.365 1611.98 865.281 1610.43 867.364 1608.73 z" fill="rgb(249,247,235)" fill-opacity="0.972549" transform="translate(0,0)"></path>
<path d="M 717.229 1656.1 C 723.263 1653.62 736.458 1649.84 743.179 1647.67 L 744.542 1648.99 C 741.988 1651.36 727.46 1655.65 724.58 1655.25 L 723.672 1656.37 C 726.682 1657.34 727.738 1658.67 729.947 1660.78 L 731.814 1660.74 C 734.869 1656 734.153 1658.47 740.689 1656.47 C 742.974 1655.77 745.442 1655.41 747.829 1655.77 C 741.152 1661.02 730.657 1660.57 729.143 1666.36 C 726.456 1667.69 724.99 1668.02 723.648 1670.66 C 716.602 1666.73 706.188 1665.69 704.027 1675.36 C 687.9 1682.33 670.014 1685.7 654.977 1691.64 C 653.696 1688.87 654.803 1688.71 652.934 1685.5 C 648.762 1682.88 644.04 1686.46 634.802 1681.94 L 634.25 1681.85 C 635.332 1678.73 635.895 1674.91 636.537 1671.6 C 639.882 1670.8 643.525 1670.17 646.93 1669.52 L 646.462 1676.54 C 651.483 1677.04 675.796 1668.65 682.012 1666.69 C 687.108 1676.05 689.453 1674.74 699.181 1674.5 C 707.757 1666.47 714.918 1665.49 718.06 1657.55 L 717.229 1656.1 z" fill="rgb(247,248,233)" fill-opacity="0.74902" transform="translate(0,0)"></path>
<path d="M 834.807 1618.48 C 845.578 1614.96 856.434 1611.71 867.364 1608.73 C 865.281 1610.43 863.365 1611.98 861.195 1613.59 C 865.494 1620.56 871.126 1614.23 873.956 1613.96 L 874.327 1615.42 C 872.905 1616.68 871.237 1617.89 870.312 1619.43 C 868.976 1621.32 865.396 1664.78 865.217 1669.74 C 867.813 1670.32 869.38 1669.48 871.936 1668.65 C 872.753 1669.29 876.158 1672.08 876.826 1672.45 C 882.069 1674.61 883.784 1674.47 889.344 1674.92 C 877.499 1678.88 850.238 1687.79 838.315 1690.45 C 843.554 1682.38 849.965 1686.48 855.957 1681.9 C 857.185 1677.71 856.501 1678.13 855.381 1673.21 C 854.835 1669.02 859.107 1630.91 859.716 1622.72 L 843.993 1627.32 C 844.901 1623.47 846.016 1626.18 846.44 1620.18 C 843.933 1617.89 841.864 1619.38 836.813 1618.75 L 834.807 1618.48 z" fill="rgb(249,247,235)" fill-opacity="0.964706" transform="translate(0,0)"></path>
<path d="M 727.662 1580.99 L 731.823 1584.68 C 731.748 1588.84 730.981 1588.84 733.058 1591.06 C 739.723 1591.78 745.944 1587.51 753.044 1585.61 L 753.723 1587.34 L 755.645 1587.44 C 758.108 1587.58 759.34 1587.8 761.745 1588.25 C 763.254 1591.28 762.553 1592.42 760.891 1595.61 L 687.942 1619.61 L 688.831 1615.37 C 687.567 1611.59 686.117 1611.7 681.907 1609.5 C 696.276 1604.41 711.261 1599.71 725.784 1594.96 L 727.662 1580.99 z" fill="rgb(249,247,235)" fill-opacity="0.964706" transform="translate(0,0)"></path>
<path d="M 646.902 1548.27 C 652.443 1547.23 657.849 1545.92 663.333 1544.62 C 653.834 1552.38 650.087 1560.44 661.96 1568.61 C 654.663 1571.17 628.846 1580.46 621.868 1581.57 C 621.411 1579.84 619.275 1578.42 617.458 1576.99 C 615.036 1575.08 616.628 1565.29 616.864 1561.13 L 618.184 1559.65 L 617.332 1558.57 C 618.625 1557.82 619.879 1557.7 621.435 1557.32 C 630.948 1561.64 640.31 1555.17 646.902 1548.27 z" fill="rgb(249,247,235)" fill-opacity="0.329412" transform="translate(0,0)"></path>
<path d="M 883.703 1665.57 C 898.436 1661.45 978.486 1638.58 988.17 1639.54 L 988.331 1639.78 L 987.226 1639.58 L 986.507 1641.4 C 979.998 1644.66 974.374 1647.53 967.362 1649.57 C 957.934 1652.31 958.019 1655.52 948.52 1651.9 C 945.436 1652.75 946.449 1651.89 944.578 1653.86 C 946.327 1654.36 947.73 1654.74 949.509 1655.12 C 940.909 1659.08 899.507 1672.71 889.344 1674.92 C 883.784 1674.47 882.069 1674.61 876.826 1672.45 C 884.219 1672.7 888.928 1673.03 895.062 1668.86 L 894.995 1667.93 C 891.674 1667.74 888.987 1667.68 885.656 1667.69 L 883.703 1665.57 z" fill="rgb(249,247,235)" fill-opacity="0.933333" transform="translate(0,0)"></path>
<path d="M 830.549 1487.5 L 830.423 1491.43 C 832.938 1493.72 835.257 1493.99 838.563 1494.9 C 836.746 1496.31 816.778 1496.83 813.666 1496.8 C 809.83 1499.85 809.077 1504.72 808.931 1504.8 C 799.406 1509.93 793.295 1501.79 787.758 1513.2 C 781.877 1518.35 770.428 1512.14 764.285 1516.91 C 762.026 1518.66 764.837 1520.62 763.304 1520.73 C 759.823 1521 750.073 1521.04 747.014 1521.95 C 742.191 1523.38 737.726 1532.06 732.089 1530.91 C 728.001 1530.07 723.002 1526.43 718.688 1525.29 L 763.691 1510.28 C 770.001 1511.04 776.252 1512.65 781.87 1510.34 C 784.916 1506.95 783.998 1507.7 785.151 1502.64 C 799.767 1497.18 815.658 1492.16 830.549 1487.5 z" fill="rgb(249,247,235)" fill-opacity="0.0588235" transform="translate(0,0)"></path>
<path d="M 663.333 1544.62 C 671.348 1541.39 679.535 1538.7 687.715 1535.92 C 695.919 1550.2 687.863 1553.25 677.723 1563.43 L 661.96 1568.61 C 650.087 1560.44 653.834 1552.38 663.333 1544.62 z" fill="rgb(249,247,235)" fill-opacity="0.301961" transform="translate(0,0)"></path>
<path d="M 809.516 1361.35 C 802.285 1364.53 762.926 1383.2 757.876 1377.38 L 758.193 1375.77 C 765.362 1372.04 786.277 1364.03 794.998 1360.96 C 822.142 1351.41 864.803 1333.45 892.009 1327.38 C 865.804 1338.53 839.454 1349.35 812.967 1359.82 C 812.441 1363.88 812.358 1364.88 811.036 1368.69 L 809.315 1370.61 C 809.18 1368.2 809.435 1363.92 809.516 1361.35 z" fill="rgb(249,247,235)" transform="translate(0,0)"></path>
<path d="M 729.189 1131.8 C 743.351 1120.82 800.052 1089.57 815.454 1084.97 C 819.53 1087.18 820.061 1087.34 824.674 1087.15 C 810.41 1094.64 741.582 1130.53 728.818 1132.59 L 729.189 1131.8 z" fill="rgb(252,250,242)" transform="translate(0,0)"></path>
<path d="M 855.381 1673.21 C 856.501 1678.13 857.185 1677.71 855.957 1681.9 C 849.965 1686.48 843.554 1682.38 838.315 1690.45 C 824.711 1695.28 809.636 1699.2 795.765 1703.67 C 800.797 1697.13 804.471 1698.53 806.749 1693.17 C 805.374 1690.23 805.499 1690.86 802.755 1688.67 C 819.149 1683.35 838.843 1677.45 855.381 1673.21 z" fill="rgb(249,247,235)" fill-opacity="0.87451" transform="translate(0,0)"></path>
<path d="M 802.755 1688.67 C 805.499 1690.86 805.374 1690.23 806.749 1693.17 C 804.471 1698.53 800.797 1697.13 795.765 1703.67 C 784.214 1707.61 767.988 1712.88 756.107 1715.65 L 755.668 1712.94 L 758.696 1710.64 C 759.661 1707.45 759.729 1708.94 758.9 1706.02 C 756.446 1705.81 757.575 1706.01 755.501 1705.49 L 759.636 1703.73 L 758.061 1702.56 C 762.763 1699.76 795.271 1690.81 802.755 1688.67 z" fill="rgb(249,247,235)" fill-opacity="0.388235" transform="translate(0,0)"></path>
<path d="M 1134.53 723.236 C 1140.56 719.525 1160.19 710.946 1167.31 707.694 L 1168.44 709.369 C 1170 711.64 1170.52 712.119 1172.48 713.993 C 1173.35 717.335 1173.43 715.73 1172.25 718.978 C 1163.76 726.013 1156.51 725.283 1150.02 734.577 C 1145.19 736.905 1142.96 734.619 1138.94 735.892 C 1134.71 737.234 1136.89 740.499 1131.84 742.751 C 1131.3 734.487 1139.79 735.119 1134.53 723.236 z" fill="rgb(247,248,233)" fill-opacity="0.254902" transform="translate(0,0)"></path>
<path d="M 851.611 1123.43 C 851.284 1127.04 851 1128.67 851.485 1132.33 C 853.5 1133.1 852.461 1133.05 854.604 1132.39 L 859.945 1136.81 C 850.953 1141.26 801.784 1165.25 793.252 1167.69 C 792.666 1165.48 791.605 1163.32 790.691 1161.18 C 809.291 1152.45 828.006 1143.96 846.829 1135.72 C 846.976 1131.33 847.218 1128.59 847.823 1124.24 L 851.611 1123.43 z" fill="rgb(249,247,235)" transform="translate(0,0)"></path>
<path d="M 687.715 1535.92 L 698.617 1532 C 703.353 1533.67 702.163 1532.53 704.881 1536.07 C 705.282 1539.61 705.346 1540.73 706.468 1544.22 C 709.679 1546.69 707.966 1546.23 711.623 1546.16 C 722.452 1538.76 718.924 1544.32 727.216 1546.29 C 714.589 1551.83 691.609 1558.76 677.723 1563.43 C 687.863 1553.25 695.919 1550.2 687.715 1535.92 z" fill="rgb(249,247,235)" fill-opacity="0.435294" transform="translate(0,0)"></path>
<path d="M 713.719 1681.16 C 717.798 1680.55 716.079 1680.09 719.184 1682 C 720.18 1685.86 719.92 1686.93 719.701 1691 L 721.009 1693.53 L 721.719 1693.57 C 721.337 1697.58 719.788 1710.31 720.517 1713.44 L 721.483 1713.38 C 724.691 1713.2 724.197 1712.89 727.057 1713.96 C 723.259 1718.09 720.435 1719.64 722.042 1725.4 C 718.157 1727.05 712.875 1730.03 709.055 1728.15 C 707.078 1722.07 708.174 1722.71 702.385 1721.44 L 701.539 1720.67 C 703.266 1719.75 707.476 1718.06 709.437 1717.2 C 711.038 1705.21 712.465 1693.19 713.719 1681.16 z" fill="rgb(249,247,235)" fill-opacity="0.92549" transform="translate(0,0)"></path>
<path d="M 646.146 1621.55 C 660.04 1638.46 672.183 1609.12 682.276 1621.5 L 651.41 1632.08 C 645.778 1629.11 633.163 1633.06 626.656 1634.88 C 624.298 1637.36 624.135 1637.49 623.839 1641.78 L 618.976 1643.91 C 620.494 1641.36 621.907 1639.2 621.616 1636.32 C 619.07 1634.82 615.796 1635.39 612.42 1635.38 L 610.753 1633.4 C 622.622 1629.66 634.421 1625.71 646.146 1621.55 z" fill="rgb(249,247,235)" fill-opacity="0.870588" transform="translate(0,0)"></path>
<path d="M 1167.31 707.694 L 1168.91 706.981 C 1172.91 705.232 1173.97 704.681 1177.48 706.041 C 1172.4 711.83 1173.28 712.269 1174.18 720.216 C 1171.14 728.098 1155.7 732.833 1147.71 737.826 C 1138.17 736.563 1124.43 757.199 1117.82 738.584 L 1114.12 734.678 C 1119.88 730.791 1122.12 729.316 1128.49 726.34 C 1127.86 731.239 1126.74 735.805 1128.23 740.361 C 1130.2 742.32 1129.3 741.818 1131.84 742.751 C 1136.89 740.499 1134.71 737.234 1138.94 735.892 C 1142.96 734.619 1145.19 736.905 1150.02 734.577 C 1156.51 725.283 1163.76 726.013 1172.25 718.978 C 1173.43 715.73 1173.35 717.335 1172.48 713.993 C 1170.52 712.119 1170 711.64 1168.44 709.369 L 1167.31 707.694 z" fill="rgb(247,248,233)" fill-opacity="0.129412" transform="translate(0,0)"></path>
<path d="M 929.792 590.474 C 931.803 591.396 931.102 590.672 931.993 592.542 C 927.149 598.363 888.553 615.524 879.611 618.933 L 879.104 618.749 C 877.471 616.341 877.908 617.639 877.779 614.707 C 881.68 609.627 922.351 592.022 929.792 590.474 z" fill="rgb(249,247,235)" fill-opacity="0.211765" transform="translate(0,0)"></path>
<path d="M 819.865 1283.81 L 821.751 1283.85 C 825.19 1284.89 824.188 1284.13 826.648 1286.32 C 825.281 1288.12 773.689 1309.58 768.934 1310.15 C 767.301 1307.62 767.729 1308.71 767.604 1305.53 C 772.918 1302.14 813.03 1285.85 819.865 1283.81 z" fill="rgb(249,247,235)" transform="translate(0,0)"></path>
<path d="M 574.089 1646.36 C 582.21 1649.49 587.899 1641.03 591.104 1647.33 L 590.1 1652.14 C 580.558 1652.95 562.38 1666.91 553.976 1659.74 C 553.392 1656.09 553.076 1657.68 554.215 1654.7 C 558.779 1651.42 568.53 1648.19 574.089 1646.36 z" fill="rgb(252,250,242)" fill-opacity="0.145098" transform="translate(0,0)"></path>
<path d="M 844.74 628.118 L 844.968 628.253 L 845.822 629.963 C 848.636 630.932 848.742 630.721 850.74 632.83 C 846.795 634.501 842.129 637.145 837.897 639.002 C 833.375 640.986 821.604 643.877 818.406 645.685 C 808.259 651.424 801.219 654.653 790.624 659.141 C 786.823 660.892 786.851 661.018 782.791 661.547 L 781.992 660.749 C 789.971 654.582 833.646 633.632 844.74 628.118 z" fill="rgb(249,247,235)" transform="translate(0,0)"></path>
<path d="M 698.617 1532 C 703.553 1530.35 708.514 1528.78 713.498 1527.28 C 717.044 1527.92 721.187 1528.34 722.772 1531.72 C 724.512 1535.45 728.435 1542.29 729.729 1545.89 L 727.216 1546.29 C 718.924 1544.32 722.452 1538.76 711.623 1546.16 C 707.966 1546.23 709.679 1546.69 706.468 1544.22 C 705.346 1540.73 705.282 1539.61 704.881 1536.07 C 702.163 1532.53 703.353 1533.67 698.617 1532 z" fill="rgb(249,247,235)" fill-opacity="0.27451" transform="translate(0,0)"></path>
<path d="M 646.146 1621.55 C 655.977 1618.89 671.802 1612.93 681.907 1609.5 C 686.117 1611.7 687.567 1611.59 688.831 1615.37 L 687.942 1619.61 L 682.276 1621.5 C 672.183 1609.12 660.04 1638.46 646.146 1621.55 z" fill="rgb(249,247,235)" fill-opacity="0.807843" transform="translate(0,0)"></path>
<path d="M 717.229 1656.1 L 718.06 1657.55 C 714.918 1665.49 707.757 1666.47 699.181 1674.5 C 689.453 1674.74 687.108 1676.05 682.012 1666.69 C 693.7 1663 705.44 1659.47 717.229 1656.1 z" fill="rgb(249,247,235)" fill-opacity="0.454902" transform="translate(0,0)"></path>
<path d="M 603.22 1635.53 C 609.406 1644.1 611.326 1639.34 617.837 1643.65 C 610.567 1645.95 597.075 1650.66 590.1 1652.14 L 591.104 1647.33 C 587.899 1641.03 582.21 1649.49 574.089 1646.36 C 583.062 1642.56 593.962 1638.82 603.22 1635.53 z" fill="rgb(249,247,235)" fill-opacity="0.988235" transform="translate(0,0)"></path>
<path d="M 726.661 1195.46 C 743.815 1184.04 766.153 1173.19 784.88 1164.38 C 783.88 1168.86 782.734 1171.85 777.759 1172.94 L 778.007 1174.46 C 764.376 1181.7 741.238 1190.68 726.661 1195.46 z" fill="rgb(252,250,242)" transform="translate(0,0)"></path>
<path d="M 639.509 1648.04 C 643.549 1643.21 643.372 1643.86 648.664 1643.25 C 650.388 1647.44 647.674 1664.11 646.93 1669.52 C 643.525 1670.17 639.882 1670.8 636.537 1671.6 C 637.271 1662.78 637.972 1656.73 639.509 1648.04 z" fill="rgb(252,250,242)" fill-opacity="0.0196078" transform="translate(0,0)"></path>
<path d="M 784.867 1594.27 L 785.576 1595.97 L 786.313 1595.2 C 788.544 1592.92 788.163 1592.7 790.887 1591.9 C 792.067 1592.79 793.772 1593.8 793.556 1595.51 C 792.896 1600.73 792.003 1617.3 789.582 1621.48 C 785.688 1622.22 786.379 1621.7 781.981 1619.96 C 782.193 1615.34 783.294 1598.1 784.867 1594.27 z" fill="rgb(249,247,235)" fill-opacity="0.913725" transform="translate(0,0)"></path>
<path d="M 623.839 1641.78 C 624.135 1637.49 624.298 1637.36 626.656 1634.88 C 633.163 1633.06 645.778 1629.11 651.41 1632.08 C 651.237 1635.91 651.838 1640.91 648.664 1643.25 C 643.372 1643.86 643.549 1643.21 639.509 1648.04 C 639.073 1644.25 640.138 1642.2 638.173 1638.61 C 634.741 1637.41 628.2 1640.4 623.839 1641.78 z" fill="rgb(249,247,235)" fill-opacity="0.988235" transform="translate(0,0)"></path>
<path d="M 784.88 1164.38 C 785.675 1163.77 789.572 1161.78 790.691 1161.18 C 791.605 1163.32 792.666 1165.48 793.252 1167.69 C 787.344 1174.43 789.606 1182.2 787.249 1188.11 L 786.07 1187.86 L 785.368 1189.23 L 783.85 1192.14 C 782.338 1195.03 782.252 1195.31 779.491 1197.33 C 780.083 1192.1 783.333 1178.25 780.884 1174.36 L 778.007 1174.46 L 777.759 1172.94 C 782.734 1171.85 783.88 1168.86 784.88 1164.38 z" fill="rgb(252,250,242)" fill-opacity="0.866667" transform="translate(0,0)"></path>
<path d="M 753.781 1348.41 C 754.333 1340.06 754.622 1322.14 759.351 1316.76 C 759.623 1316.45 760.25 1314.55 760.431 1314.04 C 762.182 1313.33 761.655 1313.23 763.292 1313.41 C 762.098 1326.33 760.499 1337.9 758.612 1350.75 C 757.516 1349.22 755.994 1349.17 753.781 1348.41 z" fill="rgb(252,250,242)" transform="translate(0,0)"></path>
<path d="M 749.589 1379.09 C 754.702 1385.52 751.847 1377.71 756.074 1382.83 C 740.534 1388.33 728.192 1392.87 712.221 1397.99 C 711.697 1398.17 708.8 1398.62 708.151 1398.73 C 710.954 1395.27 742.995 1381.95 749.589 1379.09 z" fill="rgb(249,247,235)" transform="translate(0,0)"></path>
<path d="M 634.802 1681.94 C 644.04 1686.46 648.762 1682.88 652.934 1685.5 C 654.803 1688.71 653.696 1688.87 654.977 1691.64 C 648.832 1693.5 642.661 1695.27 636.464 1696.95 C 636.855 1689.82 633.953 1688.32 634.802 1681.94 z" fill="rgb(249,247,235)" fill-opacity="0.654902" transform="translate(0,0)"></path>
<path d="M 704.027 1675.36 C 706.188 1665.69 716.602 1666.73 723.648 1670.66 C 723.566 1678.23 722.538 1686.02 721.719 1693.57 L 721.009 1693.53 L 719.701 1691 C 719.92 1686.93 720.18 1685.86 719.184 1682 C 716.079 1680.09 717.798 1680.55 713.719 1681.16 C 714.248 1678.19 714.933 1676.17 714.046 1673.32 C 711.329 1672.38 707.359 1674.32 704.027 1675.36 z" fill="rgb(252,250,242)" fill-opacity="0.976471" transform="translate(0,0)"></path>
<path d="M 868.209 1266.04 L 868.888 1267.83 C 862.128 1270.97 833.092 1286.51 828.827 1282.77 L 825.49 1281.08 C 829.779 1280.32 861.548 1268.4 868.209 1266.04 z" fill="rgb(249,247,235)" transform="translate(0,0)"></path>
<path d="M 1117.82 738.584 C 1124.43 757.199 1138.17 736.563 1147.71 737.826 L 1150.94 739.808 C 1148.79 740.997 1137.61 747.342 1136.03 747.794 C 1129.89 744.442 1124.49 752.017 1118.68 748.577 C 1116.92 744.716 1117.48 743.005 1117.82 738.584 z" fill="rgb(247,248,233)" fill-opacity="0.0196078" transform="translate(0,0)"></path>
<path d="M 848.304 1069.31 L 849.37 1071.52 C 844.787 1076.68 831.314 1083.49 824.674 1087.15 C 824.486 1083.06 825.144 1084.93 822.132 1081.57 C 831.066 1076.73 839.796 1073.69 848.304 1069.31 z" fill="rgb(249,247,235)" transform="translate(0,0)"></path>
<path d="M 756.904 1310.04 C 757.67 1312.73 757.542 1311.35 756.631 1314.26 C 750.902 1318.88 728.072 1326.05 720.13 1328.81 L 719.547 1328.49 C 722.602 1325.22 751.244 1312.62 756.904 1310.04 z" fill="rgb(249,247,235)" transform="translate(0,0)"></path>
<path d="M 847.823 1124.24 C 848.293 1115.84 848.572 1098.6 851.765 1091.53 L 853.281 1091.91 C 855.105 1096.35 852.289 1117.21 851.611 1123.43 L 847.823 1124.24 z" fill="rgb(252,250,242)" fill-opacity="0.00784314" transform="translate(0,0)"></path>
<path d="M 603.22 1635.53 L 610.753 1633.4 L 612.42 1635.38 C 615.796 1635.39 619.07 1634.82 621.616 1636.32 C 621.907 1639.2 620.494 1641.36 618.976 1643.91 L 617.837 1643.65 C 611.326 1639.34 609.406 1644.1 603.22 1635.53 z" fill="rgb(249,247,235)" fill-opacity="0.572549" transform="translate(0,0)"></path>
<path d="M 1128.49 726.34 C 1129.13 725.887 1133.56 723.731 1134.53 723.236 C 1139.79 735.119 1131.3 734.487 1131.84 742.751 C 1129.3 741.818 1130.2 742.32 1128.23 740.361 C 1126.74 735.805 1127.86 731.239 1128.49 726.34 z" fill="rgb(247,248,233)" fill-opacity="0.305882" transform="translate(0,0)"></path>
<path d="M 986.768 564.967 L 988.326 565.193 C 985.773 569.097 966.407 577.651 960.957 580.226 L 959.737 579.691 L 954.776 578.855 L 954.982 577.848 C 964.904 574.762 977.023 569.138 986.768 564.967 z" fill="rgb(249,247,235)" transform="translate(0,0)"></path>
<path d="M 854.604 1132.39 C 859.458 1129.89 866.421 1126.79 871.585 1125.29 C 873.437 1127.06 873.568 1127.53 875.732 1128.6 C 872.471 1130.85 863.704 1135.33 859.945 1136.81 L 854.604 1132.39 z" fill="rgb(252,250,242)" fill-opacity="0.443137" transform="translate(0,0)"></path>
<path d="M 753.781 1348.41 C 755.994 1349.17 757.516 1349.22 758.612 1350.75 C 758.163 1355.32 757.954 1369.71 755.351 1372 L 754.765 1371.82 L 751.982 1365.88 C 752.436 1360.18 753.18 1354.12 753.781 1348.41 z" fill="rgb(252,250,242)" fill-opacity="0.219608" transform="translate(0,0)"></path>
<path d="M 871.936 1668.65 L 883.703 1665.57 L 885.656 1667.69 C 888.987 1667.68 891.674 1667.74 894.995 1667.93 L 895.062 1668.86 C 888.928 1673.03 884.219 1672.7 876.826 1672.45 C 876.158 1672.08 872.753 1669.29 871.936 1668.65 z" fill="rgb(249,247,235)" fill-opacity="0.486275" transform="translate(0,0)"></path>
<path d="M 904.207 1182.09 L 905.257 1182.47 C 898.678 1186.55 882.863 1193.7 875.307 1197.38 L 872.194 1194.81 C 874.678 1192.92 899.446 1183.88 904.207 1182.09 z" fill="rgb(247,248,233)" transform="translate(0,0)"></path>
<path d="M 805.915 1394.49 L 807.782 1396.56 C 808.738 1403.24 804.347 1427.61 803.057 1434.67 C 802.714 1421.03 803.919 1407.98 805.915 1394.49 z" fill="rgb(252,250,242)" fill-opacity="0.882353" transform="translate(0,0)"></path>
<path d="M 733.317 1551.28 C 733.083 1562.63 732.058 1573.92 731.823 1584.68 L 727.662 1580.99 C 729.37 1570.45 730.832 1561.71 733.317 1551.28 z" fill="rgb(252,250,242)" fill-opacity="0.780392" transform="translate(0,0)"></path>
<path d="M 1211.52 722.111 C 1217.03 725.636 1224.76 730.268 1229.54 734.359 L 1224.94 738.174 C 1221.99 736.045 1214.14 725.485 1211.52 722.111 z" fill="rgb(247,248,233)" transform="translate(0,0)"></path>
<path d="M 852.345 1069.99 L 855.118 1071.05 C 856.347 1074.98 855.079 1086.25 854.735 1090.99 C 852.289 1090.02 853.051 1090.63 851.337 1088.79 C 850.515 1083 851.856 1076.28 852.345 1069.99 z" fill="rgb(252,250,242)" transform="translate(0,0)"></path>
<path d="M 910.176 1109.89 C 905.849 1112.91 890.619 1121.6 885.734 1123.11 L 881.91 1121.29 C 887.492 1117.89 903.52 1112.32 910.176 1109.89 z" fill="rgb(247,248,233)" transform="translate(0,0)"></path>
<path d="M 959.265 1527.66 C 953.766 1525.84 954.449 1528.15 947.591 1526.84 L 948.452 1525.79 C 953.751 1523.72 964.024 1521.45 969.332 1523.65 C 966.197 1525.01 962.496 1526.82 959.265 1527.66 z" fill="rgb(249,247,235)" fill-opacity="0.847059" transform="translate(0,0)"></path>
<path d="M 809.315 1370.61 L 811.036 1368.69 C 811.117 1378.72 809.766 1386.72 807.782 1396.56 L 805.915 1394.49 C 807.194 1387.3 808.182 1378.08 809.315 1370.61 z" fill="rgb(252,250,242)" fill-opacity="0.0705882" transform="translate(0,0)"></path>
<path d="M 881.91 1121.29 L 885.734 1123.11 L 875.732 1128.6 C 873.568 1127.53 873.437 1127.06 871.585 1125.29 L 881.91 1121.29 z" fill="rgb(249,247,235)" fill-opacity="0.0117647" transform="translate(0,0)"></path>
<path d="M 836.992 1485.37 C 843.698 1482.76 847.804 1481.52 854.777 1479.65 L 855.066 1480.49 C 847.832 1486.85 846.685 1485.97 836.992 1485.37 z" fill="rgb(249,247,235)" fill-opacity="0.223529" transform="translate(0,0)"></path>
<path d="M 868.209 1266.04 C 871.177 1264.79 873.669 1263.25 876.687 1263.8 C 874.909 1266.13 871.807 1266.77 868.888 1267.83 L 868.209 1266.04 z" fill="rgb(159,175,159)" transform="translate(0,0)"></path>
<metadata><recraft-signature>{"signed_by": "recraft", "signature_b64": "A3Fnz3499iwv+JgkH5pnYsB2RZ013FpMj2FcomFD46fF1p+LgKpiiW97NIiTa1HI7HY6MM27T3raQS3c1sqwCg==", "signing_algo": "Ed25519", "generation_timestamp": 1782749908, "identifier": "bad502f4-86a9-480d-9152-a9177e779073"}</recraft-signature></metadata></svg>