<svg xmlns="http://www.w3.org/2000/svg" height="1024" preserveAspectRatio="none" style="display: block;" version="1.1" viewBox="0 0 2048 2048" width="1024">
<defs>
	<linearGradient gradientUnits="userSpaceOnUse" id="Gradient1" x1="985.908" x2="981.271" y1="1039" y2="1036.57">
		<stop class="stop0" offset="0" stop-color="rgb(255,255,255)" stop-opacity="0"></stop>
		<stop class="stop1" offset="1" stop-color="rgb(244,248,246)" stop-opacity="0.0313725"></stop>
	</linearGradient>
	<linearGradient gradientUnits="userSpaceOnUse" id="Gradient2" x1="1640.23" x2="1641.01" y1="401.394" y2="408.894">
		<stop class="stop0" offset="0" stop-color="rgb(255,255,255)" stop-opacity="0.929412"></stop>
		<stop class="stop1" offset="1" stop-color="rgb(255,255,255)" stop-opacity="0.960784"></stop>
	</linearGradient>
	<linearGradient gradientUnits="userSpaceOnUse" id="Gradient3" x1="1541.42" x2="1563.59" y1="487.408" y2="495.503">
		<stop class="stop0" offset="0" stop-color="rgb(255,255,255)" stop-opacity="0.760784"></stop>
		<stop class="stop1" offset="1" stop-color="rgb(255,255,255)" stop-opacity="0.87451"></stop>
	</linearGradient>
	<linearGradient gradientUnits="userSpaceOnUse" id="Gradient4" x1="991.062" x2="1040.5" y1="1565.77" y2="1565.32">
		<stop class="stop0" offset="0" stop-color="rgb(255,255,255)" stop-opacity="0"></stop>
		<stop class="stop1" offset="1" stop-color="rgb(254,252,253)" stop-opacity="0.0392157"></stop>
	</linearGradient>
	<linearGradient gradientUnits="userSpaceOnUse" id="Gradient5" x1="800.76" x2="825.24" y1="615.846" y2="614.154">
		<stop class="stop0" offset="0" stop-color="rgb(210,224,164)" stop-opacity="0.780392"></stop>
		<stop class="stop1" offset="1" stop-color="rgb(240,197,169)" stop-opacity="0.878431"></stop>
	</linearGradient>
	<linearGradient gradientUnits="userSpaceOnUse" id="Gradient6" x1="1020.35" x2="1017.06" y1="1878.35" y2="1915.07">
		<stop class="stop0" offset="0" stop-color="rgb(223,204,165)" stop-opacity="0.960784"></stop>
		<stop class="stop1" offset="1" stop-color="rgb(221,204,163)" stop-opacity="1"></stop>
	</linearGradient>
	<linearGradient gradientUnits="userSpaceOnUse" id="Gradient7" x1="1219.74" x2="1355.84" y1="809.649" y2="709.091">
		<stop class="stop0" offset="0" stop-color="rgb(255,255,255)" stop-opacity="0"></stop>
		<stop class="stop1" offset="1" stop-color="rgb(255,255,255)" stop-opacity="0.129412"></stop>
	</linearGradient>
	<linearGradient gradientUnits="userSpaceOnUse" id="Gradient8" x1="1390.99" x2="1461.92" y1="603.308" y2="644.259">
		<stop class="stop0" offset="0" stop-color="rgb(255,255,255)" stop-opacity="0.317647"></stop>
		<stop class="stop1" offset="1" stop-color="rgb(255,254,255)" stop-opacity="0.698039"></stop>
	</linearGradient>
	<linearGradient gradientUnits="userSpaceOnUse" id="Gradient9" x1="1879.45" x2="1905.1" y1="1024.49" y2="1023.52">
		<stop class="stop0" offset="0" stop-color="rgb(218,202,160)" stop-opacity="0.952941"></stop>
		<stop class="stop1" offset="1" stop-color="rgb(221,201,153)" stop-opacity="1"></stop>
	</linearGradient>
	<linearGradient gradientUnits="userSpaceOnUse" id="Gradient10" x1="1262.13" x2="1193.86" y1="1472.41" y2="1462.59">
		<stop class="stop0" offset="0" stop-color="rgb(231,209,165)" stop-opacity="0.964706"></stop>
		<stop class="stop1" offset="1" stop-color="rgb(220,206,165)" stop-opacity="1"></stop>
	</linearGradient>
	<linearGradient gradientUnits="userSpaceOnUse" id="Gradient11" x1="1576.43" x2="1476.4" y1="948.101" y2="224.848">
		<stop class="stop0" offset="0" stop-color="rgb(255,255,255)" stop-opacity="0"></stop>
		<stop class="stop1" offset="1" stop-color="rgb(255,255,255)" stop-opacity="0.0509804"></stop>
	</linearGradient>
</defs>
<path d="M 780.397 115.982 L 1268.56 115.843 C 1270.45 185.169 1265.93 260.881 1268.29 329.97 C 1298.4 310.414 1321.11 292.027 1353.99 273.127 C 1444.96 220.835 1547.27 189.096 1651.27 176.519 C 1687.4 172.149 1723.92 170.484 1760.5 165.985 C 1819.34 158.75 1860.81 148.412 1916.71 130.751 C 1903.49 176.872 1889.92 228.077 1884.5 275.712 C 1872.77 378.617 1865.99 480.701 1829.08 578.767 C 1810.9 626.625 1787.71 672.422 1759.88 715.388 C 1751.2 728.584 1723.36 765.835 1718.07 776.957 C 1785.18 778.181 1864.78 779.979 1931.32 777.075 C 1932.1 876.752 1932.29 976.432 1931.88 1076.11 C 1931.87 1139.66 1933.21 1206.69 1932.22 1269.99 C 1889.19 1270.47 1835.64 1268.36 1794.06 1270.26 L 1794.04 1612.71 C 1794.17 1670.92 1795.93 1734.34 1794.84 1792.03 L 1449.47 1791.75 L 1329.09 1792.09 C 1312.03 1792.14 1284.51 1793.07 1268.17 1792 C 1267.51 1806.65 1267.94 1824.89 1267.92 1839.9 L 1267.95 1932.06 C 1156.08 1931.19 1044.2 1930.92 932.326 1931.26 C 882.769 1931.24 829.012 1932.76 780.022 1931.43 L 780.024 1794.37 C 780.046 1771.72 780.976 1738.8 778.875 1716.98 C 768.202 1724.95 757.582 1733.58 746.537 1741.05 C 649.264 1806.89 537.61 1856.02 420.481 1870.9 C 368.043 1877.56 313.937 1877.83 262.237 1885.7 C 235.235 1889.66 208.495 1895.24 182.165 1902.41 C 167.227 1906.61 148.113 1913.77 133.808 1916.68 C 143.488 1876.07 156.578 1829.38 163.094 1788.85 C 169.34 1750 169.33 1704.29 174.299 1664.01 C 193.217 1510.68 236.166 1393.39 329.336 1270.75 C 306.604 1268.73 267.648 1269.73 243.724 1269.84 L 119.082 1270.27 L 119.057 778.279 C 163.935 775.974 210.474 778.792 255.905 777.106 C 271.377 777.019 296.685 777.953 311.338 776.798 L 312.56 775.272 L 312.619 775.984 C 313.077 776.392 313.534 776.8 313.992 777.207 C 336.615 777.965 406.161 778.096 424.545 777.65 C 420.804 769.196 411.587 755.335 406.565 747.109 C 386.664 714.515 369.843 685.674 367.746 646.574 C 424.714 696.871 469.729 713.664 542.383 732.257 C 566.231 738.359 592.539 743.288 615.084 753.113 C 629.409 759.355 644.628 769.279 657.975 777.602 C 669.875 777.802 759.247 778.195 762.806 775.71 C 757.76 771.545 732.229 764.023 724.237 761.028 C 601.645 715.103 521.923 593.18 473.133 477.486 C 464.343 456.642 457.552 432.834 450.935 410.557 C 575.449 480.981 699.076 514.501 780.934 640.278 C 781.677 606.977 781.19 572.282 781.661 538.662 C 732.208 500.275 702.516 440.244 649.958 404.65 C 637.428 396.165 627.754 391.621 614.24 384.996 C 672.529 363.987 728.819 385.667 780.05 414.435 C 781.451 388.117 780.959 340.947 780.009 314.428 L 779.734 256.247 C 780.501 224.517 779.751 192.586 780.053 160.863 C 780.184 147.057 779.509 129.524 780.397 115.982 z M 1687.29 1403.36 C 1644.76 1369.98 1609.18 1346.1 1556.71 1329.76 C 1511.13 1314.9 1462.62 1305.4 1419.54 1283.94 C 1404.18 1276.28 1394.5 1267.84 1376.38 1270.57 C 1364.12 1272.42 1291.06 1268.34 1285.08 1273.49 C 1286.61 1276.82 1304.66 1280.96 1309.5 1282.73 C 1323.62 1287.89 1337.65 1293.1 1350.98 1300.17 C 1448.35 1352.84 1519.31 1446.81 1565 1545.81 C 1576.08 1569.81 1594.21 1615.31 1600.54 1639.76 C 1587.85 1633.3 1574.95 1625.38 1562.54 1618.09 C 1473.76 1565.92 1371.94 1530.84 1298.96 1455.44 C 1287.59 1443.68 1276.82 1427.31 1267.24 1413.87 C 1267.02 1423.24 1267.01 1432.76 1267.32 1442.13 C 1267.99 1461.96 1266.64 1482.26 1267.39 1502.02 C 1281.05 1513.88 1293.64 1526.93 1305.01 1541.01 C 1328.34 1569.91 1347.15 1603.09 1375.67 1627.4 C 1393.82 1642.87 1415.1 1656.51 1437.73 1664.25 C 1381.48 1683.07 1316.8 1660.13 1267.66 1631.26 C 1267.13 1650.56 1267.55 1671.23 1267.62 1690.63 C 1267.66 1703.53 1267.26 1721.33 1268.19 1733.76 C 1273.12 1732.61 1294.62 1733.04 1300.77 1733.07 L 1371.47 1733.52 L 1598.86 1733.52 C 1627.6 1733.83 1656.34 1733.99 1685.09 1734 C 1700.06 1734.02 1717.26 1734.41 1731.97 1733.49 L 1732.41 1270.18 C 1700.35 1268.73 1667.67 1271.22 1635.56 1270.93 C 1630.16 1270.88 1624.59 1270.9 1619.18 1271.06 C 1650.62 1310.76 1674.2 1354.15 1687.29 1403.36 z M 171.262 1877.75 C 187.763 1874.37 203.789 1869.94 220.206 1866.44 C 241.704 1861.96 263.405 1858.52 285.233 1856.13 C 340.765 1849.77 394.043 1850.57 449.393 1839.43 C 532.997 1822.61 611.168 1793.18 684.402 1749.24 C 717.873 1729.46 739.95 1716.71 770.57 1691.96 C 819.208 1652.42 861.615 1605.78 896.363 1553.61 C 917.287 1521.87 940.093 1480.25 954.609 1445.21 C 967.76 1413.45 967.413 1393.07 987.616 1362.95 C 980.886 1354.91 972.861 1343.33 967.178 1334.35 C 948.059 1380.74 916.52 1449.1 888.347 1490.29 C 902.456 1442.06 908.922 1397.93 910.728 1347.59 C 912.277 1304.42 908.66 1265.83 919.54 1223.61 C 924.155 1205.71 931.357 1196.88 936.692 1181.51 C 888.648 1218.69 857.164 1273.28 849.049 1333.48 C 844.858 1364.23 847.439 1404.33 847.958 1435.92 C 848.864 1491.02 838.468 1569.68 796.136 1609.11 C 828.55 1515.07 808.187 1437.22 813.646 1341.45 C 815.054 1316.77 825.833 1294.02 833.631 1271.08 C 779.198 1315.83 749.087 1398.99 744.316 1467.11 C 738.988 1543.18 745.433 1610.94 703.436 1679.6 C 695.372 1692.79 680.091 1713.62 668.208 1723.92 C 701.119 1660.3 714.172 1597.02 711.972 1525.71 C 710.1 1465.01 712.643 1427.46 729.356 1368.76 C 688.772 1414.48 664.692 1454.94 647.394 1513.76 C 635.767 1553.3 634.394 1582.62 627.767 1621.46 C 621.288 1659.92 607.373 1696.75 586.8 1729.89 C 578.257 1743.6 564.691 1762.89 552.261 1773.34 C 558.894 1758.29 566.443 1743.23 573.507 1728.29 C 612.191 1646.51 591.18 1559.11 621.167 1474.93 C 586.19 1521.12 560.362 1548.7 538.703 1604.75 C 529.819 1629.57 525.64 1651.61 517.664 1675.34 C 496.218 1739.16 460.804 1784.6 409.058 1826.46 C 437.259 1788.79 467.03 1743.74 481.286 1698.64 C 488.24 1676.65 492.845 1649.61 498.858 1626.95 C 502.921 1611.64 508.501 1596.22 512.182 1581.17 C 500.452 1595.49 487.409 1612.11 475.104 1625.62 C 421.147 1684.83 361.144 1736.59 295.282 1782.15 C 275.343 1795.94 237.348 1822.55 216.348 1832.82 C 222.22 1820.82 234.095 1802.47 241.357 1790.68 C 284.614 1719.69 337.918 1655.34 399.611 1599.62 C 413.639 1587.08 427.928 1574.84 442.466 1562.89 C 452.097 1554.9 470.586 1540.48 477.654 1531.36 C 461.581 1537.37 447.044 1545.55 431.04 1550.41 C 414.841 1555.34 397.498 1558.71 381.045 1563.1 C 351.333 1570.89 322.624 1582.1 295.495 1596.5 C 281.126 1604.16 267.64 1612.61 254.326 1622 C 245.647 1628.12 235.535 1637.15 226.922 1642.49 C 250.058 1614.44 265.445 1595.8 294.741 1573.47 C 348.928 1532.16 409.361 1520.05 471.149 1497.1 C 502.405 1485.49 560.708 1448.27 583.338 1424.37 C 555.134 1432.79 530.735 1439.47 501.346 1442.77 C 459.429 1447.48 417.604 1449.51 376.237 1458.61 C 341.192 1466.32 310.488 1479.25 278.479 1494.99 C 332.579 1440.34 383.774 1426.88 457.485 1416.5 C 475.09 1414.02 496.893 1411.66 514.064 1408.24 C 555.473 1399.99 595.226 1384.92 631.705 1363.66 C 646.885 1354.61 669.955 1339.75 681.632 1327.03 C 656.464 1331.78 643.461 1337.57 615.804 1339.74 C 552.347 1344.71 491.198 1334.62 428.531 1345.54 C 405.173 1349.55 382.268 1355.86 360.151 1364.37 C 347.538 1369.31 334.798 1375.43 322.081 1379.9 C 374.037 1341 421.455 1317.68 487.44 1311.88 C 572.912 1304.37 666.791 1315.67 741.022 1263.66 C 758.333 1251.59 773.131 1241.03 788.043 1225.53 C 773.525 1230.04 752.995 1236.87 738.217 1239.04 C 673.455 1248.54 609.315 1233.44 543.395 1235.38 C 499.212 1236.67 481.674 1243.57 441.096 1252.48 C 548.361 1185.44 622.611 1217.12 737.545 1201.82 C 775.131 1196.82 816.719 1174.96 848.66 1155.28 C 854.97 1151.3 879.714 1135.79 881.942 1130.19 C 878.881 1125.8 863.145 1129.48 858.028 1130.54 C 798.722 1142.84 739.167 1139.3 679.107 1140.45 C 647.023 1140.94 619.87 1146.17 588.619 1150.99 C 670.182 1098.04 743.425 1114.31 834.536 1101.75 C 855.638 1098.84 869.65 1094.79 889.783 1088.89 C 849.709 1066.48 785.213 1053.23 739.121 1057.41 C 589.745 1068.84 455.881 1161.02 361.434 1273.41 C 276.649 1374.3 223.455 1505.12 204.594 1634.92 C 197.854 1682.04 196.272 1726.19 191.377 1773.22 C 187.588 1809.63 178.347 1842.66 171.262 1877.75 z M 1370.26 332.976 C 1353.05 375.121 1343.49 402.725 1338.46 448.669 C 1332.62 502.028 1339.7 552.995 1336.45 606.226 C 1334.86 632.286 1328.41 656.676 1321.77 681.774 C 1329.25 673.452 1338.4 665.347 1344.8 656.146 C 1383.91 599.902 1407.5 530.812 1413.22 462.546 C 1418.92 394.45 1440.11 336.271 1485.28 284.038 C 1489.46 279.192 1493.66 274.476 1498.4 270.156 C 1472.87 316.652 1455.21 354.364 1449.66 408.323 C 1446.08 443.098 1444.82 477.536 1438.79 511.934 C 1434.37 537.152 1426.45 558.764 1419.31 583.061 C 1453.65 546.701 1476.79 520.589 1497.29 473.938 C 1510.69 443.46 1515.37 415.633 1524.42 384.159 C 1542.76 320.428 1585.2 261.27 1642.63 227.129 C 1592.22 286.689 1564.72 336.243 1550.37 413.524 C 1547.76 427.555 1540.24 444.861 1538.75 458.094 C 1544.83 459.064 1565.31 433.8 1570.38 428.362 C 1635.54 358.461 1703.91 290.681 1785.03 239.285 C 1794.09 233.542 1818.93 214.255 1828.28 212.479 L 1829.73 213.261 C 1828.97 217.965 1823.65 226.53 1821.15 231.319 C 1798.26 274.592 1771.26 315.563 1740.53 353.667 C 1730.73 365.387 1720.73 376.933 1710.52 388.301 C 1707.46 391.768 1698.04 402.096 1695.58 405.628 L 1689.45 412.454 L 1634.61 468.512 C 1626.74 475.904 1601.65 497.821 1598.27 506.168 L 1598.85 508.175 C 1605.02 510.694 1647.6 494.591 1658.01 491.336 C 1667.71 488.281 1684.5 483.442 1693.06 479.66 C 1734.98 468.445 1779.96 438.398 1810.67 408.692 L 1813.33 411.267 C 1774.08 463.511 1720.12 502.844 1658.37 524.224 C 1628.76 534.622 1595.49 543.459 1567.09 557.194 C 1536.79 571.843 1498.7 600.01 1474.6 623.769 C 1580.26 589.483 1679.77 618.951 1777.55 543.257 C 1762.81 562.572 1745.29 575.83 1724.65 588.345 C 1698.69 603.998 1670.66 615.938 1641.38 623.817 C 1620.05 629.426 1596.93 633.261 1575.05 636.127 C 1505.56 645.23 1420.93 666.899 1371.46 720.31 C 1389.35 717.431 1415.53 709.927 1432.34 709.299 C 1456.34 708.402 1484.98 710.418 1509.38 711.178 C 1589.81 713.682 1650.62 706.062 1722.44 669.338 C 1703.71 688.078 1681.17 699.628 1657.72 710.58 C 1585.42 744.342 1509.2 740.798 1431.71 744.092 C 1393.56 745.714 1343.19 763.122 1309.74 781.342 C 1304.86 783.999 1273.75 816.664 1269.11 822.195 C 1282.07 817.386 1300.97 810.706 1314.49 808.599 C 1367.4 800.355 1424.17 812.533 1477.51 812.594 C 1529.98 812.654 1562.16 806.888 1611.4 790.724 C 1574.42 814.84 1541.97 830.186 1498.21 838.206 C 1428.31 851.018 1359.9 828.26 1291.51 850.926 C 1277.91 855.434 1268.99 857.677 1256.52 865.175 C 1252.36 883.798 1247.25 890.42 1236.33 905.952 C 1241.75 906.042 1247.47 905.865 1252.9 905.611 C 1285.39 904.293 1317.77 906.047 1350.28 905.671 C 1389.89 905.214 1428.49 901.591 1467.82 897.503 C 1457.47 902.603 1445.16 906.931 1434.33 911.128 C 1360.29 939.804 1282.21 944.704 1203.5 941.973 C 1190.02 955.554 1186.15 957.877 1170.16 968.009 C 1172.93 968.815 1175.71 969.568 1178.51 970.269 C 1300.98 1001.25 1422.57 978.6 1527.42 913.906 C 1694.35 810.916 1810.03 623.927 1840.11 431.801 C 1845.67 396.265 1848.57 361.778 1851.34 325.928 C 1855.53 271.615 1864.77 222.11 1877.96 169.454 C 1869.97 171.137 1861.7 173.561 1853.77 175.697 C 1785.65 194.035 1715.43 195.123 1645.78 203.629 C 1551.69 215.15 1460.69 244.652 1377.74 290.53 C 1372.4 293.435 1346.92 307.732 1343.52 311.161 C 1242.95 374.031 1165.61 459.18 1107.35 561.881 C 1087.59 596.712 1071.83 627.592 1058.75 665.543 C 1076.01 675.361 1084.64 683.447 1090.02 703.245 C 1096.42 726.813 1093.33 750.503 1077.68 769.74 L 1094.69 771.002 C 1100.72 704.321 1112.56 646.413 1145.69 587.325 L 1149.27 588.18 C 1128.19 640.739 1133.52 719.905 1130.76 776.419 C 1148.31 779.689 1163.12 782.896 1180.28 787.772 C 1210.87 721.391 1202.38 687.555 1201.65 617.876 C 1200.94 550.559 1221.91 485.868 1262.52 431.89 C 1247.5 461.609 1235.74 509.818 1233.35 542.482 C 1228.64 606.714 1243.65 671.315 1230.24 735.312 C 1226.44 753.442 1219.54 769.568 1212.99 786.76 C 1225.79 777.115 1243.64 756.251 1253.77 743.951 C 1287.96 702.449 1301.86 640.761 1303.75 587.636 C 1304.9 555.449 1302.7 526.872 1306.91 493.594 C 1314.45 433.917 1327.32 396.047 1358.56 345.161 C 1361.15 343.443 1366.49 331.883 1370.49 329.739 L 1370.26 332.976 z M 761.522 745.417 C 753.917 736.878 744.28 728.601 735.841 720.719 C 722.215 708.089 708.796 695.237 695.59 682.169 C 675.659 662.276 653.942 640.837 635.069 620.032 C 609.422 591.442 585.025 561.754 561.946 531.054 L 563.277 528.576 C 616.794 590.746 669.273 648.778 732.667 700.967 C 748.107 713.679 764.405 731.884 780.95 742.476 C 785.373 689.434 773.233 664.41 739.678 622.656 C 689.839 560.64 620.566 524.052 550.647 489.158 C 536.729 482.212 506.081 465.562 492.887 460.926 C 500.562 481.931 508.984 503.451 519.651 523.107 C 564.684 606.094 623.217 688.187 711.781 728.304 C 728.536 735.894 743.349 741.985 761.522 745.417 z M 1487.91 1517 L 1486.58 1519.33 C 1445.44 1472.43 1401.73 1427.84 1355.66 1385.77 C 1338.66 1370.03 1319.9 1355.18 1302.7 1339.6 C 1291.04 1329.03 1279.66 1317.66 1268.21 1306.75 C 1267.84 1318.7 1265.46 1353.8 1268.98 1363.64 C 1299.48 1448.87 1383.86 1498.17 1459.82 1536.36 C 1496.07 1554.58 1525.65 1570.81 1557.98 1588.48 C 1552.61 1577.04 1548.12 1565.25 1542.56 1553.66 C 1490.62 1445.42 1399.28 1325.35 1275.42 1296.25 C 1285.72 1305.81 1297.07 1314.61 1307.69 1324.49 C 1356.09 1369.72 1402.28 1417.26 1446.1 1466.95 C 1459.32 1482.15 1476.12 1501.12 1487.91 1517 z M 1007.24 768.601 C 1008.38 785.279 1007.84 806.793 1007.85 823.754 L 1007.88 918.241 C 1007.92 931.731 1007.52 949.376 1008.43 962.621 C 1018.52 965.852 1031.24 969.547 1041 973.124 L 1052.03 977.179 C 1052.43 967.957 1052.25 958.916 1052.31 949.708 C 1052.69 888.98 1051.53 828.211 1052.47 767.495 C 1067.32 755.989 1075.99 746.504 1078.47 726.886 C 1081.89 699.775 1059.59 673.525 1032.41 672.042 C 1028.44 671.816 1024.46 671.918 1020.5 672.345 C 1005.36 676.054 994.305 682.735 986.076 696.641 C 979.108 708.566 977.233 722.794 980.874 736.117 C 985.121 751.768 994.031 760.463 1007.24 768.601 z M 401.246 1641.98 C 398.149 1644.19 395.198 1648.14 392.688 1651.14 C 394.158 1652.93 395.427 1654.85 397.263 1656.1 C 402.205 1651.87 405.585 1649.21 409.672 1644.13 C 453.386 1607.01 496.452 1562.85 538.272 1523.11 L 740.069 1331.84 C 799.995 1274.27 864.219 1210.4 926.537 1156.32 C 933.788 1165.39 981.562 1205.37 990.854 1204.72 C 992.892 1202.8 993.531 1201.96 996.021 1200.66 L 997.909 1201.93 C 998.285 1204.48 998.114 1205.09 999.443 1207.22 C 1003.66 1208.72 1001.78 1208.88 1005.31 1207.82 L 1006.02 1206.14 C 1005.63 1204.47 1004.86 1202.15 1003.31 1201.21 C 968.827 1180.49 936.861 1160.2 913.35 1126.2 L 665.446 1371.89 C 596.058 1440.28 525.971 1507.36 460.39 1579.55 C 441.138 1600.74 420.286 1620.37 401.246 1641.98 z M 811.252 445.159 C 810.126 530.444 811.668 618.617 811.749 704.258 L 811.84 772.585 C 811.851 776.853 811.599 797.236 812.427 800.371 C 811.951 805.645 812.903 805.317 810.012 807.959 C 799.374 810.61 790.944 806.554 782.648 809.68 C 776.915 808.124 719.673 809.011 709.308 808.91 L 703.609 808.44 C 687.963 808.397 671.02 808.049 655.5 808.766 C 666.958 809.215 678.423 809.449 689.89 809.466 L 688.804 809.661 C 679.785 811.192 660.514 811.038 654.022 814.386 L 654.12 815.305 C 658.898 817.424 666.685 817.88 672.024 818.03 C 678.089 818.348 689.854 819.394 695.372 819.029 C 707.796 819.822 729.52 823.68 739.011 823.333 C 746.036 823.28 754.558 822.995 761.457 823.265 C 768.66 824.774 817.859 824.129 827.774 824.138 C 827.644 784.005 828.865 734.447 826.916 695.329 C 827.617 678.911 826.985 657.342 826.984 640.582 L 826.959 529.961 L 826.057 159.312 L 1082.37 159.24 L 1168.4 159.378 C 1184.19 159.418 1203.74 159.999 1219.28 159.069 L 1222.27 159.522 C 1223.5 162.123 1223.17 163.741 1223.08 166.616 C 1222.25 232.723 1222.56 300.991 1222.98 367.123 C 1227.85 363.443 1232.78 359.834 1237.76 356.297 C 1236.27 340.998 1237.63 306.238 1237.65 288.85 L 1237.21 156.097 L 1237.23 145.769 L 1211.94 145.844 C 1208.46 145.89 1200.21 145.722 1197.27 146.58 C 1188.71 145.131 1167.53 145.602 1158.09 145.597 L 1088.65 145.506 L 810.936 145.018 L 810.979 343.174 C 811.008 375.888 810.189 412.785 811.252 445.159 z M 1066.85 837.489 C 1077.68 837.546 1123.79 840.711 1129.39 839.177 L 1131.62 839.62 L 1142.77 841.769 L 1143.1 826.911 L 1144.27 823.563 C 1147.92 824.082 1149.78 823.89 1152.81 825.639 C 1153.06 832.126 1150.37 836.998 1151.58 841.592 C 1164.12 849.913 1161.78 828.29 1162.41 820.995 C 1174.07 820.725 1189.03 824.756 1199.53 829.412 L 1199.74 833.444 C 1189.55 830.961 1181.6 829.324 1171.33 827.497 C 1170.43 833.072 1169.54 838.065 1169.27 843.737 C 1183.92 846.535 1224.47 854.05 1232.62 865.643 C 1235.04 876.409 1217.02 890.389 1209.3 897.356 C 1192.36 912.475 1174.47 926.507 1155.75 939.367 C 1129.18 957.721 1107.77 966.539 1087.92 992.332 C 1093.31 994.747 1098.69 997.29 1104.26 999.251 C 1125.95 982.252 1141.08 974.761 1163.08 960.095 C 1188.21 943.348 1210.21 922.329 1228.08 897.992 C 1248.27 870.341 1253.89 850.377 1222.24 828.505 C 1181.64 800.445 1131.68 792.457 1083.58 788.709 C 1077.98 788.219 1072.36 787.991 1066.73 788.027 C 1066.53 804.514 1066.57 821.003 1066.85 837.489 z M 946.424 1109.68 L 943.907 1103.13 C 934.71 1079.2 958.889 1043.13 970.689 1023.14 L 954.274 1012.71 C 931.515 1037.3 904.894 1069.52 915.345 1105.01 C 916.67 1112.13 919.483 1116.79 923.423 1122.83 C 931.779 1135.05 940.2 1142.95 951.512 1152.47 C 956.472 1156.58 971.398 1169.26 976.293 1171.8 C 1007.39 1195.03 1041.64 1214.67 1069.22 1241.92 C 1103.01 1275.31 1107.21 1303.79 1072.64 1338.14 L 1073.27 1337.1 C 1083.14 1320.89 1091.51 1303.19 1085.93 1283.04 C 1078.97 1257.85 1050.36 1231.53 1028.82 1217.93 C 1026.68 1216.57 1025.39 1216.39 1023.39 1217.12 C 1021.6 1227.29 1048.67 1245.21 1056.04 1253.38 C 1067.86 1264.58 1085.35 1288.77 1077.74 1306.04 C 1067.84 1328.51 1055.57 1327.6 1059.47 1357.3 C 1069.54 1351.4 1090.29 1334.19 1097.03 1325.48 C 1142.2 1267.1 1074.88 1219 1030.6 1190.8 C 1014.55 1180.58 998.052 1167.77 983.165 1156.41 C 982.377 1155.52 975.698 1150.03 974.373 1148.9 C 960.569 1135.66 954.206 1126.93 946.424 1109.68 z M 1212 1893.46 C 1208.08 1892.6 1204.39 1891.78 1200.41 1891.13 C 1189.96 1888.42 1144.49 1889.49 1131.18 1889.49 L 1008.55 1889.35 C 998.802 1889.42 967.667 1890.85 959.582 1887.95 C 952.737 1887.09 925.632 1887.64 917.952 1887.66 L 827.807 1887.81 L 826.027 1887.4 C 824.124 1884.44 824.782 1883.83 824.599 1879.68 L 824.675 1871.43 C 825.128 1808.24 825.47 1743.62 824.845 1680.48 C 818.803 1684.18 815.942 1686.72 810.564 1691.32 C 810.214 1694.33 810.243 1697.42 810.174 1700.47 C 809.48 1751.97 810.411 1803.6 810.025 1855.11 C 809.908 1870.64 809.735 1886.51 810.206 1902.02 C 838.702 1900.39 881.427 1901.69 910.847 1901.67 L 1111.67 1901.54 L 1237.15 1901.84 C 1237.22 1890.33 1237.32 1879.74 1236.66 1868.23 C 1237.84 1841 1236.99 1812.28 1237.04 1784.96 C 1237.1 1758.84 1237.4 1732.55 1236.84 1706.46 C 1237.06 1698.42 1237.3 1691.45 1236.85 1683.43 C 1237.58 1639.83 1237.1 1594.71 1237.16 1551.01 L 1237.04 1252.46 C 1237.01 1246.5 1234.92 1240.15 1240.83 1238.28 L 1238.77 1237.24 L 1238.07 1234.91 C 1243.56 1233.25 1246.75 1233.31 1252.43 1232.96 C 1269.85 1232.57 1285.35 1233.15 1302.38 1233.04 C 1318.08 1234.11 1345.91 1233.5 1361.55 1232 C 1365.87 1232.6 1378.11 1231.98 1381.87 1229.85 C 1368.37 1219.09 1271.99 1229.7 1260.85 1224.04 C 1259.5 1223.84 1256.01 1223.79 1254.47 1223.72 L 1244.68 1224.04 C 1237.45 1223.89 1230.08 1223.64 1222.88 1223.87 C 1222.86 1227.77 1222.56 1232.35 1223.59 1236.02 L 1223.65 1236.72 C 1222.86 1239.46 1222.44 1240.06 1222.86 1242.87 L 1222.41 1517.9 C 1222.39 1573.65 1221.71 1632.46 1222.98 1688.04 C 1222.35 1695.15 1222.48 1708.4 1223.1 1715.54 C 1223.15 1762.56 1222.49 1811.68 1223.35 1858.49 C 1223.21 1862.69 1222.99 1885.58 1222.21 1888.15 L 1212 1893.46 z M 1065.3 1682.18 C 1074.55 1654.16 1059.75 1634.74 1040.2 1616.33 C 1013.53 1588.13 996.11 1561.45 1014.91 1522.08 C 1009.88 1517.26 1004.94 1512.34 1000.1 1507.33 C 982.759 1545.87 986.759 1592.06 1018.55 1621.93 L 1021.55 1625.49 C 1024.79 1629.05 1025.64 1630.08 1029.45 1632.88 L 1030.36 1633.85 C 1050.7 1653.88 1056.92 1653.38 1065.3 1682.18 z M 1083.67 1022.46 C 1092.19 1025.4 1112.25 1042.73 1118.52 1049.55 C 1174.95 1110.99 1119.9 1140.28 1080.59 1176.6 C 1092.48 1157.83 1109.08 1144.83 1120.26 1125.63 C 1147.2 1079.41 1107.94 1040.01 1069.06 1019.46 C 1067.44 1017.92 1060.94 1014.07 1058.32 1013.97 C 1053.92 1013.8 1054.13 1014.94 1050.97 1018.14 C 1053.23 1020.45 1056.57 1024.98 1058.4 1026.2 C 1078.02 1042 1089.98 1044.92 1106.32 1067.89 C 1146.53 1124.39 1072.77 1141.37 1065.09 1189.97 C 1064.51 1193.63 1064.3 1195.51 1066.29 1198.21 C 1072.56 1197.92 1088 1185.95 1093.32 1181.64 C 1128.84 1152.92 1176.92 1126.16 1152.54 1072.65 C 1136 1036.34 1101.41 1014.59 1065.66 1000.05 C 1060.91 996.484 1043.48 990.099 1037.36 987.846 C 976.916 964.617 897.362 936.092 863.912 875.043 C 861.97 871.499 862.084 868.71 858.78 865.622 C 848.082 872.543 868.803 898.804 873.822 904.988 C 905.476 943.997 948.683 969.797 992.956 992.019 C 1002.5 996.827 1014.89 1003.54 1025.39 1006.04 C 1027.72 1006.59 1031.71 1005.85 1033.97 1004.6 C 1033.86 999.733 1023.68 998.655 1022.57 995.092 L 1024.7 996.568 L 1026.27 995.801 L 1029.43 997.314 C 1032.54 999.034 1042.55 1003.16 1046.53 1004.93 C 1059.34 1010.62 1071.16 1016.12 1083.67 1022.46 z M 1022.46 1642.22 C 1020.98 1640.5 1016.52 1635.08 1015.07 1633.88 C 1009.34 1638.89 997.028 1652.9 995.219 1660.13 L 996.042 1661.24 C 997.845 1660.47 998.886 1660.07 1000.6 1659.12 C 1010.42 1653.14 1014.37 1650.39 1022.46 1642.22 z M 1079.28 1084.18 C 1084.35 1081.05 1090.99 1077.2 1095.63 1073.75 C 1091.21 1069.39 1077.57 1054.95 1073.04 1052.7 C 1068.45 1055.35 1065.36 1056.55 1064.02 1061.91 C 1061.72 1071.13 1063.25 1083.41 1063.65 1093.16 C 1069.44 1090.11 1073.84 1087.84 1079.28 1084.18 z M 1067.63 857.946 C 1067.33 864.713 1065.91 882.25 1068.12 887.585 L 1069.57 887.812 L 1071.71 885.64 C 1080.68 875.887 1090.64 865.547 1099.37 855.707 L 1087.6 856.616 C 1080.94 856.932 1074.28 857.376 1067.63 857.946 z M 485.657 777.947 C 476.421 763.082 464.312 755.969 455.309 738.519 L 454.572 737.12 L 454.141 736.275 C 456.909 739.281 462.634 745.526 465.788 747.636 C 479.977 757.126 521.675 777.66 537.753 776.994 C 552.191 777.812 591.969 778.642 606.008 776.742 C 584.843 766.303 544.779 758.627 520.698 752.454 C 477.873 741.476 451.552 730.566 413.498 708.768 C 422.329 728.669 445.515 760.918 459.237 778.081 C 468.244 778.2 476.631 778.306 485.657 777.947 z M 1810.08 1233.2 C 1819.43 1233.13 1828.18 1234 1837.42 1234.17 C 1843.29 1235.61 1878.76 1237.96 1888.25 1238.84 C 1893.73 1239.25 1896.77 1240.32 1900.9 1237.48 L 1901.49 1233.03 C 1900.48 1222.93 1901.12 1199.8 1901.13 1188.89 L 1901.13 1104.86 L 1900.64 814.158 C 1900.63 812.478 1900.55 810.716 1900.5 809.029 C 1900.03 808.681 1899.62 808.239 1899.09 807.986 C 1897.73 807.335 1708.71 807.409 1699.21 808.597 C 1692.46 808.368 1692.4 807.752 1687.31 812.748 C 1684.48 815.527 1682.08 818.12 1682.08 822.276 C 1684.87 823.178 1683.78 822.974 1686.82 822.729 C 1692.09 823.812 1710.09 823.957 1715.65 823.197 C 1737.28 819.926 1839.3 825.102 1853.92 818.654 C 1861.28 818.85 1873.41 818.472 1879.92 820.819 L 1880.32 823.608 L 1886.22 823.952 C 1885.46 868.643 1886.27 914.747 1886.28 959.572 L 1885.81 1221.3 L 1884.98 1222.82 C 1872.25 1225.28 1841.73 1222.19 1828.45 1223.98 C 1814.57 1225.89 1803.41 1225.72 1789.64 1229.2 C 1796.11 1231.26 1803.29 1234.01 1810.08 1233.2 z M 867.166 867.372 C 878.196 857.167 882.644 853.717 896.995 848.614 L 906.959 846.441 L 903.872 833.553 L 902.345 833.96 C 894.213 836.171 881.674 843.908 877.639 841.85 C 875.646 832.655 915.194 823.887 922.336 822.13 C 927.668 827.642 932.274 836.921 936.41 843.847 C 953.224 842.366 976.879 841.213 992.969 839.011 L 992.952 789.041 C 989.019 789.121 983.957 789.067 980.155 789.578 C 939.159 792.859 847.306 793.015 851.003 853.2 C 851.139 855.403 851.665 858.204 852.89 860.079 C 855.205 857.713 856.773 854.195 858.432 851.177 C 859.476 852.123 865.322 864.253 867.166 867.372 z M 1505.76 527.934 C 1503.87 529.815 1498.06 535.303 1496.66 537.059 C 1479.9 553.031 1462.01 569.56 1445.63 585.788 L 1437.95 593.182 L 1399.65 629.853 L 1377.34 651.351 C 1370.53 657.988 1363.09 664.976 1356.58 671.83 L 1348.8 679.37 C 1347.61 680.62 1342.49 685.806 1341.76 686.856 C 1322.93 705.668 1304.03 723.608 1284.98 742.128 C 1262.22 764.252 1239.68 788.952 1216.62 810.684 C 1223.78 815.452 1232.47 824.06 1239.32 829.924 C 1270.9 801.832 1302.76 760.167 1333.67 732.203 C 1335.16 731.236 1346.35 720.099 1348.48 717.931 C 1367.58 698.541 1386.22 678.568 1405.04 658.889 L 1417.25 646.042 C 1420.88 642.899 1424.9 638.821 1428.27 635.341 C 1442.69 620.487 1458.29 606.197 1472.13 590.836 C 1486.72 574.926 1501.7 559.378 1517.06 544.205 C 1519.18 542.371 1524.25 536.807 1526.45 534.539 L 1527.22 533.025 C 1534.79 526.936 1557.39 501.465 1565.2 492.953 C 1586.15 471.645 1614.46 443.206 1633.25 420.647 C 1638.12 415.806 1642.83 410.804 1647.37 405.649 C 1661.56 390.689 1681.55 369.093 1694.27 353.217 C 1678.71 365.66 1658.73 385.476 1643.78 399.462 C 1640.83 402.076 1637.43 404.952 1634.67 407.699 C 1629.41 412.1 1624.82 416.248 1619.79 420.912 C 1614.03 426.095 1607.74 431.538 1602.37 437.051 C 1599.61 439.576 1580.12 457.325 1578.78 459.266 C 1558.86 476.388 1542.79 493.881 1524.08 510.79 C 1517.84 516.363 1511.73 522.079 1505.76 527.934 z M 1025.16 1514.6 C 1036.8 1525.96 1048.35 1533.43 1058.55 1547.26 C 1077.95 1573.58 1049.32 1598.58 1051.66 1608.62 L 1053.98 1609.94 C 1066.02 1609.04 1078.81 1572.53 1078.44 1560.73 C 1077.49 1529.72 1054.8 1510.6 1034.22 1490.83 C 1026.84 1482.69 1020.92 1476.23 1013.9 1467.71 C 995.017 1436.84 994.942 1417.26 1010.33 1385.51 C 1005.89 1380.97 1001.54 1376.35 997.285 1371.64 C 981.675 1393.02 974.183 1407.59 978.725 1434.98 C 982.228 1456.1 987.917 1470.46 999.837 1487.97 C 1001.25 1491.39 1004.11 1494.16 1006.6 1496.98 L 1008.04 1498.47 C 1010.57 1501.27 1013.07 1504.4 1016.19 1506.45 C 1018.6 1508.75 1022.58 1512.8 1025.16 1514.6 z M 1597.44 1310.45 C 1573.33 1299.01 1535.34 1274.46 1511.51 1271.52 C 1502.5 1270.41 1465.21 1271.24 1454.19 1271.35 L 1450.22 1271.89 L 1449.94 1272.67 C 1465.92 1278.25 1482.06 1283.39 1498.33 1288.07 C 1538.91 1299.56 1598.86 1313.82 1633.66 1338.31 C 1628.2 1324.06 1614.04 1303.72 1603.85 1291.68 C 1598.21 1285.3 1591.02 1277.59 1584.08 1272.55 C 1577.85 1272.04 1557.8 1270.58 1553.35 1273.57 L 1555.02 1272.54 L 1553.34 1273.56 C 1554.99 1277.21 1569.94 1285.76 1574.95 1289.55 C 1585.46 1297.51 1588.92 1300.34 1597.44 1310.45 z M 1018.79 1373.06 C 1019.81 1373.91 1023.16 1376.85 1024.06 1377.43 C 1044.28 1399.53 1081.92 1419.99 1078.49 1454.6 C 1078.02 1459.34 1075.54 1465.3 1073.79 1469.82 C 1074.15 1461.3 1075.99 1446.96 1071.16 1440.37 L 1069.68 1440.82 C 1066.64 1447.4 1066.99 1454.52 1065 1461.27 C 1062.54 1469.59 1051.14 1482.41 1054.64 1490.9 L 1056.35 1491.57 C 1062.03 1489.46 1067.57 1483.23 1071.71 1478.83 C 1122.34 1425.05 1060.82 1376.86 1023 1342.77 C 1019.62 1338.34 1015.26 1334.06 1011.38 1330 C 1008.76 1326.3 1006.73 1323.93 1003.73 1320.52 L 1002.3 1318.47 L 1001.31 1317.33 L 1000.49 1316.31 C 978.175 1278.22 981.912 1267.87 999.998 1229.55 C 994.957 1224.4 993.122 1222.89 987.252 1218.69 C 954.187 1253.6 954.183 1294.61 982.566 1332.93 C 984.543 1335.72 986.279 1338.26 988.519 1340.86 C 994.108 1348.64 1000.77 1355.4 1007.62 1362.08 C 1010.36 1365.04 1011.91 1366.81 1015.02 1369.31 L 1018.79 1373.06 z M 353.638 1240.02 C 358.482 1235.29 361.621 1231.28 365.859 1226.02 C 356.092 1224.83 343.781 1225.44 333.704 1225.6 C 279.426 1224.48 217.183 1224.74 162.818 1225.56 C 162.961 1212.53 162.945 1199.5 162.769 1186.47 C 161.35 1197.75 164.186 1222.06 157.1 1229.88 C 153.863 1230.35 153.226 1228.91 149.411 1227.19 C 146.843 1219.61 152.231 1215.13 147.361 1208.53 C 147.265 1214.06 146.124 1236.57 148.859 1239.76 L 150.762 1239.87 C 155.126 1237.15 159.093 1237.69 164.396 1236.44 C 199.328 1228.23 236.273 1233.3 271.815 1233.11 C 281.374 1233.06 297.342 1233.62 306.534 1232.19 C 309.76 1232.16 315.732 1232.33 318.618 1231.67 C 327.091 1232.63 335.279 1233.6 342.121 1239.51 L 353.638 1240.02 z M 781.239 442.398 C 751.697 423.513 725.085 411.073 690.389 405.94 C 707.708 423.269 720.083 437.823 735.544 456.613 C 745.155 468.295 769.504 497.071 781.28 505.585 C 781.602 484.703 781.056 463.449 781.239 442.398 z M 993.141 1035.47 C 990.716 1034.13 987.324 1032.39 985.129 1030.89 C 983.565 1033.59 978.87 1040.28 979.316 1042.57 L 982.261 1041.52 C 986.098 1039.51 989.45 1037.78 993.141 1035.47 z M 1043.91 1297.8 C 1044.07 1286.45 1044.74 1269.5 1042.75 1258.7 C 1035.44 1252.62 1022.33 1240.88 1015.23 1236.4 C 1014.53 1261.14 1015.08 1286.73 1014.05 1311.18 C 1021.84 1323.15 1033.46 1333.79 1043.97 1343.49 C 1044.54 1332.17 1044.42 1322.99 1044.17 1311.71 L 1043.91 1297.8 z M 1046.55 1186.33 C 1047.78 1157.73 1047.48 1126.84 1047.67 1098.04 C 1047.8 1078.98 1048.43 1052.61 1047.06 1033.97 C 1028.06 1021.96 1008.72 1010.5 989.049 999.625 C 935.18 969.519 855.968 928.282 843.134 864.481 C 842.624 861.948 841.728 857.09 840.931 855.097 L 835.046 853.554 C 819.169 916.806 892.712 959.42 938.373 986.262 C 960.977 999.55 985.705 1014.52 1009.44 1025.7 C 1009.53 1070.61 1010.96 1117.63 1010.56 1162.16 C 1022.5 1170.3 1034.5 1178.36 1046.55 1186.33 z M 1045.26 1414.79 C 1036.23 1407.25 1027.65 1399.05 1018.66 1391.67 C 1018.97 1425.06 1010.48 1453.35 1037.98 1476.56 C 1039.72 1478.03 1040.57 1479.71 1043.09 1479.58 C 1045.35 1458.96 1043.06 1436.89 1045.26 1414.79 z M 995.007 1137.01 C 991.66 1138.41 988.307 1139.09 986.685 1141.69 C 988.322 1144.61 989.377 1145.22 991.896 1147.35 L 994.571 1148.71 C 997.162 1146.12 997.334 1139.15 995.007 1137.01 z M 1267.43 1598.99 C 1286.97 1616.25 1328.65 1636.2 1354.1 1641.22 C 1353.39 1637.72 1336.39 1621.81 1332.1 1616.78 C 1310.3 1591.19 1291.19 1557.42 1267.92 1533.77 C 1266.47 1542.77 1267.45 1587.64 1267.43 1598.99 z M 915.22 828.634 C 912.415 830.435 909.355 831.624 909.073 834.974 C 908.209 845.231 916.234 845.42 922.25 844.969 L 924.52 844.51 C 924.762 840.038 919.833 833.102 917.268 829.274 L 915.22 828.634 z M 1066.94 948.734 C 1066.88 956.808 1065.3 976.892 1069.42 982.182 C 1076.61 984.354 1082.55 975.821 1087.08 970.952 C 1120.35 936.702 1159.2 897.366 1190.31 861.874 C 1180.21 859.229 1170.62 856.632 1160.35 854.657 C 1153.41 863.807 1142.27 873.395 1134.01 881.755 C 1112.66 903.381 1086.33 925.676 1066.94 948.734 z M 1023.74 1530.8 C 1016.61 1557.71 1020.63 1580.44 1042.23 1599.43 C 1043.35 1587.21 1043.89 1557.83 1043.3 1545.41 C 1039.46 1542.52 1026.27 1533.3 1023.74 1530.8 z M 995.33 1066.77 C 983.028 1078.1 967.48 1091.3 956.272 1103.08 C 959.982 1111.94 962.318 1117.31 968.447 1124.93 L 977.627 1134.41 C 984.846 1128.64 990.342 1124.14 997.021 1117.81 C 997.022 1110.14 997.594 1073.8 996.23 1067.65 L 995.33 1066.77 z M 1026.22 1646.4 C 1024.15 1665.9 1027.86 1816.08 1034.39 1825.11 C 1035.02 1822.84 1035.14 1822.42 1035.34 1820.09 C 1039.79 1785.67 1040.91 1753.8 1041.56 1719.16 C 1041.91 1700.84 1043.41 1679.69 1042.95 1661.6 C 1039.54 1657.79 1030.39 1649.33 1026.22 1646.4 z" fill="rgb(6,65,47)" transform="translate(0,0)"></path>
<path d="M 1732.41 1270.18 C 1752.96 1270.34 1773.51 1270.36 1794.06 1270.26 L 1794.04 1612.71 C 1794.17 1670.92 1795.93 1734.34 1794.84 1792.03 L 1449.47 1791.75 L 1329.09 1792.09 C 1312.03 1792.14 1284.51 1793.07 1268.17 1792 C 1268.67 1773.31 1268.2 1752.6 1268.19 1733.76 C 1273.12 1732.61 1294.62 1733.04 1300.77 1733.07 L 1371.47 1733.52 L 1598.86 1733.52 C 1627.6 1733.83 1656.34 1733.99 1685.09 1734 C 1700.06 1734.02 1717.26 1734.41 1731.97 1733.49 L 1732.41 1270.18 z" fill="rgb(207,184,136)" transform="translate(0,0)"></path>
<path d="M 1377.74 290.53 C 1460.69 244.652 1551.69 215.15 1645.78 203.629 C 1715.43 195.123 1785.65 194.035 1853.77 175.697 C 1861.7 173.561 1869.97 171.137 1877.96 169.454 C 1864.77 222.11 1855.53 271.615 1851.34 325.928 C 1848.57 361.778 1845.67 396.265 1840.11 431.801 C 1810.03 623.927 1694.35 810.916 1527.42 913.906 C 1422.57 978.6 1300.98 1001.25 1178.51 970.269 C 1175.71 969.568 1172.93 968.815 1170.16 968.009 C 1186.15 957.877 1190.02 955.554 1203.5 941.973 C 1282.21 944.704 1360.29 939.804 1434.33 911.128 C 1445.16 906.931 1457.47 902.603 1467.82 897.503 C 1428.49 901.591 1389.89 905.214 1350.28 905.671 C 1317.77 906.047 1285.39 904.293 1252.9 905.611 C 1247.47 905.865 1241.75 906.042 1236.33 905.952 C 1247.25 890.42 1252.36 883.798 1256.52 865.175 C 1268.99 857.677 1277.91 855.434 1291.51 850.926 C 1359.9 828.26 1428.31 851.018 1498.21 838.206 C 1541.97 830.186 1574.42 814.84 1611.4 790.724 C 1562.16 806.888 1529.98 812.654 1477.51 812.594 C 1424.17 812.533 1367.4 800.355 1314.49 808.599 C 1300.97 810.706 1282.07 817.386 1269.11 822.195 C 1273.75 816.664 1304.86 783.999 1309.74 781.342 C 1343.19 763.122 1393.56 745.714 1431.71 744.092 C 1509.2 740.798 1585.42 744.342 1657.72 710.58 C 1681.17 699.628 1703.71 688.078 1722.44 669.338 C 1650.62 706.062 1589.81 713.682 1509.38 711.178 C 1484.98 710.418 1456.34 708.402 1432.34 709.299 C 1415.53 709.927 1389.35 717.431 1371.46 720.31 C 1420.93 666.899 1505.56 645.23 1575.05 636.127 C 1596.93 633.261 1620.05 629.426 1641.38 623.817 C 1670.66 615.938 1698.69 603.998 1724.65 588.345 C 1745.29 575.83 1762.81 562.572 1777.55 543.257 C 1679.77 618.951 1580.26 589.483 1474.6 623.769 C 1498.7 600.01 1536.79 571.843 1567.09 557.194 C 1595.49 543.459 1628.76 534.622 1658.37 524.224 C 1720.12 502.844 1774.08 463.511 1813.33 411.267 C 1815.81 407.859 1817.14 405.604 1819.26 401.936 L 1818.61 400.789 C 1815.3 399.488 1814.95 398.985 1812.72 396.434 C 1801.03 394.739 1793.1 414.107 1784.21 419.95 C 1786.35 416.36 1791.08 409.061 1792.1 405.411 L 1790.85 406.182 L 1791.92 406.216 L 1791.79 406.492 C 1785.95 408.549 1779.97 418.955 1774.12 421.439 C 1771.88 411.425 1775.87 404.474 1762.95 399.531 C 1759.58 401.191 1759.81 401.043 1757.66 404.147 C 1756.2 409.999 1759.35 415.63 1757.21 418.533 C 1753.66 423.375 1747.26 422.339 1748.78 429.262 L 1751.96 432.789 L 1755.63 431.67 L 1755.99 432.902 C 1750.72 442.498 1707.59 458.25 1697.2 464.64 C 1691.11 468.387 1686.52 467.298 1682.87 475.366 C 1680.33 476.104 1680.23 476.072 1677.57 476.174 C 1677.42 478.089 1677.26 477.26 1677.82 478.697 L 1675.2 478.282 C 1674.06 475.174 1673 474.606 1669.92 473.582 C 1663.8 475.441 1659.05 487.837 1650.83 485.163 L 1650.62 484.167 C 1652.39 482.404 1651.74 483.358 1652.68 481.4 C 1648.95 478.2 1643.48 481.006 1640.04 478.086 C 1644.67 472.293 1638.01 469.561 1647.67 467.508 C 1646.98 468.031 1675.12 434.906 1674.82 435.429 L 1674 434.584 C 1668.91 437.336 1669.59 441.262 1664.73 443.573 L 1663.43 442.65 C 1669.1 435.392 1683.09 421.45 1689.84 414.764 L 1690.55 414.609 C 1690.57 419.545 1686.81 418.001 1683.58 425.522 L 1684.48 426.266 C 1689.31 421.317 1720.84 396.006 1722.21 391.813 L 1721.21 391.156 C 1715.5 394.116 1704.6 402.371 1699.61 406.657 L 1698.87 407.298 C 1697.59 406.71 1696.81 406.296 1695.58 405.628 C 1698.04 402.096 1707.46 391.768 1710.52 388.301 C 1720.73 376.933 1730.73 365.387 1740.53 353.667 C 1771.26 315.563 1798.26 274.592 1821.15 231.319 C 1823.65 226.53 1828.97 217.965 1829.73 213.261 L 1828.28 212.479 C 1818.93 214.255 1794.09 233.542 1785.03 239.285 C 1703.91 290.681 1635.54 358.461 1570.38 428.362 C 1565.31 433.8 1544.83 459.064 1538.75 458.094 C 1540.24 444.861 1547.76 427.555 1550.37 413.524 C 1564.72 336.243 1592.22 286.689 1642.63 227.129 C 1585.2 261.27 1542.76 320.428 1524.42 384.159 C 1515.37 415.633 1510.69 443.46 1497.29 473.938 C 1476.79 520.589 1453.65 546.701 1419.31 583.061 C 1426.45 558.764 1434.37 537.152 1438.79 511.934 C 1444.82 477.536 1446.08 443.098 1449.66 408.323 C 1455.21 354.364 1472.87 316.652 1498.4 270.156 C 1493.66 274.476 1489.46 279.192 1485.28 284.038 C 1440.11 336.271 1418.92 394.45 1413.22 462.546 C 1407.5 530.812 1383.91 599.902 1344.8 656.146 C 1338.4 665.347 1329.25 673.452 1321.77 681.774 C 1328.41 656.676 1334.86 632.286 1336.45 606.226 C 1339.7 552.995 1332.62 502.028 1338.46 448.669 C 1343.49 402.725 1353.05 375.121 1370.26 332.976 L 1370.49 329.739 C 1366.49 331.883 1361.15 343.443 1358.56 345.161 C 1355.03 343.987 1347.12 353.848 1337.91 353.868 L 1337.66 352.88 C 1341.4 349.413 1344.85 352.121 1348.98 348.181 C 1354.12 343.282 1359.79 335.179 1354.21 328.533 C 1350.23 326.939 1349.09 326.884 1346.66 323.376 L 1351.6 322.163 C 1352.47 314.359 1356.99 307.672 1364.95 305.524 C 1372.68 303.437 1389.66 295.918 1392.32 287.94 C 1387.18 288.855 1383.55 291.547 1379.74 292.043 L 1377.74 290.53 z" fill="url(#Gradient11)" transform="translate(0,0)"></path>
<path d="M 1024.55 687.004 C 1037.55 685.08 1050.58 690.288 1058.68 700.641 C 1066.77 710.994 1068.69 724.897 1063.68 737.05 C 1058.68 749.203 1047.54 757.734 1034.5 759.39 C 1014.63 761.915 996.43 747.967 993.702 728.122 C 990.974 708.276 1004.73 689.935 1024.55 687.004 z M 1037.44 747.113 C 1066.23 735.256 1055.24 694.404 1021.95 698.219 C 990.804 712.055 1002.6 748.619 1037.44 747.113 z" fill="rgb(4,57,36)" transform="translate(0,0)"></path>
<path d="M 147.881 808.218 L 655.5 808.766 C 666.958 809.215 678.423 809.449 689.89 809.466 L 688.804 809.661 C 679.785 811.192 660.514 811.038 654.022 814.386 L 654.12 815.305 C 658.898 817.424 666.685 817.88 672.024 818.03 C 678.089 818.348 689.854 819.394 695.372 819.029 C 707.796 819.822 729.52 823.68 739.011 823.333 C 714.634 824.477 687.728 823.945 663.135 823.925 L 541.106 823.854 L 162.968 823.935 C 163.022 943.414 164.683 1067.29 162.769 1186.47 C 161.35 1197.75 164.186 1222.06 157.1 1229.88 C 153.863 1230.35 153.226 1228.91 149.411 1227.19 C 146.843 1219.61 152.231 1215.13 147.361 1208.53 L 147.881 808.218 z" fill="rgb(223,208,168)" transform="translate(0,0)"></path>
<path d="M 810.936 145.018 L 1088.65 145.506 L 1158.09 145.597 C 1167.53 145.602 1188.71 145.131 1197.27 146.58 C 1193.03 148.416 1190.37 148.704 1188.56 152.245 C 1190.18 156.673 1205.2 156.063 1209.34 155.847 C 1214.18 156.439 1215.19 156.421 1219.28 159.069 C 1203.74 159.999 1184.19 159.418 1168.4 159.378 L 1082.37 159.24 L 826.057 159.312 L 826.959 529.961 L 826.984 640.582 C 826.985 657.342 827.617 678.911 826.916 695.329 C 823.368 705.56 826.448 778.412 825.769 794.024 C 825.526 799.62 817.562 806.655 816.59 811.712 L 815.037 812.114 C 813.231 809.517 813.423 810.884 813.927 808.014 L 813.905 806.317 C 813.931 795.165 819.344 793.712 819.252 783.697 C 818.586 755.421 818.691 728.07 819.583 699.76 C 820.392 674.125 817.731 649.014 819.247 623.106 C 821.366 586.893 819.458 552.327 814.549 516.441 C 813.161 506.295 815.226 487.899 814.469 477.012 C 817.138 458.952 817.562 453.033 814.163 434.145 L 814.188 434.853 L 812.517 423.31 C 811.419 430.702 813.948 437.578 811.252 445.159 C 810.189 412.785 811.008 375.888 810.979 343.174 L 810.936 145.018 z M 825.775 150.712 L 826.646 149.423 C 823.466 147.615 815.361 147.583 811.603 147.711 L 812.188 151.071 C 815.775 153.076 821 150.827 825.775 150.712 z" fill="rgb(223,208,168)" fill-opacity="0.968627" transform="translate(0,0)"></path>
<path d="M 811.603 147.711 C 815.361 147.583 823.466 147.615 826.646 149.423 L 825.775 150.712 C 821 150.827 815.775 153.076 812.188 151.071 L 811.603 147.711 z" fill="rgb(223,208,168)" fill-opacity="0.882353" transform="translate(0,0)"></path>
<path d="M 1260.85 1224.04 L 1617.56 1223.88 L 1755.4 1223.87 C 1779.09 1223.86 1805.04 1223.3 1828.45 1223.98 C 1814.57 1225.89 1803.41 1225.72 1789.64 1229.2 C 1796.11 1231.26 1803.29 1234.01 1810.08 1233.2 C 1819.43 1233.13 1828.18 1234 1837.42 1234.17 C 1843.29 1235.61 1878.76 1237.96 1888.25 1238.84 C 1837.33 1239.66 1784.45 1239 1733.43 1239.03 L 1457.27 1239.18 L 1315.12 1239.01 C 1296.77 1238.99 1257.51 1240 1240.83 1238.28 L 1238.77 1237.24 L 1238.07 1234.91 C 1243.56 1233.25 1246.75 1233.31 1252.43 1232.96 C 1269.85 1232.57 1285.35 1233.15 1302.38 1233.04 C 1318.08 1234.11 1345.91 1233.5 1361.55 1232 C 1365.87 1232.6 1378.11 1231.98 1381.87 1229.85 C 1368.37 1219.09 1271.99 1229.7 1260.85 1224.04 z" fill="rgb(207,184,136)" transform="translate(0,0)"></path>
<path d="M 1222.86 1242.87 C 1224.69 1249.65 1225 1252.26 1229.3 1257.61 C 1232.35 1258.86 1230.8 1258.77 1234.11 1257.63 C 1235.38 1255.62 1236.04 1254.61 1237.04 1252.46 L 1237.16 1551.01 C 1237.1 1594.71 1237.58 1639.83 1236.85 1683.43 C 1236.53 1678.93 1236.27 1672.35 1235.49 1668.07 C 1229.5 1670.92 1228.57 1681.95 1224.93 1681 C 1225.97 1677.68 1227.85 1673.53 1226.78 1670.52 L 1225.92 1670.5 C 1224.04 1676.22 1223.65 1682.05 1222.98 1688.04 C 1221.71 1632.46 1222.39 1573.65 1222.41 1517.9 L 1222.86 1242.87 z" fill="url(#Gradient10)" transform="translate(0,0)"></path>
<path d="M 1892.21 816.386 C 1897.12 816.148 1895.01 816.987 1898.75 813.73 L 1900.64 814.158 L 1901.13 1104.86 L 1901.13 1188.89 C 1901.12 1199.8 1900.48 1222.93 1901.49 1233.03 C 1892.2 1227.27 1896.8 1226.72 1892.67 1224.4 C 1892.21 1226.97 1892.71 1226.15 1891.16 1227.96 L 1888.57 1226.6 C 1886.73 1223.1 1889.1 1220.83 1888.38 1216.89 L 1887.91 1219.04 L 1886.53 1219.31 L 1885.81 1221.3 L 1886.28 959.572 C 1886.27 914.747 1885.46 868.643 1886.22 823.952 L 1889.57 817.546 L 1892.21 816.386 z" fill="url(#Gradient9)" transform="translate(0,0)"></path>
<path d="M 1497.84 545.988 C 1494.32 548.616 1491.89 548.727 1489.58 552.096 L 1489.82 552.364 C 1493.93 552.926 1494.26 552.782 1498.42 551.985 C 1502.7 547.999 1516.1 541.118 1517.14 538.18 C 1520.23 529.412 1522.35 523.177 1527.24 514.871 L 1528 515.237 C 1527.7 522.986 1524.92 527.17 1526.45 534.539 C 1524.25 536.807 1519.18 542.371 1517.06 544.205 C 1505.39 545.731 1506.73 556.015 1494.67 555.427 C 1486.88 559.966 1464.21 574.739 1461.06 582.57 C 1464.2 581.737 1469.03 577.064 1471.89 574.693 L 1473.01 575.605 C 1473.66 582.791 1470.92 584.653 1472.13 590.836 C 1458.29 606.197 1442.69 620.487 1428.27 635.341 C 1424.9 638.821 1420.88 642.899 1417.25 646.042 L 1419.79 641.288 L 1419.31 639.922 C 1414.8 638.56 1409.48 639.11 1406.13 642.707 L 1406.49 643.755 C 1409.22 643.567 1409.09 643.445 1411.52 642.086 C 1407.5 647.366 1401.14 652.191 1400.02 658.195 L 1399.92 657.64 L 1399.84 659.472 C 1402.97 660.114 1401.68 660.036 1405.04 658.889 C 1386.22 678.568 1367.58 698.541 1348.48 717.931 C 1346.35 720.099 1335.16 731.236 1333.67 732.203 C 1327.73 726.722 1327.39 730.014 1319.4 729.564 L 1325.53 724.675 C 1328.34 724.07 1329.12 724.514 1331.86 725.289 L 1332.78 725.557 L 1332.2 723.2 C 1327.09 718.627 1328.85 716.795 1331.08 710.951 C 1339.39 700.396 1344.96 694.769 1351.92 682.55 C 1353.65 684.073 1352.62 686.046 1352.23 688.039 L 1353.04 688.629 C 1355.51 684.349 1358.05 676.515 1356.58 671.83 C 1363.09 664.976 1370.53 657.988 1377.34 651.351 C 1377.92 652.983 1378.14 653.411 1378.89 654.953 C 1389.13 657.304 1393.56 650.434 1400.5 644.152 C 1407.69 637.552 1413.48 629.725 1418.72 621.499 C 1419.67 620.016 1418.77 620.799 1420.92 619.853 C 1429.98 616.457 1444.8 597.048 1447.29 588.276 L 1445.63 585.788 C 1462.01 569.56 1479.9 553.031 1496.66 537.059 C 1498.06 535.303 1503.87 529.815 1505.76 527.934 C 1510.29 529.205 1508.63 527.931 1511.09 531.624 C 1510.31 536.595 1507.13 537.918 1502.44 538.557 L 1503.34 539.967 C 1502.61 543.224 1502.76 543.041 1500.43 545.404 L 1497.84 545.988 z" fill="url(#Gradient8)" transform="translate(0,0)"></path>
<path d="M 1341.76 686.856 C 1342.03 694.512 1339.26 694.575 1333.21 701.384 C 1325.03 710.602 1315.54 718.605 1312.68 731.273 L 1313.26 732.234 C 1317.24 728.856 1330.67 711.166 1331.08 710.951 C 1328.85 716.795 1327.09 718.627 1332.2 723.2 L 1332.78 725.557 L 1331.86 725.289 C 1329.12 724.514 1328.34 724.07 1325.53 724.675 L 1319.4 729.564 C 1327.39 730.014 1327.73 726.722 1333.67 732.203 C 1302.76 760.167 1270.9 801.832 1239.32 829.924 C 1232.47 824.06 1223.78 815.452 1216.62 810.684 C 1239.68 788.952 1262.22 764.252 1284.98 742.128 C 1304.03 723.608 1322.93 705.668 1341.76 686.856 z" fill="url(#Gradient7)" transform="translate(0,0)"></path>
<path d="M 827.807 1887.81 L 917.952 1887.66 C 925.632 1887.64 952.737 1887.09 959.582 1887.95 C 967.667 1890.85 998.802 1889.42 1008.55 1889.35 L 1131.18 1889.49 C 1144.49 1889.49 1189.96 1888.42 1200.41 1891.13 C 1188.66 1890.97 1146.94 1890.57 1137.17 1892.64 C 1146.48 1893.21 1166.31 1893.41 1175.68 1892.79 L 1174.32 1894.31 L 1158.45 1895.44 C 1170.51 1896.45 1181.66 1896.65 1193.73 1896.97 C 1205.09 1898.18 1213.74 1898.16 1225.1 1900.51 C 1187.46 1901.25 1149.16 1899.98 1111.88 1900.86 C 1086.2 1899.62 1053.7 1900.93 1027.06 1900.72 C 960.198 1900.19 892.942 1901.42 826.092 1900.55 C 836.257 1897 840.466 1897.12 851.27 1896.29 L 855.671 1896.16 C 860.124 1895.8 861.757 1895.48 866.141 1894.46 C 863.686 1893.93 862.272 1893.88 859.778 1893.69 C 862.079 1892.14 861.888 1892.95 862.301 1891.16 C 848.665 1889.34 837.997 1894.47 827.807 1887.81 z" fill="url(#Gradient6)" transform="translate(0,0)"></path>
<path d="M 1036.17 1360.84 C 1031.49 1354.41 1024.85 1351.09 1020.25 1345.1 C 1016.27 1339.9 1012.72 1341.99 1010.67 1336.2 C 1012.34 1335.82 1019.69 1341.46 1023 1342.77 C 1060.82 1376.86 1122.34 1425.05 1071.71 1478.83 C 1067.57 1483.23 1062.03 1489.46 1056.35 1491.57 L 1054.64 1490.9 C 1051.14 1482.41 1062.54 1469.59 1065 1461.27 C 1066.99 1454.52 1066.64 1447.4 1069.68 1440.82 L 1071.16 1440.37 C 1075.99 1446.96 1074.15 1461.3 1073.79 1469.82 C 1075.54 1465.3 1078.02 1459.34 1078.49 1454.6 C 1081.92 1419.99 1044.28 1399.53 1024.06 1377.43 C 1033.33 1378.36 1045.94 1394.69 1052.95 1388.17 C 1054.81 1378.96 1044 1363.92 1036.17 1360.84 z" fill="rgb(254,254,254)" fill-opacity="0.0117647" transform="translate(0,0)"></path>
<path d="M 1223.1 1715.54 C 1223.98 1710.57 1223.03 1708.6 1225.29 1703.86 C 1231.58 1700.45 1232.09 1696.01 1234.76 1689.06 L 1235.17 1689.53 C 1235.18 1695.2 1236.11 1700.83 1236.84 1706.46 C 1237.4 1732.55 1237.1 1758.84 1237.04 1784.96 C 1236.99 1812.28 1237.84 1841 1236.66 1868.23 C 1235.88 1873.65 1235.2 1878.15 1228.4 1877.29 C 1222.76 1872.26 1223.89 1866.7 1223.35 1858.49 C 1222.49 1811.68 1223.15 1762.56 1223.1 1715.54 z" fill="rgb(223,208,168)" fill-opacity="0.141176" transform="translate(0,0)"></path>
<path d="M 811.252 445.159 C 813.948 437.578 811.419 430.702 812.517 423.31 L 814.188 434.853 L 814.163 434.145 C 817.562 453.033 817.138 458.952 814.469 477.012 C 815.226 487.899 813.161 506.295 814.549 516.441 C 819.458 552.327 821.366 586.893 819.247 623.106 C 817.731 649.014 820.392 674.125 819.583 699.76 C 818.691 728.07 818.586 755.421 819.252 783.697 C 819.344 793.712 813.931 795.165 813.905 806.317 L 813.927 808.014 C 813.637 805.66 812.924 802.745 812.427 800.371 C 811.599 797.236 811.851 776.853 811.84 772.585 L 811.749 704.258 C 811.668 618.617 810.126 530.444 811.252 445.159 z" fill="url(#Gradient5)" transform="translate(0,0)"></path>
<path d="M 1699.21 808.597 C 1708.71 807.409 1897.73 807.335 1899.09 807.986 C 1899.62 808.239 1900.03 808.681 1900.5 809.029 C 1900.55 810.716 1900.63 812.478 1900.64 814.158 L 1898.75 813.73 C 1895.01 816.987 1897.12 816.148 1892.21 816.386 C 1892.6 812.197 1893.2 813.89 1890.94 810.95 C 1884.67 808.337 1854.09 809.093 1849.74 815.832 L 1850.39 817.426 L 1853.92 818.654 C 1839.3 825.102 1737.28 819.926 1715.65 823.197 C 1710.09 823.957 1692.09 823.812 1686.82 822.729 C 1694.41 819.735 1704.44 816.593 1712.33 813.86 C 1707.17 812.169 1704.02 811.285 1699.21 808.597 z" fill="rgb(207,184,136)" fill-opacity="0.976471" transform="translate(0,0)"></path>
<path d="M 1018.55 1621.93 C 986.759 1592.06 982.759 1545.87 1000.1 1507.33 C 1004.94 1512.34 1009.88 1517.26 1014.91 1522.08 C 996.11 1561.45 1013.53 1588.13 1040.2 1616.33 C 1041.1 1619.8 1041.5 1620.92 1040.8 1624.39 C 1039.2 1618.13 1025.4 1603.36 1017.76 1608.49 C 1016.13 1611.89 1016.22 1611.64 1016.21 1615.42 C 1017.78 1618.09 1018.32 1618.72 1018.55 1621.93 z" fill="url(#Gradient4)" transform="translate(0,0)"></path>
<path d="M 1033.97 1004.6 C 1033.86 999.733 1023.68 998.655 1022.57 995.092 L 1024.7 996.568 L 1026.27 995.801 L 1029.43 997.314 C 1032.54 999.034 1042.55 1003.16 1046.53 1004.93 C 1059.34 1010.62 1071.16 1016.12 1083.67 1022.46 C 1092.19 1025.4 1112.25 1042.73 1118.52 1049.55 C 1174.95 1110.99 1119.9 1140.28 1080.59 1176.6 C 1092.48 1157.83 1109.08 1144.83 1120.26 1125.63 C 1147.2 1079.41 1107.94 1040.01 1069.06 1019.46 C 1067.44 1017.92 1060.94 1014.07 1058.32 1013.97 C 1053.92 1013.8 1054.13 1014.94 1050.97 1018.14 C 1043.35 1013.49 1043.93 1016.78 1038.56 1008.62 C 1039.4 1006.72 1038.87 1006.26 1037.85 1004.76 L 1033.97 1004.6 z" fill="rgb(4,57,36)" transform="translate(0,0)"></path>
<path d="M 1025.07 1425.9 C 1031.27 1427.11 1036.19 1429.02 1037.78 1435.38 C 1037.22 1438.97 1035.43 1439.97 1032.68 1442.46 C 1029.63 1443.84 1029.38 1444.24 1025.99 1444.03 C 1019.5 1439.13 1020.94 1431.97 1025.07 1425.9 z" fill="rgb(254,254,254)" fill-opacity="0.219608" transform="translate(0,0)"></path>
<path d="M 147.361 1208.53 C 152.231 1215.13 146.843 1219.61 149.411 1227.19 C 153.226 1228.91 153.863 1230.35 157.1 1229.88 C 164.186 1222.06 161.35 1197.75 162.769 1186.47 C 162.945 1199.5 162.961 1212.53 162.818 1225.56 C 217.183 1224.74 279.426 1224.48 333.704 1225.6 C 324.501 1225.62 325.237 1227.49 316.925 1229.58 C 310.457 1228.34 292.52 1228.97 285.064 1229.12 C 281.472 1229.04 278.611 1228.5 275.605 1230.25 C 277.997 1232.85 282.507 1232.16 285.915 1232.03 C 292.576 1232.08 299.939 1231.96 306.534 1232.19 C 297.342 1233.62 281.374 1233.06 271.815 1233.11 C 236.273 1233.3 199.328 1228.23 164.396 1236.44 C 159.093 1237.69 155.126 1237.15 150.762 1239.87 L 148.859 1239.76 C 146.124 1236.57 147.265 1214.06 147.361 1208.53 z" fill="rgb(207,184,136)" fill-opacity="0.803922" transform="translate(0,0)"></path>
<path d="M 150.762 1239.87 C 155.126 1237.15 159.093 1237.69 164.396 1236.44 C 199.328 1228.23 236.273 1233.3 271.815 1233.11 C 281.374 1233.06 297.342 1233.62 306.534 1232.19 C 309.76 1232.16 315.732 1232.33 318.618 1231.67 C 327.091 1232.63 335.279 1233.6 342.121 1239.51 C 331.183 1240.88 287.87 1240.13 275.042 1239.97 C 234.091 1239.46 191.488 1240.75 150.762 1239.87 z" fill="rgb(223,208,168)" transform="translate(0,0)"></path>
<path d="M 709.308 808.91 C 719.673 809.011 776.915 808.124 782.648 809.68 L 783.428 810.037 C 788.163 812.16 791.391 811.842 794.521 814.592 L 794.233 816.372 C 788.273 820.392 768.681 823.226 761.457 823.265 C 754.558 822.995 746.036 823.28 739.011 823.333 C 729.52 823.68 707.796 819.822 695.372 819.029 L 689.73 817.331 L 690.575 817.478 C 692.116 816.571 691.913 816.525 693.612 816.176 C 699.764 814.912 703.98 812.151 709.308 808.91 z" fill="rgb(207,184,136)" fill-opacity="0.00784314" transform="translate(0,0)"></path>
<path d="M 1677.82 478.697 C 1677.26 477.26 1677.42 478.089 1677.57 476.174 C 1680.23 476.072 1680.33 476.104 1682.87 475.366 C 1686.52 467.298 1691.11 468.387 1697.2 464.64 C 1707.59 458.25 1750.72 442.498 1755.99 432.902 L 1755.63 431.67 L 1751.96 432.789 L 1748.78 429.262 C 1747.26 422.339 1753.66 423.375 1757.21 418.533 C 1759.35 415.63 1756.2 409.999 1757.66 404.147 C 1759.81 401.043 1759.58 401.191 1762.95 399.531 C 1775.87 404.474 1771.88 411.425 1774.12 421.439 C 1779.97 418.955 1785.95 408.549 1791.79 406.492 L 1791.92 406.216 L 1790.85 406.182 L 1792.1 405.411 C 1791.08 409.061 1786.35 416.36 1784.21 419.95 C 1770.95 436.965 1747.48 444.145 1728.45 454.393 C 1721.5 458.136 1720.4 455.331 1711.07 462.216 C 1701.23 468.934 1692.82 470.481 1683.52 476.914 C 1680.78 478.807 1680.82 478.259 1677.82 478.697 z" fill="rgb(254,254,254)" fill-opacity="0.305882" transform="translate(0,0)"></path>
<path d="M 1619.79 420.912 C 1624.82 416.248 1629.41 412.1 1634.67 407.699 L 1637.36 408.733 C 1638.8 415.407 1631.45 415.722 1633.25 420.647 C 1614.46 443.206 1586.15 471.645 1565.2 492.953 C 1561.32 485.238 1577.88 468.181 1578.78 459.266 C 1580.12 457.325 1599.61 439.576 1602.37 437.051 L 1606.45 437.863 C 1613.79 434.51 1621.76 430.022 1619.79 420.912 z" fill="rgb(254,254,254)" fill-opacity="0.85098" transform="translate(0,0)"></path>
<path d="M 813.927 808.014 C 813.423 810.884 813.231 809.517 815.037 812.114 L 816.59 811.712 C 817.562 806.655 825.526 799.62 825.769 794.024 C 826.448 778.412 823.368 705.56 826.916 695.329 C 828.865 734.447 827.644 784.005 827.774 824.138 C 817.859 824.129 768.66 824.774 761.457 823.265 C 768.681 823.226 788.273 820.392 794.233 816.372 L 794.521 814.592 C 791.391 811.842 788.163 812.16 783.428 810.037 L 782.648 809.68 C 790.944 806.554 799.374 810.61 810.012 807.959 C 812.903 805.317 811.951 805.645 812.427 800.371 C 812.924 802.745 813.637 805.66 813.927 808.014 z" fill="rgb(207,184,136)" fill-opacity="0.737255" transform="translate(0,0)"></path>
<path d="M 1578.78 459.266 C 1577.88 468.181 1561.32 485.238 1565.2 492.953 C 1557.39 501.465 1534.79 526.936 1527.22 533.025 L 1527.5 529.153 C 1532.03 524.293 1536.55 514.192 1533.51 507.696 C 1528.55 507.96 1531.74 510.796 1524.08 510.79 C 1542.79 493.881 1558.86 476.388 1578.78 459.266 z" fill="url(#Gradient3)" transform="translate(0,0)"></path>
<path d="M 923.423 1122.83 C 934.744 1114.84 938.067 1115.78 947.762 1123.79 C 948.99 1120.49 944.542 1115.91 946.424 1109.68 C 954.206 1126.93 960.569 1135.66 974.373 1148.9 C 969.476 1148.06 955.372 1148.31 950.774 1149.95 L 951.512 1152.47 C 940.2 1142.95 931.779 1135.05 923.423 1122.83 z" fill="rgb(254,254,254)" fill-opacity="0.772549" transform="translate(0,0)"></path>
<path d="M 1223.35 1858.49 C 1223.89 1866.7 1222.76 1872.26 1228.4 1877.29 C 1235.2 1878.15 1235.88 1873.65 1236.66 1868.23 C 1237.32 1879.74 1237.22 1890.33 1237.15 1901.84 L 1111.67 1901.54 L 1111.88 1900.86 C 1149.16 1899.98 1187.46 1901.25 1225.1 1900.51 C 1213.74 1898.16 1205.09 1898.18 1193.73 1896.97 C 1197.25 1896.07 1201.85 1895.64 1205.53 1895.18 C 1194.92 1892.03 1186.79 1891.18 1175.68 1892.79 C 1166.31 1893.41 1146.48 1893.21 1137.17 1892.64 C 1146.94 1890.57 1188.66 1890.97 1200.41 1891.13 C 1204.39 1891.78 1208.08 1892.6 1212 1893.46 L 1222.21 1888.15 C 1222.99 1885.58 1223.21 1862.69 1223.35 1858.49 z" fill="rgb(223,208,168)" fill-opacity="0.862745" transform="translate(0,0)"></path>
<path d="M 1254.47 1223.72 C 1256.01 1223.79 1259.5 1223.84 1260.85 1224.04 C 1271.99 1229.7 1368.37 1219.09 1381.87 1229.85 C 1378.11 1231.98 1365.87 1232.6 1361.55 1232 C 1354.89 1229.73 1350.93 1230.85 1343.23 1228.89 L 1345.93 1228.82 C 1334.08 1226.93 1305.26 1227.25 1295.2 1231.33 C 1297.37 1231.83 1300.31 1232.41 1302.38 1233.04 C 1285.35 1233.15 1269.85 1232.57 1252.43 1232.96 C 1255.23 1232.29 1257.75 1231.62 1260.53 1230.83 C 1257.85 1227.23 1256.57 1229.21 1254.47 1223.72 z" fill="rgb(207,184,136)" fill-opacity="0.423529" transform="translate(0,0)"></path>
<path d="M 1002.3 1318.47 L 1003.73 1320.52 L 1001.73 1323.22 C 997.473 1323.83 996.832 1324.05 993.338 1326.54 C 989.424 1334.15 997.891 1342.71 1005.06 1342.46 C 1005.84 1341.74 1006.93 1340.87 1007.47 1340.05 C 1010.06 1343.51 1011.72 1343.67 1014.38 1346.9 C 1023.39 1357.87 1031.64 1360.79 1038.85 1373.59 L 1038.63 1374.75 C 1030.44 1376.72 1023.22 1364.35 1015.02 1369.31 C 1011.91 1366.81 1010.36 1365.04 1007.62 1362.08 C 1008.74 1350.79 1000.59 1347.67 992.475 1340.35 C 990.917 1335.22 989.324 1331.09 989.144 1325.73 C 992.436 1319.98 998.232 1321.58 1002.3 1318.47 z" fill="rgb(254,254,254)" fill-opacity="0.364706" transform="translate(0,0)"></path>
<path d="M 915.345 1105.01 C 922.758 1101.21 920.856 1087.66 932.518 1090.83 C 939.017 1096.28 936.596 1103.74 940.453 1107.54 C 942.745 1106.27 942.401 1105.82 943.907 1103.13 L 946.424 1109.68 C 944.542 1115.91 948.99 1120.49 947.762 1123.79 C 938.067 1115.78 934.744 1114.84 923.423 1122.83 C 919.483 1116.79 916.67 1112.13 915.345 1105.01 z" fill="rgb(254,254,254)" fill-opacity="0.631373" transform="translate(0,0)"></path>
<path d="M 1885.81 1221.3 L 1886.53 1219.31 L 1887.91 1219.04 L 1888.38 1216.89 C 1889.1 1220.83 1886.73 1223.1 1888.57 1226.6 L 1891.16 1227.96 C 1892.71 1226.15 1892.21 1226.97 1892.67 1224.4 C 1896.8 1226.72 1892.2 1227.27 1901.49 1233.03 L 1900.9 1237.48 C 1896.77 1240.32 1893.73 1239.25 1888.25 1238.84 C 1878.76 1237.96 1843.29 1235.61 1837.42 1234.17 C 1843.97 1234.19 1851.39 1234.45 1857.84 1234.29 C 1867.32 1234.39 1880.16 1236.73 1888.13 1231.93 L 1888.14 1230.05 C 1882.33 1226.58 1865.82 1226.63 1858.78 1226.87 C 1849.27 1226.84 1814.63 1224.29 1808.83 1230.98 C 1809.46 1232.77 1808.99 1232.07 1810.08 1233.2 C 1803.29 1234.01 1796.11 1231.26 1789.64 1229.2 C 1803.41 1225.72 1814.57 1225.89 1828.45 1223.98 C 1841.73 1222.19 1872.25 1225.28 1884.98 1222.82 L 1885.81 1221.3 z" fill="rgb(223,208,168)" fill-opacity="0.819608" transform="translate(0,0)"></path>
<path d="M 810.206 1902.02 C 813.605 1901.44 813.969 1901.76 816.788 1900.02 C 816.675 1886.23 823.61 1890.64 824.599 1879.68 C 824.782 1883.83 824.124 1884.44 826.027 1887.4 L 827.807 1887.81 C 837.997 1894.47 848.665 1889.34 862.301 1891.16 C 861.888 1892.95 862.079 1892.14 859.778 1893.69 C 862.272 1893.88 863.686 1893.93 866.141 1894.46 C 861.757 1895.48 860.124 1895.8 855.671 1896.16 C 857.225 1894.02 856.967 1895.2 856.88 1892.66 C 853.388 1890.32 845.219 1891.3 842.425 1894.38 C 844.739 1896.27 848.081 1896.04 851.27 1896.29 C 840.466 1897.12 836.257 1897 826.092 1900.55 C 892.942 1901.42 960.198 1900.19 1027.06 1900.72 C 1053.7 1900.93 1086.2 1899.62 1111.88 1900.86 L 1111.67 1901.54 L 910.847 1901.67 C 881.427 1901.69 838.702 1900.39 810.206 1902.02 z" fill="rgb(223,208,168)" fill-opacity="0.890196" transform="translate(0,0)"></path>
<path d="M 1377.74 290.53 L 1379.74 292.043 C 1383.55 291.547 1387.18 288.855 1392.32 287.94 C 1389.66 295.918 1372.68 303.437 1364.95 305.524 C 1356.99 307.672 1352.47 314.359 1351.6 322.163 L 1346.66 323.376 C 1344.01 325.454 1344.62 324.164 1343.99 326.906 L 1347.13 329.58 L 1345.11 330.523 C 1330.26 328.791 1335.43 333.685 1326.62 337.596 C 1328.91 330.545 1342.77 320.476 1343.52 311.161 C 1346.92 307.732 1372.4 293.435 1377.74 290.53 z" fill="rgb(254,254,254)" fill-opacity="0.239216" transform="translate(0,0)"></path>
<path d="M 1689.45 412.454 L 1689.84 414.764 C 1683.09 421.45 1669.1 435.392 1663.43 442.65 L 1664.73 443.573 C 1669.59 441.262 1668.91 437.336 1674 434.584 L 1674.82 435.429 C 1675.12 434.906 1646.98 468.031 1647.67 467.508 C 1638.01 469.561 1644.67 472.293 1640.04 478.086 C 1643.48 481.006 1648.95 478.2 1652.68 481.4 C 1651.74 483.358 1652.39 482.404 1650.62 484.167 L 1650.83 485.163 C 1642.5 483.097 1640.23 487.022 1632.73 484.227 C 1631.62 477.967 1634.13 474.962 1634.61 468.512 L 1689.45 412.454 z" fill="rgb(254,254,254)" fill-opacity="0.164706" transform="translate(0,0)"></path>
<path d="M 1037.36 987.846 C 1043.48 990.099 1060.91 996.484 1065.66 1000.05 C 1065.12 1001.49 1063.59 1004.51 1064.28 1005.29 C 1069.61 1011.35 1080.58 1014.59 1083.67 1022.46 C 1071.16 1016.12 1059.34 1010.62 1046.53 1004.93 C 1042.55 1003.16 1032.54 999.034 1029.43 997.314 L 1028.69 995.102 L 1029.92 993.091 C 1032.58 991.642 1033.59 991.188 1035.88 989.177 L 1037.36 987.846 z" fill="rgb(254,254,254)" fill-opacity="0.803922" transform="translate(0,0)"></path>
<path d="M 1524.08 510.79 C 1531.74 510.796 1528.55 507.96 1533.51 507.696 C 1536.55 514.192 1532.03 524.293 1527.5 529.153 L 1527.22 533.025 L 1526.45 534.539 C 1524.92 527.17 1527.7 522.986 1528 515.237 L 1527.24 514.871 C 1522.35 523.177 1520.23 529.412 1517.14 538.18 C 1516.1 541.118 1502.7 547.999 1498.42 551.985 C 1494.26 552.782 1493.93 552.926 1489.82 552.364 L 1489.58 552.096 C 1491.89 548.727 1494.32 548.616 1497.84 545.988 L 1500.43 545.404 C 1502.76 543.041 1502.61 543.224 1503.34 539.967 L 1502.44 538.557 C 1507.13 537.918 1510.31 536.595 1511.09 531.624 C 1508.63 527.931 1510.29 529.205 1505.76 527.934 C 1511.73 522.079 1517.84 516.363 1524.08 510.79 z" fill="rgb(254,254,254)" fill-opacity="0.607843" transform="translate(0,0)"></path>
<path d="M 1001.28 1473.24 C 1002.18 1470.25 1002.44 1467.88 1004.84 1466.07 C 1010.46 1467.88 1008.29 1469.06 1013.9 1467.71 C 1020.92 1476.23 1026.84 1482.69 1034.22 1490.83 C 1033.8 1501.43 1034.16 1496.26 1039.69 1505.52 C 1040.57 1506.99 1040.56 1513.91 1040.59 1516.06 C 1036.84 1515.61 1028.64 1514.47 1025.16 1514.6 C 1022.58 1512.8 1018.6 1508.75 1016.19 1506.45 C 1025.12 1502.78 1028.19 1512.95 1034.15 1508.42 C 1030.56 1494.86 1018.42 1489.9 1016.44 1483.9 C 1017.21 1479.52 1018.32 1478.76 1015.72 1475.51 C 1011.81 1474.19 1013.12 1474.56 1008.56 1475.53 C 1008.29 1473.05 1008.53 1473.82 1007.52 1471.7 L 1005.2 1472.02 L 1004.31 1473.2 L 1004.45 1475.01 L 1003.2 1475.28 L 1003.85 1474.76 L 1003.6 1473.87 L 1002.34 1474.56 L 1001.28 1473.24 z" fill="rgb(254,254,254)" fill-opacity="0.192157" transform="translate(0,0)"></path>
<path d="M 1472.13 590.836 C 1470.92 584.653 1473.66 582.791 1473.01 575.605 L 1471.89 574.693 C 1469.03 577.064 1464.2 581.737 1461.06 582.57 C 1464.21 574.739 1486.88 559.966 1494.67 555.427 C 1506.73 556.015 1505.39 545.731 1517.06 544.205 C 1501.7 559.378 1486.72 574.926 1472.13 590.836 z" fill="rgb(254,254,254)" fill-opacity="0.678431" transform="translate(0,0)"></path>
<path d="M 1001.28 1473.24 L 1002.34 1474.56 L 1003.6 1473.87 L 1003.85 1474.76 L 1003.2 1475.28 L 1004.45 1475.01 L 1004.31 1473.2 L 1005.2 1472.02 L 1007.52 1471.7 C 1008.53 1473.82 1008.29 1473.05 1008.56 1475.53 C 1013.12 1474.56 1011.81 1474.19 1015.72 1475.51 C 1018.32 1478.76 1017.21 1479.52 1016.44 1483.9 C 1018.42 1489.9 1030.56 1494.86 1034.15 1508.42 C 1028.19 1512.95 1025.12 1502.78 1016.19 1506.45 C 1013.07 1504.4 1010.57 1501.27 1008.04 1498.47 C 1011.3 1495.82 1012.58 1495.9 1016.91 1494.96 L 1018.35 1494.66 C 1017.6 1489.9 1015.97 1481.78 1010.64 1480.91 C 1005.7 1485.51 1010.01 1489.98 1006.6 1496.98 C 1004.11 1494.16 1001.25 1491.39 999.837 1487.97 C 1002.47 1483.82 1001.35 1478.69 1001.28 1473.24 z" fill="rgb(254,254,254)" fill-opacity="0.45098" transform="translate(0,0)"></path>
<path d="M 1007.47 1340.05 C 1007.51 1336.51 1007.22 1334.22 1008.68 1331 L 1011.38 1330 C 1015.26 1334.06 1019.62 1338.34 1023 1342.77 C 1019.69 1341.46 1012.34 1335.82 1010.67 1336.2 C 1012.72 1341.99 1016.27 1339.9 1020.25 1345.1 C 1024.85 1351.09 1031.49 1354.41 1036.17 1360.84 L 1037.03 1362.31 C 1042.77 1371.91 1048.48 1373.3 1047.12 1386.14 L 1045.49 1386.69 C 1045.44 1386.64 1039.82 1380.61 1040.65 1381.12 C 1030.48 1374.98 1029.55 1378.28 1019.2 1369.41 L 1018.21 1369.88 L 1018.79 1373.06 L 1015.02 1369.31 C 1023.22 1364.35 1030.44 1376.72 1038.63 1374.75 L 1038.85 1373.59 C 1031.64 1360.79 1023.39 1357.87 1014.38 1346.9 C 1011.72 1343.67 1010.06 1343.51 1007.47 1340.05 z" fill="rgb(254,254,254)" fill-opacity="0.27451" transform="translate(0,0)"></path>
<path d="M 959.582 1887.95 C 1035.37 1886.08 1112.19 1889.1 1188.05 1887.91 C 1199.08 1887.74 1211.25 1887.7 1222.21 1888.15 L 1212 1893.46 C 1208.08 1892.6 1204.39 1891.78 1200.41 1891.13 C 1189.96 1888.42 1144.49 1889.49 1131.18 1889.49 L 1008.55 1889.35 C 998.802 1889.42 967.667 1890.85 959.582 1887.95 z" fill="rgb(223,208,168)" transform="translate(0,0)"></path>
<path d="M 1677.82 478.697 C 1680.82 478.259 1680.78 478.807 1683.52 476.914 C 1692.82 470.481 1701.23 468.934 1711.07 462.216 C 1707.91 466.458 1697.3 476.746 1692.75 478.183 L 1693.06 479.66 C 1684.5 483.442 1667.71 488.281 1658.01 491.336 C 1652.48 490.004 1646.57 485.873 1638.95 486.706 C 1636.92 486.928 1635.68 486.688 1633.71 486.131 L 1632.73 484.227 C 1640.23 487.022 1642.5 483.097 1650.83 485.163 C 1659.05 487.837 1663.8 475.441 1669.92 473.582 C 1673 474.606 1674.06 475.174 1675.2 478.282 L 1677.82 478.697 z" fill="rgb(254,254,254)" fill-opacity="0.027451" transform="translate(0,0)"></path>
<path d="M 333.704 1225.6 C 343.781 1225.44 356.092 1224.83 365.859 1226.02 C 361.621 1231.28 358.482 1235.29 353.638 1240.02 L 342.121 1239.51 C 335.279 1233.6 327.091 1232.63 318.618 1231.67 C 317.36 1230.34 315.214 1230.45 313.501 1230.47 L 316.925 1229.58 C 325.237 1227.49 324.501 1225.62 333.704 1225.6 z" fill="rgb(223,208,168)" fill-opacity="0.0235294" transform="translate(0,0)"></path>
<path d="M 951.512 1152.47 L 950.774 1149.95 C 955.372 1148.31 969.476 1148.06 974.373 1148.9 C 975.698 1150.03 982.377 1155.52 983.165 1156.41 C 981.883 1164.42 981.007 1165.15 976.293 1171.8 C 971.398 1169.26 956.472 1156.58 951.512 1152.47 z" fill="rgb(254,254,254)" fill-opacity="0.360784" transform="translate(0,0)"></path>
<path d="M 1399.65 629.853 L 1437.95 593.182 C 1438.82 595.167 1439.64 595.787 1438.87 597.155 C 1434.53 604.909 1426.48 612.862 1420.92 619.853 C 1418.77 620.799 1419.67 620.016 1418.72 621.499 C 1413.48 629.725 1407.69 637.552 1400.5 644.152 C 1400.2 637.042 1402.63 634.201 1399.65 629.853 z" fill="rgb(254,254,254)" fill-opacity="0.360784" transform="translate(0,0)"></path>
<path d="M 1222.98 1688.04 C 1223.65 1682.05 1224.04 1676.22 1225.92 1670.5 L 1226.78 1670.52 C 1227.85 1673.53 1225.97 1677.68 1224.93 1681 C 1228.57 1681.95 1229.5 1670.92 1235.49 1668.07 C 1236.27 1672.35 1236.53 1678.93 1236.85 1683.43 C 1237.3 1691.45 1237.06 1698.42 1236.84 1706.46 C 1236.11 1700.83 1235.18 1695.2 1235.17 1689.53 L 1234.76 1689.06 C 1232.09 1696.01 1231.58 1700.45 1225.29 1703.86 C 1223.03 1708.6 1223.98 1710.57 1223.1 1715.54 C 1222.48 1708.4 1222.35 1695.15 1222.98 1688.04 z" fill="rgb(223,208,168)" fill-opacity="0.572549" transform="translate(0,0)"></path>
<path d="M 1810.08 1233.2 C 1808.99 1232.07 1809.46 1232.77 1808.83 1230.98 C 1814.63 1224.29 1849.27 1226.84 1858.78 1226.87 C 1862.65 1228.24 1862.96 1227.56 1864.63 1230.3 C 1862.63 1232.73 1860.77 1233.12 1857.84 1234.29 C 1851.39 1234.45 1843.97 1234.19 1837.42 1234.17 C 1828.18 1234 1819.43 1233.13 1810.08 1233.2 z" fill="rgb(223,208,168)" fill-opacity="0.380392" transform="translate(0,0)"></path>
<path d="M 810.174 1700.47 C 811.749 1711.93 811.092 1737.78 811.121 1750.67 C 811.262 1781.54 811.232 1812.42 811.031 1843.29 C 810.976 1849.7 810.155 1883.08 811.777 1886.83 C 821.087 1881.12 823.028 1882.3 824.675 1871.43 L 824.599 1879.68 C 823.61 1890.64 816.675 1886.23 816.788 1900.02 C 813.969 1901.76 813.605 1901.44 810.206 1902.02 C 809.735 1886.51 809.908 1870.64 810.025 1855.11 C 810.411 1803.6 809.48 1751.97 810.174 1700.47 z" fill="rgb(223,208,168)" fill-opacity="0.2" transform="translate(0,0)"></path>
<path d="M 1853.92 818.654 C 1861.28 818.85 1873.41 818.472 1879.92 820.819 L 1880.32 823.608 L 1776.5 823.61 C 1756.95 823.606 1734.94 824.131 1715.65 823.197 C 1737.28 819.926 1839.3 825.102 1853.92 818.654 z" fill="rgb(223,208,168)" transform="translate(0,0)"></path>
<path d="M 1211.94 145.844 L 1237.23 145.769 L 1237.21 156.097 L 1235.45 154.901 C 1234.7 158.054 1234.42 158.281 1232.1 160.545 C 1228.66 161.354 1228.5 161.218 1225.1 161.031 C 1223.06 162.933 1223.66 163.145 1223.08 166.616 C 1223.17 163.741 1223.5 162.123 1222.27 159.522 L 1219.28 159.069 C 1215.19 156.421 1214.18 156.439 1209.34 155.847 L 1213.38 154.78 C 1214.95 150.134 1210.86 153.143 1211.94 145.844 z" fill="rgb(207,184,136)" fill-opacity="0.278431" transform="translate(0,0)"></path>
<path d="M 1044.17 1311.71 L 1042.55 1308.33 C 1041.79 1310.68 1041.21 1311.89 1040.2 1314.12 C 1038.22 1315.54 1037.58 1316.48 1034.64 1315.91 C 1031.36 1315.02 1028.12 1313.65 1026.4 1310.45 C 1022.13 1302.52 1032.51 1288.88 1040.91 1295.9 C 1042.72 1297.4 1041.52 1296.64 1043.91 1297.8 L 1044.17 1311.71 z" fill="rgb(254,254,254)" fill-opacity="0.184314" transform="translate(0,0)"></path>
<path d="M 1853.92 818.654 L 1850.39 817.426 L 1849.74 815.832 C 1854.09 809.093 1884.67 808.337 1890.94 810.95 C 1893.2 813.89 1892.6 812.197 1892.21 816.386 L 1889.57 817.546 L 1888.33 814.138 C 1884.22 812.617 1886.18 812.656 1882.26 813.535 C 1879.55 816.377 1879.09 816.638 1879.92 820.819 C 1873.41 818.472 1861.28 818.85 1853.92 818.654 z" fill="rgb(207,184,136)" fill-opacity="0.513725" transform="translate(0,0)"></path>
<path d="M 1341.76 686.856 C 1342.49 685.806 1347.61 680.62 1348.8 679.37 L 1351.92 682.55 C 1344.96 694.769 1339.39 700.396 1331.08 710.951 C 1330.67 711.166 1317.24 728.856 1313.26 732.234 L 1312.68 731.273 C 1315.54 718.605 1325.03 710.602 1333.21 701.384 C 1339.26 694.575 1342.03 694.512 1341.76 686.856 z" fill="rgb(254,254,254)" fill-opacity="0.247059" transform="translate(0,0)"></path>
<path d="M 1694.27 353.217 C 1681.55 369.093 1661.56 390.689 1647.37 405.649 C 1646.44 402.612 1645.68 401.931 1643.78 399.462 C 1658.73 385.476 1678.71 365.66 1694.27 353.217 z" fill="rgb(254,254,254)" fill-opacity="0.984314" transform="translate(0,0)"></path>
<path d="M 1302.38 1233.04 C 1300.31 1232.41 1297.37 1231.83 1295.2 1231.33 C 1305.26 1227.25 1334.08 1226.93 1345.93 1228.82 L 1343.23 1228.89 C 1350.93 1230.85 1354.89 1229.73 1361.55 1232 C 1345.91 1233.5 1318.08 1234.11 1302.38 1233.04 z" fill="rgb(207,184,136)" fill-opacity="0.215686" transform="translate(0,0)"></path>
<path d="M 1399.65 629.853 C 1402.63 634.201 1400.2 637.042 1400.5 644.152 C 1393.56 650.434 1389.13 657.304 1378.89 654.953 C 1378.14 653.411 1377.92 652.983 1377.34 651.351 L 1399.65 629.853 z" fill="rgb(254,254,254)" fill-opacity="0.14902" transform="translate(0,0)"></path>
<path d="M 1223.65 1236.72 C 1228.75 1237.2 1234.63 1238.78 1238.07 1234.91 L 1238.77 1237.24 L 1240.83 1238.28 C 1234.92 1240.15 1237.01 1246.5 1237.04 1252.46 C 1236.04 1254.61 1235.38 1255.62 1234.11 1257.63 C 1230.8 1258.77 1232.35 1258.86 1229.3 1257.61 C 1225 1252.26 1224.69 1249.65 1222.86 1242.87 C 1222.44 1240.06 1222.86 1239.46 1223.65 1236.72 z" fill="rgb(223,208,168)" fill-opacity="0.882353" transform="translate(0,0)"></path>
<path d="M 1003.73 1320.52 C 1006.73 1323.93 1008.76 1326.3 1011.38 1330 L 1008.68 1331 C 1007.22 1334.22 1007.51 1336.51 1007.47 1340.05 C 1006.93 1340.87 1005.84 1341.74 1005.06 1342.46 C 997.891 1342.71 989.424 1334.15 993.338 1326.54 C 996.832 1324.05 997.473 1323.83 1001.73 1323.22 L 1003.73 1320.52 z" fill="rgb(254,254,254)" fill-opacity="0.545098" transform="translate(0,0)"></path>
<path d="M 1018.55 1621.93 C 1018.32 1618.72 1017.78 1618.09 1016.21 1615.42 C 1016.22 1611.64 1016.13 1611.89 1017.76 1608.49 C 1025.4 1603.36 1039.2 1618.13 1040.8 1624.39 C 1038.7 1632.45 1039.02 1631.45 1030.36 1633.85 L 1029.45 1632.88 C 1034.26 1631.27 1036.43 1631.35 1036.61 1625.98 C 1034.78 1621.77 1028.59 1615.43 1024.18 1615.68 C 1021.2 1619.9 1023.29 1621.38 1021.55 1625.49 L 1018.55 1621.93 z" fill="rgb(254,254,254)" fill-opacity="0.184314" transform="translate(0,0)"></path>
<path d="M 1036.17 1360.84 C 1044 1363.92 1054.81 1378.96 1052.95 1388.17 C 1045.94 1394.69 1033.33 1378.36 1024.06 1377.43 C 1023.16 1376.85 1019.81 1373.91 1018.79 1373.06 L 1018.21 1369.88 L 1019.2 1369.41 C 1029.55 1378.28 1030.48 1374.98 1040.65 1381.12 C 1039.82 1380.61 1045.44 1386.64 1045.49 1386.69 L 1047.12 1386.14 C 1048.48 1373.3 1042.77 1371.91 1037.03 1362.31 L 1036.17 1360.84 z" fill="rgb(254,254,254)" fill-opacity="0.172549" transform="translate(0,0)"></path>
<path d="M 1244.68 1224.04 L 1254.47 1223.72 C 1256.57 1229.21 1257.85 1227.23 1260.53 1230.83 C 1257.75 1231.62 1255.23 1232.29 1252.43 1232.96 C 1246.75 1233.31 1243.56 1233.25 1238.07 1234.91 C 1234.63 1238.78 1228.75 1237.2 1223.65 1236.72 L 1223.59 1236.02 C 1227.08 1232.99 1232.82 1233.45 1236.11 1229.05 C 1239.33 1224.74 1239.63 1225.48 1244.68 1224.04 z" fill="rgb(207,184,136)" fill-opacity="0.0745098" transform="translate(0,0)"></path>
<path d="M 1001.31 1317.33 L 1002.3 1318.47 C 998.232 1321.58 992.436 1319.98 989.144 1325.73 C 989.324 1331.09 990.917 1335.22 992.475 1340.35 C 1000.59 1347.67 1008.74 1350.79 1007.62 1362.08 C 1000.77 1355.4 994.108 1348.64 988.519 1340.86 C 991.087 1333.42 983.519 1331.26 985.948 1321.05 C 987.658 1313.86 994.966 1321.09 1001.31 1317.33 z" fill="rgb(254,254,254)" fill-opacity="0.180392" transform="translate(0,0)"></path>
<path d="M 1695.58 405.628 C 1696.81 406.296 1697.59 406.71 1698.87 407.298 L 1699.61 406.657 C 1704.6 402.371 1715.5 394.116 1721.21 391.156 L 1722.21 391.813 C 1720.84 396.006 1689.31 421.317 1684.48 426.266 L 1683.58 425.522 C 1686.81 418.001 1690.57 419.545 1690.55 414.609 L 1689.84 414.764 L 1689.45 412.454 L 1695.58 405.628 z" fill="rgb(254,254,254)" fill-opacity="0.0784314" transform="translate(0,0)"></path>
<path d="M 1197.27 146.58 C 1200.21 145.722 1208.46 145.89 1211.94 145.844 C 1210.86 153.143 1214.95 150.134 1213.38 154.78 L 1209.34 155.847 C 1205.2 156.063 1190.18 156.673 1188.56 152.245 C 1190.37 148.704 1193.03 148.416 1197.27 146.58 z" fill="rgb(207,184,136)" fill-opacity="0.0745098" transform="translate(0,0)"></path>
<path d="M 392.688 1651.14 C 394.158 1652.93 395.427 1654.85 397.263 1656.1 L 357.622 1693.19 C 361.364 1686.18 385.965 1658.97 392.688 1651.14 z" fill="rgb(254,254,254)" transform="translate(0,0)"></path>
<path d="M 655.5 808.766 C 671.02 808.049 687.963 808.397 703.609 808.44 C 693.011 813.017 675.696 811.461 670.727 816.754 L 672.024 818.03 C 666.685 817.88 658.898 817.424 654.12 815.305 L 654.022 814.386 C 660.514 811.038 679.785 811.192 688.804 809.661 L 689.89 809.466 C 678.423 809.449 666.958 809.215 655.5 808.766 z" fill="rgb(207,184,136)" fill-opacity="0.705882" transform="translate(0,0)"></path>
<path d="M 1858.78 1226.87 C 1865.82 1226.63 1882.33 1226.58 1888.14 1230.05 L 1888.13 1231.93 C 1880.16 1236.73 1867.32 1234.39 1857.84 1234.29 C 1860.77 1233.12 1862.63 1232.73 1864.63 1230.3 C 1862.96 1227.56 1862.65 1228.24 1858.78 1226.87 z" fill="rgb(223,208,168)" fill-opacity="0.745098" transform="translate(0,0)"></path>
<path d="M 703.609 808.44 L 709.308 808.91 C 703.98 812.151 699.764 814.912 693.612 816.176 C 691.913 816.525 692.116 816.571 690.575 817.478 L 689.73 817.331 L 695.372 819.029 C 689.854 819.394 678.089 818.348 672.024 818.03 L 670.727 816.754 C 675.696 811.461 693.011 813.017 703.609 808.44 z" fill="rgb(207,184,136)" fill-opacity="0.486275" transform="translate(0,0)"></path>
<path d="M 1405.04 658.889 C 1401.68 660.036 1402.97 660.114 1399.84 659.472 L 1399.92 657.64 L 1400.02 658.195 C 1401.14 652.191 1407.5 647.366 1411.52 642.086 C 1409.09 643.445 1409.22 643.567 1406.49 643.755 L 1406.13 642.707 C 1409.48 639.11 1414.8 638.56 1419.31 639.922 L 1419.79 641.288 L 1417.25 646.042 L 1405.04 658.889 z" fill="rgb(254,254,254)" fill-opacity="0.290196" transform="translate(0,0)"></path>
<path d="M 1021.55 1625.49 C 1023.29 1621.38 1021.2 1619.9 1024.18 1615.68 C 1028.59 1615.43 1034.78 1621.77 1036.61 1625.98 C 1036.43 1631.35 1034.26 1631.27 1029.45 1632.88 C 1025.64 1630.08 1024.79 1629.05 1021.55 1625.49 z" fill="rgb(254,254,254)" fill-opacity="0.301961" transform="translate(0,0)"></path>
<path d="M 1050.97 1018.14 C 1054.13 1014.94 1053.92 1013.8 1058.32 1013.97 C 1060.94 1014.07 1067.44 1017.92 1069.06 1019.46 C 1067.97 1023.71 1068.82 1023.3 1066.08 1025.23 C 1063.6 1025.42 1060.64 1025.43 1058.4 1026.2 C 1056.57 1024.98 1053.23 1020.45 1050.97 1018.14 z" fill="rgb(254,254,254)" fill-opacity="0.12549" transform="translate(0,0)"></path>
<path d="M 1000.7 1253.85 C 1002.62 1256.67 1002.6 1288.48 1000.71 1291.78 C 994.923 1276.4 996.21 1268.9 1000.7 1253.85 z" fill="rgb(254,254,254)" transform="translate(0,0)"></path>
<path d="M 1437.95 593.182 L 1445.63 585.788 L 1447.29 588.276 C 1444.8 597.048 1429.98 616.457 1420.92 619.853 C 1426.48 612.862 1434.53 604.909 1438.87 597.155 C 1439.64 595.787 1438.82 595.167 1437.95 593.182 z" fill="rgb(254,254,254)" fill-opacity="0.47451" transform="translate(0,0)"></path>
<path d="M 1175.68 1892.79 C 1186.79 1891.18 1194.92 1892.03 1205.53 1895.18 C 1201.85 1895.64 1197.25 1896.07 1193.73 1896.97 C 1181.66 1896.65 1170.51 1896.45 1158.45 1895.44 L 1174.32 1894.31 L 1175.68 1892.79 z" fill="rgb(223,208,168)" fill-opacity="0.760784" transform="translate(0,0)"></path>
<path d="M 1006.6 1496.98 C 1010.01 1489.98 1005.7 1485.51 1010.64 1480.91 C 1015.97 1481.78 1017.6 1489.9 1018.35 1494.66 L 1016.91 1494.96 C 1012.58 1495.9 1011.3 1495.82 1008.04 1498.47 L 1006.6 1496.98 z" fill="rgb(254,254,254)" fill-opacity="0.545098" transform="translate(0,0)"></path>
<path d="M 1634.67 407.699 C 1637.43 404.952 1640.83 402.076 1643.78 399.462 C 1645.68 401.931 1646.44 402.612 1647.37 405.649 C 1642.83 410.804 1638.12 415.806 1633.25 420.647 C 1631.45 415.722 1638.8 415.407 1637.36 408.733 L 1634.67 407.699 z" fill="url(#Gradient2)" transform="translate(0,0)"></path>
<path d="M 982.566 1332.93 C 986.217 1324.63 981.683 1319.94 985.666 1314.44 C 988.497 1310.54 991.851 1317.76 1000.49 1316.31 L 1001.31 1317.33 C 994.966 1321.09 987.658 1313.86 985.948 1321.05 C 983.519 1331.26 991.087 1333.42 988.519 1340.86 C 986.279 1338.26 984.543 1335.72 982.566 1332.93 z" fill="rgb(254,254,254)" fill-opacity="0.0627451" transform="translate(0,0)"></path>
<path d="M 1619.79 420.912 C 1621.76 430.022 1613.79 434.51 1606.45 437.863 L 1602.37 437.051 C 1607.74 431.538 1614.03 426.095 1619.79 420.912 z" fill="rgb(254,254,254)" fill-opacity="0.666667" transform="translate(0,0)"></path>
<path d="M 285.064 1229.12 C 292.52 1228.97 310.457 1228.34 316.925 1229.58 L 313.501 1230.47 C 315.214 1230.45 317.36 1230.34 318.618 1231.67 C 315.732 1232.33 309.76 1232.16 306.534 1232.19 C 299.939 1231.96 292.576 1232.08 285.915 1232.03 L 284.853 1230.9 L 285.064 1229.12 z" fill="rgb(223,208,168)" fill-opacity="0.333333" transform="translate(0,0)"></path>
<path d="M 392.688 1651.14 C 395.198 1648.14 398.149 1644.19 401.246 1641.98 L 402.057 1644.62 C 404.885 1646 406.161 1645.29 409.672 1644.13 C 405.585 1649.21 402.205 1651.87 397.263 1656.1 C 395.427 1654.85 394.158 1652.93 392.688 1651.14 z" fill="rgb(254,254,254)" fill-opacity="0.623529" transform="translate(0,0)"></path>
<path d="M 1129.39 839.177 C 1128.77 833.216 1128.51 827.56 1132.78 823.249 C 1136.83 821.498 1139.8 822.679 1144.27 823.563 L 1143.1 826.911 C 1139.53 826.892 1137.13 826.432 1134.21 828.341 C 1131.72 831.467 1131.96 835.514 1131.62 839.62 L 1129.39 839.177 z" fill="rgb(4,57,36)" fill-opacity="0.988235" transform="translate(0,0)"></path>
<path d="M 1879.92 820.819 C 1879.09 816.638 1879.55 816.377 1882.26 813.535 C 1886.18 812.656 1884.22 812.617 1888.33 814.138 L 1889.57 817.546 L 1886.22 823.952 L 1880.32 823.608 L 1879.92 820.819 z" fill="rgb(207,184,136)" fill-opacity="0.486275" transform="translate(0,0)"></path>
<path d="M 1487.91 1517 C 1495.25 1525.77 1502.86 1534.54 1509.53 1543.81 L 1509.31 1544.37 C 1502.94 1538.76 1492.42 1526.06 1486.58 1519.33 L 1487.91 1517 z" fill="rgb(45,94,65)" fill-opacity="0.898039" transform="translate(0,0)"></path>
<path d="M 985.129 1030.89 C 987.324 1032.39 990.716 1034.13 993.141 1035.47 C 989.45 1037.78 986.098 1039.51 982.261 1041.52 L 979.316 1042.57 C 978.87 1040.28 983.565 1033.59 985.129 1030.89 z" fill="url(#Gradient1)" transform="translate(0,0)"></path>
<path d="M 841.93 837.594 C 841.765 841.419 841.524 851.861 840.931 855.097 L 835.046 853.554 C 837.131 846.479 838.512 844.096 841.93 837.594 z" fill="rgb(254,254,254)" transform="translate(0,0)"></path>
<path d="M 1595.5 506.29 L 1598.87 511.525 L 1586.22 516.403 C 1585.46 516.774 1586 516.578 1584.49 516.5 C 1586.7 513.21 1592.26 508.999 1595.5 506.29 z" fill="rgb(254,254,254)" transform="translate(0,0)"></path>
<path d="M 851.27 1896.29 C 848.081 1896.04 844.739 1896.27 842.425 1894.38 C 845.219 1891.3 853.388 1890.32 856.88 1892.66 C 856.967 1895.2 857.225 1894.02 855.671 1896.16 L 851.27 1896.29 z" fill="rgb(223,208,168)" fill-opacity="0.831373" transform="translate(0,0)"></path>
<path d="M 1348.8 679.37 L 1356.58 671.83 C 1358.05 676.515 1355.51 684.349 1353.04 688.629 L 1352.23 688.039 C 1352.62 686.046 1353.65 684.073 1351.92 682.55 L 1348.8 679.37 z" fill="rgb(254,254,254)" fill-opacity="0.341176" transform="translate(0,0)"></path>
<path d="M 561.946 531.054 C 559.178 527.554 551.534 518.218 550.45 514.376 C 555.811 519.592 558.547 522.744 563.277 528.576 L 561.946 531.054 z" fill="rgb(4,57,36)" fill-opacity="0.941176" transform="translate(0,0)"></path>
<path d="M 1818.61 400.789 L 1819.26 401.936 C 1817.14 405.604 1815.81 407.859 1813.33 411.267 L 1810.67 408.692 C 1813.63 405.362 1815.26 403.716 1818.61 400.789 z" fill="rgb(45,94,65)" fill-opacity="0.964706" transform="translate(0,0)"></path>
<path d="M 1199.53 829.412 C 1205.13 832.144 1210.59 834.473 1215.4 838.403 C 1211.43 837.127 1203.5 834.333 1199.74 833.444 L 1199.53 829.412 z" fill="rgb(4,57,36)" fill-opacity="0.988235" transform="translate(0,0)"></path>
<path d="M 1155.65 570.279 C 1153.53 575.863 1150.77 582.542 1149.27 588.18 L 1145.69 587.325 C 1148.92 581.569 1152.05 575.816 1155.65 570.279 z" fill="rgb(45,94,65)" fill-opacity="0.94902" transform="translate(0,0)"></path>
<path d="M 285.915 1232.03 C 282.507 1232.16 277.997 1232.85 275.605 1230.25 C 278.611 1228.5 281.472 1229.04 285.064 1229.12 L 284.853 1230.9 L 285.915 1232.03 z" fill="rgb(223,208,168)" fill-opacity="0.454902" transform="translate(0,0)"></path>
<path d="M 255.923 257.335 C 278.93 255.842 308.462 256.637 331.875 256.726 L 451.46 256.923 C 560.337 256.881 671.201 255.173 779.734 256.247 L 780.009 314.428 C 745.871 315.509 704.688 314.355 670.09 314.277 L 432.494 313.941 C 393.982 313.926 351.222 312.99 312.95 314.013 C 311.779 419.953 311.482 525.902 312.057 631.848 C 312.364 661.28 312.43 690.713 312.254 720.146 C 312.203 736.417 311.494 759.578 312.56 775.272 L 311.338 776.798 C 296.685 777.953 271.377 777.019 255.905 777.106 L 255.923 257.335 z" fill="rgb(207,184,136)" fill-opacity="0.976471" transform="translate(0,0)"></path>
<metadata><recraft-signature>{"signed_by": "recraft", "signature_b64": "aVHQ03gGxBrDIAvFMv7bOZfNjeiXBhSCVygClxVsrGU588EodiTMCyZzbohNziX7EM4OmOSoFi+F/tY5HQwJDw==", "signing_algo": "Ed25519", "generation_timestamp": 1782749402, "identifier": "ac67a3b7-71d0-4cc1-a2c0-4e6a84d0dc2d"}</recraft-signature></metadata></svg>