<svg xmlns="http://www.w3.org/2000/svg" height="1024" preserveAspectRatio="none" style="display: block;" version="1.1" viewBox="0 0 2048 2048" width="1024">
<path d="M 281.833 157.488 L 751.337 157.348 C 841.816 157.463 937.961 155.805 1027.98 158.087 C 1028.76 200.457 1027.5 244.408 1027.98 286.949 C 1028.15 301.322 1029.09 352.743 1026.37 363.162 C 1024.33 371.207 1019.79 378.401 1013.41 383.712 C 1004.34 391.141 981.365 400.73 969.51 406.153 C 948.897 415.682 928.379 425.416 907.959 435.351 C 896.127 441.027 882.037 446.93 871.111 453.797 C 870.335 471.579 871.102 495.829 871.116 513.991 L 871.118 635.833 C 870.548 754.606 870.635 873.381 871.379 992.154 C 898.938 979.562 902.847 974.753 934.923 965.607 C 927.673 984.301 918.386 999.702 910.376 1021.44 C 903.751 1017.76 900.354 1015.92 893.317 1013.22 C 880.754 1018.12 855.001 1036.18 843.603 1044.53 C 842.707 1019.92 843.733 987.328 843.747 961.888 L 844.071 777.504 L 844.183 563.624 C 844.212 521.798 843.583 477.152 844.894 435.513 C 855.905 428.906 877.412 420.066 889.625 414.136 C 926.175 396.388 965.298 380.056 1000.91 360.683 C 1001.63 311.45 999.369 261.605 1000.5 212.299 C 1000.71 202.871 1000.7 193.396 1000.46 183.967 C 983.891 183.507 965.846 184.203 949.116 184.211 L 842.748 184.015 L 505.366 184.555 L 344.307 184.823 L 294.31 184.603 C 283.117 184.51 271.088 183.91 260.043 185.198 C 259.195 244.311 259.652 306.728 260.092 365.897 C 271.322 372.055 292.461 380.558 304.729 385.954 C 329.586 396.915 354.354 408.079 379.029 419.444 C 388.655 423.862 409.352 432.711 417.021 438.682 C 420.332 444.699 419.19 613.883 419.178 634.105 L 419.057 967.941 L 419.156 1397.96 C 419.119 1467.04 420.273 1539.25 419.205 1608.05 C 405.197 1617.04 380.283 1626.86 364.549 1634.22 C 330.144 1650.3 294.137 1665.58 260.602 1683.48 C 259.092 1694.14 259.907 1728.78 259.904 1741.12 L 259.809 1863.89 C 268.74 1864.99 288.387 1864.3 298.32 1864.24 L 367.778 1864.09 L 609.554 1864.1 L 1434.5 1864.12 L 1503.38 1864.16 C 1544.1 1864.16 1607.39 1866.26 1636.83 1834.92 C 1681.2 1787.69 1683.46 1686.23 1685.91 1626.12 C 1688 1561.76 1688.98 1497.37 1688.85 1432.98 C 1668.82 1415.37 1639.28 1394.29 1618.09 1377.3 C 1603.28 1365.42 1569.58 1338.34 1554.45 1329.62 L 1451.19 1489.44 L 1419.96 1539.47 C 1413.94 1549.13 1403.94 1566.62 1396.45 1573.97 C 1365.59 1575.55 1329.57 1574.82 1298.51 1574.81 L 1143.09 1574.86 L 1075 1575.2 C 1067.93 1575.24 1040.33 1575.86 1035.62 1574.21 C 1020.19 1568.82 1001.2 1555.88 984.968 1548.24 C 996.414 1547.28 1012.93 1547.73 1024.98 1547.67 L 1114.79 1547.92 L 1381.55 1547.98 C 1393 1532.51 1409.62 1503.4 1420.81 1485.97 L 1513.64 1341.69 C 1523.24 1326.79 1535.95 1301.17 1546.02 1288.53 C 1557.64 1295.31 1576.39 1310.38 1587.74 1318.9 L 1670.15 1381.62 C 1680.94 1389.91 1708.57 1408.92 1715.95 1417.37 L 1715.99 1418.92 C 1717.08 1458.66 1716.85 1513.99 1715.6 1556.28 C 1711.01 1650.56 1722.13 1775.93 1659.12 1853.48 C 1629.33 1890.17 1563.78 1891.79 1521.26 1891.63 L 1447.18 1891.34 L 1194.5 1891.29 L 735.903 1890.67 C 568.368 1889.21 400.823 1889.37 233.292 1891.17 C 231.357 1878.4 232.417 1832.07 232.517 1816.74 C 232.84 1767.54 231.864 1716.81 233.134 1667.74 C 239.748 1661.94 258.439 1653.52 267.038 1649.29 C 294.266 1636.07 321.66 1623.2 349.215 1610.68 C 362.508 1604.58 379.622 1597.53 392.046 1590.66 L 392.374 799.47 L 392.699 568.187 C 393.06 530.507 393.122 492.824 392.883 455.143 C 380.71 448.359 364.838 441.592 351.847 435.665 L 261.739 395.526 C 252.556 391.421 242.278 387.523 233.513 383.302 C 231.844 360.33 232.885 327.204 232.939 303.207 C 233.012 254.753 233.378 206.3 234.035 157.85 L 281.833 157.488 z" fill="rgb(233,208,154)" transform="translate(0,0)"></path>
<path d="M 1526.91 553.106 C 1528.8 545.233 1529.73 538.953 1533.67 531.879 L 1534.99 531.158 C 1540.88 545.57 1520.56 621.064 1516.61 640.182 C 1510.26 656.032 1505.96 676.364 1500.38 692.685 C 1494.06 711.169 1486.11 731.251 1478.17 749.109 C 1387.79 954.856 1246.96 1134.48 1068.72 1271.35 C 969.175 1347.52 853.04 1414.68 740.663 1470 C 732.743 1473.9 714.373 1479.83 708.905 1485.09 L 709.214 1486.29 C 723.323 1488.98 737.537 1485.64 752.114 1485.16 C 785.534 1484.32 818.858 1489.08 850.709 1499.23 C 906.537 1517.27 948.049 1550.25 990.516 1589.09 C 996.499 1594.56 1008.2 1604.01 1012.89 1610.68 C 1013.61 1611.71 1012.91 1612.2 1012.22 1613.48 C 1003.85 1617.68 974.341 1624.26 964.166 1626.3 C 880.854 1643.65 794.102 1624.37 725.991 1573.35 C 710.971 1562.01 696.198 1550.34 681.684 1538.36 C 672.347 1530.56 662.316 1520.87 652.246 1514.45 L 650.865 1515.37 C 598.888 1550.21 534.725 1637.97 523.275 1700.6 C 514.462 1748.81 533.659 1764.37 557.651 1799.91 C 548.655 1798.27 469.73 1779.83 467.393 1778.1 C 465.741 1766.77 492.159 1679.37 497.773 1664.08 C 524.323 1591.76 585.915 1515.01 651.812 1474.95 C 685.936 1453.75 727.806 1442.04 762.712 1423.87 C 886.047 1359.69 1011.04 1283.7 1116.23 1192.91 C 1293.05 1038.49 1427.6 841.569 1507.18 620.718 L 1507.42 618.317 C 1511.01 612.532 1517.9 588.385 1519.78 581.334 C 1522.4 574.062 1525.47 560.651 1526.91 553.106 z M 896.688 1583.35 L 899.209 1583.36 C 893.345 1579.4 852.672 1562.51 844.443 1559.08 C 797.219 1539.41 750.308 1518.45 701.963 1501.67 C 697.37 1500.08 686.32 1495.23 682.785 1494.55 C 679.321 1497.17 679.369 1496.96 677.338 1500.73 L 677.56 1502.87 C 685.469 1508.58 711.608 1517.47 722.512 1521.88 C 778.539 1544.54 838.133 1567.97 896.688 1583.35 z" fill="rgb(233,208,154)" transform="translate(0,0)"></path>
<path d="M 325.452 251.799 L 673.291 251.717 C 760.456 251.634 849.052 250.966 936.152 251.987 C 935.926 273.657 937.413 301.21 936.121 321.944 C 886.473 347.103 828.904 370.298 778.131 394.703 C 776.696 407.629 777.754 449.741 777.717 464.27 L 776.715 600.99 L 776.542 910.727 C 777.215 990.059 777.035 1069.4 776.001 1148.72 C 770.512 1157.56 763.184 1167.02 756.699 1175.16 L 756.904 673.162 L 756.865 491.228 C 756.818 455.471 756.217 418.351 756.99 382.687 C 768.502 375.089 792.481 365.506 805.912 359.125 C 840.475 342.706 881.647 326.425 914.851 307.778 C 914.894 296.489 915.394 282.022 913.95 271.081 C 902.809 270.568 886.01 271.763 874.078 271.815 L 774.036 271.908 L 455.236 272.012 C 419.281 271.929 382.263 271.091 346.428 272.151 C 345.648 282.973 346.141 299.339 347.15 310.089 C 378.793 323.327 409.395 337.213 440.466 351.704 C 460.934 361.249 482.926 370.452 502.883 380.735 C 504.338 407.146 503.168 443.41 503.212 470.499 L 503.466 638.892 L 504.015 1097.64 L 504.004 1441.04 L 504.105 1548.68 C 504.124 1566.01 504.459 1588.13 503.626 1605.18 C 503.175 1614.43 488.369 1644.21 483.643 1654.71 C 482.805 1621.51 483.523 1588.74 483.755 1555.62 L 483.716 1428.57 L 483.545 678.942 C 483.641 604.831 483.269 530.721 482.43 456.615 C 482.103 436.24 482.78 416.017 481.964 395.633 C 468.6 387.772 454.32 381.707 440.306 375.173 L 369.403 342.175 C 355.799 335.862 338.455 328.349 325.598 321.291 C 324.438 304.197 324.898 269.189 325.452 251.799 z" fill="rgb(233,208,154)" transform="translate(0,0)"></path>
<path d="M 1570.06 1422.93 C 1573.92 1425.13 1591.63 1441.46 1597.44 1446.03 C 1604.74 1451.77 1620.68 1462.97 1626.31 1468.77 C 1625.54 1495.14 1624.91 1521.52 1624.44 1547.9 C 1623.9 1581.17 1623.59 1611.25 1621 1646.19 C 1617.75 1689.02 1618.07 1750.04 1589.69 1784.4 C 1574.61 1802.65 1526.25 1799.52 1504.27 1799.49 L 1433 1799.55 L 1184.43 1799.44 L 779.069 1799.17 C 718.608 1799.1 652.959 1800.68 593.038 1799.19 C 586.165 1792.55 582.133 1787.13 577.333 1778.99 L 1366.85 1779.53 L 1488.61 1779.62 C 1505.6 1779.67 1567.18 1783.28 1575.52 1768.89 C 1602.9 1721.69 1597.56 1649.24 1601.14 1595.78 C 1603.75 1556.92 1605.15 1517.32 1604.64 1479.28 C 1593.89 1470.86 1584.36 1460.74 1573.78 1453 C 1545.45 1503.44 1510.2 1555.44 1479.37 1604.47 C 1472.44 1615.48 1448.41 1654.78 1442.31 1660.62 C 1429.38 1663.12 1395.47 1662.27 1380.85 1662.27 L 1272.44 1662.2 L 1064.36 1662.18 C 1025.24 1662.22 980.639 1663.27 942.01 1661.71 C 953.862 1656.12 1004.41 1642.91 1018.49 1641.19 C 1026.3 1640.24 1059.91 1640.75 1069.41 1640.8 L 1156.59 1641.01 C 1247.43 1641.01 1340.14 1639.89 1430.79 1641.11 C 1434.63 1635.8 1439.15 1629.23 1442.51 1623.63 C 1477.52 1565.37 1517.21 1510.3 1551.95 1451.89 C 1557.57 1442.45 1563.67 1431.73 1570.06 1422.93 z" fill="rgb(233,208,154)" transform="translate(0,0)"></path>
<path d="M 1523.89 153 C 1564.54 179.624 1596.69 234.91 1606.33 281.966 C 1621.13 356.322 1606.17 433.516 1564.68 496.966 C 1560.71 502.033 1556.61 506.99 1552.37 511.834 C 1553.5 503.451 1554.55 495.839 1555.07 487.368 C 1562.59 433.336 1563.16 378.564 1556.78 324.386 C 1555.09 310.709 1552.25 290.445 1548.34 277.399 C 1550.72 312.556 1550.76 344.759 1551.21 379.697 C 1550.24 419.308 1549.23 447.116 1545.73 486.236 C 1544.15 491.514 1544.35 502.123 1543.12 508.775 C 1536.09 501.544 1532.54 496.677 1527.32 487.931 C 1520.65 469.966 1513.06 452.381 1507.67 433.755 C 1480.19 338.757 1481.82 248.912 1521.74 157.409 C 1522.44 155.802 1523.1 154.54 1523.89 153 z" fill="rgb(233,208,154)" transform="translate(0,0)"></path>
<path d="M 1543.84 576.319 C 1551.09 552.079 1560.27 536.491 1573.9 515.877 C 1622.42 442.521 1708.33 407.81 1792.3 395.394 C 1797.42 394.637 1810.88 392.087 1815.41 393.681 C 1818.08 399.846 1808.74 426.918 1806.04 433.676 C 1778.36 502.897 1710.05 561.786 1642.64 591.552 C 1621.5 600.885 1596.6 607.945 1574.48 614.728 C 1568.8 616.469 1550.48 619.062 1546.39 621.068 C 1541.63 621.319 1539.94 622.034 1536.64 619.647 C 1535.45 616.148 1537.11 611.113 1537.94 607.273 L 1545.04 601.682 C 1563.33 588.192 1581.88 575.961 1600.06 562.172 C 1640.22 531.704 1679.49 499.087 1719.26 468.276 C 1693.34 477.496 1661.73 501.625 1639.14 517.779 C 1606.25 541.297 1576.34 566.313 1543.09 589.553 L 1541.41 588.558 C 1541.03 584.69 1542.74 580.176 1543.84 576.319 z" fill="rgb(233,208,154)" transform="translate(0,0)"></path>
<path d="M 1031.94 920.586 C 1034.39 921.976 1036.43 924.698 1038.01 926.984 C 1073.23 977.981 1091.51 1052.1 1081.2 1113.22 C 1073.38 1159.62 1049.01 1229.49 1010.88 1257.63 C 1011.39 1251.3 1012.64 1245.87 1013.54 1239.7 C 1022.3 1179.41 1028.91 1115.23 1025.44 1054.49 C 1024.66 1061.41 1023.76 1068.32 1022.74 1075.21 C 1019.02 1099.52 1017.63 1123.31 1015.01 1147.66 C 1011.73 1176.72 1007.85 1205.71 1003.39 1234.61 C 1002.1 1243.42 1000.56 1261.42 995.696 1268.22 C 994.275 1270.21 987.912 1274.87 985.632 1276.57 C 976.106 1258.94 963.662 1197.49 960.802 1175.4 C 948.791 1082.61 974.321 994.273 1031.94 920.586 z" fill="rgb(233,208,154)" transform="translate(0,0)"></path>
<path d="M 884.963 1056.66 C 889.709 1059.45 896.735 1079.87 898.996 1085.9 C 915.837 1130.88 923.995 1177.24 914.913 1225.08 C 904.135 1281.86 873.452 1343.14 823.897 1375.75 C 820.598 1377.89 820.741 1378.07 817.844 1377.54 C 816.747 1373.94 829.081 1340.84 831.543 1332.99 C 844.451 1291.83 866.176 1216.55 867.269 1174.25 C 865.76 1176.2 863.819 1184.81 863.016 1187.78 C 860.636 1193.75 858.726 1200.73 857.092 1206.96 C 842.04 1264.43 822.639 1320.6 806.445 1377.74 C 802.907 1390.22 797.131 1390.48 786.458 1395.82 C 778.07 1361.06 778.938 1301.94 780.432 1265.72 C 783.659 1187.51 826.943 1108.68 884.963 1056.66 z" fill="rgb(233,208,154)" transform="translate(0,0)"></path>
<path d="M 1495.89 740.938 C 1502.66 706.072 1533.13 683.65 1560.57 664.503 C 1619.62 623.298 1686.87 612.583 1757.21 615.338 C 1770.81 615.871 1788.37 615.498 1801.68 617.249 C 1794.06 635.658 1787.77 644.334 1776.58 659.99 C 1747.84 701.43 1710.02 729.357 1663.8 748.655 C 1614.4 769.282 1564.58 778.816 1511 776.983 C 1505.15 776.783 1485.16 777.501 1481.49 773.994 C 1480.9 768.029 1488.39 758.769 1491.51 753.18 C 1534.91 745.098 1584.08 721.915 1623.58 702.966 C 1635.71 697.145 1654.25 688.939 1665.84 682.591 L 1671.78 677.975 C 1670.25 676.505 1667.6 677.124 1664.72 677.104 C 1662.25 678.329 1619.48 694.619 1615.45 695.978 C 1590.12 704.511 1517.77 738.327 1495.89 740.938 z" fill="rgb(233,208,154)" transform="translate(0,0)"></path>
<path d="M 1664.72 677.104 C 1679.55 671.854 1692.47 667.372 1707.9 663.762 C 1698.77 667.958 1674.76 679.677 1665.84 682.591 L 1671.78 677.975 C 1670.25 676.505 1667.6 677.124 1664.72 677.104 z" fill="rgb(28,58,37)" transform="translate(0,0)"></path>
<path d="M 1570.62 872.767 L 1569.48 872.915 C 1560.34 874.195 1549.81 877.19 1540.64 879.25 C 1517.2 884.302 1493.94 890.186 1470.92 896.888 C 1457.01 900.985 1422.84 912.833 1409.81 912.96 C 1408.61 910.092 1408.82 908.458 1410.3 905.279 C 1427.25 868.924 1468.62 842.044 1504.61 828.807 C 1561.67 807.822 1627.38 811.502 1686.8 818.254 C 1697.95 819.521 1717.5 821.287 1727.57 823.398 C 1723.2 832.371 1716.01 841.193 1710.02 849.242 C 1643.45 938.66 1522.39 963.671 1417.44 945.827 C 1411.25 944.773 1394.38 942.958 1390.33 939.085 C 1390.92 935.326 1394.67 928.108 1397.17 927.353 C 1411.39 923.057 1428.24 920.648 1442.94 916.564 L 1582.35 876.986 C 1594.02 873.695 1605.83 870.531 1617.29 866.598 C 1601.55 868.101 1586.24 870.456 1570.62 872.767 z" fill="rgb(233,208,154)" transform="translate(0,0)"></path>
<path d="M 1157.27 781.431 C 1159.9 782.413 1160.58 783.079 1162.57 784.981 C 1207.93 828.85 1234.14 888.843 1235.52 951.928 C 1236.85 1005.75 1220.53 1071.88 1182.52 1111.81 C 1181.77 1105.69 1182.15 1101.02 1182.21 1094.88 C 1182.71 1038.2 1185.98 980.995 1177.71 924.696 C 1177.06 920.205 1175.83 907.802 1173.51 904.551 L 1173.14 907.758 C 1173.06 935.672 1174.8 963.577 1174.1 991.648 C 1172.97 1036.59 1169.72 1081.46 1170.48 1126.4 C 1166.18 1130.82 1163.06 1133.76 1158.39 1137.79 C 1108.18 1046.18 1100.84 920.215 1138.73 823.369 C 1143.96 809.987 1150.16 793.764 1157.27 781.431 z" fill="rgb(233,208,154)" transform="translate(0,0)"></path>
<path d="M 1051.33 1460.91 L 1050.02 1460.33 C 1040.71 1456.2 1028.28 1452.75 1018.38 1449.42 C 989.747 1439.6 960.796 1430.74 931.576 1422.83 C 917.389 1418.98 902.279 1415.46 888.238 1411.12 C 885.391 1410.24 885.731 1409.56 884.318 1406.87 C 884.625 1402.21 896.454 1397.29 900.648 1395.56 C 990.762 1358.4 1089.21 1405.48 1159.03 1463.28 C 1171.13 1473.3 1187.23 1482.02 1196.86 1493.26 C 1124.81 1517.68 1074.04 1528.84 999.067 1511.6 C 974.043 1506.09 949.766 1497.61 926.756 1486.34 C 902.144 1474.16 857.353 1445.09 838.508 1425.69 C 857.275 1415.64 861.057 1414.86 882.299 1420.97 C 923.382 1432.78 964.166 1446.39 1005.71 1456.59 C 1018.25 1459.67 1031.99 1463.61 1044.67 1465.41 C 1057.29 1467.64 1070.1 1470.26 1082.72 1472.67 C 1072.81 1468.62 1061.44 1464.68 1051.33 1460.91 z" fill="rgb(233,208,154)" transform="translate(0,0)"></path>
<path d="M 1311.17 1052.41 C 1326.39 1022.69 1356.1 1011.52 1386.1 1001.43 C 1452.25 979.16 1512.57 989.923 1577.53 1007.87 C 1594.09 1012.44 1616.25 1018.74 1632.89 1022.09 C 1614.7 1046.87 1581.49 1069.88 1554.4 1083.67 C 1481.11 1120.99 1397.23 1118.53 1320.89 1092.44 C 1311.34 1089.17 1297.47 1085.57 1289.13 1080.48 C 1285.99 1075.21 1293.28 1069.1 1296.88 1065.33 C 1313.09 1060.47 1335.89 1062.5 1353.26 1061.32 C 1384.13 1059.21 1420.46 1058.39 1450.82 1053.92 C 1456.28 1054.01 1469.6 1052.31 1475.61 1051.71 C 1486.96 1050.36 1500.55 1049.56 1512.13 1048.55 L 1513.24 1047.53 L 1514.45 1047.72 L 1514.04 1048.11 C 1512.27 1046.92 1492.66 1045.48 1488.78 1045.11 C 1461.8 1044.79 1435.49 1045.36 1408.55 1047.01 C 1401.5 1047.44 1382.64 1047.72 1376.48 1048.81 C 1359.24 1049.69 1342.1 1051.49 1324.83 1051.61 C 1320.25 1051.64 1315.72 1051.91 1311.17 1052.41 z" fill="rgb(233,208,154)" transform="translate(0,0)"></path>
<path d="M 1300.9 1143.43 C 1359.79 1137.49 1420.25 1166.35 1470.56 1193.56 C 1484.72 1201.22 1500.03 1207.09 1514.33 1214.73 C 1498.69 1228.43 1459.31 1247.54 1440.31 1253.27 C 1356.67 1278.51 1282 1267.79 1205.5 1228.07 C 1195.69 1223.1 1171.45 1211.71 1164.23 1205.07 C 1163.84 1205.48 1166.79 1202.25 1166.53 1202.6 C 1182.69 1180.98 1214.09 1198.27 1237.03 1199.43 C 1286.28 1201.93 1336.86 1212.45 1386.19 1211.51 C 1330.01 1196.88 1273.9 1192.9 1216.57 1185.7 C 1211.49 1185.06 1196.55 1184.52 1192.67 1182.5 L 1192.3 1180.63 C 1194.61 1175.52 1201.26 1172.23 1205.81 1169.26 C 1233.89 1150.92 1268.12 1145.28 1300.9 1143.43 z" fill="rgb(233,208,154)" transform="translate(0,0)"></path>
<path d="M 1218.23 1341.41 C 1200.4 1335.23 1062 1299.69 1059.46 1297.68 C 1056.61 1289.59 1086 1278.44 1092.43 1276.67 C 1183.62 1251.48 1271.17 1296.78 1342.4 1349.87 C 1349.29 1355 1358.02 1359.71 1364.66 1365.01 C 1316.96 1397.28 1228.87 1408.51 1172.99 1396.96 C 1126.59 1387.37 1083.14 1365.63 1045.61 1336.95 C 1039.31 1332.14 1027.92 1324.82 1023.64 1318.48 C 1024.73 1313.91 1035.68 1307.27 1039.85 1304.33 C 1070.72 1314.27 1112.17 1323.07 1143.81 1331.36 C 1158.31 1335.16 1195.03 1343.68 1208.89 1345.09 C 1221.22 1348.02 1236.56 1349.66 1249.14 1351.09 C 1238.8 1347.65 1228.78 1344.21 1218.23 1341.41 z" fill="rgb(233,208,154)" transform="translate(0,0)"></path>
<path d="M 710.601 1164.81 C 710.894 1164.84 712.698 1164.76 712.983 1165.51 C 744.55 1248.03 747.098 1349.84 690.434 1422.72 C 682.446 1432.99 660.787 1455.26 648.347 1456.79 L 646.963 1455.7 C 646.264 1448.96 651.625 1438.1 653.45 1431.31 C 666.517 1382.68 677.94 1332.84 684.202 1282.92 C 678.24 1300.01 674.435 1311.6 670.113 1329.04 C 665.566 1341.28 661.201 1358.16 657.43 1371 C 647.78 1403.88 639.475 1437.43 629.836 1470.31 C 621.609 1475.43 612.42 1483.81 603.801 1489.84 C 593.358 1462.46 593.539 1403.08 596.601 1372.9 C 605.356 1291.12 646.392 1216.21 710.601 1164.81 z" fill="rgb(233,208,154)" transform="translate(0,0)"></path>
<path d="M 1225.85 638.837 C 1241.38 644.815 1263.21 659.712 1276.9 670.034 C 1322.54 704.546 1352.75 755.658 1360.96 812.289 C 1367.86 862.509 1359.82 896.296 1330 935.577 C 1328.43 924.08 1328.71 911.049 1327.16 900.234 C 1320.99 857.21 1310.52 799.559 1290.53 760.72 C 1286.52 752.436 1283.15 745.493 1278.44 737.527 C 1281.84 748.803 1285.4 760.028 1289.14 771.198 C 1303.16 828.508 1314.98 881.831 1321.96 940.7 C 1322.93 948.902 1319.78 951.001 1314.63 957.362 C 1309.7 952.787 1306.79 948.474 1302.78 943.098 C 1237.22 856.172 1209.48 746.479 1225.85 638.837 z" fill="rgb(233,208,154)" transform="translate(0,0)"></path>
<path d="M 1321.99 322.357 C 1340.89 324.431 1365.97 332.772 1382.98 341.059 C 1449.03 373.225 1488.77 422.171 1513.52 489.723 C 1522.77 525.67 1519.48 518.258 1516.79 552.376 C 1516.06 554.967 1515.65 556.249 1515.23 558.939 C 1513.74 565.281 1512.29 571.91 1510.48 578.136 C 1508.78 574.254 1505.5 566.301 1503.52 562.833 C 1503.28 551.259 1466.37 490.272 1457.94 477.69 C 1448.11 462.451 1437.73 448.768 1426.46 434.599 L 1424.63 434.781 C 1423.15 438.142 1424.04 440.124 1425.13 444.17 C 1434.76 458.398 1443.39 474.267 1452.15 489.169 C 1467.14 515.209 1481.01 541.067 1493.47 568.438 C 1495.41 572.697 1497.83 578.194 1500.21 582.126 C 1501.37 584.635 1503.67 590.017 1505.03 592.117 C 1503.48 597.826 1501.99 603.551 1500.55 609.291 C 1494.14 604.951 1487.91 600.352 1481.88 595.503 C 1397.83 529.146 1334.7 429.771 1321.99 322.357 z" fill="rgb(233,208,154)" transform="translate(0,0)"></path>
<path d="M 1425.13 444.17 C 1417.18 431.675 1409.11 420.066 1400.63 407.913 L 1401.38 406.232 L 1400.06 406.953 L 1400.46 405.517 L 1399.52 405.882 L 1399.35 405.198 C 1403.37 407.657 1423.43 430.432 1426.46 434.599 L 1424.63 434.781 C 1423.15 438.142 1424.04 440.124 1425.13 444.17 z" fill="rgb(28,58,37)" transform="translate(0,0)"></path>
<path d="M 1275.51 483.987 C 1379 501.802 1469.35 620.437 1447.68 724.644 C 1446.39 730.889 1441.73 754.274 1437.01 757.396 C 1434.5 754.9 1430.58 732.341 1428.9 727.016 C 1411.71 672.548 1387.62 620.712 1347.2 579.132 C 1349.34 587.121 1370.42 620.478 1375.78 629.393 C 1387.04 648.124 1435.37 764.786 1425.49 779.345 L 1423.63 779.374 C 1415.47 774.966 1395.3 754.977 1388.2 747.882 C 1325.99 685.729 1274.95 572.59 1275.51 483.987 z" fill="rgb(233,208,154)" transform="translate(0,0)"></path>
<path d="M 481.452 1654.99 L 482.505 1655.04 L 483.218 1656.43 C 481.252 1663.45 477.993 1675.19 474.652 1681.28 C 472.561 1681.37 465.869 1681.41 464.259 1682.12 C 447.522 1690.08 429.985 1697.15 413.308 1705.17 C 393.323 1714.78 369.49 1722.2 350.307 1732.73 C 346.616 1739.64 349.768 1761.31 348.178 1770.13 C 347.553 1773.59 348.241 1775.63 350.397 1778.03 C 354.89 1779.62 414.469 1778.62 423.795 1778.53 C 420.411 1784.45 417.296 1791.58 413.475 1797.21 C 411.973 1799.42 411.148 1798.84 408.25 1799.09 C 379.841 1798.89 351.431 1799.01 323.025 1799.46 C 323.002 1787.09 320.714 1728.47 324.733 1721.72 C 329.045 1714.48 462.488 1661.78 481.452 1654.99 z" fill="rgb(233,208,154)" transform="translate(0,0)"></path>
<path d="M 1543.12 508.775 C 1544.35 502.123 1544.15 491.514 1545.73 486.236 C 1545.81 491.023 1545.12 493.782 1547.9 497.325 C 1552.18 497.406 1553.57 491.113 1555.07 487.368 C 1554.55 495.839 1553.5 503.451 1552.37 511.834 C 1556.61 506.99 1560.71 502.033 1564.68 496.966 L 1564.15 498.574 C 1562.49 503.592 1562.15 505.349 1558.36 509.057 L 1557.42 509.983 C 1556.65 510.702 1555.88 511.42 1555.11 512.139 C 1553.97 516.316 1554.54 517.297 1555.51 521.708 C 1552.65 530.58 1549.97 522.647 1549.46 538.433 C 1545.85 537.869 1544.76 537.438 1541.24 538.953 C 1536.68 544.3 1538.87 547.801 1540.68 554.22 C 1537.02 560.055 1527.64 572.721 1537.12 577.793 C 1539.66 579.152 1541.58 577.785 1543.84 576.319 C 1542.74 580.176 1541.03 584.69 1541.41 588.558 L 1543.09 589.553 C 1542.72 593.246 1541.88 597.061 1543.33 600.338 L 1545.04 601.682 L 1537.94 607.273 C 1537.11 611.113 1535.45 616.148 1536.64 619.647 C 1539.94 622.034 1541.63 621.319 1546.39 621.068 L 1545.1 621.502 C 1541.25 622.768 1540.24 623.48 1536.51 622.667 C 1531.4 617.53 1535.58 616.912 1531.25 612.811 C 1524.04 615.194 1521.31 633.815 1516.61 640.182 C 1520.56 621.064 1540.88 545.57 1534.99 531.158 L 1533.67 531.879 C 1529.73 538.953 1528.8 545.233 1526.91 553.106 C 1526.82 547.508 1527.45 541.441 1524.71 536.775 L 1523.04 537.129 C 1518.97 542.666 1519.25 546.109 1516.79 552.376 C 1519.48 518.258 1522.77 525.67 1513.52 489.723 C 1519.81 497.765 1520.02 520.289 1528.24 522.406 C 1549.23 505.984 1529.29 506.962 1527.32 487.931 C 1532.54 496.677 1536.09 501.544 1543.12 508.775 z" fill="rgb(28,58,37)" fill-opacity="0.454902" transform="translate(0,0)"></path>
<path d="M 1515.23 558.939 L 1517.44 558.841 C 1522.8 564.458 1519.09 573.133 1519.78 581.334 C 1517.9 588.385 1511.01 612.532 1507.42 618.317 C 1507.26 609.988 1516.47 596.915 1505.03 592.117 C 1503.67 590.017 1501.37 584.635 1500.21 582.126 C 1506.85 575.438 1503.97 572.737 1503.6 564.798 L 1503.52 562.833 C 1505.5 566.301 1508.78 574.254 1510.48 578.136 C 1512.29 571.91 1513.74 565.281 1515.23 558.939 z" fill="rgb(28,58,37)" fill-opacity="0.168627" transform="translate(0,0)"></path>
<path d="M 1425.13 444.17 C 1424.04 440.124 1423.15 438.142 1424.63 434.781 L 1426.46 434.599 C 1437.73 448.768 1448.11 462.451 1457.94 477.69 C 1455.78 481.874 1455.46 486.003 1452.15 489.169 C 1443.39 474.267 1434.76 458.398 1425.13 444.17 z" fill="rgb(24,53,31)" fill-opacity="0.0705882" transform="translate(0,0)"></path>
<path d="M 1376.48 1048.81 C 1382.64 1047.72 1401.5 1047.44 1408.55 1047.01 C 1435.49 1045.36 1461.8 1044.79 1488.78 1045.11 C 1489.64 1046.04 1490.57 1046.93 1491.29 1047.95 L 1490.72 1049.2 C 1485.59 1048.82 1481.27 1047.86 1476.44 1049.03 C 1475.31 1050.79 1475.51 1049.88 1475.61 1051.71 C 1469.6 1052.31 1456.28 1054.01 1450.82 1053.92 L 1452.13 1052.88 L 1452.24 1050.93 C 1445.59 1045.12 1390.71 1049.19 1376.48 1048.81 z" fill="rgb(24,53,31)" fill-opacity="0.780392" transform="translate(0,0)"></path>
<path d="M 1516.79 552.376 C 1519.25 546.109 1518.97 542.666 1523.04 537.129 L 1524.71 536.775 C 1527.45 541.441 1526.82 547.508 1526.91 553.106 C 1525.47 560.651 1522.4 574.062 1519.78 581.334 C 1519.09 573.133 1522.8 564.458 1517.44 558.841 L 1515.23 558.939 C 1515.65 556.249 1516.06 554.967 1516.79 552.376 z" fill="rgb(24,53,31)" fill-opacity="0.337255" transform="translate(0,0)"></path>
<path d="M 1551.21 379.697 C 1550.76 344.759 1550.72 312.556 1548.34 277.399 C 1552.25 290.445 1555.09 310.709 1556.78 324.386 L 1553.12 325.63 C 1550.34 336.847 1554.9 376.042 1551.21 379.697 z" fill="rgb(24,53,31)" fill-opacity="0.109804" transform="translate(0,0)"></path>
<path d="M 1505.03 592.117 C 1516.47 596.915 1507.26 609.988 1507.42 618.317 L 1507.18 620.718 C 1506.83 617.405 1506.97 616.724 1505.53 613.686 C 1503.75 612.33 1502.15 610.861 1500.55 609.291 C 1501.99 603.551 1503.48 597.826 1505.03 592.117 z" fill="rgb(28,58,37)" fill-opacity="0.0666667" transform="translate(0,0)"></path>
<path d="M 1570.62 872.767 C 1586.24 870.456 1601.55 868.101 1617.29 866.598 C 1605.83 870.531 1594.02 873.695 1582.35 876.986 C 1583.06 875.3 1582.95 876.273 1582.06 874.064 C 1579 872.543 1574.2 872.853 1570.62 872.767 z" fill="rgb(28,58,37)" fill-opacity="0.835294" transform="translate(0,0)"></path>
<path d="M 1218.23 1341.41 C 1228.78 1344.21 1238.8 1347.65 1249.14 1351.09 C 1236.56 1349.66 1221.22 1348.02 1208.89 1345.09 C 1214.23 1344.81 1214.84 1345.6 1218.23 1341.41 z" fill="rgb(28,58,37)" fill-opacity="0.847059" transform="translate(0,0)"></path>
<path d="M 1488.78 1045.11 C 1492.66 1045.48 1512.27 1046.92 1514.04 1048.11 L 1514.45 1047.72 L 1513.24 1047.53 L 1512.13 1048.55 C 1500.55 1049.56 1486.96 1050.36 1475.61 1051.71 C 1475.51 1049.88 1475.31 1050.79 1476.44 1049.03 C 1481.27 1047.86 1485.59 1048.82 1490.72 1049.2 L 1491.29 1047.95 C 1490.57 1046.93 1489.64 1046.04 1488.78 1045.11 z" fill="rgb(28,58,37)" fill-opacity="0.984314" transform="translate(0,0)"></path>
<path d="M 1051.33 1460.91 C 1061.44 1464.68 1072.81 1468.62 1082.72 1472.67 C 1070.1 1470.26 1057.29 1467.64 1044.67 1465.41 C 1047.41 1464.02 1048.87 1462.73 1051.33 1460.91 z" fill="rgb(24,53,31)" fill-opacity="0.262745" transform="translate(0,0)"></path>
<path d="M 1278.44 737.527 C 1283.15 745.493 1286.52 752.436 1290.53 760.72 C 1288.25 764.409 1288.91 766.606 1289.14 771.198 C 1285.4 760.028 1281.84 748.803 1278.44 737.527 z" fill="rgb(28,58,37)" fill-opacity="0.686275" transform="translate(0,0)"></path>
<metadata><recraft-signature>{"signed_by": "recraft", "signature_b64": "8KrdmJ/W9iZkdgUr1OpZfNQSkqKYypWwefdMcesh3fOvKcHT56+ycnD73VmqgPG1L1CI2nVAWOXxHGwL30XMAw==", "signing_algo": "Ed25519", "generation_timestamp": 1782749787, "identifier": "7d426893-d631-4912-8315-2dfffdf07273"}</recraft-signature></metadata></svg>