<svg xmlns="http://www.w3.org/2000/svg" height="1024" preserveAspectRatio="none" style="display: block;" version="1.1" viewBox="0 0 2048 2048" width="1024">
<path d="M 987.435 638.425 C 1127.51 632.374 1264.52 680.621 1369.89 773.11 C 1469.43 862.842 1534.85 984.26 1555.04 1116.75 C 1560.09 1149.52 1559.93 1173.79 1561.8 1206.36 C 1618.72 1223.9 1685.5 1244.38 1741.5 1264.95 C 1830.36 1297.56 1916.83 1336.35 2000.28 1381.04 C 1989.22 1380.93 1972.02 1378.46 1960.64 1377 C 1921.93 1371.24 1882.45 1371.47 1843.62 1370.56 C 1579.55 1364.4 1322.01 1473.13 1116.65 1634.18 C 1103.8 1644.26 1091.23 1655.65 1078.17 1665.92 C 1138.82 1685.79 1227.96 1705.31 1291.05 1712.74 C 1314.59 1695.15 1337.57 1676.7 1361.2 1659.24 C 1502.12 1555.14 1652.45 1469.84 1828.27 1443.68 C 1872.79 1437.06 1932.13 1429.37 1977.29 1431.7 C 1901.95 1445.46 1830.94 1467.69 1760.31 1496.6 C 1708.16 1517.94 1657.98 1538.11 1607.77 1564.26 C 1552.74 1593.47 1499.64 1626.19 1448.81 1662.22 C 1433.76 1672.67 1419.45 1683.21 1404.9 1694.33 C 1392.95 1703.47 1377.74 1712.99 1367.01 1723.28 C 1405.94 1731.5 1452.77 1736.26 1493.22 1743.71 C 1593.88 1761.2 1693 1786.61 1789.67 1819.69 C 1813.22 1827.76 1869.8 1847.82 1889.66 1859.05 C 1852.06 1849.65 1812.69 1843.01 1774.46 1836.45 C 1709.9 1825.49 1645.16 1815.62 1580.27 1806.83 L 1440.24 1788.06 C 1397.96 1782.32 1351.19 1775.51 1308.72 1771.62 C 1290.74 1781.38 1267.77 1799.91 1250.15 1811.66 C 1225.93 1827.8 1201.13 1843.57 1177.62 1860.59 C 1253.81 1859.35 1328.68 1856.31 1405.1 1860.8 C 1444.13 1863.09 1483.96 1867.03 1522.84 1871.17 C 1594.28 1878.21 1665.35 1888.61 1735.82 1902.31 C 1725.87 1902.89 1708.06 1901.23 1697.4 1900.56 C 1678.18 1899.37 1658.95 1898.44 1639.72 1897.78 C 1579.84 1895.63 1519.93 1894.96 1460.02 1895.75 C 1343.45 1895.72 1226.95 1901.81 1111.02 1913.98 C 1059.14 1918.87 1007.43 1925.39 955.964 1933.55 C 904.734 1941.86 856.03 1953.48 805.53 1963.85 L 804.997 1963.15 L 948.489 1904.63 C 983.032 1890.63 1021.4 1876.67 1055.15 1861.42 C 1113.66 1834.97 1183.28 1793.91 1234.14 1754.64 C 1165.22 1740.81 1109.45 1729.53 1041.25 1708.53 C 1037.26 1707.44 1033.3 1706.26 1029.36 1705 C 1020.08 1711.58 1009.1 1721.16 1000 1728.43 C 984.416 1740.81 968.683 1753 952.808 1765 C 871.886 1826.29 770.656 1895.17 675.49 1930.99 C 652.599 1939.61 623.167 1946.58 599.308 1951.93 C 627.299 1936.74 654.75 1927 681.457 1907.69 C 702.59 1892.41 730.963 1882.48 748.12 1861.11 C 754.061 1853.71 757.606 1841.26 760.707 1832.35 C 768.388 1826.06 781.472 1818.74 790.154 1813.49 C 802.894 1805.89 815.391 1797.88 827.625 1789.49 C 867.742 1762.14 908.335 1734.35 945.939 1703.61 C 953.301 1697.6 960.748 1691.71 968.227 1685.85 C 936.686 1673.56 882.913 1657.05 854.389 1641.91 C 866.149 1630.67 883.58 1619.77 897.312 1606.99 C 934.51 1621.75 972.174 1635.31 1010.25 1647.64 C 1030.08 1634.78 1056.78 1612.82 1076.33 1597.86 C 1099.29 1580.51 1122.72 1563.79 1146.59 1547.72 C 1280.33 1456.64 1429.75 1391.04 1587.32 1354.21 C 1634.96 1343.76 1683.26 1336.61 1731.89 1332.81 C 1744.63 1331.77 1757.4 1331.1 1770.18 1330.79 C 1775.87 1330.66 1808.3 1331.39 1810.75 1327.25 C 1800.97 1320.63 1720.94 1295.8 1703.92 1290.62 C 1645.03 1272.32 1585.49 1256.17 1525.42 1242.22 C 1394.48 1212.97 1260.85 1197.4 1126.7 1195.77 C 1084.85 1195.53 1024.43 1196.62 983.525 1203.72 C 997.726 1189.36 1007.79 1169.4 1022.14 1154.31 C 1032.46 1152.51 1044.07 1152.87 1054.58 1152.11 C 1083.99 1149.99 1112.49 1149.93 1141.97 1150.82 C 1175.4 1151.84 1209.08 1152.26 1242.5 1154.37 C 1292.69 1157.9 1342.7 1163.55 1392.42 1171.29 C 1429.21 1177.01 1462.44 1185.09 1498.28 1191.48 C 1502.65 1147.03 1483.96 1071.16 1469.58 1029.32 C 1426.3 903.872 1334.63 800.953 1215 743.5 C 1102.55 689.723 973.476 682.259 855.575 722.714 C 733.069 765.308 632.333 854.544 575.272 971.016 C 540.622 1041.49 524.118 1119.5 527.257 1197.97 C 527.544 1207.35 527.703 1231.53 530.327 1238.98 C 532.225 1239.79 548.394 1233.65 551.591 1232.6 C 570.974 1226.22 590.547 1220.68 609.998 1214.51 C 596.971 1230.11 580.825 1253.9 566.419 1267.16 C 563.262 1270.07 541.557 1276.61 535.842 1278.53 C 521.04 1283.54 506.275 1288.67 491.55 1293.9 C 364.842 1339.31 247.057 1401.25 136.019 1477.15 C 117.822 1489.59 100.272 1502.68 81.4302 1514.16 C 96.9495 1497.83 132.175 1468.55 149.945 1454 C 224.185 1392.82 305.224 1340.39 391.46 1297.76 C 418.056 1284.8 442.641 1275.18 469.274 1263.59 C 468.554 1250.24 466.54 1236.17 465.51 1222.64 C 444.718 949.566 634.609 703.335 902.117 648.834 C 929.95 643.164 958.813 640.359 987.435 638.425 z" fill="rgb(9,67,57)" transform="translate(0,0)"></path>
<path d="M 1114.72 748.983 C 1114.04 758.534 1097.27 798.797 1093.61 810.913 C 1078.27 861.713 1059.64 912.369 1046.37 963.717 C 1040.24 987.101 1035.92 1010.92 1033.45 1034.97 C 1025.33 1108.14 1032.1 1110.96 986.203 1174.18 C 938.036 1240.52 867.041 1322.19 875.463 1408.89 C 876.823 1422.89 883.836 1438.88 895.291 1447.57 C 927.468 1448.38 960.484 1447.28 992.499 1452.43 C 1013.76 1455.86 1016.34 1459.75 1027.91 1476.17 C 1034.27 1478.36 1047.52 1483.83 1052.02 1488.11 C 1065.72 1501.15 1050.83 1532.89 1040.22 1544.46 C 1038.29 1546.56 1038.28 1546.81 1035.75 1546.89 C 1031.65 1542.1 1030.82 1535.21 1026.14 1529.19 C 1015.32 1525.9 1006.53 1530.26 997.26 1535.64 C 965.884 1553.87 932.278 1566.15 901.172 1585.02 C 874.136 1601.43 851.277 1620.87 827.243 1641.31 C 792.853 1670.85 759.397 1701.3 745.751 1746.12 C 736.928 1775.1 747.233 1801.06 739.204 1829.14 C 734.756 1844.7 733.13 1857.31 716.604 1863.82 C 714.505 1864.64 714.318 1864.13 712.671 1863.14 C 712.681 1859.17 713.94 1858.6 716.324 1854.55 L 704.235 1851.11 C 703.979 1854.02 703.681 1856.94 703.34 1859.84 C 702.453 1867.18 696.704 1886.48 684.835 1883.18 C 674.277 1880.24 656.497 1892.65 650.44 1881.15 C 658.619 1877.54 661.834 1875.33 667.415 1868.13 C 658.898 1861.77 652.535 1877.65 638.285 1850.99 L 639.58 1851.57 C 655.489 1858.59 659.989 1854.47 668.142 1836.97 C 669.038 1835.05 668.221 1833.56 667.121 1832.01 C 657.113 1828.19 652.318 1838.78 642.783 1824.6 L 642.103 1823.56 C 656.193 1821.5 658.518 1823.55 664.129 1809.36 C 658.499 1794.82 649.056 1777.84 637.426 1767.35 C 629.134 1791.48 617.988 1819.37 607.121 1842.55 C 600.46 1856.76 590.943 1872.5 583.277 1886.61 L 535.441 1974.24 C 515.789 1922.31 536.968 1900.92 567.88 1859.77 C 581.743 1841.31 608.792 1803.01 614.727 1782.19 L 613.861 1780.74 L 611.417 1780.51 C 604.787 1783.91 598.092 1799.69 593.299 1806.7 C 577.29 1830.12 557.391 1851.82 540.634 1874.17 C 522.983 1897.71 512.43 1919.4 490.492 1941.19 C 488.826 1927.85 485.765 1897.41 490.606 1884.47 C 500.16 1858.92 526.237 1836.04 544.673 1815.69 C 560.564 1798.15 574.546 1784.42 588.339 1764.16 L 580.274 1759.71 C 567.159 1778.94 547.197 1797.85 530.804 1814.71 C 507.465 1838.72 482.631 1865.65 457.016 1886.95 C 456.987 1880.14 456.918 1873.3 457.447 1866.5 C 458.318 1855.3 460.487 1841.93 466.313 1832.12 C 472.47 1821.75 547.467 1758.32 562.313 1745.65 L 555.864 1738.47 C 540.722 1753.64 519.516 1770.52 502.619 1784.05 C 478.945 1803.02 453.936 1825.53 426.325 1837.84 C 430.582 1823.67 436.613 1801.52 444.055 1788.81 C 447.296 1783.27 463.199 1773.25 468.825 1769.2 C 482.851 1759.1 526.848 1732.82 533.729 1718.71 C 533.783 1715.4 534.347 1716.73 532.292 1714.47 C 529.55 1715 526.951 1716.17 524.655 1717.79 C 487.161 1744.27 449.789 1772.49 405.356 1785.69 C 422.707 1739.15 447.019 1730.15 485.278 1706.23 C 445.43 1715.15 428.203 1723.35 389.876 1704.04 C 408.2 1700.88 430.199 1694.71 448.048 1689.39 C 509.948 1670.94 595.572 1653.12 626.171 1589.35 C 622.154 1592.96 618.072 1596.49 613.925 1599.95 C 605.824 1606.69 569.146 1634.45 557.36 1618.47 C 547.236 1604.73 576.834 1584.79 587.278 1577.84 C 603.153 1567.26 620.527 1555.31 637.21 1544.17 C 636.494 1540.44 636.641 1538.31 634.531 1535.56 C 621.889 1541.1 557.793 1592.66 546 1584.55 C 508.734 1558.94 574.824 1534.31 592.755 1526.68 C 600.485 1523.64 620.444 1515.39 625.732 1510 C 626.448 1507.12 626.287 1507.14 625.93 1504.14 C 619.313 1503.25 569.353 1531.11 549.859 1533.45 C 544.38 1534.11 536.088 1534.89 531.791 1530.66 C 529.646 1528.55 529.142 1525.65 529.461 1522.77 C 531.954 1500.3 609.7 1476.5 628.288 1462.26 C 629.913 1459.98 629.329 1457.8 629.142 1454.86 L 627.917 1454.05 C 604.195 1463.46 579.63 1479.2 554.885 1486.58 C 548.693 1488.42 537.907 1490.8 532.269 1486.93 C 530.038 1485.4 528.599 1481.88 528.737 1480.27 C 531.615 1446.74 615.291 1444.29 635.444 1425.36 C 636.976 1423.92 636.388 1421.36 635.95 1419.68 C 628.905 1420.59 606.979 1430.22 598 1432.8 C 578.336 1438.45 556.087 1445.87 535.594 1439.41 C 534.978 1439.21 532.75 1436.63 533.017 1435.68 C 530.143 1407.63 582.918 1402.67 598.586 1399.46 L 643.8 1389.96 L 645.209 1379.91 C 623.223 1385.24 601.874 1392.47 579.085 1395.51 C 571.374 1396.54 540.847 1402.63 538.909 1389.26 C 537.941 1379.63 552 1372.03 559.428 1370.8 C 590.987 1365.57 623.362 1360.73 654.858 1355.59 C 655.212 1352.78 655.589 1349.98 655.99 1347.18 C 639.657 1349.34 532.11 1375.69 559.505 1330.45 C 570.479 1312.33 622.892 1313.59 642.328 1312.8 C 653.875 1312.32 666.826 1311.13 678.443 1310.14 L 681.102 1300.65 C 656.391 1304.61 618.377 1310.67 594.724 1302.52 C 589.424 1300.69 583.373 1297.9 581.01 1292.42 C 579.887 1289.82 579.546 1286.15 580.701 1283.54 C 583.224 1277.83 592.541 1264.06 597.771 1261.08 C 602.518 1258.37 679.276 1278.63 696.015 1270.87 C 698.653 1269.64 698.927 1268.96 700.129 1266.49 L 699.473 1265.12 C 681.645 1264.92 617.372 1264.19 608.768 1248.26 C 608.741 1246.2 608.45 1245.03 609.953 1243.16 C 620.21 1230.44 630.857 1219.2 641 1206.16 C 662.12 1218.93 701.929 1225.81 726.389 1230.56 C 729.676 1226.93 732.649 1223 735.683 1219.14 C 711.92 1218.61 670.359 1211.38 652.114 1195.76 C 655.089 1191.42 659.788 1182.09 662.589 1177.17 C 669.209 1165.53 676.325 1153.59 682.363 1141.68 C 706.687 1159.29 726.085 1172.31 753.559 1185.4 C 756.151 1182.47 758.722 1179.52 761.272 1176.56 C 744.309 1168.59 730.541 1162.68 715.295 1151.25 C 707.154 1145.14 700.716 1138.65 692.894 1132.72 C 699.371 1121.68 705.747 1110.33 713.093 1099.87 C 735.067 1117.97 749.547 1137.15 776.68 1153.22 L 782.536 1145.89 C 763.038 1129.36 734.07 1108.32 719.339 1087.33 C 720.936 1076.32 731.769 1053.74 737.084 1043.51 C 745.432 1051.48 752.731 1060.95 760.391 1069.64 C 775.6 1086.89 790.417 1104.5 807.167 1120.3 C 809.08 1118.64 811.888 1116.54 813.935 1114.93 C 794.864 1092.43 765.899 1065.75 753.299 1039.03 C 746.783 1025.22 755.322 1009.47 761.256 996.124 C 792.904 1016.3 811.837 1065.3 832.766 1095.92 L 840.92 1089.39 C 826.737 1067.33 805.283 1031.03 799.125 1005.39 C 794.183 984.825 804.272 959.634 815.826 942.536 C 841.201 964.682 859.686 1031.85 869.677 1064.35 L 879.064 1058.14 C 878.555 1056.7 878.059 1055.26 877.576 1053.81 C 869.255 1028.95 857.127 980.939 860.546 955.334 C 863.318 934.583 879.155 889.573 888.707 870.383 C 900.127 920.195 907.966 980.085 916.666 1030.67 L 927.474 1025.4 C 926.052 1001.64 916.314 968.627 913.631 946.434 C 909.355 911.071 943.025 835.508 960.844 803.256 C 963.503 859.266 955.749 918.064 955.116 974.119 C 955.018 982.805 951.224 1002.42 956.937 1007.99 C 958.107 1007.93 960.847 1008.04 961.069 1006.14 C 963.89 982.077 965.814 950.607 967.809 927.022 C 971.516 875.888 993.436 830.206 1019.2 786.785 C 1025.73 775.787 1033.9 760.647 1042.77 751.503 C 1041.07 763.135 1037.21 778.978 1035 791.439 L 1011.98 920.278 C 1009.95 931.939 997.455 990.68 1006.22 996.097 C 1007.11 995.884 1009.95 994.489 1010.05 993.807 C 1023.62 895.943 1038.21 819.052 1114.72 748.983 z M 872.304 1495.56 C 857.041 1500.1 852.945 1503.76 839.763 1512.53 L 841.154 1512.75 C 851.382 1514.31 870.823 1511.59 876.867 1517.59 C 864.32 1521.32 864.813 1523.66 856.238 1534.35 C 867.679 1527.1 869.002 1526.79 882.285 1524.31 C 879.66 1529.26 876.651 1534.67 874.234 1539.66 C 879.942 1538.86 885.331 1537.66 890.936 1538.62 L 892.406 1539.96 C 891.782 1544.55 885.367 1549.5 881.775 1552.82 C 904.213 1556.73 931.813 1553.21 952.657 1543.8 C 961.415 1539.85 969.963 1537.13 977.219 1530.5 L 977.253 1528.97 C 970.536 1526.81 915.825 1541.55 903.227 1543.62 C 911.775 1539.56 920.114 1536.6 928.6 1532.08 C 942.09 1524.89 955.164 1515.78 970.11 1511.75 C 988.069 1506.9 1010.03 1510.06 1027.78 1514.51 C 1033.05 1515.83 1036.32 1519.66 1039.66 1523.51 C 1052.42 1488.89 1039.03 1498.45 1017.82 1483.08 C 1010.84 1478.03 1008.97 1468.56 998.979 1467.65 C 991.562 1465.77 991.217 1468.43 986.105 1465.35 C 951.832 1458.44 922.05 1457.42 887.292 1463.94 C 872.649 1466.69 857.695 1471.12 843.018 1473.09 C 852.97 1480.33 862.735 1487.82 872.304 1495.56 z M 702.515 1835.91 C 705.344 1834.49 708.802 1832.63 711.682 1831.54 L 712.765 1829.98 C 711.071 1825.54 701.935 1823.1 696.684 1819.53 C 698.569 1824.94 700.44 1830.6 702.515 1835.91 z M 996.866 1473.95 C 991.032 1487.4 986.896 1488.84 973.705 1494.24 C 959.241 1484.94 953.395 1481.62 936.845 1477.62 C 954.013 1476.69 967.469 1476.08 983.858 1470.78 C 989.816 1471.44 991.177 1471.92 996.866 1473.95 z M 705.75 1800.82 C 711.125 1800.97 714.515 1801.71 718.327 1798.17 C 720.321 1786.75 705.25 1745.16 694.524 1738.58 C 680.675 1753.87 672.022 1780.37 690.508 1796.47 C 695.122 1800.49 699.897 1800.38 705.75 1800.82 z" fill="rgb(9,67,57)" transform="translate(0,0)"></path>
<path d="M 843.018 1473.09 C 857.695 1471.12 872.649 1466.69 887.292 1463.94 C 922.05 1457.42 951.832 1458.44 986.105 1465.35 C 985.601 1467.9 985.731 1469.1 983.858 1470.78 C 967.469 1476.08 954.013 1476.69 936.845 1477.62 C 953.395 1481.62 959.241 1484.94 973.705 1494.24 C 986.896 1488.84 991.032 1487.4 996.866 1473.95 C 997.302 1471.71 998.167 1469.8 998.979 1467.65 C 1008.97 1468.56 1010.84 1478.03 1017.82 1483.08 C 1039.03 1498.45 1052.42 1488.89 1039.66 1523.51 C 1036.32 1519.66 1033.05 1515.83 1027.78 1514.51 C 1010.03 1510.06 988.069 1506.9 970.11 1511.75 C 955.164 1515.78 942.09 1524.89 928.6 1532.08 C 920.114 1536.6 911.775 1539.56 903.227 1543.62 C 915.825 1541.55 970.536 1526.81 977.253 1528.97 L 977.219 1530.5 C 969.963 1537.13 961.415 1539.85 952.657 1543.8 C 931.813 1553.21 904.213 1556.73 881.775 1552.82 C 885.367 1549.5 891.782 1544.55 892.406 1539.96 L 890.936 1538.62 C 885.331 1537.66 879.942 1538.86 874.234 1539.66 C 876.651 1534.67 879.66 1529.26 882.285 1524.31 C 869.002 1526.79 867.679 1527.1 856.238 1534.35 C 864.813 1523.66 864.32 1521.32 876.867 1517.59 C 870.823 1511.59 851.382 1514.31 841.154 1512.75 L 839.763 1512.53 C 852.945 1503.76 857.041 1500.1 872.304 1495.56 C 862.735 1487.82 852.97 1480.33 843.018 1473.09 z" fill="rgb(254,250,250)" fill-opacity="0.00784314" transform="translate(0,0)"></path>
<path d="M 983.858 1470.78 C 989.816 1471.44 991.177 1471.92 996.866 1473.95 C 991.032 1487.4 986.896 1488.84 973.705 1494.24 C 959.241 1484.94 953.395 1481.62 936.845 1477.62 C 954.013 1476.69 967.469 1476.08 983.858 1470.78 z" fill="rgb(9,67,57)" transform="translate(0,0)"></path>
<path d="M 986.105 1465.35 C 991.217 1468.43 991.562 1465.77 998.979 1467.65 C 998.167 1469.8 997.302 1471.71 996.866 1473.95 C 991.177 1471.92 989.816 1471.44 983.858 1470.78 C 985.731 1469.1 985.601 1467.9 986.105 1465.35 z" fill="rgb(254,250,250)" fill-opacity="0.156863" transform="translate(0,0)"></path>
<path d="M 1008.29 56.6903 C 1010.98 64.9689 1014.34 93.9756 1016.09 105.051 L 1035.76 229.012 L 1074.54 455.865 C 1083.19 504.883 1095.37 565.897 1100.79 615.106 C 1068.78 609.107 1044.9 607.687 1012.79 607.16 C 974.857 607.423 955.113 609.806 917.528 614.558 C 934.651 498.312 956.554 381.946 974.833 265.702 L 998.279 116.364 C 1001.22 98.5466 1003.68 73.6535 1008.29 56.6903 z" fill="rgb(9,67,57)" transform="translate(0,0)"></path>
<path d="M 1415.32 158.696 C 1415.97 161.09 1415.6 162.662 1415.12 165.12 C 1390.61 286.405 1364.64 407.389 1337.2 528.045 L 1314.21 633.882 C 1310.62 649.739 1306.17 671.042 1301.31 686.153 C 1286.38 678.904 1271.86 670.366 1256.61 662.982 C 1231.59 650.867 1208.18 642.659 1182.08 633.482 C 1164.47 627.834 1146.17 623.554 1128.15 619.451 C 1131.55 611.652 1144.63 591.744 1149.73 583.531 L 1204.04 497.914 L 1286.38 365.316 L 1370.28 231.624 C 1386.12 206.166 1400.01 184.93 1415.32 158.696 z" fill="rgb(9,67,57)" transform="translate(0,0)"></path>
<path d="M 600.029 157.8 C 601.647 158.964 655.114 245.973 661.406 255.884 L 803.425 479.746 L 861.005 570.225 C 868.557 582.195 885.26 607.397 890.796 619.33 C 872.701 623.697 856.566 628.453 838.768 633.767 C 783.536 651.575 766.923 660.602 716.474 687.983 C 711.2 668.667 705.307 632.39 700.717 610.895 L 662.071 434.468 L 622.354 256.591 C 616.915 233.356 611.681 210.074 606.653 186.747 C 604.716 178.05 601.287 166.195 600.029 157.8 z" fill="rgb(9,67,57)" transform="translate(0,0)"></path>
<path d="M 269.17 391.656 C 274.217 394.198 299.254 413.221 305.789 417.763 C 351.354 449.612 396.376 482.232 440.834 515.608 C 503.867 561.143 566.623 607.06 629.097 653.358 C 648.915 668.165 675.112 686.283 693.562 701.399 C 684.573 708.324 673.67 715.19 664.237 722.089 C 650.004 732.498 639.275 742.05 626.316 753.946 C 598.297 777.544 583.896 798.279 559.702 823.515 C 463.369 680.393 368.905 532.249 269.17 391.656 z" fill="rgb(9,67,57)" transform="translate(0,0)"></path>
<path d="M 1746.7 389.074 L 1747.31 389.666 C 1740.82 398.153 1735.7 406.121 1729.84 415.004 C 1670 505.79 1608.93 595.948 1549.42 686.943 C 1529.68 717.174 1510.45 747.74 1491.75 778.628 C 1482.03 794.364 1471.75 809.634 1462.76 825.807 C 1437.2 796.651 1424.54 782.44 1396.46 756.165 C 1370.61 734.444 1353.99 719.83 1324.79 700.979 C 1405.76 642.469 1486.14 583.142 1565.91 523.008 C 1625.53 478.688 1688.15 434.663 1746.7 389.074 z" fill="rgb(9,67,57)" transform="translate(0,0)"></path>
<path d="M 94.0795 703.653 C 102.405 704.898 130.186 714.914 139.694 718.152 C 165.704 726.907 191.758 735.528 217.855 744.016 L 459.937 823.703 C 486.086 832.466 513.545 839.937 539.342 849.351 C 516.568 885.722 501.152 910.102 482.025 950.064 C 472.968 969.357 465.665 989.404 458.135 1009.33 C 436.091 998.469 385.997 950.84 365.122 932.94 L 203.896 795.515 L 123.918 728.949 C 113.997 720.552 103.186 712.811 94.0795 703.653 z" fill="rgb(9,67,57)" transform="translate(0,0)"></path>
<path d="M 1919.67 698.069 L 1920.32 698.516 C 1918.7 701.851 1879.86 734.918 1873.56 740.434 C 1793.13 811.253 1711.93 881.202 1629.99 950.268 L 1561.03 1010.05 C 1552.72 989.59 1548.51 973.017 1538.7 951.297 C 1525.22 916.736 1498.15 878.989 1479.29 847.392 C 1486.41 845.356 1493.55 843.39 1500.68 841.369 C 1550.8 827.147 1599.41 807.705 1648.88 791.463 C 1707.6 772.424 1766.06 752.603 1824.25 732.005 C 1855 721.31 1889.6 709.96 1919.67 698.069 z" fill="rgb(9,67,57)" transform="translate(0,0)"></path>
<path d="M 450.704 1030.51 C 451.967 1032.73 446.5 1050.38 445.556 1054.87 C 436.134 1099.67 434.046 1144.65 431.923 1190.17 C 423.781 1188.25 410.818 1183.44 402.417 1180.69 L 335.54 1158.43 C 267.604 1135.94 199.839 1112.94 132.249 1089.43 C 97.987 1077.26 63.5624 1065.56 28.9842 1054.33 C 43.1987 1052.86 60.2733 1052.57 74.7597 1051.83 L 142.563 1047.86 C 244.929 1041.81 348.626 1037.52 450.704 1030.51 z" fill="rgb(9,67,57)" transform="translate(0,0)"></path>
<path d="M 1572.04 1027.45 C 1602.62 1028.39 1634.34 1027.66 1665.09 1028.02 L 2000.48 1028.96 C 1965.26 1040.64 1920.85 1057.92 1885.95 1071.04 L 1688.57 1144.39 L 1624.18 1168.27 C 1615.32 1171.52 1598.96 1178.18 1590.29 1179.64 C 1588.76 1144.7 1585.8 1112.33 1578.31 1078.01 C 1574.74 1061.67 1568.92 1045.26 1565.94 1029.03 L 1567.03 1027.74 L 1572.04 1027.45 z" fill="rgb(9,67,57)" transform="translate(0,0)"></path>
<path d="M 504.912 1549.39 C 508.052 1548.87 514.899 1548.56 518.341 1548.29 C 519.156 1571.45 519.833 1575.3 527.493 1596.87 C 367.921 1606.99 236.127 1664.44 107.98 1758.77 C 102.275 1763.26 96.7569 1767.07 90.7922 1771.21 C 103.891 1755.63 118.465 1737.57 132.431 1723.06 C 211.676 1639.55 314.897 1582.72 427.833 1560.41 C 453.454 1555.19 478.967 1552.36 504.912 1549.39 z" fill="rgb(9,67,57)" transform="translate(0,0)"></path>
<path d="M 1153.83 825.029 L 1154.64 826.036 C 1113.03 902.878 1080.37 992.74 1043.04 1073.22 C 1040.53 1070.95 1041.91 1064.35 1042.14 1061.01 C 1046.01 1003.69 1062.16 944.7 1083.54 891.689 C 1090.82 873.642 1136.33 836.103 1153.83 825.029 z" fill="rgb(9,67,57)" transform="translate(0,0)"></path>
<metadata><recraft-signature>{"signed_by": "recraft", "signature_b64": "JlcGr03sUvH4Y1e2yKg4hewj078FkqncD5vwJoizB6KRRJHmkEIWbw/NSmeIhzYejjbCOlB8M44DBWu4sDPLBQ==", "signing_algo": "Ed25519", "generation_timestamp": 1782749861, "identifier": "0134f09f-28ec-4283-b670-9b6c1b65d18a"}</recraft-signature></metadata></svg>