<svg xmlns="http://www.w3.org/2000/svg" height="1024" preserveAspectRatio="none" style="display: block;" version="1.1" viewBox="0 0 2048 2048" width="1024">
<path d="M 986.932 210.622 C 988.138 208.441 989.111 206.925 990.749 205.078 C 997.469 197.504 1013.71 68.3244 1020.91 59.3329 C 1024.48 59.0268 1024.63 58.7888 1028.09 60.0841 C 1031.3 66.1582 1043.38 136.537 1045.74 148.854 C 1052.3 181.403 1058.5 214.024 1064.34 246.71 C 1082.58 351.562 1098.05 459.169 1115.06 564.487 L 1132.54 673.866 C 1134.65 687.537 1138.85 721.356 1142.24 733.458 C 1237.92 671.015 1336.03 615.265 1431.2 552.317 C 1462.5 531.616 1496.35 512.16 1525.81 488.788 C 1579.22 446.415 1634.21 405.472 1685.41 360.488 C 1687.72 358.458 1699.26 347.198 1700.92 346.992 C 1700.2 349.267 1685.7 366.05 1682.82 369.586 C 1644.47 416.648 1603.06 461.782 1567.64 511.161 C 1516.27 584.181 1466.77 658.505 1419.19 734.06 L 1341.47 861.222 C 1330.51 878.838 1323.02 891.942 1311.14 909.41 C 1328.63 912.798 1346.78 914.054 1364.35 917.09 C 1406.59 924.386 1450.46 927.729 1492.55 935.009 C 1548.25 944.641 1604.16 951.554 1659.86 960.668 L 1725.56 971.381 C 1747.1 975.098 1770.25 979.503 1791.91 981.667 L 1801.2 983.703 C 1811.99 985.786 1823.25 988.165 1834.1 989.609 C 1838.78 987.02 1849.03 985.468 1854.41 987.732 C 1856.74 990.092 1857.47 990.335 1858.14 993.552 L 1923.73 1006.76 C 1929.91 1008.01 1950.76 1012.67 1955.57 1013.01 C 1957.45 1013.37 1962.8 1014.52 1964.44 1014.64 C 1971.47 1013.32 1984.92 1015.48 1992.76 1016.02 C 1993.95 1023.99 1994.78 1027.09 1993.2 1035.07 L 1994.58 1035.82 C 2006.99 1036.14 2015.93 1016.72 1991.62 1010.54 C 1986.69 1008.91 1983.59 1008.52 1978.51 1007.7 C 1964.93 1002.45 1941.39 997.502 1927.02 994.326 C 1904.26 989.263 1881.48 984.321 1858.67 979.5 C 1843.96 975.967 1830.63 974.417 1815.71 972.793 C 1816.49 949.862 1811.33 914.546 1807.77 891.536 C 1785.99 750.956 1715.04 599.821 1617.53 495.575 L 1605.92 483.357 C 1612.14 474.983 1619.54 464.551 1626.02 456.578 C 1649.35 479.697 1670.71 506.305 1690.18 532.731 C 1756.59 621.323 1803.9 722.72 1829.14 830.522 C 1838.21 870.49 1844.22 912.009 1848.63 952.741 C 1849.16 957.613 1849.37 962.615 1850.05 967.457 C 1876.53 974.281 1903.17 980.45 1929.95 985.957 C 1952.74 990.857 1977.6 996.163 1999.92 1003.82 C 2018.27 1010.12 2020.71 1035.37 2001.56 1043.25 C 1991.57 1047.37 1979.08 1049.8 1968.18 1052.43 C 1946.42 1057.67 1924.62 1062.78 1902.8 1067.79 C 1885.46 1071.84 1865.53 1078.13 1849.23 1081.63 C 1838.63 1219.27 1801.3 1342.67 1727.18 1459.91 C 1695.32 1510.3 1666.31 1549.93 1623.93 1592.39 L 1606.3 1563.94 C 1623.8 1547.64 1643.12 1524.4 1657.74 1505.43 C 1729.34 1411.13 1778.69 1301.86 1802.12 1185.8 C 1808.85 1154.05 1815.2 1115.31 1816.34 1083 C 1816.49 1078.94 1816.58 1074.88 1816.6 1070.82 C 1821.44 1071.57 1833.58 1069.08 1839.03 1068.11 C 1829.95 1065.5 1814.65 1064.67 1804.88 1062.11 C 1798.39 1060.41 1798.05 1060.72 1791.38 1062.63 C 1744.2 1069.49 1694.53 1081.48 1647.26 1089.97 C 1535.58 1109.81 1423.66 1128.26 1311.53 1145.33 C 1315.96 1154.8 1327.24 1171.07 1333.28 1180.38 L 1367.51 1233.76 C 1398.76 1282.94 1430.67 1331.69 1463.23 1380 C 1471.91 1392.86 1485.22 1416.15 1493.77 1427.05 C 1494.42 1430.9 1499.28 1437.96 1501.8 1441.12 C 1519.96 1471.91 1534.43 1489.05 1555.19 1517.04 C 1582.59 1554.73 1610.97 1591.69 1640.3 1627.89 L 1681.01 1679.22 C 1684.37 1683.39 1695.88 1696.06 1697.57 1699.26 C 1693.67 1697.25 1659.97 1668.14 1654.38 1663.43 L 1577.86 1600.18 C 1563.76 1588.53 1550.8 1576.64 1536.17 1565.55 C 1468.16 1514.84 1395 1469.52 1322.43 1425.61 C 1264.95 1390.83 1203.68 1347.67 1143.52 1318.55 L 1061.8 1808.19 C 1054.91 1849.05 1047.87 1889.74 1039.8 1930.41 C 1037.44 1942.32 1032.66 1978.52 1028.34 1987.43 C 1025.01 1989.39 1026.78 1988.91 1022.82 1988.78 C 1018.67 1984.68 1008.03 1923.29 1006.22 1913.88 C 982.851 1796.41 962.261 1678.41 944.464 1559.97 L 921.221 1402.66 C 917.345 1375.36 912.788 1335.81 907.746 1309.63 C 881.802 1326.48 855.493 1340.67 829.428 1356.81 C 699.246 1437.41 568.563 1518.04 449.876 1615.34 C 417.229 1642.1 384.129 1668.83 352.464 1696.72 L 350.836 1696.37 L 350.398 1696.95 L 350.747 1697.99 L 349.601 1698.12 C 350.763 1698.11 350.228 1698.27 351.204 1697.62 C 351.116 1697.13 351.028 1696.65 350.94 1696.16 C 374.48 1668.27 402.165 1634.9 425.098 1607.45 C 438.915 1591.31 450.807 1573.69 463.963 1557.08 C 545.863 1453.68 612.591 1337.98 679.654 1224.65 C 697.078 1195.2 714.531 1166.24 731.58 1136.63 C 547.743 1114.91 366.469 1078.62 183.453 1051.53 C 156.679 1047.57 128.042 1041.19 101.288 1036.14 C 99.7834 1035.71 97.5721 1035.35 95.9811 1035.04 C 82.6466 1031.1 67.3575 1029.57 53.9969 1024.85 C 64.2369 1020.79 81.2451 1017.06 92.311 1014.36 L 92.9501 1012.86 C 96.5064 1014.2 112.776 1010.67 117.881 1009.84 L 121.02 1009.12 L 121.485 1007.3 C 126.651 1002.29 129.532 1002.1 136.749 1000.44 C 141.652 1000.2 153.558 999.98 156.605 995.874 C 151.821 994.803 149.445 995.229 144.645 995.554 C 141.989 995.409 140.337 994.515 137.884 993.512 C 149.273 990.993 160.733 988.808 172.249 986.958 C 171.009 988.844 168.857 991.337 167.389 993.163 C 171.651 994.707 194.668 991.913 198.581 987.616 C 193.578 985.832 186.5 987.669 179.612 985.436 C 196.015 982.524 212.44 978.296 229.123 976.818 L 228.698 979.587 C 225.196 979.703 225.422 979.777 222.294 981.46 L 221.538 982.998 C 224.694 987.371 226.675 987.302 231.873 987.275 C 230.605 988.253 231.373 987.886 229.475 988.154 L 229.236 989.561 C 240.265 988.094 251.267 985.609 262.172 983.341 L 267.711 982.467 C 280.921 978.679 315.86 974.125 331.223 971.254 C 368.686 963.907 406.237 957.018 443.868 950.587 C 478.742 944.791 516.61 939.746 550.964 932.208 C 558.036 930.448 563.021 929.681 570.257 928.647 C 625.678 919.531 680.999 909.823 736.212 899.525 C 732.615 890.785 720.185 873.306 714.354 864.212 L 658.338 778.248 C 619.295 718.375 583.777 656.953 541.516 599.006 C 520.106 569.649 500.518 535.229 477.803 506.689 C 435.865 453.996 392.915 400.597 348.573 349.996 C 346.797 347.34 346.943 347.493 346.393 344.313 C 391.57 383.881 439.367 420.685 484.804 459.927 C 514.317 485.416 545.708 505.584 578.406 526.722 C 591.469 535.287 605.634 546.356 620.331 551.512 C 624.915 553.071 625.319 553.074 629.618 555.769 C 631.02 556.786 637.412 561.563 638.518 562.035 C 642 571.11 663.185 582.722 671.816 588.272 C 696.289 604.007 721.051 619.555 745.807 634.858 C 745.466 634.647 761.444 638.369 761.474 638.366 C 759.54 632.97 750.779 633.242 751.713 625.853 C 758.088 619.225 771.628 611.305 779.952 606.53 C 821.023 582.974 881.072 556.004 927.857 549.005 C 925.776 558.493 923.54 567.833 922.409 577.485 L 921.033 578.092 C 905.326 584.903 887 588.367 871.52 594.193 C 850.589 602.071 801.868 621.664 787.046 636.585 L 786.486 638.887 C 786.253 643.267 786.997 642.313 784.572 644.563 C 777.439 645.067 778.645 642.402 772.582 645.938 C 773.562 650.205 779.197 652.951 783.397 652.535 L 784.454 649.228 L 786.023 648.916 C 787.591 651.412 787.27 650.606 788.152 653.395 L 785.961 657.645 C 787.741 662.279 892.759 720.734 903.011 726.531 C 922.548 638.646 935.826 541.414 950.153 452.318 C 961.111 384.178 974.194 314.701 984.486 246.748 C 985.092 243.818 985.419 243.761 984.306 241.088 C 980.618 238.536 979.095 238.448 978.564 233.975 C 980.763 232.43 982.286 231.256 984.346 229.59 C 986.346 224.281 986.491 216.539 986.932 210.622 z M 1954.96 1033.68 L 1945.75 1036.08 C 1936.83 1037.02 1858.78 1049.69 1852.19 1052.56 C 1849.51 1057.4 1847.53 1061.57 1852.85 1065.61 C 1865.45 1065.45 1888.07 1059.48 1901.14 1057 C 1917.9 1053.82 1936 1050.58 1952.44 1046.31 C 1952.95 1044.16 1953.78 1041.91 1954.48 1039.8 C 1957.54 1039.65 1981 1035.4 1983.01 1033.91 C 1975.8 1029.04 1960.82 1040.51 1954.96 1033.68 z M 1025.4 1928.26 C 1030.11 1920.07 1044.85 1833.89 1047.19 1820.42 C 1064.57 1720.61 1081.11 1620.65 1096.83 1520.56 C 1103.39 1481.21 1157.66 1179.56 1154.86 1169.53 C 1154.42 1167.96 1153.34 1166.23 1152.47 1164.85 C 1118.79 1197.39 1072.64 1215.3 1026.06 1217.08 C 1025.25 1393.76 1021.15 1568.8 1021.88 1745.6 C 1021.99 1775.82 1021.93 1806.03 1021.69 1836.25 C 1021.5 1858.85 1021.33 1906.72 1025.4 1928.26 z M 893.176 885.091 C 935.257 851.491 969.184 833.482 1024.31 832.667 L 1027.18 479.878 C 1027.6 401.75 1029.44 318.111 1027.81 240.036 C 1028.03 223.825 1028.5 203.528 1027.24 187.541 C 1027.16 176.493 1028.86 140.823 1022.59 133.886 C 1015.23 134.854 1007.29 188.124 1006.81 196.363 C 1004.92 202.563 1003.55 211.819 1002.37 218.449 C 988.039 299.207 974.54 380.11 961.874 461.145 C 956.258 496.592 951.397 531.819 945.106 567.153 L 915.7 731.748 C 907.182 777.236 891.511 840.641 893.176 885.091 z M 1165.14 1152.96 C 1196.08 1152.62 1256.94 1141.93 1289.27 1136.85 C 1364.89 1125.34 1440.32 1112.69 1515.54 1098.88 C 1594.07 1084.83 1673.03 1072.99 1751.21 1056.62 C 1758.87 1055.02 1766.93 1053.79 1774.48 1051.91 L 1778.89 1051.17 C 1786.06 1050.71 1793.98 1048.78 1801.17 1047.76 C 1838.52 1042.43 1875.34 1034.4 1912.39 1027.68 C 1909.56 1026.6 1909.2 1026.19 1906.78 1024.47 L 1906.99 1022.61 C 1906.14 1022.31 1903.16 1022.06 1902.08 1021.95 C 1899.36 1021.42 1896.68 1021.27 1893.92 1021.02 L 1886.04 1020.9 C 1873.89 1018.54 1835.3 1018 1822.68 1017.97 C 1817.47 1017.88 1811.76 1018.15 1806.5 1018.28 C 1788.78 1017.99 1769.68 1017.71 1751.98 1018.83 C 1610.01 1019.3 1468.05 1020.68 1326.1 1022.99 C 1289.3 1023.76 1249.1 1022.76 1212.91 1024.26 C 1213.4 1063.21 1207.83 1091.33 1185.76 1124.71 C 1180.39 1132.82 1169.39 1145.83 1165.14 1152.96 z M 832.735 1013.83 C 840.266 958.735 854.33 933.138 888.255 890.967 C 863.304 891.672 830.922 897.503 806.494 901.791 L 700.542 920.723 L 284.202 992.857 C 278.485 993.673 272.787 994.617 267.113 995.689 L 257.317 997.459 C 230.649 1001.8 204.088 1006.77 177.653 1012.35 C 162.516 1015.33 142.495 1018.84 127.862 1023.39 C 147.544 1025.79 167.093 1026.78 186.895 1027.58 C 214.259 1028.82 251.108 1031.38 278.1 1030.79 C 282.059 1030.93 286.12 1031.17 290.062 1030.93 C 373.944 1032.22 457.846 1031.26 541.678 1028.05 C 553.374 1027.65 565.168 1027.18 576.849 1026.47 C 661.87 1021.28 747.888 1021.35 832.735 1013.83 z M 1042.12 963.971 C 1061.45 954.295 1093.56 928.694 1109.22 927.156 L 1111.25 927.99 C 1110.38 934.896 1068.94 996.207 1062.07 1006.81 C 1076.46 1009.32 1141.47 1018.89 1149.4 1024.26 L 1150.06 1026.23 C 1144.73 1034.8 1086.03 1050.25 1073.36 1053.54 C 1085.2 1069.83 1096.94 1086.21 1108.56 1102.66 C 1110.84 1105.91 1119.56 1117.79 1121.14 1120.61 C 1144.43 1096.42 1157.08 1069.39 1160.78 1036.08 C 1164.41 1000.81 1153.96 965.526 1131.7 937.922 C 1088.78 885.329 1016.19 873.761 956.974 905.166 C 947.001 910.456 937.93 917.919 929.284 925.129 L 930.511 925.851 C 944.978 934.477 992.771 974.856 1001.52 978.286 L 1003.38 977.789 C 1009.24 963.609 1005.55 902.573 1015.71 896.039 C 1028.33 898.445 1039.2 951.454 1042.12 963.971 z M 1118.94 1122.55 C 1106.08 1110.15 1089.85 1098.91 1075.92 1087.82 C 1070.67 1083.63 1059.12 1075.4 1055.28 1070.46 C 1049.35 1079.86 1036.83 1158.59 1023.33 1154.6 C 1018.44 1147.93 1012.91 1091.57 1010.22 1077.42 C 991.52 1086.09 973.328 1098.48 955.781 1109.25 C 950.955 1112.21 936.091 1124.11 931.715 1123.55 C 931.616 1121.11 968.51 1059.32 973.661 1047.22 L 974.19 1045.96 C 961.96 1041.75 894.045 1027.5 892.981 1017.72 C 898.698 1008.86 957.923 997.493 973.007 992.355 L 974.396 991.875 C 965.69 977.469 946.953 954.617 936.435 939.104 C 935.823 938.484 928.537 929.027 927.012 927.256 C 898.123 960.599 884.336 989.267 886.952 1034.49 C 891.228 1108.36 958.679 1167.68 1032.5 1160.92 C 1069.47 1157.54 1091.04 1146.25 1118.94 1122.55 z M 1137.34 894.049 C 1126.86 883.622 1105.35 871.895 1091.69 866.391 L 1078.19 861.202 C 1054.88 853.813 1020.97 848.728 997.115 855.357 C 972.695 859.463 949.355 868.459 928.497 881.807 C 924.223 884.516 915.034 889.513 914.751 894.949 C 919.373 896.355 923.473 897.429 927.851 899.502 C 950.373 884.561 971.504 872.58 998.683 867.371 C 999.374 867.411 1012.41 866.429 1013.69 866.351 C 1025.52 865.618 1033.62 865.859 1045.3 867.263 L 1056.15 868.781 L 1060.11 869.481 C 1066.81 871.194 1073.37 872.665 1079.77 875.276 C 1101.33 884.287 1114.64 892.525 1132.84 907.705 C 1159.63 929.594 1178.08 972.693 1181.91 1006.26 C 1191.66 1091.65 1127.89 1173.18 1042 1182.35 C 1005.47 1186.58 968.624 1177.7 938.025 1157.3 C 933.879 1154.5 915.369 1137.83 909.814 1137.26 C 908.952 1137.17 903.367 1140.76 902.32 1142.14 C 911.309 1155.09 936.579 1173.7 951.232 1180.17 C 993.376 1198.77 1037.85 1202.04 1081.63 1186.87 C 1095.53 1182.05 1132.46 1162.27 1138.34 1149.68 C 1137.87 1146.65 1137.13 1144.45 1138.32 1141.71 C 1144.81 1135.83 1146.92 1142.52 1154.99 1133.17 C 1216 1062.5 1205.3 955.785 1137.34 894.049 z M 844.2 834.861 C 855.132 844.111 864.343 854.683 875.2 863.372 C 874.552 849.896 871.064 832.454 868.682 818.944 L 855.909 745.661 C 854.331 736.704 850.598 719.606 849.676 711.34 C 839.315 705.561 830.439 700.439 819.4 695.911 C 826.812 741.224 836.276 789.158 844.2 834.861 z M 1192.89 859.596 L 1192.18 860.467 C 1187.02 866.658 1175.3 875.489 1174.5 881.241 L 1175.11 882.654 C 1205.71 884.133 1231.23 878.931 1260.98 874.106 L 1323.32 864.461 C 1326.18 859.909 1340.17 838.002 1341.05 834.375 C 1308.99 841.311 1276.47 846.863 1244.04 851.798 C 1228.16 854.214 1208.63 857.951 1192.89 859.596 z M 719.718 1185.13 C 714.216 1194.63 707.126 1206.18 702.466 1215.91 C 707.529 1215.44 713.59 1215.02 718.553 1214.38 C 756.182 1210.12 793.926 1206.95 831.738 1204.87 C 841.229 1195.89 851.139 1186.78 860.168 1177.37 L 847.376 1177.42 C 806.094 1179.38 759.965 1184.17 719.718 1185.13 z M 1200.49 1333.8 C 1206.4 1337.32 1220.83 1346.73 1226.86 1346.44 C 1225.79 1335.77 1218.57 1308.7 1215.89 1297.21 L 1191.93 1195.19 C 1185.94 1189.94 1174.95 1180.9 1169.75 1175.49 C 1170.03 1196.87 1175.7 1219.91 1180.12 1240.99 C 1186.63 1271.99 1193.42 1302.93 1200.49 1333.8 z M 1211.23 845.617 C 1257.36 839.209 1302.57 829.908 1348.04 822.488 C 1351.64 817.5 1365.09 799.55 1365.68 794.161 L 1362.7 794.328 C 1333.64 798.944 1304.67 804.053 1275.78 809.652 C 1264.29 811.851 1249.21 814.203 1238.34 818.1 C 1234.3 819.55 1208.7 843.03 1207.7 845.9 C 1209.47 845.915 1209.61 846.105 1211.23 845.617 z M 799.539 790.653 C 805.142 795.899 824.488 817.326 829.223 818.692 C 829.504 805.588 822.821 773.47 820.279 759.268 C 816.112 735.984 812.299 711.485 807.714 688.358 C 798.204 682.784 787.179 675.975 777.516 670.903 C 784.741 709.552 791.573 752.85 799.539 790.653 z M 1244.11 1360.01 C 1251.56 1364.77 1260.91 1370.98 1269.45 1373.41 C 1268.56 1364.82 1265.87 1355.97 1263.76 1347.58 C 1254.88 1312.35 1244.89 1276.86 1238.08 1241.21 C 1232.4 1235.09 1215.56 1216.34 1208.64 1214.36 C 1210.66 1231.14 1220.24 1265.85 1224.17 1283.65 C 1228.4 1302.77 1237.02 1343.05 1244.11 1360.01 z M 694.829 1228.17 C 691.963 1232.93 679.693 1252.66 678.572 1256.81 C 681.112 1256.86 681.401 1256.99 683.865 1256.58 L 790.493 1247.07 C 794.614 1243.3 816.262 1221.83 817.439 1218.34 L 810.041 1218.53 C 774.087 1221.15 729.318 1227.34 694.829 1228.17 z M 1287.04 769.332 C 1280.58 775.004 1259.35 792.76 1257.15 799.292 L 1257.53 800.884 C 1275.55 799.389 1301.47 793.318 1320 789.835 C 1336.08 786.811 1360.32 783.671 1375.31 779.753 C 1378.77 774.327 1394.08 751.36 1394.58 746.412 C 1370.82 751.381 1347.2 757.284 1323.48 762.352 C 1312.97 764.598 1297.64 768.324 1287.04 769.332 z M 860.5 1163.49 L 875.866 1162.2 C 878.945 1159.26 882.148 1156.33 884.974 1153.16 C 867.083 1149.51 850.011 1149.07 832.106 1147.13 C 804.558 1144.16 775.135 1142.16 747.771 1138.54 C 741.706 1148.64 734.421 1160.46 729.339 1171 C 772.907 1169.99 816.997 1165.95 860.5 1163.49 z M 893.448 1125.99 C 896.81 1126.65 896.35 1126.96 899.443 1126.22 C 900.129 1124.72 900.774 1123.68 899.522 1121.93 C 855.385 1060.39 854.164 983.526 902.286 923.614 C 904.904 920.354 905.066 907.074 903.503 903.668 C 845.765 955.936 835.26 1059 884.359 1120.72 C 885.384 1122.01 890.672 1123.7 893.448 1125.99 z M 665.15 1299.82 C 692.544 1296.71 720.016 1294.34 747.538 1292.72 C 755.741 1284.31 768.709 1270.81 775.99 1261.86 C 772.399 1261.94 765.492 1261.87 762.23 1262.41 C 731.889 1265.03 700.629 1267.34 670.402 1270.43 C 665.175 1278.89 656.366 1294.16 650.829 1301.76 C 655.598 1301.08 660.372 1300.44 665.15 1299.82 z M 753.447 746.977 C 760.696 752.768 778.197 771.933 783.762 772.611 C 784.911 763.015 768.794 675.744 765.942 663.498 C 756.903 658.511 744.868 651.242 736.163 645.483 C 742.094 677.705 746.997 716.334 753.447 746.977 z M 1307.45 1399.16 C 1308.62 1397.79 1309.39 1397.36 1308.89 1395.18 C 1300.45 1358.27 1292.15 1320.76 1281.42 1284.46 C 1280.3 1280.68 1261.24 1262.98 1256.83 1261.7 L 1254.77 1263.42 C 1254.72 1270.75 1260.65 1289.93 1262.57 1298.21 C 1268.82 1325.17 1279.19 1357 1283.51 1384.06 C 1291.15 1389.43 1299.14 1394.85 1307.45 1399.16 z M 1336.84 719.763 C 1331.55 724.77 1308.77 745.495 1306.43 751.088 C 1307.56 752.503 1306.95 752.123 1307.94 752.599 C 1337.09 748.195 1376.17 738.713 1405.26 732.209 C 1411.31 722.875 1421.3 709.155 1426.52 700.378 L 1425.3 700.369 C 1396.49 704.956 1362.36 716.237 1336.84 719.763 z M 737.962 728.571 C 738.328 716.076 727.456 650.314 723.715 637.75 C 713.946 631.463 702.943 624.298 692.521 619.314 C 695.817 642.754 699.967 672.236 705.849 695.075 C 707.989 703.382 729.705 725.728 737.962 728.571 z M 1324.99 1411.54 C 1333.7 1416.14 1342.42 1420.86 1351.32 1425.09 C 1345.38 1396.3 1335.23 1352.87 1327.07 1325.13 C 1317.67 1319.4 1307.64 1304.76 1299.95 1301.93 C 1298.13 1314.92 1321.36 1391.93 1324.99 1411.54 z M 643.527 1314.37 C 640.269 1319.37 625.184 1341.31 625.759 1345.93 C 648.023 1343.66 681.895 1338.26 703.007 1338.09 C 708.431 1332.38 728.045 1312.45 731.646 1307.25 L 731.452 1306.57 C 714.111 1307.31 695.705 1309.63 678.333 1311.29 C 667.03 1312.36 654.575 1312.99 643.527 1314.37 z M 738.676 876.321 C 742.884 882.779 747.131 893.345 753.445 895.639 L 758.5 894.866 C 792.81 887.59 827.865 882.692 860.967 875.596 C 854.339 868.134 849.119 862.47 841.868 855.47 C 808.061 862.984 772.92 868.718 738.676 876.321 z M 1171 854.547 C 1174.61 851.188 1188.48 839.168 1189.39 834.928 C 1197.7 796.326 1199.28 752.983 1204.24 713.472 C 1204.24 712.835 1204.24 712.198 1204.24 711.561 L 1203.71 711.208 C 1197.44 714.743 1190.5 718.479 1184.41 722.205 C 1183.57 734.371 1171.48 856.246 1170.74 854.391 L 1171 854.547 z M 855.244 1323.78 C 861.843 1320.53 866.734 1317.79 873.067 1314.02 C 872.376 1287 871.499 1259.99 870.435 1232.98 C 870.186 1224.59 870.257 1200.44 868.833 1192.92 L 849.789 1211.63 C 851.537 1235.87 851.732 1259.94 852.658 1284.16 C 853.059 1294.63 853.008 1314.2 855.244 1323.78 z M 717.965 843.732 C 721.119 848.31 729.276 860.801 733.099 863.991 L 735.328 863.849 C 753.434 859.684 771.587 855.72 789.781 851.958 C 800.924 849.681 818.336 846.709 828.86 843.694 C 825.792 839.838 814.75 825.7 811.114 824.351 C 779.981 830.403 748.928 836.865 717.965 843.732 z M 1386.36 667.036 C 1381.45 672.306 1354.93 698.752 1354.63 702.73 L 1356.09 703.286 C 1381.97 698.076 1407.84 691.884 1434.08 686.549 C 1441.85 674.838 1448.94 664.29 1457.16 652.893 L 1456.37 652.275 C 1432.56 658.06 1410.76 663.69 1386.36 667.036 z M 1216.8 701.674 C 1213.55 726.687 1212.12 753.004 1208.95 778.276 C 1208.17 784.478 1204.03 819.289 1204.27 823.132 C 1210.84 816.687 1217.83 809.535 1224.5 803.298 C 1225.73 784.857 1238.19 703.466 1235.8 691.142 C 1229.57 694.592 1222.93 698.122 1216.8 701.674 z M 655.974 647.658 C 661.552 653.624 682.546 677.217 688.913 679.465 C 692.004 669.325 681.809 622.866 679.614 608.81 C 671.439 603.652 654.221 591.521 646.011 590.358 C 646.192 602.171 653.303 634.412 655.974 647.658 z M 1279.47 664.466 C 1278.02 682.781 1273.22 733.048 1271.24 754.087 C 1271.22 754.289 1272.45 756.088 1272.63 756.377 C 1280.42 750.748 1288.15 742.104 1294.78 734.951 C 1297.8 715.444 1303.57 669.858 1304.34 649.653 L 1303.87 649.206 L 1279.47 664.466 z M 696.442 809.704 C 701.819 817.182 705.709 824.192 710.583 831.817 L 720.757 829.695 C 744.063 824.077 775.981 818.521 797.533 812.312 C 790.887 804.361 785.089 793.858 773.984 795.369 C 758.818 796.82 712.267 805.639 696.442 809.704 z M 880.932 1179.45 C 881.073 1208.67 884.759 1238.68 885.188 1267.99 C 885.351 1279.12 886.943 1290.62 886.907 1301.69 L 888.039 1303.66 L 890.488 1303.36 C 915.199 1290.28 897.291 1229.41 897.269 1205.41 C 897.263 1198.04 895.295 1176.2 893.615 1169.17 L 880.932 1179.45 z M 610.239 1390.85 C 625.073 1389.53 639.899 1388.12 654.716 1386.62 C 664.939 1375.65 677.313 1364.08 686.811 1353 C 683.497 1353.05 677.122 1352.95 674.104 1353.41 C 655.096 1355.26 634.246 1357.98 615.44 1359.41 C 609.221 1370.08 602.149 1381.57 596.26 1392.29 L 610.239 1390.85 z M 1296.2 908.171 C 1300.85 901.292 1305.3 894.278 1309.55 887.138 C 1311.41 884.187 1313.37 880.449 1315.11 877.351 C 1275.03 882.133 1234.97 892.505 1194.45 891.773 C 1191.19 891.714 1190.98 891.878 1188.99 894.016 C 1189.19 894.275 1191.37 896.347 1191.46 896.366 C 1215.88 901.939 1274.42 906.818 1296.2 908.171 z M 1387.67 1293.82 C 1384.77 1288.71 1382.3 1283.79 1378.49 1279.34 L 1377.21 1279.25 C 1357.86 1283.44 1333.72 1289.46 1314.65 1292.89 C 1319.15 1297.47 1324.51 1303.18 1329.24 1307.36 C 1332.55 1308.3 1380.81 1295.9 1387.67 1293.82 z M 1382.97 1357.69 C 1397.18 1355.27 1412.6 1352.31 1426.76 1350.28 C 1424.82 1346.96 1417.98 1334.27 1415.23 1333.3 C 1400.72 1336.41 1383.8 1339.63 1369.89 1344.36 C 1374.19 1348.86 1378.55 1353.31 1382.97 1357.69 z M 1011.9 995.861 C 1005.2 988.287 987.65 973.71 978.421 970.002 C 976.918 974.456 977.968 982.758 977.486 988.69 L 978.488 990.357 C 984.038 996.802 989.704 1003.15 995.482 1009.39 C 999.483 1014.78 1001.95 1015.72 998.522 1021.85 C 989.258 1032.95 969.758 1064.7 963.218 1077.96 C 963.396 1084.42 961.77 1086.24 968.64 1087.6 C 986.198 1070.29 998.143 1055.77 1012.71 1036.16 C 1016.95 1033.04 1015.18 1033.38 1019.58 1033.81 C 1023 1036.12 1027.39 1040.99 1030.31 1041.9 C 1038.28 1049.22 1046.37 1056.41 1054.55 1063.48 C 1059.9 1056.71 1061.56 1057.87 1069.79 1058.95 L 1067.14 1054.54 C 1060.95 1045.86 1049.82 1033.66 1042.34 1026.11 C 1037.63 1018.89 1018.9 1001.21 1011.9 995.861 z M 677.955 1433.83 C 683.261 1430.64 688.228 1427.71 693.312 1424.16 C 692.874 1415.15 692.384 1379.53 690.495 1373.72 C 685.809 1377.35 681.013 1380.96 676.489 1384.77 C 676.481 1391.73 675.78 1430.77 677.955 1433.83 z M 549.152 585.64 L 560.775 583.008 L 565.277 582.006 C 565.327 579.169 542.801 554.696 537.762 554.654 L 532.663 556.641 C 532.009 560.594 546.129 581.1 549.152 585.64 z M 577.879 540.256 C 569.416 535.067 554.789 526.469 545.706 522.532 C 549.629 540.543 556.2 548.33 569.467 560.936 C 572.344 563.67 577.05 568.724 580.546 570.233 L 581.478 568.66 C 586.644 560.191 580.926 549.144 577.879 540.256 z M 1408.34 1383.91 C 1410.06 1384.38 1439.42 1377.58 1443.09 1376.41 C 1441.28 1373.29 1435.15 1362.4 1432.73 1360.38 C 1419.75 1363.04 1406.75 1365.6 1393.73 1368.05 C 1398.47 1373.29 1403.4 1378.9 1408.34 1383.91 z M 649.027 1452.05 C 654.683 1449.14 658.735 1446.88 664.126 1443.51 C 664.131 1437.63 664.927 1402.32 662.805 1399.89 C 656.102 1406.25 652.813 1409.41 647.115 1416.6 C 647.445 1423.28 647.997 1447.03 649.027 1452.05 z M 1379.68 646.787 C 1387.46 641.61 1390.71 638.87 1397.63 632.549 C 1399.91 625.57 1403.45 594.925 1402.65 587.954 C 1396.8 591.385 1390.74 594.824 1385.09 598.528 C 1383.95 606.387 1378.81 640.94 1379.68 646.787 z M 761.815 1300.82 C 761.285 1321.72 763.013 1342.89 762.98 1363.82 C 762.972 1369.29 763.307 1374.65 763.938 1380.08 L 765.137 1380.8 L 766.235 1380.15 C 771.896 1376.64 777.553 1373.2 783.06 1369.45 C 782.025 1342.78 781.05 1316.03 780.453 1289.34 C 780.401 1287.03 780.006 1286.56 778.66 1284.88 L 777.945 1284.59 C 772.197 1289.2 766.78 1295.28 761.815 1300.82 z M 597.463 655.528 C 601.383 655.316 606.437 655.198 610.242 654.799 C 618.917 653.748 627.585 652.632 636.243 651.452 C 631.188 645.775 617.226 631.883 611.333 627.308 L 608.186 627.285 C 599.195 628.616 590.251 630.25 581.37 632.185 C 586.219 639.109 593.222 648.492 597.463 655.528 z M 1449.06 1485.11 C 1448.93 1474.39 1444.58 1452.44 1442.6 1441.08 C 1439.09 1437.22 1436.52 1433.78 1431.94 1431.38 L 1427.88 1431.21 C 1428.16 1445.51 1433.55 1466.44 1437.62 1480.31 C 1441.34 1481.96 1445.22 1483.81 1449.06 1485.11 z M 1240.47 789.31 C 1244.33 785.204 1253.37 774.55 1256.68 771.606 C 1259.52 754.308 1260.8 733.752 1262.96 716.1 C 1263.88 708.597 1267.42 680.984 1266.86 674.954 C 1265.65 673.815 1266.25 673.981 1265.35 673.846 C 1260.14 676.526 1254.46 679.606 1249.23 682.113 C 1247.84 694.236 1237.31 785.673 1239.81 789.518 L 1240.47 789.31 z M 503.293 1532.88 C 509.05 1528.57 512.479 1525.94 517.659 1520.99 C 529.893 1511.4 547.87 1494.62 558.1 1482.89 C 550.804 1482.95 543.222 1482.89 535.963 1483.38 C 525.887 1498.78 511.616 1517.38 503.293 1532.88 z M 571.533 1468.54 C 575.749 1465.1 595.534 1447.9 596.158 1443.43 C 594.042 1443.41 591.779 1443.33 589.682 1443.44 C 578.899 1444.22 570.201 1445.2 559.531 1446.64 C 555.5 1452.99 548.324 1463.6 545.427 1470.12 L 546.002 1471.04 C 548.649 1471.15 551.178 1471.3 553.83 1471.25 C 559.613 1470.45 565.852 1469.72 571.533 1468.54 z M 736.181 750.585 L 715.013 730.527 C 695.53 733.349 670.97 736.774 651.768 740.598 C 656.084 747.258 662.711 760.667 668.975 763.788 C 671.126 763.573 672.678 763.427 674.795 763.01 L 736.181 750.585 z M 558.215 596.398 C 563.244 605.687 567.603 612.185 573.463 620.881 L 580.143 619.416 L 600.431 615.611 C 597.325 612.168 582.793 595.725 579.447 594.165 L 577.686 594.428 L 558.215 596.398 z M 807.425 1254.69 C 801.467 1259.88 798.28 1263.58 793.041 1269.56 C 793.136 1289.65 793.623 1309.74 794.5 1329.81 C 794.804 1338.14 794.996 1353.78 796.419 1361.33 C 801.368 1358.39 806.555 1355.42 811.386 1352.33 C 811.099 1339.67 810.272 1263.4 807.425 1254.69 z M 619.515 1472.23 L 636.785 1461.52 C 636.565 1453.97 637.284 1434.36 632.587 1429.69 C 622.885 1437.91 617.374 1447.02 616.3 1459.93 C 616.028 1463.2 615.624 1469.53 616.812 1472.44 C 618.159 1472.46 618.317 1472.63 619.515 1472.23 z M 605.757 668.798 C 609.583 675.07 617.207 690.109 623.892 692.13 L 629.764 691.209 C 642.551 689.505 655.328 687.725 668.095 685.869 C 665.373 682.631 649.603 663.72 646.513 663.432 C 632.909 665.083 619.323 666.871 605.757 668.798 z M 1154.17 739.88 C 1153.28 758.713 1144.9 864.199 1148.71 873.408 L 1157.25 865.372 C 1159.18 852.7 1173.15 735.15 1171.19 732.253 C 1166.04 734.581 1159.29 737.881 1154.17 739.88 z M 1460.57 1492.52 C 1465.64 1497.9 1471.06 1500.98 1477.52 1504.52 C 1475.8 1494.02 1474.13 1483.5 1472.51 1472.98 C 1465.98 1465.57 1462.95 1462.41 1455.79 1455.95 C 1455.37 1466.09 1458.47 1482.39 1460.57 1492.52 z M 748.203 763.465 C 724.155 766.931 699.134 773.474 675.375 776.353 C 677.871 780.493 686.226 796.022 690.471 796.699 C 691.298 796.636 692.125 796.573 692.953 796.51 C 716.242 791.968 743.171 785.913 766.192 782.247 C 763.098 778.544 751.882 764.873 748.203 763.465 z M 1432.73 568.976 C 1427.68 572.315 1422.35 575.703 1417.5 579.293 C 1416.48 586.852 1413.18 607.778 1414.54 614.152 C 1420.61 610.265 1425.36 605.417 1430.28 600.159 C 1431.21 593.315 1433.04 576.052 1432.73 568.976 z M 1469.01 545.039 L 1468.89 560.031 C 1473.89 556.118 1483.68 548.268 1486.28 542.52 L 1484.16 536.027 C 1479.44 538.782 1473.44 542.085 1469.01 545.039 z M 1463.8 1413.23 L 1441.46 1417.88 C 1445.06 1421.72 1449.75 1426.45 1453.01 1430.45 C 1459.82 1429.68 1468.07 1428.95 1474.7 1427.79 C 1472.07 1422.68 1469.98 1417.91 1466.25 1413.57 L 1463.8 1413.23 z M 826.499 1342.73 C 830.848 1339.79 837.605 1334.97 841.947 1332.57 C 841.329 1319.57 839.14 1228.73 836.724 1224.98 C 831.63 1230 826.645 1234.87 821.748 1240.08 C 822.887 1262.63 823.611 1285.2 823.919 1307.77 C 824.148 1318.59 823.964 1331.81 824.956 1342.4 L 826.499 1342.73 z M 1325.79 1196.51 C 1295.88 1201.93 1266.09 1207.98 1236.43 1214.65 C 1241.99 1220.75 1246.37 1225.17 1252.41 1230.81 C 1255.02 1231.76 1272.73 1226.74 1277.33 1225.71 C 1297.27 1221.45 1317.27 1217.42 1337.3 1213.63 C 1336.26 1212.1 1326.08 1196.8 1325.79 1196.51 z M 574.25 1502.81 C 574.162 1498.11 573.481 1494.44 572.77 1489.82 C 561.545 1501.02 549.439 1514.02 538.052 1524.62 L 539.284 1527.61 C 549.507 1518.95 562.942 1512.88 574.25 1502.81 z M 1475.01 1450.75 L 1488.74 1447.78 C 1486.87 1445.07 1484.13 1440.32 1481.46 1438.85 L 1478.74 1439.18 L 1464.62 1442.19 C 1467.06 1444.75 1471.67 1451.15 1475.01 1450.75 z M 1449.95 1386.56 C 1439.28 1389.09 1428.57 1391.46 1417.82 1393.67 C 1421.57 1398.11 1425.55 1403 1429.4 1407.3 C 1439.08 1405.61 1448.75 1403.8 1458.39 1401.87 C 1456.8 1398.34 1452.53 1389.22 1449.95 1386.56 z M 1527.33 544.606 C 1531.22 539.824 1551.03 513.39 1550.87 508.969 C 1544.01 513.728 1509.28 539.752 1512.25 546.784 C 1519.08 546.469 1520.74 546.175 1527.33 544.606 z M 1493.78 1459.37 L 1482.18 1460.86 L 1493.29 1472.19 C 1496.65 1471.42 1500.02 1470.7 1503.4 1470.02 C 1501.2 1466.29 1499.14 1462.07 1495.98 1459.23 L 1493.78 1459.37 z M 1500.93 1481.82 C 1504.99 1486.46 1509.17 1491.01 1513.45 1495.45 L 1520.74 1494.33 C 1517.4 1488.03 1515.97 1486.32 1511.53 1480.84 C 1508.09 1481.14 1504.33 1481.39 1500.93 1481.82 z M 1523.72 1534.88 C 1525.55 1533.91 1525.96 1533.44 1527.61 1532.14 C 1524.31 1528.23 1521.8 1524.36 1517.21 1522.5 L 1515.23 1522.82 C 1515.07 1528.41 1519.85 1531.44 1523.72 1534.88 z M 534.036 524.869 L 529.755 511.598 C 524.993 507.641 522.58 506.227 517.384 503.148 L 515.994 506.804 C 522.101 512.381 528.227 518.911 534.036 524.869 z M 1318.69 1185.86 C 1314.85 1178.95 1313.12 1175.86 1308.26 1169.71 L 1307.21 1169.41 C 1274.52 1175.18 1241.89 1181.32 1209.33 1187.83 C 1214.29 1193.29 1219.33 1199.05 1224.7 1204.09 C 1256.15 1198.64 1287.49 1192.56 1318.69 1185.86 z M 1457.63 573.057 C 1457.91 567.433 1458.57 560.173 1457.85 554.735 L 1457.17 554.056 C 1452.97 556.522 1448.66 558.982 1444.56 561.588 C 1444.03 567.727 1442.07 579.653 1444.77 584.586 C 1450.09 580.559 1452.89 577.734 1457.63 573.057 z M 700.618 718.666 C 695.279 711.006 689.743 703.581 682.772 697.32 C 682.079 697.314 681.385 697.308 680.692 697.302 C 663.47 700.575 646.299 701.81 629.006 704.403 C 632.316 709.6 641.485 726.49 646.32 728.277 L 650.468 727.307 C 664.941 725.234 686.759 722.607 700.618 718.666 z M 1300.97 1158.65 C 1299.69 1155.39 1298.22 1150.54 1295.9 1148.17 L 1292.64 1148.3 C 1258.92 1153.74 1217.76 1158.99 1185.03 1165.84 C 1188.75 1168.94 1194.82 1174.27 1198.56 1176.8 C 1226 1174.13 1271.38 1163.18 1300.97 1158.65 z M 882.796 827.453 L 885.3 814.694 C 888.923 792.962 895.208 761.21 897.294 739.956 C 885.814 732.706 874.422 726.455 862.545 719.906 C 863.581 732.46 868.831 757.434 871.342 770.676 C 873.853 783.916 878.845 815.247 882.796 827.453 z M 1354.79 1240.14 C 1352.98 1237.45 1345.59 1226.12 1343.88 1224.45 C 1317.7 1229.5 1289.72 1234.62 1264.18 1241.82 L 1278.38 1255.76 C 1289.04 1255.64 1343.38 1242.88 1354.79 1240.14 z M 1370.52 1267.91 C 1368.99 1265.15 1362.3 1252.04 1360.19 1251.35 C 1336.29 1256.39 1312.33 1261.14 1288.31 1265.59 C 1293.02 1270.68 1298.35 1276.73 1303.21 1281.55 C 1304.12 1282.01 1305.04 1282.47 1305.96 1282.94 C 1327.52 1278.93 1349.09 1272.74 1370.52 1267.91 z M 1485.64 1491.02 C 1487.03 1509.19 1487.12 1511.78 1502.73 1521.49 C 1501.06 1510.92 1499.16 1492.01 1485.64 1491.02 z M 512.759 528.798 C 514.122 534.406 519.549 540.846 523.7 544.714 L 525.824 545.182 L 527.015 544.273 C 527.311 541.745 527.935 541.426 525.762 539.314 C 522.557 536.199 517.064 529.458 512.759 528.798 z M 602.899 1460.97 C 595.476 1465.96 589.398 1471.18 585.093 1479.16 C 585.022 1483.85 584.595 1490.12 585.628 1494.53 L 586.535 1494.5 C 592.845 1490 598.567 1485.94 605.129 1481.84 C 605.02 1476.85 605.448 1464.43 602.899 1460.97 z M 1496.33 591.775 C 1501.35 584.789 1514.17 566.31 1517.55 558.931 L 1517.02 558.052 C 1515.42 558.091 1513.62 558.045 1512.05 558.304 L 1493.94 561.561 C 1483.53 569.735 1470.47 584.207 1462.93 595.002 L 1463.05 596.523 L 1469.62 595.708 C 1478.8 594.118 1487.02 592.634 1496.33 591.775 z M 1177.96 1321.56 C 1181.14 1322.92 1182.52 1324.31 1184.93 1323.45 C 1185.41 1316.09 1164.13 1223.4 1161.92 1221.47 C 1156.02 1236.71 1147.05 1287.23 1154.88 1302.48 C 1159.68 1311.84 1169.26 1316.46 1177.96 1321.56 z M 620.856 1402.41 C 609.854 1403.53 597.795 1404.5 586.991 1406.45 C 578.65 1416.63 574.242 1422.68 568.33 1434.33 C 573.953 1433.97 579.568 1433.5 585.173 1432.92 C 593.622 1432.14 602.348 1431.19 610.802 1430.85 C 618.509 1423.02 631.96 1410.02 638.149 1401.87 C 633.355 1401.9 625.337 1401.73 620.856 1402.41 z M 1421.96 1467.45 C 1423.12 1462.19 1413.78 1421.18 1412.44 1410.8 C 1406.4 1403.83 1397.77 1391.14 1388.38 1390.87 C 1390.21 1404.4 1399.78 1446.99 1403.98 1459.34 C 1408.99 1462.74 1413.64 1466.36 1419.28 1468.41 C 1419.98 1468.18 1421.39 1467.78 1421.96 1467.45 z M 717.869 1347.04 L 702.899 1360.88 C 703.457 1378.64 703.714 1397.86 705.083 1415.46 L 706.473 1415.61 C 711.911 1412.52 717.33 1409.39 722.728 1406.23 C 721.805 1398.16 719.635 1349.57 717.869 1347.04 z M 1394.38 1306.3 C 1375.28 1309.46 1359.4 1313.32 1340.76 1318.42 C 1345.71 1323.24 1351.11 1328.71 1356.24 1333.24 C 1373.47 1329.65 1390.79 1326.89 1408.05 1323.24 C 1404.4 1317.65 1400.52 1311.35 1396.29 1306.29 L 1394.38 1306.3 z M 731.005 1331.55 C 731.325 1342.36 731.938 1392.04 734.563 1398.17 C 740.839 1394.82 745.956 1391.84 752.015 1388.11 C 751.595 1377.36 750.5 1322.56 748.621 1315.14 C 741.999 1320.81 737.178 1325.37 731.005 1331.55 z M 1364.87 662.379 C 1366.06 652.391 1370.18 616.785 1369.79 608.102 C 1362.74 612.591 1356.08 617.273 1349.17 621.723 C 1348.62 634.364 1341.81 674.486 1344.08 683.029 C 1351.08 678.614 1359.48 668.851 1364.87 662.379 z M 1406.29 652.558 C 1427.47 647.778 1443.69 642.735 1465.64 638.573 C 1469.1 633.425 1486.28 608.758 1487.05 604.334 L 1484.84 604.39 C 1454.51 608.899 1442.75 609.565 1421.47 633.387 C 1416.33 639.137 1409.27 645.123 1404.31 651.694 L 1404.87 652.67 L 1406.29 652.558 z M 1335.74 631.036 L 1317.33 640.76 C 1315.5 661.241 1310.74 693.179 1309.33 714.948 C 1309.74 715.608 1310.16 716.268 1310.57 716.929 C 1317.54 711.581 1322.96 706.589 1329.41 700.682 C 1330.87 683.255 1333.69 650.61 1336.56 632.085 C 1336.29 631.735 1336.02 631.385 1335.74 631.036 z M 591.613 554.572 C 598.638 584.024 598.444 591.087 620.783 613.045 C 626.289 618.457 631.02 624.789 638.101 629.643 C 639.554 629.734 640.315 629.894 641.736 629.687 C 642.379 621.609 635.84 588.563 633.524 579.927 C 624.177 573.454 601.006 555.882 591.613 554.572 z M 1343.98 1344.66 C 1344.87 1352.03 1346.5 1359.55 1348.43 1366.72 C 1354.36 1388.7 1358.56 1411.71 1364.77 1433.57 C 1373.18 1440.39 1379.18 1444.47 1389 1449.32 C 1386.42 1429.09 1377.09 1390.53 1371.66 1369.93 C 1365.53 1363.52 1351.39 1347.58 1343.98 1344.66 z" fill="rgb(10,53,22)" transform="translate(0,0)"></path>
<path d="M 1954.96 1033.68 C 1960.82 1040.51 1975.8 1029.04 1983.01 1033.91 C 1981 1035.4 1957.54 1039.65 1954.48 1039.8 C 1953.34 1039.02 1947.96 1037.12 1945.75 1036.08 L 1954.96 1033.68 z" fill="rgb(251,248,233)" fill-opacity="0.870588" transform="translate(0,0)"></path>
<path d="M 229.123 976.818 L 228.698 979.587 C 225.196 979.703 225.422 979.777 222.294 981.46 L 221.538 982.998 C 224.694 987.371 226.675 987.302 231.873 987.275 C 230.605 988.253 231.373 987.886 229.475 988.154 L 229.236 989.561 C 207.681 993.67 186.101 997.647 164.497 1001.49 C 150.257 1004.1 135.268 1007.35 121.02 1009.12 L 121.485 1007.3 C 126.651 1002.29 129.532 1002.1 136.749 1000.44 C 141.652 1000.2 153.558 999.98 156.605 995.874 C 151.821 994.803 149.445 995.229 144.645 995.554 C 141.989 995.409 140.337 994.515 137.884 993.512 C 149.273 990.993 160.733 988.808 172.249 986.958 C 171.009 988.844 168.857 991.337 167.389 993.163 C 171.651 994.707 194.668 991.913 198.581 987.616 C 193.578 985.832 186.5 987.669 179.612 985.436 C 196.015 982.524 212.44 978.296 229.123 976.818 z" fill="rgb(247,242,227)" transform="translate(0,0)"></path>
<path d="M 1964.44 1014.64 C 1971.47 1013.32 1984.92 1015.48 1992.76 1016.02 C 1993.95 1023.99 1994.78 1027.09 1993.2 1035.07 C 1991.95 1037.44 1992 1037.62 1988.34 1038.46 C 1977.53 1040.93 1963.22 1044.69 1952.44 1046.31 C 1952.95 1044.16 1953.78 1041.91 1954.48 1039.8 C 1957.54 1039.65 1981 1035.4 1983.01 1033.91 C 1975.8 1029.04 1960.82 1040.51 1954.96 1033.68 C 1967.92 1030.93 1980.85 1028.29 1993.69 1025.02 L 1991.89 1024.15 C 1982.64 1019.59 1974.18 1018.19 1964.44 1014.64 z" fill="rgb(247,242,227)" transform="translate(0,0)"></path>
<path d="M 1834.1 989.609 C 1838.78 987.02 1849.03 985.468 1854.41 987.732 C 1856.74 990.092 1857.47 990.335 1858.14 993.552 C 1851.27 992.985 1841.13 990.866 1834.1 989.609 z" fill="rgb(251,248,233)" transform="translate(0,0)"></path>
<path d="M 929.284 925.129 L 930.511 925.851 C 944.978 934.477 992.771 974.856 1001.52 978.286 L 1003.38 977.789 C 1009.24 963.609 1005.55 902.573 1015.71 896.039 C 1028.33 898.445 1039.2 951.454 1042.12 963.971 C 1061.45 954.295 1093.56 928.694 1109.22 927.156 L 1111.25 927.99 C 1110.38 934.896 1068.94 996.207 1062.07 1006.81 C 1076.46 1009.32 1141.47 1018.89 1149.4 1024.26 L 1150.06 1026.23 C 1144.73 1034.8 1086.03 1050.25 1073.36 1053.54 L 1067.14 1054.54 C 1060.95 1045.86 1049.82 1033.66 1042.34 1026.11 C 1037.63 1018.89 1018.9 1001.21 1011.9 995.861 C 1005.2 988.287 987.65 973.71 978.421 970.002 C 976.918 974.456 977.968 982.758 977.486 988.69 L 978.488 990.357 L 974.396 991.875 C 965.69 977.469 946.953 954.617 936.435 939.104 C 935.823 938.484 928.537 929.027 927.012 927.256 L 929.284 925.129 z" fill="rgb(10,53,22)" transform="translate(0,0)"></path>
<path d="M 936.435 939.104 C 940.558 940.039 939.137 941.338 943.733 941.941 L 944.506 942.511 C 951.215 945.865 972.156 963.239 979.223 968.861 L 978.421 970.002 C 976.918 974.456 977.968 982.758 977.486 988.69 L 978.488 990.357 L 974.396 991.875 C 965.69 977.469 946.953 954.617 936.435 939.104 z" fill="rgb(247,242,227)" transform="translate(0,0)"></path>
<path d="M 936.435 939.104 C 940.558 940.039 939.137 941.338 943.733 941.941 L 944.506 942.511 C 953.513 956.803 967.351 974.6 977.486 988.69 L 978.488 990.357 L 974.396 991.875 C 965.69 977.469 946.953 954.617 936.435 939.104 z" fill="rgb(8,46,18)" transform="translate(0,0)"></path>
<path d="M 978.488 990.357 C 984.038 996.802 989.704 1003.15 995.482 1009.39 C 999.483 1014.78 1001.95 1015.72 998.522 1021.85 C 989.258 1032.95 969.758 1064.7 963.218 1077.96 C 963.396 1084.42 961.77 1086.24 968.64 1087.6 C 986.198 1070.29 998.143 1055.77 1012.71 1036.16 C 1016.95 1033.04 1015.18 1033.38 1019.58 1033.81 C 1023 1036.12 1027.39 1040.99 1030.31 1041.9 C 1038.28 1049.22 1046.37 1056.41 1054.55 1063.48 L 1057.2 1066.12 C 1055.09 1068.46 1055.8 1067.1 1055.28 1070.46 C 1049.35 1079.86 1036.83 1158.59 1023.33 1154.6 C 1018.44 1147.93 1012.91 1091.57 1010.22 1077.42 C 991.52 1086.09 973.328 1098.48 955.781 1109.25 C 950.955 1112.21 936.091 1124.11 931.715 1123.55 C 931.616 1121.11 968.51 1059.32 973.661 1047.22 L 974.19 1045.96 C 961.96 1041.75 894.045 1027.5 892.981 1017.72 C 898.698 1008.86 957.923 997.493 973.007 992.355 L 974.396 991.875 L 978.488 990.357 z" fill="rgb(10,53,22)" transform="translate(0,0)"></path>
<path d="M 943.903 1111.04 C 949.103 1101.7 957.27 1086.34 963.218 1077.96 C 963.396 1084.42 961.77 1086.24 968.64 1087.6 C 962.198 1095.11 951.467 1104.34 943.903 1111.04 z" fill="rgb(251,248,233)" transform="translate(0,0)"></path>
<path d="M 1806.5 1018.28 C 1811.76 1018.15 1817.47 1017.88 1822.68 1017.97 C 1833.95 1022.59 1876.85 1026.38 1886.04 1020.9 L 1893.92 1021.02 C 1889.94 1023.04 1885.28 1025.25 1881.45 1027.39 C 1888.09 1027.53 1900.58 1029.78 1902.08 1021.95 C 1903.16 1022.06 1906.14 1022.31 1906.99 1022.61 L 1906.78 1024.47 C 1909.2 1026.19 1909.56 1026.6 1912.39 1027.68 C 1875.34 1034.4 1838.52 1042.43 1801.17 1047.76 C 1793.98 1048.78 1786.06 1050.71 1778.89 1051.17 C 1784.47 1047.41 1800.33 1041.69 1802.59 1036.77 C 1800.15 1033.01 1795.7 1031.9 1791.13 1029.95 C 1790.17 1027.24 1790.25 1028.61 1791.44 1025.75 C 1794.01 1024 1799.98 1024.19 1803.5 1023.66 C 1806.6 1021.29 1805.36 1022.83 1806.5 1018.28 z" fill="rgb(247,242,227)" fill-opacity="0.933333" transform="translate(0,0)"></path>
<path d="M 177.653 1012.35 C 204.088 1006.77 230.649 1001.8 257.317 997.459 L 258.939 998.627 C 254.001 1004.9 243.558 1001.97 239.06 1005.77 C 240.905 1008.11 241.069 1007.91 243.856 1009.16 L 246.08 1008.94 L 246.37 1009.8 C 243.071 1014.56 244.412 1019.59 244.446 1026.5 C 253.246 1029.63 258.105 1029.65 267.234 1029.38 L 278.1 1030.79 C 251.108 1031.38 214.259 1028.82 186.895 1027.58 C 188.775 1026.72 190.671 1025.89 192.581 1025.1 C 190.077 1022.94 181.464 1026.4 177.817 1021.83 C 179.967 1015.62 188.83 1015.43 194.951 1014 C 189.745 1014.04 180.121 1015.63 176.818 1014.51 L 177.653 1012.35 z" fill="rgb(247,242,227)" fill-opacity="0.929412" transform="translate(0,0)"></path>
<path d="M 1067.14 1054.54 L 1073.36 1053.54 C 1085.2 1069.83 1096.94 1086.21 1108.56 1102.66 C 1110.84 1105.91 1119.56 1117.79 1121.14 1120.61 L 1118.94 1122.55 C 1106.08 1110.15 1089.85 1098.91 1075.92 1087.82 C 1070.67 1083.63 1059.12 1075.4 1055.28 1070.46 C 1055.8 1067.1 1055.09 1068.46 1057.2 1066.12 L 1054.55 1063.48 C 1059.9 1056.71 1061.56 1057.87 1069.79 1058.95 L 1067.14 1054.54 z" fill="rgb(8,46,18)" transform="translate(0,0)"></path>
<path d="M 1054.55 1063.48 C 1059.9 1056.71 1061.56 1057.87 1069.79 1058.95 C 1074.35 1062.45 1097.22 1094.37 1100.87 1100.87 C 1085.92 1089.78 1071.36 1078.19 1057.2 1066.12 L 1054.55 1063.48 z" fill="rgb(251,248,233)" transform="translate(0,0)"></path>
<path d="M 1011.9 995.861 C 1018.9 1001.21 1037.63 1018.89 1042.34 1026.11 C 1038.84 1030.03 1037.09 1034.86 1034.31 1039.35 C 1032.44 1042.36 1031.43 1036.27 1030.31 1041.9 C 1027.39 1040.99 1023 1036.12 1019.58 1033.81 C 1015.18 1033.38 1016.95 1033.04 1012.71 1036.16 C 1012.96 1032.54 1008.74 1026.45 1006.14 1023.82 C 1003.27 1020.92 1002.29 1021.73 998.522 1021.85 C 1001.95 1015.72 999.483 1014.78 995.482 1009.39 C 997.286 1008.62 997.523 1008.55 998.722 1006.85 C 1002.91 1000.91 1006.21 999.509 1011.9 995.861 z" fill="rgb(247,242,227)" fill-opacity="0.768627" transform="translate(0,0)"></path>
<path d="M 1751.98 1018.83 C 1769.68 1017.71 1788.78 1017.99 1806.5 1018.28 C 1805.36 1022.83 1806.6 1021.29 1803.5 1023.66 C 1799.98 1024.19 1794.01 1024 1791.44 1025.75 C 1790.25 1028.61 1790.17 1027.24 1791.13 1029.95 C 1795.7 1031.9 1800.15 1033.01 1802.59 1036.77 C 1800.33 1041.69 1784.47 1047.41 1778.89 1051.17 L 1774.48 1051.91 C 1770.07 1045.89 1751.4 1041.74 1755.72 1029.56 C 1763.72 1021.78 1779.8 1021.67 1790.97 1020.62 C 1786.27 1018.87 1759.39 1019.28 1751.98 1018.83 z" fill="rgb(247,242,227)" fill-opacity="0.192157" transform="translate(0,0)"></path>
<path d="M 267.113 995.689 C 272.787 994.617 278.485 993.673 284.202 992.857 L 285.16 993.846 C 289.176 997.923 296.723 1002.71 298.385 1005.59 C 296.332 1013.06 279.268 1007.38 276.632 1011.14 L 277.537 1012.68 C 278.564 1014.46 278.703 1014.68 279.044 1016.76 C 282.817 1019.53 286.001 1019.09 290.999 1019.22 C 287.22 1023.3 283.341 1023.34 280.365 1027.99 L 281.201 1029.31 L 290.062 1030.93 C 286.12 1031.17 282.059 1030.93 278.1 1030.79 L 267.234 1029.38 L 263.904 1027.37 C 263.353 1018.54 263.243 1017.19 260.176 1009 C 263.876 1002.35 267.548 1000.69 267.113 995.689 z" fill="rgb(247,242,227)" fill-opacity="0.321569" transform="translate(0,0)"></path>
<path d="M 997.115 855.357 C 1020.97 848.728 1054.88 853.813 1078.19 861.202 C 1070.95 864.864 1066.76 863.9 1060.11 869.481 L 1056.15 868.781 C 1060.02 866.106 1063.89 863.964 1067.96 861.619 L 1057.69 858.193 C 1050.91 860.588 1048.55 861.03 1045.3 867.263 C 1033.62 865.859 1025.52 865.618 1013.69 866.351 C 1012.41 866.429 999.374 867.411 998.683 867.371 C 997.738 861.048 1001.03 862.729 997.115 855.357 z" fill="rgb(251,248,233)" fill-opacity="0.843137" transform="translate(0,0)"></path>
<path d="M 1091.69 866.391 C 1105.35 871.895 1126.86 883.622 1137.34 894.049 C 1134.38 898.51 1133.41 902.299 1132.84 907.705 C 1114.64 892.525 1101.33 884.287 1079.77 875.276 C 1083.32 870.877 1086.72 868.766 1091.69 866.391 z" fill="rgb(247,242,227)" fill-opacity="0.678431" transform="translate(0,0)"></path>
<path d="M 1006.81 196.363 L 1008.49 194.18 C 1012.03 197.141 1014.2 181.202 1026.93 195.92 C 1026.89 197.716 1026.84 199.956 1026.78 202.64 C 1022.84 209.21 1016.72 214.305 1021.15 223.474 C 1023.07 224.887 1024.58 226.005 1026.61 227.276 C 1026.78 229.149 1026.99 231.045 1027.08 232.92 L 1023.62 236.113 C 1015.39 237.407 1006.4 225.572 1003.64 218.909 L 1002.37 218.449 C 1003.55 211.819 1004.92 202.563 1006.81 196.363 z" fill="rgb(247,242,227)" fill-opacity="0.2" transform="translate(0,0)"></path>
<path d="M 257.317 997.459 L 267.113 995.689 C 267.548 1000.69 263.876 1002.35 260.176 1009 C 263.243 1017.19 263.353 1018.54 263.904 1027.37 L 267.234 1029.38 C 258.105 1029.65 253.246 1029.63 244.446 1026.5 C 244.412 1019.59 243.071 1014.56 246.37 1009.8 L 246.08 1008.94 L 243.856 1009.16 C 241.069 1007.91 240.905 1008.11 239.06 1005.77 C 243.558 1001.97 254.001 1004.9 258.939 998.627 L 257.317 997.459 z" fill="rgb(247,242,227)" fill-opacity="0.843137" transform="translate(0,0)"></path>
<path d="M 127.862 1023.39 C 142.495 1018.84 162.516 1015.33 177.653 1012.35 L 176.818 1014.51 C 180.121 1015.63 189.745 1014.04 194.951 1014 C 188.83 1015.43 179.967 1015.62 177.817 1021.83 C 181.464 1026.4 190.077 1022.94 192.581 1025.1 C 190.671 1025.89 188.775 1026.72 186.895 1027.58 C 167.093 1026.78 147.544 1025.79 127.862 1023.39 z M 149.971 1023.86 C 153.345 1023.5 156.38 1023.6 159.164 1021.99 C 158.185 1020.47 158.772 1020.88 157.758 1020.37 C 154.774 1020.45 151.258 1020.05 149.072 1021.7 C 149.866 1023.79 149.595 1023.3 149.971 1023.86 z" fill="rgb(251,248,233)" fill-opacity="0.937255" transform="translate(0,0)"></path>
<path d="M 157.758 1020.37 C 158.772 1020.88 158.185 1020.47 159.164 1021.99 C 156.38 1023.6 153.345 1023.5 149.971 1023.86 C 149.595 1023.3 149.866 1023.79 149.072 1021.7 C 151.258 1020.05 154.774 1020.45 157.758 1020.37 z" fill="rgb(247,242,227)" fill-opacity="0.647059" transform="translate(0,0)"></path>
<path d="M 572.77 1489.82 C 573.481 1494.44 574.162 1498.11 574.25 1502.81 C 562.942 1512.88 549.507 1518.95 539.284 1527.61 L 538.052 1524.62 C 549.439 1514.02 561.545 1501.02 572.77 1489.82 z" fill="rgb(247,242,227)" fill-opacity="0.0117647" transform="translate(0,0)"></path>
<path d="M 515.994 506.804 C 491.017 483.309 459.348 459.371 436.383 434.786 L 436.998 434.575 C 463.401 454.18 487.054 481.841 517.384 503.148 L 515.994 506.804 z" fill="rgb(136,157,132)" transform="translate(0,0)"></path>
<path d="M 1078.19 861.202 L 1091.69 866.391 C 1086.72 868.766 1083.32 870.877 1079.77 875.276 C 1073.37 872.665 1066.81 871.194 1060.11 869.481 C 1066.76 863.9 1070.95 864.864 1078.19 861.202 z" fill="rgb(251,248,233)" fill-opacity="0.984314" transform="translate(0,0)"></path>
<path d="M 1529.94 1504.85 C 1533.65 1509.97 1555.95 1538.83 1556.45 1541.35 L 1554.41 1539.83 C 1549.42 1535.34 1522.88 1511.79 1524.13 1506.32 C 1526.33 1506.09 1527.86 1505.59 1529.94 1504.85 z" fill="rgb(251,248,233)" transform="translate(0,0)"></path>
<path d="M 1822.68 1017.97 C 1835.3 1018 1873.89 1018.54 1886.04 1020.9 C 1876.85 1026.38 1833.95 1022.59 1822.68 1017.97 z" fill="rgb(247,242,227)" fill-opacity="0.988235" transform="translate(0,0)"></path>
<path d="M 1027.24 187.541 C 1028.5 203.528 1028.03 223.825 1027.81 240.036 L 1027.08 232.92 C 1026.99 231.045 1026.78 229.149 1026.61 227.276 C 1024.58 226.005 1023.07 224.887 1021.15 223.474 C 1016.72 214.305 1022.84 209.21 1026.78 202.64 C 1026.84 199.956 1026.89 197.716 1026.93 195.92 L 1027.24 187.541 z" fill="rgb(247,242,227)" fill-opacity="0.407843" transform="translate(0,0)"></path>
<path d="M 1045.3 867.263 C 1048.55 861.03 1050.91 860.588 1057.69 858.193 L 1067.96 861.619 C 1063.89 863.964 1060.02 866.106 1056.15 868.781 L 1045.3 867.263 z" fill="rgb(251,248,233)" fill-opacity="0.611765" transform="translate(0,0)"></path>
<path d="M 517.384 503.148 C 522.58 506.227 524.993 507.641 529.755 511.598 L 534.036 524.869 C 528.227 518.911 522.101 512.381 515.994 506.804 L 517.384 503.148 z" fill="rgb(251,248,233)" fill-opacity="0.360784" transform="translate(0,0)"></path>
<path d="M 511.301 1550.02 C 515.922 1544.82 532.231 1527.87 538.052 1524.62 L 539.284 1527.61 C 537.6 1530.31 514.924 1547.51 511.301 1550.02 z" fill="rgb(251,248,233)" transform="translate(0,0)"></path>
<path d="M 1484.16 536.027 C 1488.1 533.015 1492.25 529.411 1497.26 529.063 L 1497.89 530.559 C 1495.79 535.496 1490.62 539.255 1486.28 542.52 L 1484.16 536.027 z" fill="rgb(10,53,22)" transform="translate(0,0)"></path>
<path d="M 1162.19 891.12 C 1165.84 888.655 1185.19 890.36 1188.99 894.016 L 1188.14 895.239 C 1184.27 897.21 1167.49 892.408 1162.19 891.12 z" fill="rgb(251,248,233)" transform="translate(0,0)"></path>
<path d="M 512.759 528.798 C 517.064 529.458 522.557 536.199 525.762 539.314 C 527.935 541.426 527.311 541.745 527.015 544.273 L 525.824 545.182 L 523.7 544.714 C 519.549 540.846 514.122 534.406 512.759 528.798 z" fill="rgb(247,242,227)" fill-opacity="0.0862745" transform="translate(0,0)"></path>
<path d="M 1523.72 1534.88 C 1519.85 1531.44 1515.07 1528.41 1515.23 1522.82 L 1517.21 1522.5 C 1521.8 1524.36 1524.31 1528.23 1527.61 1532.14 C 1525.96 1533.44 1525.55 1533.91 1523.72 1534.88 z" fill="rgb(251,248,233)" fill-opacity="0.0117647" transform="translate(0,0)"></path>
<path d="M 1893.92 1021.02 C 1896.68 1021.27 1899.36 1021.42 1902.08 1021.95 C 1900.58 1029.78 1888.09 1027.53 1881.45 1027.39 C 1885.28 1025.25 1889.94 1023.04 1893.92 1021.02 z" fill="rgb(251,248,233)" fill-opacity="0.588235" transform="translate(0,0)"></path>
<path d="M 1527.61 1532.14 C 1531.28 1534.93 1540.97 1545.77 1544.77 1549.68 C 1539.19 1546.08 1527.99 1539.37 1523.72 1534.88 C 1525.55 1533.91 1525.96 1533.44 1527.61 1532.14 z" fill="rgb(251,248,233)" transform="translate(0,0)"></path>
<path d="M 1906.99 1022.61 C 1911.37 1022.99 1916.1 1023.01 1920.02 1024.74 C 1918.99 1026.61 1914.6 1027.25 1912.39 1027.68 C 1909.56 1026.6 1909.2 1026.19 1906.78 1024.47 L 1906.99 1022.61 z" fill="rgb(251,248,233)" transform="translate(0,0)"></path>
<path d="M 1520.74 1494.33 L 1521.4 1495.6 L 1518.38 1497.12 C 1518.69 1500.3 1519.73 1502.38 1520.88 1505.34 C 1516.66 1501.68 1516.16 1500.42 1513.45 1495.45 L 1520.74 1494.33 z" fill="rgb(10,53,22)" transform="translate(0,0)"></path>
<path d="M 417.541 417.488 C 423.472 418.871 429.079 425.939 433.497 430.488 C 427.956 429.746 421.665 421.779 417.541 417.488 z" fill="rgb(8,46,18)" transform="translate(0,0)"></path>
<path d="M 195.589 972.556 C 199.605 946.652 201.624 920.37 205.723 894.822 C 229.009 749.68 288.906 612.774 382.872 499.474 C 394.179 485.84 412.14 469.372 420.804 454.419 C 425.944 462.265 434.61 473.058 440.481 480.801 C 418.685 508.171 396.889 530.855 375.728 561.242 C 309.842 655.858 266.814 755.825 242.885 868.676 C 235.749 902.33 234.878 935.127 229.43 967.536 C 229.096 971.286 228.911 973.094 229.123 976.818 C 212.44 978.296 196.015 982.524 179.612 985.436 L 172.249 986.958 C 160.733 988.808 149.273 990.993 137.884 993.512 C 127.994 994.903 117.334 997.542 107.516 999.739 L 92.0462 1003.17 L 91.3884 1004.7 C 90.539 1006.66 89.9369 1007.66 88.7998 1009.5 C 90.4952 1012.21 89.6744 1011.02 92.9501 1012.86 L 92.311 1014.36 C 81.2451 1017.06 64.2369 1020.79 53.9969 1024.85 C 67.3575 1029.57 82.6466 1031.1 95.9811 1035.04 C 95.6748 1036.05 95.96 1035.37 94.5383 1036.71 C 86.9966 1037.08 80.567 1034.58 72.8607 1033.31 C 66.6626 1032.86 64.6141 1032.46 58.4817 1034.3 L 58.1236 1035.14 C 60.9215 1036.06 59.8659 1035.97 62.7357 1035.84 C 70.0816 1035.98 77.2289 1035.39 83.7804 1038.79 C 84.9806 1039.41 90.9817 1042.63 91.6875 1042.79 C 97.8801 1044.57 107.286 1046.99 112.964 1049.36 C 117.86 1054.34 197.758 1059.98 209.24 1067.79 C 210.912 1068.93 225.872 1071.62 228.648 1072.1 C 232.341 1107.94 236.564 1147 243.441 1182.3 C 264.66 1291.24 311.169 1391 373.469 1482.39 C 392.819 1510.77 420.145 1538.8 439.261 1566.34 C 433.807 1574.89 427.952 1583.18 421.716 1591.17 C 325.216 1496.36 251.239 1352.96 219.053 1222.28 C 207.085 1173.69 201.208 1128.25 197.138 1078.61 C 150.733 1068.2 104.526 1059.59 58.0957 1047.35 C 40.0861 1042.6 26.8757 1034.64 39.0112 1011.73 C 41.2479 1008.03 48.8444 1004.54 52.9251 1003.55 C 99.1725 992.367 148.773 980.521 195.589 972.556 z M 62.8502 1009.66 L 57.1365 1011.06 L 58.036 1013.6 C 62.0104 1016.68 77.5096 1015.38 80.8446 1011.48 C 74.4818 1009.2 68.9267 1014.86 62.8502 1009.66 z" fill="rgb(10,53,22)" transform="translate(0,0)"></path>
<path d="M 57.1365 1011.06 L 62.8502 1009.66 C 68.9267 1014.86 74.4818 1009.2 80.8446 1011.48 C 77.5096 1015.38 62.0104 1016.68 58.036 1013.6 L 57.1365 1011.06 z" fill="rgb(251,248,233)" fill-opacity="0.396078" transform="translate(0,0)"></path>
<path d="M 62.8502 1009.66 C 72.565 1007.42 82.2973 1005.25 92.0462 1003.17 L 91.3884 1004.7 C 90.539 1006.66 89.9369 1007.66 88.7998 1009.5 C 90.4952 1012.21 89.6744 1011.02 92.9501 1012.86 L 92.311 1014.36 C 81.2451 1017.06 64.2369 1020.79 53.9969 1024.85 C 67.3575 1029.57 82.6466 1031.1 95.9811 1035.04 C 95.6748 1036.05 95.96 1035.37 94.5383 1036.71 C 86.9966 1037.08 80.567 1034.58 72.8607 1033.31 C 66.6626 1032.86 64.6141 1032.46 58.4817 1034.3 L 58.1236 1035.14 C 60.9215 1036.06 59.8659 1035.97 62.7357 1035.84 C 70.0816 1035.98 77.2289 1035.39 83.7804 1038.79 C 84.9806 1039.41 90.9817 1042.63 91.6875 1042.79 C 97.8801 1044.57 107.286 1046.99 112.964 1049.36 L 112.611 1050.33 C 107.865 1051.6 56.7088 1037.89 48.521 1035.23 C 41.6436 1033 42.0191 1022.63 44.1554 1017.04 C 45.3333 1013.96 53.5378 1012.1 57.1365 1011.06 L 58.036 1013.6 C 62.0104 1016.68 77.5096 1015.38 80.8446 1011.48 C 74.4818 1009.2 68.9267 1014.86 62.8502 1009.66 z" fill="rgb(251,248,233)" transform="translate(0,0)"></path>
<path d="M 485.271 1606.06 C 523.064 1641.14 554.282 1666.76 598.182 1695.38 C 710.812 1768.2 840.452 1810.45 974.358 1817.98 C 975.278 1824.85 976.849 1832.15 978.196 1839.01 C 983.008 1863.52 987.915 1887.86 993.231 1912.29 C 998.947 1938.56 1002.4 1966.7 1010.6 1992.27 C 1014.27 2003.7 1036.27 2002.83 1039.62 1990.56 C 1050.75 1949.48 1058.71 1907.39 1066.49 1865.54 C 1067.91 1857.9 1067.56 1849.8 1068.6 1842.09 C 1069.59 1834.56 1071.08 1827.21 1072.53 1819.8 C 1111.08 1816.36 1146.55 1812.5 1184.58 1804.73 C 1306.14 1778.87 1420.14 1725.46 1517.8 1648.6 C 1533.21 1636.46 1550.84 1620.24 1565.78 1607.13 C 1572.98 1612.99 1583.68 1619.93 1591.51 1625.33 L 1584.12 1632.13 C 1563.04 1648.99 1543.65 1667.82 1521.62 1684.38 C 1386.42 1786.01 1246.17 1836.64 1078.21 1851.97 C 1075.2 1864 1072.35 1883.03 1069.94 1896 C 1065.63 1919.5 1060.81 1942.91 1055.48 1966.2 C 1052.4 1979.92 1050.04 2005.25 1033.55 2008.2 C 1017.83 2011.01 1005.53 2007.73 1000.85 1991.06 C 996.696 1976.27 993.989 1961.76 990.825 1946.8 C 984.122 1915.35 977.837 1883.82 971.972 1852.21 C 818.966 1837.83 686.91 1797.67 559.683 1708.79 C 521.481 1682.1 492.131 1659.39 459.125 1625.58 C 467.425 1618.89 476.637 1612.38 485.271 1606.06 z" fill="rgb(10,53,22)" transform="translate(0,0)"></path>
<path d="M 972.606 197.031 C 975.643 176.808 995.473 61.3982 1002.64 48.996 C 1005.87 43.415 1012.58 39.7137 1018.78 38.5465 C 1025.94 37.2004 1034.59 39.1791 1040.46 43.4593 C 1044.92 46.7115 1046.99 51.3479 1048.77 56.4253 C 1054.72 73.4034 1056.91 92.3254 1060.5 109.935 C 1066.44 139.122 1073.3 168.469 1077.66 197.921 C 1126.38 197.603 1193.04 210.744 1239.86 223.404 C 1364.71 257.16 1497.84 329.663 1590.25 420.742 C 1581.55 426.888 1571.83 434.033 1564.04 441.219 C 1453.07 335.909 1313.46 265.732 1162.74 239.498 C 1133.91 234.541 1103.64 232.449 1074.45 230.327 C 1071.18 208.998 1045.06 66.0469 1038.07 54.0454 C 1035.85 50.2309 1031.79 47.5198 1027.48 46.6733 C 1022.98 45.7883 1018.24 46.6652 1014.56 49.4779 C 1011.68 51.6867 1010.01 54.6663 1008.88 58.0681 C 1001.81 79.3794 999.151 104.079 995.036 126.198 C 989.269 157.199 982.451 188.131 977.397 219.246 C 976.914 222.113 976.47 226.718 974.98 228.928 L 973.272 229.576 C 831.838 235.267 682.888 291.386 567.395 372.159 C 537.335 393.182 510.792 417.687 482.089 440.255 C 474.377 433.626 465.697 426.96 457.705 420.584 C 484.931 397.209 508.141 375.301 537.547 354.018 C 635.312 283.399 747.232 234.827 865.586 211.652 C 904.08 203.834 933.59 199.032 972.606 197.031 z" fill="rgb(10,53,22)" transform="translate(0,0)"></path>
<path d="M 1509.13 612.73 C 1514.3 615.514 1534.28 645.234 1540.08 652.641 C 1553.24 641.584 1566.83 632.279 1580.83 622.38 C 1585.23 626.721 1587.85 629.76 1591.78 634.469 C 1577.36 644.16 1562.8 653.631 1548.09 662.879 C 1561.86 686.448 1575.21 710.26 1588.13 734.303 C 1604.42 726.153 1620.89 718.366 1637.53 710.947 L 1642.62 724.954 C 1626.47 731.479 1610.49 738.413 1594.69 745.747 C 1606.27 772.028 1614.92 797.244 1625.83 822.821 C 1642.12 817.231 1657.9 811.229 1674.45 806.275 L 1679.07 820.749 L 1628.85 835.664 L 1633.05 850.239 C 1639.62 873.626 1644.94 893.377 1649.7 917.244 C 1667.29 913.651 1684.96 910.412 1702.69 907.526 L 1703.76 923.509 C 1689.12 924.945 1675.49 928.068 1661.06 929.27 C 1656.02 929.689 1655.02 927.798 1651.76 924.76 C 1652.79 933.627 1654.46 942.794 1655.58 951.871 L 1616.22 945.407 C 1600.49 857.451 1572.52 775.894 1526.77 698.475 C 1515.81 679.928 1501.73 663.165 1489.43 645.515 C 1496.53 634.532 1503.19 624.405 1509.13 612.73 z" fill="rgb(10,53,22)" transform="translate(0,0)"></path>
<path d="M 1127.93 342.902 C 1133.04 343.834 1138.42 345.09 1143.52 346.186 C 1140.14 364.561 1137.02 382.985 1134.18 401.452 C 1159.52 407.014 1184.67 413.422 1209.58 420.664 C 1215.34 402.745 1220.14 384.176 1225.05 365.981 C 1229.67 367.391 1235.14 369.408 1239.78 370.995 C 1234.13 388.634 1228.71 406.348 1223.54 424.135 C 1250.2 434.151 1273.18 442.751 1299.28 454.387 C 1306.92 437.981 1314.37 421.488 1321.63 404.912 C 1326.18 406.522 1331.07 408.703 1335.55 410.586 C 1329.15 426.589 1318.82 444.526 1311.7 461 C 1336.98 475.257 1359.69 487.844 1383.61 504.256 C 1391.29 493.694 1397.94 482.675 1404.64 471.489 C 1407.56 467.237 1409.79 463.025 1412.28 458.528 C 1416.13 460.733 1421.31 464.663 1425.05 467.326 C 1416.55 482.577 1406.49 497.413 1396.91 512.049 C 1408.84 521.445 1419.4 529.023 1431.37 538.962 C 1419.7 545.154 1409.15 552.897 1398.41 560.534 C 1387.28 552.378 1377.81 544.217 1365.98 536.098 C 1286.04 481.234 1202.67 449.975 1107.34 434.968 C 1106.06 422.6 1104.09 409.315 1102.57 396.853 L 1117.96 399.814 C 1121.71 383.949 1125.09 359.57 1127.93 342.902 z" fill="rgb(10,53,22)" transform="translate(0,0)"></path>
<path d="M 905.611 346.164 C 909.851 345.376 915.242 344.213 919.434 343.784 C 923.039 361.885 924.768 380.099 927.934 398.075 L 944.59 396.723 C 943.093 409.336 941.485 422.074 940.137 434.689 C 884.359 439.116 805.655 467.429 755.776 491.621 C 730.626 504.763 707.026 520.309 683.256 535.774 C 672.028 543.08 661.633 553.89 649.838 559.677 C 647.916 558.592 645.994 557.507 644.072 556.422 C 642.657 555.047 634.455 549.564 632.355 548.105 C 627.717 545.018 622.441 541.288 617.629 538.619 C 629.177 528.948 643.977 518.174 656.241 509.087 C 644.391 494.464 632.245 480.085 619.809 465.957 C 623.729 463.321 630.013 459.338 633.537 456.558 C 645.774 470.727 655.338 486.896 666.805 501.446 C 689.825 488.254 714.429 471.679 737.779 459.901 C 728.543 443.903 719.663 427.703 711.146 411.312 C 715.63 409.452 720.757 407.174 725.296 405.639 C 732.264 420.03 741.725 440.927 749.573 454.244 C 772.495 444.061 801.436 430.936 825.462 423.949 C 820.21 406.118 809.968 387.261 806.009 370.295 C 811.336 368.624 816.964 366.764 822.312 365.246 C 827.804 382.628 833.762 402.255 840.444 419.086 C 863.429 412.081 891.251 405.435 914.76 399.411 C 911.53 382.797 907.622 362.899 905.611 346.164 z" fill="rgb(10,53,22)" transform="translate(0,0)"></path>
<path d="M 1616.49 1101.61 C 1629.27 1100.13 1642.02 1098.44 1654.74 1096.55 C 1653.93 1104.04 1652.97 1111.78 1652.31 1119.27 C 1666.77 1120.02 1689.16 1121.85 1703.34 1124.33 L 1699.98 1139.47 C 1683.17 1135.52 1666.67 1134.66 1650.33 1131.04 C 1644.31 1159.84 1637.72 1184.67 1631.04 1212.85 C 1645.97 1216.72 1663.82 1222.37 1678.16 1225.68 C 1676.37 1230.25 1674.45 1235.53 1672.36 1239.9 C 1658.11 1235.25 1640.7 1229.86 1626.95 1223.86 C 1616.93 1249.97 1606.35 1275.86 1595.23 1301.51 C 1612.41 1307.31 1628.1 1314.15 1644.76 1321.27 L 1637.87 1335 C 1624.49 1330.36 1602.35 1318.07 1590.37 1310.54 C 1569.02 1351.86 1538.42 1400.99 1509.03 1437.58 C 1504.79 1431.55 1502.23 1425.57 1497.35 1419.55 C 1494.36 1413.03 1489.96 1406.85 1485.96 1400.85 C 1556.92 1315.47 1602.18 1211.7 1616.49 1101.61 z" fill="rgb(10,53,22)" transform="translate(0,0)"></path>
<path d="M 539.042 615.657 C 542.153 617.28 556.988 641.824 559.693 646.123 C 549.533 662.795 534.971 680.739 523.801 698.743 C 475.404 776.746 447.186 851.476 432.766 941.631 C 420.029 943.638 407.327 945.857 394.663 948.287 C 398.987 911.438 407.602 876.944 417.606 841.267 C 422.562 819.09 444.971 768.264 455.102 747.658 C 439.604 741.233 423.221 732.439 406.632 725.449 C 408.664 720.754 411.236 715.982 413.576 711.407 C 425.21 716.951 451.344 729.803 459.596 738.025 C 470.085 714.96 489.344 684.266 503.27 662.262 C 491.664 653.571 471.463 641.241 458.732 632.739 L 467.648 619.492 C 481.06 628.444 496.642 641.547 510.2 651.363 C 519.385 641.644 530.215 626.599 539.042 615.657 z" fill="rgb(10,53,22)" transform="translate(0,0)"></path>
<path d="M 1395.25 1486.46 C 1398.66 1487.25 1423.09 1503.74 1432.11 1507.72 C 1368.7 1561.12 1295.7 1601.96 1217.01 1628.05 C 1188.07 1637.43 1160.07 1643.62 1130.38 1649.74 C 1121.98 1652.11 1107.39 1652.93 1098.26 1653.75 C 1100.53 1641.53 1102.55 1629.25 1104.31 1616.94 C 1117.27 1614.32 1130.08 1612.42 1143.14 1609.46 C 1213.92 1593.42 1277.18 1568.78 1338.67 1530.11 C 1360.3 1516.51 1377.44 1505.05 1395.25 1486.46 z" fill="rgb(10,53,22)" transform="translate(0,0)"></path>
<path d="M 395.153 1096.55 C 408.228 1099.32 420.028 1101.96 433.284 1103.72 C 438.825 1128.75 441.687 1152.68 448.407 1178.02 C 466.832 1247.12 497.278 1312.43 538.35 1370.96 C 543.087 1377.69 553.564 1393.07 558.913 1398.86 C 551.139 1409.96 544.242 1419.75 537.292 1431.37 C 533.381 1424.95 515.148 1399.2 509.772 1395.71 C 505.992 1392.25 505.887 1391.58 503.53 1386.86 C 503.128 1383.11 462.016 1319.07 457.059 1307.58 C 445.266 1280.24 434.635 1250.64 423.291 1223.22 C 421.946 1220.28 421.413 1218.12 420.538 1215.05 C 408.399 1169.58 402.71 1143.26 395.153 1096.55 z" fill="rgb(10,53,22)" transform="translate(0,0)"></path>
<path d="M 646.367 1487.16 C 666.721 1503.14 688.829 1520.19 711.035 1533.57 C 779.533 1574.87 860.62 1603.92 939.541 1616.19 C 942.045 1628.37 944.556 1640.87 945.513 1653.28 C 904.122 1649.22 866.925 1638.09 827.222 1627.2 C 814.48 1623.7 748.607 1593.07 743.799 1593.85 L 742.901 1596.16 C 739.139 1594.56 740.591 1595.78 738.377 1592.36 L 739.594 1591.3 C 737.205 1588.82 708.406 1573.91 702.773 1570.5 C 677.471 1555.16 653.555 1539.49 630.86 1520.3 C 625.838 1516.05 620.641 1512.7 615.854 1507.83 L 646.367 1487.16 z" fill="rgb(10,53,22)" transform="translate(0,0)"></path>
<path d="M 244.579 1073.88 C 249.471 1073.84 253.784 1074.38 258.635 1074.86 C 258.942 1093.91 261.774 1114.02 264.245 1132.92 C 283.63 1281.22 356.446 1431.88 458.64 1540.77 L 452.793 1548.06 C 450.042 1551.52 451.671 1550.81 448.313 1551.47 C 444.814 1549.58 437.782 1539.88 434.845 1536.21 C 425.411 1524.39 416.059 1512.5 406.788 1500.55 C 328.276 1401.13 275.967 1283.59 254.654 1158.71 C 250.262 1133.6 245.247 1099.36 244.579 1073.88 z" fill="rgb(8,46,18)" transform="translate(0,0)"></path>
<path d="M 506.625 1587.63 C 529.534 1605.27 549.489 1625.94 574.366 1643.99 C 690.607 1728.69 827.954 1779.7 971.303 1791.4 C 971.699 1795.45 972.878 1798.7 972.084 1802.76 C 969.14 1804.67 968.756 1803.81 964.243 1803.4 C 815.407 1788.01 685.157 1743.34 564.392 1653.32 C 540.962 1635.85 519.286 1616.16 496.671 1597.8 L 506.625 1587.63 z" fill="rgb(8,46,18)" transform="translate(0,0)"></path>
<path d="M 245.717 972.252 C 246.732 943.481 250.867 914.534 255.902 886.205 C 277.866 762.418 329.676 645.851 406.846 546.602 C 417.88 532.458 439.069 505.322 451.516 493.646 C 454.471 497.161 456.881 499.975 459.522 503.77 C 442.202 524.035 424.327 545.021 408.474 566.414 C 335.583 664.77 285.053 780.839 266.647 902.069 C 264.7 914.892 257.563 960.814 259.318 972.453 L 256.046 972.776 C 251.694 973.213 249.527 973.996 245.717 972.252 z" fill="rgb(8,46,18)" transform="translate(0,0)"></path>
<path d="M 962.825 245.405 L 972.521 244.713 C 971.725 250.257 970.641 254.868 969.392 260.29 C 931.281 259.738 877.242 269.644 839.993 279.236 C 708.915 312.988 605.797 370.462 505.08 460.203 L 494.034 452.011 C 599.247 355.633 728.258 289.055 867.77 259.14 C 898.192 252.799 931.91 248.72 962.825 245.405 z" fill="rgb(8,46,18)" transform="translate(0,0)"></path>
<path d="M 1077.73 245.455 C 1137 250.44 1191.49 258.174 1248.9 275.526 C 1348.67 305.684 1442.66 355.666 1521.62 423.951 C 1526.15 427.863 1548.67 447.044 1550.07 449.612 C 1549.54 453.181 1549.52 452.156 1545.89 455.238 L 1541.11 459.391 C 1527.26 445.383 1508.13 429.452 1492.8 417.264 C 1412.4 353.198 1319.44 306.718 1219.95 280.831 C 1168.56 267.906 1131.12 263.746 1079.15 258.709 C 1078.44 254.465 1078.12 249.774 1077.73 245.455 z" fill="rgb(8,46,18)" transform="translate(0,0)"></path>
<path d="M 1542.49 1588.72 C 1546.92 1591.22 1550.82 1595 1554.7 1598.39 C 1523.04 1623.62 1490.85 1649.72 1457.24 1672.26 C 1343.8 1748.37 1222.03 1789.92 1086.76 1804.11 C 1082.54 1804.72 1077.85 1805.07 1073.57 1805.49 L 1074.15 1792.3 C 1109.32 1786.72 1142.47 1784.65 1178.28 1777.04 C 1292.94 1752.73 1400.55 1702.6 1492.93 1630.46 C 1511.55 1615.92 1525.52 1604.95 1542.49 1588.72 z" fill="rgb(8,46,18)" transform="translate(0,0)"></path>
<path d="M 1594.89 494.6 C 1606.69 505.838 1618.28 520.165 1628.78 532.689 C 1718.6 639.812 1775.47 774.256 1795.09 912.388 C 1797.78 931.372 1800.29 950.64 1801.28 969.857 C 1797.71 969.28 1793.43 968.951 1789.78 968.569 C 1789.26 968.051 1788.73 967.534 1788.21 967.016 C 1786.84 953.968 1785.48 935.426 1783.73 923.057 C 1776.68 873.144 1764.5 819.61 1748.23 772.107 C 1722.21 697.301 1684.75 626.98 1637.18 563.652 C 1620.23 541.352 1606.09 526.319 1589.03 505.837 C 1590.94 501.938 1592.62 498.311 1594.89 494.6 z" fill="rgb(8,46,18)" transform="translate(0,0)"></path>
<path d="M 1789.48 1071.47 L 1802 1070 C 1801.58 1093.67 1797.13 1124.43 1793.58 1147.79 C 1774.86 1270.85 1724.96 1388.19 1651.18 1488.33 C 1639.96 1503.57 1610.23 1542.11 1595.68 1552.68 C 1593.7 1549.35 1591.78 1546 1589.9 1542.61 C 1596.02 1537.32 1601.75 1530.78 1607.11 1524.6 C 1711.18 1404.52 1772.51 1254.11 1787.9 1096.36 C 1788.65 1088.66 1788.33 1080.86 1789.25 1073.35 L 1789.48 1071.47 z" fill="rgb(8,46,18)" transform="translate(0,0)"></path>
<path d="M 1425.53 745.488 C 1429.8 748.922 1438.75 763.485 1441.71 768.642 C 1464.17 807.764 1482.14 849.156 1492.43 893.183 C 1495.03 904.276 1498.55 915.663 1499.36 927.064 C 1494.3 926.218 1488.87 925.511 1483.76 924.762 C 1478.29 923.889 1472.01 923.25 1466.45 922.568 C 1465.49 912.222 1462.22 900.705 1459.54 890.595 C 1448.04 847.22 1430.2 811.689 1405.9 774.381 C 1412.48 765.736 1419.44 754.663 1425.53 745.488 z" fill="rgb(10,53,22)" transform="translate(0,0)"></path>
<path d="M 548.461 923.656 C 562.997 852.912 585.515 805.094 624.719 746.087 C 630.436 755.197 635.94 762.989 642.167 771.716 C 638.523 781.449 621.991 808.78 615.647 822.072 C 599.74 855.397 591.629 881.846 580.95 916.865 C 575.52 918.109 570.073 919.278 564.61 920.37 C 559.039 921.722 554.185 923.067 548.461 923.656 z" fill="rgb(10,53,22)" transform="translate(0,0)"></path>
<path d="M 1492.94 1125.44 C 1495.78 1124.79 1494.71 1124.66 1497.32 1125.5 C 1497.24 1131.16 1493.88 1145.99 1492.28 1152.17 C 1480.64 1197.18 1463.13 1239.65 1438.79 1279.28 C 1435.44 1284.74 1429.56 1296.05 1425.67 1300.01 L 1423.72 1299.78 L 1421.22 1296.47 C 1416.67 1289.21 1412.49 1282.62 1408.51 1275 C 1418.78 1254.03 1429.12 1234.91 1438.26 1213.35 C 1450.22 1185.16 1457.51 1158.74 1465.84 1129.44 C 1474.31 1127.81 1484.29 1126.65 1492.94 1125.44 z" fill="rgb(10,53,22)" transform="translate(0,0)"></path>
<path d="M 550.605 1122.25 C 562.358 1123.68 571.301 1125.24 582.785 1127.63 C 590.342 1160.17 604.457 1199.58 617.876 1230.16 C 623.619 1243.25 631.813 1255.14 638.071 1270.24 C 635.784 1274.82 632.027 1280.99 629.427 1285.57 C 627.235 1289.42 625.428 1293.48 623.541 1297.5 C 589.763 1258.77 557.902 1172.89 550.605 1122.25 z" fill="rgb(10,53,22)" transform="translate(0,0)"></path>
<path d="M 769.971 1406.67 C 774.437 1407.17 814.618 1430.24 822.998 1434.17 C 856.878 1450.07 886.19 1458.57 921.588 1469.29 C 923.04 1479.06 924.646 1488.81 926.407 1498.53 C 918.454 1497.27 913.047 1495.86 905.224 1493.74 C 855.141 1481.28 784.996 1454.51 744.369 1422.07 C 753.044 1417.18 761.582 1412.04 769.971 1406.67 z" fill="rgb(10,53,22)" transform="translate(0,0)"></path>
<path d="M 1123.69 549.652 C 1139 550.632 1154.18 555.15 1168.88 559.431 C 1218.19 573.799 1258.81 593.825 1300.67 623.472 L 1288.57 629.017 C 1282.38 631.989 1276.41 635.762 1270.51 639.299 C 1230.46 611.708 1176.59 590.242 1128.97 580.142 C 1127.05 570.007 1125.29 559.843 1123.69 549.652 z" fill="rgb(10,53,22)" transform="translate(0,0)"></path>
<path d="M 1272.51 1406.87 C 1278.74 1410.18 1291.63 1418.99 1298.04 1423.13 C 1250.52 1454.88 1198.31 1478.97 1143.32 1494.55 C 1136.29 1496.27 1129.25 1497.94 1122.19 1499.58 C 1123.07 1490.88 1125.35 1479.54 1126.86 1470.74 C 1139.14 1465.31 1162.43 1458.49 1176.34 1453.36 C 1209.86 1441.09 1242.07 1425.52 1272.51 1406.87 z" fill="rgb(10,53,22)" transform="translate(0,0)"></path>
<path d="M 786.486 638.887 C 788.555 639.977 791.021 641.963 793.367 640.587 C 834.171 616.653 874.224 600.916 919.472 587.864 C 918.542 591.644 918.113 595.419 915.42 598.072 C 898.052 605.871 876.203 611.116 855.855 619.97 C 842.37 625.812 829.102 632.143 816.078 638.95 C 808.543 642.898 795.637 650.211 788.152 653.395 C 787.27 650.606 787.591 651.412 786.023 648.916 L 784.454 649.228 L 783.397 652.535 C 779.197 652.951 773.562 650.205 772.582 645.938 C 778.645 642.402 777.439 645.067 784.572 644.563 C 786.997 642.313 786.253 643.267 786.486 638.887 z" fill="rgb(8,46,18)" transform="translate(0,0)"></path>
<path d="M 1130.33 590.621 C 1170.84 598.349 1206.4 612.608 1242.61 632.023 C 1247.7 634.752 1259.26 640.249 1262.81 644.066 L 1262.61 646.398 C 1257.26 649.411 1255.1 649.122 1249.65 646.182 C 1218.5 629.384 1186.56 612.635 1151.83 604.549 C 1145.48 603.069 1139.27 601.52 1132.94 599.337 C 1131.08 597.258 1130.87 593.579 1130.33 590.621 z" fill="rgb(8,46,18)" transform="translate(0,0)"></path>
<path d="M 786.567 1395.9 C 789.556 1396.23 813.058 1410.16 817.731 1412.64 C 839.006 1424.17 861.324 1433.66 884.387 1440.99 C 890.046 1442.82 918.519 1450.11 919.815 1451.54 C 920.258 1455.03 920.568 1455.29 919.228 1458.62 L 916.63 1458.76 C 878.501 1448.1 842.573 1436.7 808.318 1416.79 C 798.615 1411.15 789.945 1407.4 780.357 1400.68 C 781.787 1398.2 783.828 1397.55 786.567 1395.9 z" fill="rgb(8,46,18)" transform="translate(0,0)"></path>
<path d="M 1255.6 1394.9 C 1259.77 1396.91 1260.99 1398.46 1264.42 1401.71 C 1240.61 1413.86 1218.97 1426.58 1194.08 1437.36 C 1173.1 1446.46 1156.16 1451.91 1134.24 1458.35 C 1129.79 1459.62 1131.58 1460.01 1128.34 1458.61 L 1127.4 1455.67 C 1129.71 1448.08 1154.44 1444.6 1162.17 1441.14 C 1187.23 1429.94 1236.62 1412.95 1255.6 1394.9 z" fill="rgb(8,46,18)" transform="translate(0,0)"></path>
<path d="M 646.862 782.555 C 649.939 784.472 650.757 787.307 652.382 790.681 C 633.449 824.061 615.767 855.957 605.335 893.085 C 603.725 898.813 601.577 910.769 597.878 914.406 L 591.959 914.508 C 590.793 909.819 595.295 897.251 596.746 892.469 C 608.831 852.639 626.233 818.525 646.862 782.555 z" fill="rgb(8,46,18)" transform="translate(0,0)"></path>
<path d="M 1454.08 1131.47 L 1455.8 1132.42 C 1455.91 1133.09 1456.02 1133.76 1456.14 1134.43 C 1445.6 1174.02 1432.55 1213.59 1412.56 1249.48 C 1408.21 1257.3 1406.04 1262.36 1402.34 1267.34 L 1397.26 1260.46 C 1412.25 1233.37 1424.98 1205.09 1435.32 1175.9 C 1439.84 1162.93 1443.56 1149.09 1447.93 1136.02 C 1449.02 1132.75 1450.65 1132.9 1454.08 1131.47 z" fill="rgb(8,46,18)" transform="translate(0,0)"></path>
<path d="M 1400.85 784.406 C 1402.82 785.299 1402.51 784.93 1403.85 786.639 C 1421.51 809.087 1457.41 894.435 1456.02 920.769 L 1453.69 922.683 C 1448.95 918.232 1446.34 902.96 1444.07 895.936 C 1434.86 867.419 1424.98 839.207 1409.42 813.421 C 1405.84 807.492 1398.44 796.246 1396.37 790.069 L 1400.85 784.406 z" fill="rgb(8,46,18)" transform="translate(0,0)"></path>
<path d="M 591.56 1127.86 C 594.767 1127.99 596.823 1127.66 599.305 1129.58 C 602.243 1136.83 603.532 1144.79 605.696 1152.33 C 608.236 1161.17 611.262 1170.08 614.307 1178.77 C 620.669 1196.61 627.779 1214.18 635.617 1231.43 C 639.577 1240.29 648.37 1252.29 646.186 1261.49 L 643.357 1261.45 C 625.391 1243.66 597.283 1155.24 591.56 1127.86 z" fill="rgb(8,46,18)" transform="translate(0,0)"></path>
<path d="M 348.066 908.401 C 354.129 909.175 360.183 910.016 366.227 910.924 C 374.519 912.158 390.786 913.287 395.452 919.589 C 396.077 924.106 395.308 925.34 393.885 929.857 C 379.485 928.798 360.743 926.034 346.137 924.316 C 346.571 918.871 347.31 913.795 348.066 908.401 z" fill="rgb(8,46,18)" transform="translate(0,0)"></path>
<path d="M 1552.08 1385.77 C 1565.24 1393.12 1579.34 1402.49 1592.36 1410.5 C 1589.18 1414.7 1585.84 1418.4 1582.38 1422.35 L 1580.73 1423.38 C 1577.01 1421.89 1548.57 1399.3 1543.63 1395.52 L 1552.08 1385.77 z" fill="rgb(8,46,18)" transform="translate(0,0)"></path>
<path d="M 1312.23 1593.78 L 1313.48 1593.96 C 1318.15 1597.01 1331.45 1625.34 1334.26 1631.77 C 1330.33 1634.08 1326.29 1636.74 1322.41 1639.19 L 1321.43 1639.17 C 1317.38 1636.3 1303.06 1606 1300.86 1599.86 C 1304.33 1597.84 1308.63 1595.7 1312.23 1593.78 z" fill="rgb(8,46,18)" transform="translate(0,0)"></path>
<path d="M 821.14 1628.58 C 825.288 1629.63 828.372 1630.01 831.752 1632.6 C 832.188 1636.81 820.582 1676.66 817.727 1679.23 C 812.902 1677.17 808.686 1675.12 804.008 1672.81 C 807.625 1661.35 815.979 1638.71 821.14 1628.58 z" fill="rgb(8,46,18)" transform="translate(0,0)"></path>
<path d="M 371.593 807.07 C 386.265 811.967 404.942 819.048 418.933 825.343 L 416.242 836.33 C 400.559 832.529 383.418 827.35 367.693 823.029 C 369.228 817.534 370.358 812.625 371.593 807.07 z" fill="rgb(8,46,18)" transform="translate(0,0)"></path>
<path d="M 392.463 1119.42 L 393.105 1119.42 C 395.392 1121.96 395.865 1127.48 396.709 1131.39 C 384.591 1135.16 364.103 1137.82 351.239 1139.82 C 349.137 1139.67 350.16 1140.03 348.297 1138.42 C 346.527 1133.86 347.033 1129.46 347.09 1124.47 C 360.998 1123.55 378.308 1121.05 392.463 1119.42 z" fill="rgb(8,46,18)" transform="translate(0,0)"></path>
<path d="M 1223.05 1631.23 L 1224.71 1631.15 C 1229.18 1634.37 1238.71 1664.67 1240.87 1671.86 L 1229.31 1677.6 L 1228.12 1678.29 L 1226.67 1677.62 C 1222.66 1668.94 1215.64 1644.06 1212.7 1633.85 L 1223.05 1631.23 z" fill="rgb(8,46,18)" transform="translate(0,0)"></path>
<path d="M 652.051 1541.77 C 656.488 1544.28 658.159 1546.01 661.864 1549.35 C 658.095 1554.74 635.051 1584.15 631.468 1587.22 C 627.317 1583.45 624.551 1581.34 620.118 1578.11 C 630.289 1565.63 640.475 1552.96 652.051 1541.77 z" fill="rgb(8,46,18)" transform="translate(0,0)"></path>
<path d="M 1130.43 1654.21 L 1132.3 1655.13 C 1135.08 1661.96 1139.76 1690.41 1141.46 1699.67 L 1130.24 1702.23 C 1128.2 1702.49 1129.16 1702.65 1127.35 1701.82 C 1125.17 1696.71 1119.34 1663.11 1120.34 1657.22 C 1123.18 1654.97 1126.76 1654.81 1130.43 1654.21 z" fill="rgb(8,46,18)" transform="translate(0,0)"></path>
<path d="M 913.888 1653.81 L 925.556 1655.93 C 925.183 1665.51 922.653 1694.62 919.841 1703.01 L 918.37 1703.69 L 905.412 1701.17 C 908.395 1685.17 910.154 1669.67 913.888 1653.81 z" fill="rgb(8,46,18)" transform="translate(0,0)"></path>
<path d="M 1399.64 1541.59 C 1406.27 1546.63 1418.75 1568.11 1423.24 1575.76 C 1419.53 1578.58 1415.49 1581.39 1411.69 1584.12 C 1407.57 1582.83 1391.04 1555.78 1389.01 1550.62 C 1392.2 1547.7 1396.28 1544.43 1399.64 1541.59 z" fill="rgb(8,46,18)" transform="translate(0,0)"></path>
<path d="M 452.413 1304.99 C 455.482 1305.83 457.41 1311.46 456.369 1315.02 C 449.678 1322.51 427.211 1332.15 417.257 1336.54 C 414.243 1332.95 412.737 1327.78 411.022 1323.27 C 423.306 1317.09 439.556 1310.56 452.413 1304.99 z" fill="rgb(8,46,18)" transform="translate(0,0)"></path>
<path d="M 372.108 1226.39 C 382.891 1223.67 408.523 1215.11 418.092 1215.29 C 418.531 1217.31 419.452 1222.1 420.044 1223.84 L 419.603 1226.01 C 416.95 1228.09 383.547 1238.83 376.853 1241.28 C 375.054 1236.63 373.567 1231.2 372.108 1226.39 z" fill="rgb(8,46,18)" transform="translate(0,0)"></path>
<path d="M 710.679 1634.47 C 714.405 1624.55 723.713 1607.9 729.2 1598.44 C 731.629 1594.25 733.946 1593.2 738.377 1592.36 C 740.591 1595.78 739.139 1594.56 742.901 1596.16 C 742.484 1603.49 727.133 1632.82 722.992 1640.53 L 710.679 1634.47 z" fill="rgb(8,46,18)" transform="translate(0,0)"></path>
<path d="M 465.045 1411.09 C 477.812 1402.92 490.641 1394.84 503.53 1386.86 C 505.887 1391.58 505.992 1392.25 509.772 1395.71 L 509.688 1397.95 C 507.998 1401.07 479.508 1419.94 473.89 1423.71 L 465.045 1411.09 z" fill="rgb(8,46,18)" transform="translate(0,0)"></path>
<path d="M 1815.71 972.793 C 1830.63 974.417 1843.96 975.967 1858.67 979.5 C 1855.58 982.995 1855.5 983.12 1854.41 987.732 C 1849.03 985.468 1838.78 987.02 1834.1 989.609 C 1823.25 988.165 1811.99 985.786 1801.2 983.703 L 1801.84 980.052 C 1805.62 980.546 1808.28 981.22 1811.97 980.324 C 1814.74 978.186 1814.81 976.234 1815.71 972.793 z" fill="rgb(247,242,227)" fill-opacity="0.839216" transform="translate(0,0)"></path>
<path d="M 1791.38 1062.63 C 1798.05 1060.72 1798.39 1060.41 1804.88 1062.11 C 1814.65 1064.67 1829.95 1065.5 1839.03 1068.11 C 1833.58 1069.08 1821.44 1071.57 1816.6 1070.82 C 1813.12 1068.09 1805.66 1067.17 1802 1070 L 1789.48 1071.47 C 1791.57 1067.44 1791.54 1067.27 1791.38 1062.63 z" fill="rgb(247,242,227)" fill-opacity="0.984314" transform="translate(0,0)"></path>
<path d="M 229.43 967.536 C 230.109 972.212 228.976 970.706 231.889 972.948 C 238.33 973.818 240.166 971.861 245.717 972.252 C 249.527 973.996 251.694 973.213 256.046 972.776 L 259.318 972.453 C 258.125 974.801 257.741 975.511 255.82 977.299 L 255.857 978.972 C 260.641 980.497 262.875 980.473 267.711 982.467 L 262.172 983.341 C 261.419 982.438 260.405 981.18 259.034 981.266 C 248.217 981.947 239.433 981.432 228.698 979.587 L 229.123 976.818 C 228.911 973.094 229.096 971.286 229.43 967.536 z" fill="rgb(247,242,227)" fill-opacity="0.333333" transform="translate(0,0)"></path>
<path d="M 977.397 219.246 L 977.895 220.901 C 980.002 220.741 980.881 213.749 986.932 210.622 C 986.491 216.539 986.346 224.281 984.346 229.59 C 982.286 231.256 980.763 232.43 978.564 233.975 C 979.095 238.448 980.618 238.536 984.306 241.088 C 985.419 243.761 985.092 243.818 984.486 246.748 L 983.766 245.806 C 978.903 246.39 976.124 245.431 973.664 241.01 C 974.53 237.298 975.924 232.663 973.272 229.576 L 974.98 228.928 C 976.47 226.718 976.914 222.113 977.397 219.246 z" fill="rgb(247,242,227)" fill-opacity="0.0901961" transform="translate(0,0)"></path>
<path d="M 229.236 989.561 L 229.475 988.154 C 231.373 987.886 230.605 988.253 231.873 987.275 C 226.675 987.302 224.694 987.371 221.538 982.998 L 222.294 981.46 C 225.422 979.777 225.196 979.703 228.698 979.587 C 239.433 981.432 248.217 981.947 259.034 981.266 C 260.405 981.18 261.419 982.438 262.172 983.341 C 251.267 985.609 240.265 988.094 229.236 989.561 z" fill="rgb(247,242,227)" fill-opacity="0.988235" transform="translate(0,0)"></path>
<path d="M 1955.57 1013.01 C 1960.05 1009.21 1972.68 1007.32 1978.51 1007.7 C 1983.59 1008.52 1986.69 1008.91 1991.62 1010.54 C 1992.98 1013.24 1993.13 1013.07 1992.76 1016.02 C 1984.92 1015.48 1971.47 1013.32 1964.44 1014.64 C 1962.8 1014.52 1957.45 1013.37 1955.57 1013.01 z" fill="rgb(247,242,227)" fill-opacity="0.0823529" transform="translate(0,0)"></path>
<path d="M 107.516 999.739 C 117.334 997.542 127.994 994.903 137.884 993.512 C 140.337 994.515 141.989 995.409 144.645 995.554 L 133.821 998.36 L 133.563 999.571 L 136.749 1000.44 C 129.532 1002.1 126.651 1002.29 121.485 1007.3 L 121.02 1009.12 L 117.881 1009.84 C 119.225 1006.88 122.125 1004.65 121.366 1001.75 C 115.545 1000.87 113.152 1002.42 107.516 999.739 z" fill="rgb(251,248,233)" fill-opacity="0.337255" transform="translate(0,0)"></path>
<path d="M 179.612 985.436 C 186.5 987.669 193.578 985.832 198.581 987.616 C 194.668 991.913 171.651 994.707 167.389 993.163 C 168.857 991.337 171.009 988.844 172.249 986.958 L 179.612 985.436 z" fill="rgb(247,242,227)" fill-opacity="0.188235" transform="translate(0,0)"></path>
<path d="M 1497.35 1419.55 C 1502.23 1425.57 1504.79 1431.55 1509.03 1437.58 C 1506.7 1438.74 1504.15 1440.08 1501.8 1441.12 C 1499.28 1437.96 1494.42 1430.9 1493.77 1427.05 C 1496.45 1424.88 1496.5 1422.95 1497.35 1419.55 z" fill="rgb(251,248,233)" fill-opacity="0.988235" transform="translate(0,0)"></path>
<path d="M 548.461 923.656 C 554.185 923.067 559.039 921.722 564.61 920.37 C 566.391 926.734 565.644 925.597 570.257 928.647 C 563.021 929.681 558.036 930.448 550.964 932.208 C 549.913 929.307 549.248 926.625 548.461 923.656 z" fill="rgb(251,248,233)" fill-opacity="0.180392" transform="translate(0,0)"></path>
<path d="M 1789.78 968.569 C 1793.43 968.951 1797.71 969.28 1801.28 969.857 C 1803.03 975.278 1800.88 976.136 1801.84 980.052 L 1801.2 983.703 L 1791.91 981.667 C 1792.82 975.969 1792.46 973.631 1789.78 968.569 z" fill="rgb(247,242,227)" transform="translate(0,0)"></path>
<path d="M 72.8607 1033.31 C 80.567 1034.58 86.9966 1037.08 94.5383 1036.71 C 95.96 1035.37 95.6748 1036.05 95.9811 1035.04 C 97.5721 1035.35 99.7834 1035.71 101.288 1036.14 L 99.8355 1037.09 C 95.6217 1039.8 94.9434 1038.42 91.6875 1042.79 C 90.9817 1042.63 84.9806 1039.41 83.7804 1038.79 C 77.2289 1035.39 70.0816 1035.98 62.7357 1035.84 C 65.986 1035.28 68.9894 1035.37 72.8868 1034.66 L 72.8607 1033.31 z" fill="rgb(251,248,233)" fill-opacity="0.847059" transform="translate(0,0)"></path>
<path d="M 632.355 548.105 C 634.455 549.564 642.657 555.047 644.072 556.422 C 642.724 559.799 642.145 560.494 638.518 562.035 C 637.412 561.563 631.02 556.786 629.618 555.769 L 632.134 553.698 C 633.102 550.603 632.768 551.654 632.355 548.105 z" fill="rgb(247,242,227)" fill-opacity="0.101961" transform="translate(0,0)"></path>
<path d="M 144.645 995.554 C 149.445 995.229 151.821 994.803 156.605 995.874 C 153.558 999.98 141.652 1000.2 136.749 1000.44 L 133.563 999.571 L 133.821 998.36 L 144.645 995.554 z" fill="rgb(251,248,233)" fill-opacity="0.117647" transform="translate(0,0)"></path>
<path d="M 62.7357 1035.84 C 59.8659 1035.97 60.9215 1036.06 58.1236 1035.14 L 58.4817 1034.3 C 64.6141 1032.46 66.6626 1032.86 72.8607 1033.31 L 72.8868 1034.66 C 68.9894 1035.37 65.986 1035.28 62.7357 1035.84 z" fill="rgb(251,248,233)" fill-opacity="0.462745" transform="translate(0,0)"></path>
<path d="M 348.573 349.996 C 346.228 347.748 337.718 339.966 338.638 336.637 C 341.494 338.38 344.098 341.719 346.393 344.313 C 346.943 347.493 346.797 347.34 348.573 349.996 z" fill="rgb(124,124,128)" fill-opacity="0.654902" transform="translate(0,0)"></path>
<path d="M 418.092 1215.29 L 420.538 1215.05 C 421.413 1218.12 421.946 1220.28 423.291 1223.22 L 420.044 1223.84 C 419.452 1222.1 418.531 1217.31 418.092 1215.29 z" fill="rgb(251,248,233)" fill-opacity="0.0392157" transform="translate(0,0)"></path>
<metadata><recraft-signature>{"signed_by": "recraft", "signature_b64": "H3p1ioDrXSQq1HrYpA7+cENU2S1qyfps8N/hfGENi1zsg//eUmBE8wkhH2GjM4yaqgB5yPW3fEF71CR1YCmTAg==", "signing_algo": "Ed25519", "generation_timestamp": 1782749798, "identifier": "96820ff2-2e22-4f1c-a561-e5f04bef32e1"}</recraft-signature></metadata></svg>