<svg xmlns="http://www.w3.org/2000/svg" height="1024" preserveAspectRatio="none" style="display: block;" version="1.1" viewBox="0 0 2048 2048" width="1024">
<path d="M 137.051 92.4144 C 176.462 91.176 221.716 92.2715 261.728 92.2459 L 516.071 92.426 L 711.718 92.3493 C 753.469 92.2171 795.16 92.0997 836.914 92.444 C 1126.49 94.8322 1470.31 197.449 1600.77 482.74 C 1654.17 597.42 1659.12 728.781 1614.5 847.155 C 1564.93 980.123 1452.45 1081 1329.74 1146.43 C 1315.03 1154.27 1300.11 1162.59 1284.97 1169.5 L 1448.16 1423.35 L 1497.35 1500.11 C 1515.77 1528.91 1526.31 1549.21 1553.94 1570.76 C 1591.01 1599.67 1631.6 1620.52 1675.35 1637.38 C 1692.4 1643.94 1710.3 1648.52 1727.12 1655.5 C 1738.45 1671.33 1754 1697.97 1764.71 1715 L 1838.84 1832.42 C 1856.83 1860.41 1874.62 1888.54 1892.18 1916.8 C 1898.42 1926.73 1911.32 1945.23 1915.76 1954.89 C 1850.29 1956.06 1783.98 1953.88 1718.31 1953.98 L 1309.62 1954.76 C 1269.41 1955.08 1229.19 1955.1 1188.98 1954.83 C 1182.04 1945.78 1170.09 1925.75 1163.4 1915.42 C 1143.69 1885.25 1124.32 1854.86 1105.28 1824.26 L 910.483 1514.85 C 885.232 1473.45 859.535 1432.33 833.398 1391.49 C 820.566 1371.54 805.494 1347.36 791.136 1328.78 C 789.85 1350.1 790.664 1380.01 790.533 1402.02 L 790.117 1577.96 C 832.143 1611.73 879.805 1643.14 922.1 1676.85 C 932.025 1684.76 948.658 1695.25 957.025 1702.75 L 957.001 1866.1 C 957.037 1894.12 957.743 1925.15 956.88 1952.97 C 930.64 1953.54 902.386 1953.04 875.987 1953.08 L 701.962 1953.15 L 138.023 1953.57 C 136.657 1928.84 137.297 1893.99 137.218 1868.57 L 137.041 1709.9 L 310.096 1575.58 L 309.924 969.829 C 310.759 797.967 310.472 626.102 309.064 454.244 C 271.618 401.724 234.782 344.58 198.526 290.991 L 160.845 235.715 C 153.598 225.219 142.76 210.482 136.811 199.714 C 137.121 163.948 137.201 128.181 137.051 92.4144 z" fill="rgb(27,64,37)" transform="translate(0,0)"></path>
<path d="M 158.177 112.121 L 566.351 112.249 C 790.978 112.809 1017.39 100.71 1230.76 185.239 C 1379.13 244.015 1517.28 345.484 1582.11 495.763 C 1630.61 608.172 1636.94 731.002 1591.31 845.624 C 1531.12 996.804 1396.55 1096.14 1251.5 1158.71 C 1262.76 1177.65 1277.96 1198.54 1290.07 1217.59 L 1402.26 1392.88 L 1458.99 1480.83 C 1475.19 1506.37 1503.32 1555.28 1523.65 1573.2 C 1580.68 1623.5 1642.78 1650.07 1713.89 1672.87 C 1726.16 1693.16 1741.09 1714.81 1753.98 1735.13 L 1822.22 1843.99 C 1827.44 1852.2 1868.5 1915.04 1869.38 1920.51 C 1866.97 1920.57 1866.88 1920.52 1864.58 1921.19 L 1863.81 1923.47 C 1864.4 1927.55 1865.49 1928.51 1867.93 1932.09 L 1868.79 1933.32 C 1863.75 1935.31 1732.82 1933.96 1713.3 1933.95 L 1226.5 1933.91 L 1200.03 1933.99 L 933.484 1512.04 L 840.256 1363.83 C 825.553 1339.64 810.465 1315.68 794.996 1291.96 C 787.343 1280.02 778.217 1264.65 769.871 1253.6 L 770.093 1590.33 C 827.62 1628.75 880.926 1674.95 936.858 1714.04 C 936.207 1786.83 936.181 1859.62 936.781 1932.4 C 905.508 1933.24 871.903 1932.9 840.527 1932.98 L 647.557 1932.85 L 158.489 1933.07 C 158.731 1862.1 158.573 1791.13 158.013 1720.17 C 213.83 1674.19 275.164 1630.3 330.881 1584.51 L 330.84 452.318 C 324.41 440.595 315.946 429.333 308.46 418.143 C 294.088 396.339 279.453 374.709 264.56 353.259 C 228.062 300.502 192.47 247.125 157.798 193.151 C 159.109 169.99 158.107 136.082 158.177 112.121 z" fill="rgb(243,229,181)" transform="translate(0,0)"></path>
<path d="M 203.462 157.444 C 331.112 155.785 461.624 157.357 589.462 157.465 L 750.625 157.574 C 808.46 157.588 866.257 157.435 923.955 162.187 C 1175.26 182.882 1462.79 288.979 1553.98 546.46 C 1589.82 646.294 1584.46 756.288 1539.07 852.162 C 1469.52 997.648 1334.79 1083.54 1186.94 1135.88 C 1187.35 1136.66 1187.76 1137.43 1188.19 1138.2 C 1207.54 1172.74 1240.47 1220.44 1262.46 1254.51 L 1365.29 1416.23 C 1389.92 1454.36 1413.65 1493.39 1438.95 1530.95 C 1453.16 1552.05 1471.93 1584.29 1490.17 1600.64 C 1547.27 1651.83 1611.81 1686.63 1684.6 1707.88 C 1694.13 1721.33 1708.2 1746.85 1718.35 1762.57 L 1768.65 1842.06 C 1779.02 1858.29 1790.41 1874.47 1800.1 1891.02 C 1607.77 1888.38 1415.4 1888.09 1223.06 1890.16 C 1215.97 1876.3 1202.34 1856.17 1193.75 1841.98 C 1057.61 1622.71 919.881 1404.42 780.574 1187.15 L 725.107 1187.7 C 726.971 1237.34 726.022 1292.03 726.024 1341.89 L 725.22 1610.58 C 750.655 1630.19 778.241 1649.73 804.267 1668.85 L 892.274 1734.35 L 892.785 1889.74 C 811.84 1888.14 727.822 1889.07 646.651 1888.96 L 202.609 1889.19 C 202.7 1840.15 202.525 1791.11 202.085 1742.07 L 374.318 1606.96 L 373.597 431.559 C 355.388 410.146 329.472 368.846 312.912 344.363 C 275.733 290.074 239.149 235.379 203.169 180.288 C 203.048 172.414 203.189 165.32 203.462 157.444 z" fill="rgb(27,64,37)" transform="translate(0,0)"></path>
<path d="M 426.073 195.497 L 704.218 195.595 C 754.899 195.791 805.839 195.142 856.501 196.468 C 1109.52 203.089 1433.04 298.11 1521.52 566.8 C 1551.13 659.295 1543.6 759.681 1500.53 846.728 C 1445.9 954.914 1338.63 1031.59 1229.37 1077.77 C 1192.42 1093.39 1164.73 1101.63 1127.42 1113.85 C 1134.54 1127.34 1145.31 1142.05 1153.44 1155.41 C 1179.05 1197.5 1206.89 1238.36 1233.36 1279.93 L 1369.18 1492.98 L 1407.11 1551.02 C 1427.39 1582.15 1443.6 1609.3 1471.38 1634.91 C 1526.99 1686.17 1587.58 1715.87 1657.78 1740.58 C 1665.56 1751.43 1674.4 1766.03 1681.82 1777.59 C 1697.27 1801.31 1712.33 1825.28 1727 1849.49 C 1650 1850.09 1573 1850.24 1495.99 1849.92 L 1242.88 1849.92 C 1203.07 1785.12 1162.86 1720.57 1122.25 1656.27 L 801.537 1147.26 L 686.972 1148.08 L 687.055 1630.52 C 711.066 1646.93 738.297 1668.35 761.552 1686.24 L 852.083 1755.62 L 852.546 1849.77 L 241.073 1849.42 L 240.906 1761.19 C 252.458 1750.53 281.159 1728.67 294.366 1718.56 C 331.78 1689.93 374.939 1653.11 413.992 1627.75 L 414.023 427.251 C 397.076 399.529 376.59 370.903 358.205 344.113 L 299.121 257.114 C 286.2 238.374 268.96 214.962 257.322 195.879 C 312.915 194.828 370.245 195.74 426.073 195.497 z" fill="rgb(243,229,181)" transform="translate(0,0)"></path>
<path d="M 342.134 241.063 L 654.742 241.19 C 717.203 241.088 780.222 239.919 842.745 241.25 C 1015.39 244.928 1197.12 280.217 1337.32 386.926 C 1402.91 436.848 1460.25 508.581 1483.11 588.609 C 1508.08 673.996 1497.32 765.858 1453.3 843.166 C 1403.94 931.362 1298.96 1002.88 1206.75 1040.46 C 1154.47 1061.76 1111.19 1072.55 1058.12 1087.52 C 1089.31 1134.3 1120.04 1185.3 1150.4 1232.93 L 1292.11 1454.02 L 1348.56 1541.49 C 1371.27 1577.47 1395.03 1619.24 1424.05 1649.62 C 1473.98 1701.89 1559.56 1755.11 1628.84 1775.64 C 1632.14 1782.43 1643.87 1799.38 1648.5 1806.81 C 1603.65 1805.05 1554.05 1805.97 1508.96 1805.94 L 1266.82 1805.96 C 1238.46 1759.89 1207.26 1713.41 1179.93 1667.57 C 1142.66 1604.09 1099.79 1539.74 1060.59 1477.33 L 825.232 1102.87 C 764.03 1103.26 702.826 1103.3 641.623 1103.01 C 640.204 1178.61 641.844 1258.09 642.086 1333.97 L 642.043 1650.88 C 697.474 1690.65 752.256 1737.59 806.991 1775.9 L 806.958 1805.11 L 436.64 1805.64 C 386.129 1805.3 335.617 1805.39 285.108 1805.93 L 284.675 1781.35 C 289.138 1778.75 299.059 1770.92 303.62 1767.5 L 340.098 1740.13 L 404.625 1690.63 C 422.22 1677.25 440.999 1663.7 458.06 1649.78 C 457.697 1586.11 457.724 1522.43 458.14 1458.76 L 458.356 1165.83 L 458.062 409.441 C 433.476 369.894 401.945 331.39 377.219 291.549 C 366.643 274.509 352.977 258.4 342.134 241.063 z" fill="rgb(27,64,37)" transform="translate(0,0)"></path>
<path d="M 771.433 388.5 C 888.313 387.657 1018.7 393.353 1128.11 437.806 C 1199.93 466.982 1259.59 512.962 1290.13 586.473 C 1314.95 646.188 1317.84 714.514 1292.6 774.755 C 1262.7 846.081 1201.53 887.675 1132.68 916.063 C 1011.47 962.941 839.086 967.051 709.077 963.726 C 687.934 963.185 661.524 963.646 640.979 962.055 L 641.098 388.965 L 771.433 388.5 z" fill="rgb(243,229,181)" transform="translate(0,0)"></path>
<path d="M 733.285 434.484 C 843.996 433.758 943.55 431.033 1052.28 458.812 C 1183.44 490.786 1298.11 592.568 1257.43 739.823 C 1241.99 795.728 1203.84 830.314 1154.94 858.199 C 1033.73 923.61 823.135 923.195 686.73 919.2 L 686.862 434.962 L 733.285 434.484 z" fill="rgb(27,64,37)" transform="translate(0,0)"></path>
<path d="M 799.92 470.491 C 926.481 469.479 1153.61 479.199 1214.79 619.653 C 1230.2 655.033 1230.2 708.933 1214.56 744.769 C 1193.69 792.606 1151.85 821.626 1104.25 840.422 C 1000.14 879.606 837.223 887.334 724.642 882.081 C 722.84 745.513 725.994 607.582 723.65 471.048 L 799.92 470.491 z" fill="rgb(243,229,181)" transform="translate(0,0)"></path>
<path d="M 798.387 515.462 C 879.916 513.813 964.958 519.668 1043.58 542.06 C 1123.48 564.814 1203.15 624.01 1176.96 717.034 C 1167.44 750.841 1137 774.276 1107.3 789.944 C 1021.43 835.213 864.771 836.726 768.774 838.002 L 769.007 516.028 L 798.387 515.462 z" fill="rgb(27,64,37)" transform="translate(0,0)"></path>
<path d="M 790.611 534.967 C 889.199 534.607 1085.45 539.375 1144.99 630.577 C 1158.76 652.054 1163.43 678.118 1157.98 703.038 C 1151.62 731.928 1134.25 749.563 1110.21 764.948 C 1029.75 813.317 882.602 815.567 790.307 816.426 C 789.705 725.373 788.662 625.91 790.611 534.967 z" fill="rgb(254,254,253)" transform="translate(0,0)"></path>
<metadata><recraft-signature>{"signed_by": "recraft", "signature_b64": "kYuNhKwiQP/y/GEHHgT5rU9ThCz28pOwU4jfQbuUyBld6f8BZ1ZjtioOTS3nWffURC9Jk0ArsEYrC2iLTh7bBw==", "signing_algo": "Ed25519", "generation_timestamp": 1782749874, "identifier": "4dcb8dbe-3e7f-47c3-b11a-03ec60dd7e3f"}</recraft-signature></metadata></svg>