<svg xmlns="http://www.w3.org/2000/svg" height="1024" preserveAspectRatio="none" style="display: block;" version="1.1" viewBox="0 0 2048 2048" width="1024">
<path d="M 923.409 106.398 C 961.23 104.569 1157.46 142.566 1182.3 165.102 C 1191.65 173.59 1191.93 185.919 1192.4 197.612 C 1224.55 203.384 1292.24 222.857 1320.19 240.688 C 1336.36 250.999 1345.4 282.407 1347.53 300.962 C 1354.5 361.755 1342.74 405.144 1306.81 453.108 C 1300.61 438.291 1296.36 423.296 1289.25 408.193 C 1212.74 399.827 1127.49 419.371 1059.05 453.397 C 1058.96 461.191 1058.95 468.986 1059.01 476.78 C 1059.76 525.505 1073.55 577.533 1109.55 612.281 C 1086.5 619.351 1067.55 610.904 1045.43 603.73 C 1061.55 628.726 1080.03 640.405 1108.19 649.144 C 1137.91 642.851 1168.78 630.437 1196.56 618.474 C 1327.44 562.116 1437.42 477.029 1502.26 348.162 C 1515.32 322.148 1525.67 294.857 1533.14 266.721 C 1536.26 255.385 1538.49 242.093 1541.76 231.203 C 1547.55 219.17 1560.2 215.506 1572.49 214.758 C 1652.15 209.912 1724.36 263.657 1773.73 321.508 C 1784.69 334.613 1793.35 349.438 1802.77 363.511 C 1831.49 406.381 1843.05 455.084 1863.84 501.728 C 1889.26 558.749 1902.57 620.01 1911.95 681.435 C 1921.91 746.674 1937.29 810.719 1938.73 877.26 C 1939.3 903.152 1939.26 929.508 1942.86 955.126 C 1944.64 967.8 1945.56 981.583 1946.63 994.402 C 1953.89 1202.77 1938.07 1443.61 1809.28 1617 C 1801.19 1628.02 1792.41 1638.52 1783 1648.44 C 1778.06 1653.71 1767.71 1663.67 1763.89 1668.94 C 1754.43 1682.01 1745.99 1699.09 1736.32 1711.89 C 1694 1767.92 1649.8 1815.38 1589.38 1852.04 C 1523.66 1891.9 1452.04 1910.95 1375.51 1912.58 C 1359.08 1912.92 1331.73 1912.96 1316.34 1909.31 C 1380.9 1866.82 1434.06 1812.05 1482.43 1752.33 C 1488.46 1744.89 1493.3 1738.57 1498.08 1730.23 C 1481.9 1732.6 1461.59 1739.22 1446.2 1736.69 C 1451.53 1726.35 1456.08 1720.03 1461.02 1708.64 C 1449.07 1714.2 1436.51 1722.48 1424.26 1728.48 C 1380.52 1749.91 1348.37 1756.55 1300.33 1755.95 C 1284.64 1754.98 1274.38 1753.36 1259.09 1749.42 C 1332.08 1686.96 1424.11 1568.68 1476.3 1487.95 L 1434.88 1470.08 C 1435.13 1488.27 1434.53 1500.77 1432.68 1518.74 C 1383.99 1524.37 1351.54 1515.89 1311.64 1489.87 C 1318.48 1512.99 1323 1542.53 1322.98 1566.9 C 1304.27 1567.46 1285.77 1567.96 1267.15 1565.61 C 1263.2 1565.12 1256.91 1564.25 1253.12 1564.49 C 1252.9 1566.53 1252.89 1567.27 1253.02 1569.26 L 1253.15 1571.06 C 1243.17 1577.04 1198.4 1568.37 1186.62 1562.97 C 1184.4 1568.84 1181.65 1574.81 1179 1580.5 C 1123.54 1699.51 1045.83 1806.52 962.137 1907.09 C 952.75 1918.37 942.84 1930.73 932.482 1941.01 C 918.65 1938.53 900.975 1931.67 887.414 1927 C 757.831 1882.36 623.725 1823.46 511.959 1744.6 C 450.751 1702.18 396.14 1650.96 349.891 1592.59 C 214.451 1420.46 130.148 1143.7 93.0715 929.43 C 99.8142 925.378 114.102 919.701 121.81 916.358 C 134.819 910.701 147.718 904.796 160.5 898.645 C 216.697 872.05 268.376 844.199 322.619 813.696 C 342.761 802.369 369.645 789.072 388.562 777.084 C 397.427 771.466 424.499 741.913 431.374 733.067 C 395.612 733.353 371.241 734.272 345.923 705.083 C 420.799 685.417 441.185 658.87 494.387 610.849 C 487.694 605.885 480.543 601.579 473.79 596.372 C 457.188 583.571 443.884 569.765 430.289 553.999 C 485.883 534.076 525.147 503.181 564.336 459.664 C 527.048 454.338 511.218 447.23 479.617 426.009 C 553.787 416.207 621.661 379.172 670.044 322.107 C 637.598 318.019 603.817 321.998 571.7 303.552 C 611.065 292.154 650.119 258.971 682.244 235.421 C 734.188 197.344 860.471 114.519 923.409 106.398 z M 182.338 977.098 C 202.492 1083.99 232.485 1188.79 271.934 1290.16 C 281.904 1315.53 290.476 1337.54 302.051 1362.06 L 316.288 1390.99 C 345.99 1370.09 382.151 1338.34 411.015 1314.96 L 625.511 1140.6 C 646.023 1124.14 670.485 1102.76 690.728 1087.44 C 681.31 1056.7 604.225 780.071 603.037 779.196 C 473.011 817.693 356.121 883.735 236.889 946.771 C 218.624 956.427 200.552 967.537 182.338 977.098 z M 618.111 300.793 C 657.901 303.728 711.811 305.804 750.675 295.433 C 730.413 309.943 713.103 317.116 691.477 327.423 C 682.203 331.844 663.798 358 653.309 364.663 C 614.169 398.889 577.985 415.201 530.829 435.084 C 564.855 443.64 605.885 435.998 640.494 433.513 C 598.302 454.02 584.303 465.098 550.941 498.567 C 531.542 518.029 489.585 549.462 464.381 559.371 C 496.51 568.084 524.852 563.097 556.576 554.697 C 530.222 572.784 514.626 579.289 481.781 581.355 C 538.683 616.77 622.773 595.575 665.653 546.506 C 657.184 567.755 646.143 587.887 632.776 606.45 C 627.307 613.996 616.104 627.097 611.941 634.061 C 673.008 633.573 705.964 597.935 736.041 548.076 C 727.991 583.525 717.096 599.656 692.763 626.657 C 752.062 610.876 763.42 569.876 793.973 528.181 C 783.245 559.777 774.71 585.874 790.31 617.359 C 792.505 621.745 794.98 625.986 797.719 630.055 C 805.295 639.35 808.069 641.051 818.398 647.35 C 827.615 603.596 833.437 552 852.926 512.126 C 845.823 542.256 843.619 563.287 859.526 590.149 C 872.98 551.772 870.919 509.664 899.388 472.398 C 897.923 482.697 891.76 494.242 889.208 504.784 C 876.206 558.492 900.011 617.539 952.645 639.988 C 946.123 627.789 937.624 612.861 932.109 600.705 C 914.732 562.405 908.915 512.335 922.027 471.771 C 936.385 427.347 967.989 369.532 1007.05 342.803 C 1040.79 319.724 1078.76 305.518 1100.85 268.896 C 1066.76 294.013 1036.69 311.871 993.086 304.326 C 956.404 297.978 913.038 279.557 879.518 263.3 C 886.447 259.588 931.529 225.021 938.28 218.584 C 914.777 212.824 891.331 207.958 867.284 205.21 C 863.499 204.777 840.058 202.765 838.547 201.799 C 892.051 195.215 939.631 204.125 990.807 217.637 C 1029.03 227.728 1090.18 250.673 1123.45 222.229 C 1132.92 214.103 1127.6 191.567 1124.34 180.871 C 1146.94 192.221 1149.42 200.933 1159.99 223.064 C 1167.06 213 1179.35 197.376 1177.39 184.316 C 1176.65 179.415 1173.55 176.461 1169.61 173.768 C 1143.88 156.181 955.535 119.555 923.399 122.216 C 908.637 124.827 889.981 132.151 875.905 138.033 C 780.965 177.708 703.289 244.953 618.111 300.793 z M 341.92 1439.37 C 346.897 1449.54 353.107 1458 358.727 1467.58 C 370.932 1488.39 384.094 1507.25 397.82 1527.07 C 401.72 1532.27 405.76 1538.05 410.322 1542.63 C 426.422 1528.53 442.935 1515.98 459.507 1502.54 L 571.024 1412.51 L 942.986 1109.1 L 1076.42 1001.32 C 1091.89 988.585 1122.8 964.334 1135.83 950.421 C 1130.5 935.155 1101.38 836.258 1094.81 830.183 C 1083.44 837.012 1067.43 850.522 1056.75 859.145 L 998.872 905.939 L 778.84 1085.04 L 469.047 1335.68 L 377.565 1410.38 C 368.071 1418.23 349.872 1431.49 341.92 1439.37 z M 494.689 1633.21 C 512.787 1647.62 529.814 1661.2 548.39 1674.97 C 562.181 1685.59 583.015 1699.56 597.979 1708.59 C 611.559 1699.81 625.432 1687.91 638.04 1677.53 L 686.4 1637.67 L 821.801 1527.6 C 865.035 1492.31 908.831 1455.58 952.291 1420.9 C 1001.12 1382.57 1049.4 1343.54 1097.11 1303.83 C 1127.18 1279.21 1155.62 1256.59 1184.87 1230.79 C 1185 1214 1184.49 1197.21 1183.36 1180.46 C 1182.46 1168.35 1173.18 1091.95 1167.78 1085.94 C 1154.19 1096.35 1139.96 1109.02 1126.34 1120.03 L 981.862 1238.18 L 494.689 1633.21 z M 614.276 775.897 C 640.452 862.868 662.158 952.729 687.92 1040.24 C 691.519 1052.77 695.154 1066.95 700.053 1078.9 C 711.159 1071.8 726.102 1058.68 736.701 1050.03 L 804.414 994.545 L 989.586 844.347 C 1017.3 821.639 1045.08 797.26 1072.85 775.047 C 1066.49 759.969 1061.53 746.527 1056.04 731.116 C 1049.93 731.224 1043.61 731.248 1037.53 731.472 C 930.325 732.775 820.585 736.722 714.713 753.924 C 686.758 758.466 641.433 767.249 614.276 775.897 z M 1140.92 727.713 C 1263.97 689.649 1406.53 592.239 1488.27 492.469 C 1508.3 467.837 1526.66 441.894 1543.23 414.813 C 1550.53 402.799 1556.96 390.367 1564.16 378.261 C 1595.44 428.479 1614.1 497.145 1630.09 553.849 C 1641.38 593.864 1650.51 636.195 1665.02 675.298 C 1689.61 640.235 1705.34 599.744 1710.88 557.282 C 1715.98 519.332 1713.09 477.026 1698.78 441.278 C 1695.1 432.082 1664.25 387.761 1656.33 386.76 C 1654.15 390.289 1658.18 396.71 1659.91 401.002 C 1668.39 422.111 1675.24 451.1 1677.1 473.8 C 1676.83 480.8 1677.08 492.279 1676.31 498.474 C 1670.86 453.514 1659.84 410.349 1636.6 370.758 C 1630.65 360.61 1621.7 349.771 1614.29 340.446 C 1668.52 364.334 1713.79 413.267 1742.04 464.834 C 1748.03 475.759 1753.08 485.673 1760.33 495.983 C 1767.79 431.028 1751.1 389.948 1712.06 337.424 C 1734.69 357.064 1747.54 370.437 1762.23 396.008 C 1765.41 401.554 1810.52 434.507 1815.05 435.049 L 1816.25 434.082 C 1815.91 427.085 1806.31 409.352 1802.79 401.674 C 1775.19 341.426 1724.65 287.09 1666.85 254.524 C 1638.53 239.532 1599.45 226.383 1567.34 231.705 C 1554.22 233.877 1548.64 274.272 1544.83 286.951 C 1537.8 310.401 1530.2 329.405 1519.6 351.392 C 1439.28 518.106 1286.78 608.942 1117.25 667.172 C 1123.89 687.545 1132.73 707.862 1140.92 727.713 z M 839.385 1582.84 C 856.747 1648.79 876.417 1725.28 896.107 1789.77 C 900.683 1807.21 905.06 1824.71 909.237 1842.25 C 931.255 1820.74 961.112 1781.47 979.491 1756.72 C 1064.75 1641.88 1133.27 1516.64 1169.43 1377.53 C 1174.84 1356.71 1183.44 1324.77 1183.65 1304.08 C 1183.66 1303.02 1183.66 1301.96 1183.65 1300.91 C 1169.51 1310.67 1150.54 1328.12 1136.51 1339.52 L 1025.73 1430.1 L 911.245 1522.99 C 887.479 1542.25 862.026 1562.5 839.385 1582.84 z M 1768.71 550.101 C 1756.98 524.813 1745 507.177 1730.53 483.755 C 1732.19 499.66 1735.28 515.453 1737.09 531.199 C 1745.79 607.006 1761.26 681.095 1758.74 757.996 C 1758.06 778.593 1755.63 799.758 1755.95 820.419 C 1814.11 740.304 1837.7 640.202 1821.43 542.546 C 1815.71 506.436 1813.95 497.595 1798.4 465.023 L 1799.3 464.964 C 1848.21 539.774 1859.92 686.687 1852.12 774.245 L 1849.09 775.042 C 1848.24 752.753 1846.82 691.814 1841.66 673.236 C 1837.08 690.218 1833.41 707.104 1828.37 723.973 C 1826.57 729.977 1818.13 747.493 1817.82 751.538 C 1816.85 763.998 1817.27 778.446 1816.64 791.51 C 1815.03 822.392 1813.02 853.252 1810.6 884.082 C 1808.6 910.946 1805.48 938.121 1802.89 964.961 C 1801.55 978.934 1798.36 995.511 1798.53 1009.29 C 1862.15 947.986 1894.03 817.986 1895.74 732.164 C 1897.07 665.055 1872.01 569.808 1847.08 507.198 C 1843.35 497.832 1832.66 472.815 1825.88 467.421 C 1811.66 456.101 1791.08 440.467 1775.74 430.93 C 1784.34 479.724 1778.27 502.769 1768.71 550.101 z M 1073.06 721.342 C 1080.6 743.092 1090.42 764.196 1099.26 785.434 C 1108.95 809.42 1118.12 833.617 1126.75 858.009 C 1148.02 919.429 1165.73 982.022 1179.8 1045.48 C 1189.44 1088.44 1199.8 1137.56 1203.35 1181.65 C 1219.97 1387.46 1127.1 1585.51 1009.58 1748.72 C 985.776 1781.79 963.191 1813.86 935.688 1844.18 C 930.439 1849.93 923.141 1857.98 918.509 1864.15 C 922.585 1876.38 926.935 1888.53 931.555 1900.58 L 932.832 1900.84 C 969.383 1854.71 1007.31 1814.35 1039.26 1764.21 C 1058.96 1733.3 1083.23 1703.56 1101.09 1670.99 C 1150.28 1586.97 1198.69 1480.76 1221.75 1386.42 C 1229.4 1354.37 1234.74 1321.81 1237.72 1289 C 1246.35 1194.35 1232.42 1107.53 1208.8 1016.41 C 1181.16 909.795 1146.6 805.054 1103.42 703.672 C 1101.65 699.458 1096.66 688.693 1093.62 685.713 C 1088.09 695.156 1077.4 712.144 1073.06 721.342 z M 1509.77 1585.45 C 1563.95 1505.76 1616.43 1430.83 1656.32 1342.27 C 1661.95 1329.78 1670.15 1314.45 1675.05 1302.22 C 1628.6 1354.07 1618.78 1368.93 1553.01 1403.45 C 1533.21 1437.87 1516.69 1461 1496.14 1493.47 C 1458.28 1549.41 1417.43 1603.26 1373.77 1654.79 C 1357.38 1673.82 1340.81 1692.69 1324.08 1711.42 C 1317.83 1718.41 1306.18 1729.93 1301.03 1736.8 C 1315.52 1737.21 1333.83 1737.31 1347.95 1734.49 C 1403.57 1723.37 1461.01 1690.8 1501.8 1652.21 C 1532.54 1623.67 1560.56 1592.33 1585.49 1558.6 C 1632.87 1494.21 1675.45 1410.48 1697.04 1333.24 C 1698.79 1326.96 1703.71 1304.9 1703.45 1298.96 C 1657.06 1385.87 1586.16 1523.2 1509.77 1585.45 z M 1861.78 1237.42 C 1854.25 1249.26 1830.19 1279.74 1826.21 1290.6 C 1814.33 1322.96 1808.12 1360.71 1795.87 1393.39 C 1788.12 1415.39 1780.82 1437.49 1772.21 1459.17 C 1761.22 1485.01 1753.14 1500.73 1745.28 1528.23 C 1731.28 1571.03 1722.15 1614.45 1702.93 1655.7 C 1696.36 1669.81 1689.01 1683.27 1682.4 1697.21 C 1698.61 1690.74 1706.61 1684.8 1720.8 1676.38 C 1788.85 1635.5 1830.37 1557.68 1860.52 1486.65 C 1909.8 1370.53 1927.47 1239.37 1929.05 1113.91 C 1929.19 1102.63 1931.25 1060.11 1927.36 1052.64 C 1924.12 1063.36 1920.96 1076.99 1918.68 1088.07 C 1910.6 1127.25 1893.94 1162.51 1880.54 1199.68 C 1875.25 1214.37 1874.65 1237.26 1870.23 1252.65 C 1866.74 1271.02 1862.48 1288.33 1857.97 1306.46 C 1850.96 1333.79 1843 1360.87 1834.12 1387.65 C 1829.42 1401.58 1823.89 1415.17 1819.52 1429.17 C 1818.57 1427.22 1826.35 1402.17 1827.74 1397.28 C 1837.5 1363.67 1845.61 1329.6 1852.03 1295.2 C 1855.25 1277.86 1857.99 1253.54 1861.78 1237.42 z M 914.646 1908.17 C 911.287 1895.32 906.789 1882.85 902.485 1870.29 C 738.923 1813.3 568.216 1737.89 446.011 1612.09 C 435.328 1601.1 423.664 1590.02 413.784 1578.18 C 282.187 1420.48 214.482 1216.25 169.716 1018.66 C 166.349 1003.79 164.842 988.148 161.146 973.657 C 152.465 969.217 131.974 959.148 124.578 953.683 C 130.963 982.948 135.376 1013 142.443 1042.01 C 190.531 1239.38 258.692 1447.89 392.943 1604.87 C 521.742 1755.48 730.532 1846.59 914.646 1908.17 z M 1881.45 909.251 C 1857.19 956.81 1839.19 1008.95 1790.7 1041.26 C 1783.84 1058.15 1777.75 1075.58 1771.57 1092.75 C 1761.29 1125.93 1754.38 1162.08 1746.33 1196.18 L 1714.06 1338.47 C 1711.61 1349.43 1708.43 1360.67 1706.14 1371.48 C 1880.82 1268.21 1935.09 1027.47 1917.73 839.964 C 1916.97 831.772 1916.36 810.715 1913.07 804.534 C 1910.19 815.003 1910.39 829.205 1909.1 840.23 C 1906.99 858.293 1905.41 876.455 1902.37 894.412 C 1887.24 980.438 1862.41 1064.47 1828.34 1144.9 C 1825.62 1151.51 1810.72 1185.58 1807.56 1189.71 C 1811.21 1174.62 1825.6 1139.02 1831.42 1121.93 C 1850.1 1066.26 1865.01 1009.4 1876.05 951.725 C 1878.19 940.058 1881.97 920.763 1881.45 909.251 z M 1731.94 1039.18 C 1762.59 973.55 1790.06 878.534 1789.18 805.361 C 1772.4 830.165 1768.79 840.753 1743.91 858.81 C 1738.58 877.084 1734.63 895.556 1729.48 913.828 C 1720.11 947.252 1708.65 980.059 1695.19 1012.06 C 1691.73 1020.15 1685.14 1035.93 1679.4 1042.35 C 1687.4 1022.9 1692.71 1005.32 1699.19 985.5 C 1723.79 910.232 1737.49 832.944 1739.85 753.833 C 1740.13 744.469 1741.15 718.25 1738.37 710.614 C 1726.6 768.887 1716.12 832.776 1675.25 878.736 C 1657.73 898.434 1659.93 901.97 1653.23 926.656 C 1649.44 940.528 1645.16 954.261 1640.4 967.829 C 1616.67 1036.02 1586.05 1101 1568.17 1171.21 C 1565.92 1180.03 1553.26 1203.48 1552.55 1209.34 C 1555.71 1211.16 1558.93 1210.18 1562.38 1209.28 C 1630.75 1191.43 1681.83 1129.23 1715.57 1070.16 C 1721.32 1059.99 1726.78 1049.66 1731.94 1039.18 z M 131.268 939.195 L 170.312 961.126 C 180.181 957.219 194.076 949.348 203.485 943.835 C 334.199 870.357 486.341 788.351 631.569 751.349 C 758.621 718.977 924.518 711.605 1056.06 712.785 C 1061.88 703.086 1070.93 688.878 1075.75 679.174 C 1051.93 678.079 1011.55 678.631 987.531 679.545 C 895.827 681.736 804.223 687.021 712.876 695.391 C 677.647 698.741 617.216 703.351 584.413 714.495 C 514.625 738.204 438.057 778.296 373.532 813.91 L 252.545 880.588 C 215.75 900.525 170.357 924.43 131.268 939.195 z M 945.518 456.447 C 1032.37 417.056 1126.39 395.959 1221.75 394.467 C 1244.55 393.999 1265.37 396.893 1286.18 396.877 C 1283.29 390.562 1280.59 384.45 1277.2 378.378 C 1230.31 380.305 1160.32 384.062 1114.4 391.697 C 1060.76 400.387 1021.08 411.54 970.497 430.402 C 1013.47 369.928 1031.53 360.801 1106.88 347.478 C 1154.44 339.07 1238.17 334.811 1282.65 359.525 C 1300.98 369.707 1306.25 412.83 1312.93 429.012 C 1336.22 386.572 1355.69 275.605 1302.53 245.993 C 1272.86 229.461 1221.54 221.367 1187.96 211.747 C 1161.42 254.59 1136.03 281.126 1093.24 307.785 C 1065.9 324.818 1036.31 338.507 1010.52 357.572 C 984.167 378.75 955.595 424.088 945.518 456.447 z M 647.678 1739.06 C 659.232 1745.8 673.255 1752.17 685.447 1758.24 C 712.818 1772.08 740.64 1785 768.868 1796.99 C 798.036 1809.58 827.498 1821.48 857.229 1832.68 C 868.166 1836.73 888.121 1844.16 899.158 1845.93 C 890.727 1808.4 879.902 1773.46 869.925 1736.69 C 857.105 1687.74 844.02 1638.87 830.67 1590.07 C 792.588 1619.77 756.552 1650.38 718.869 1680.44 L 676.495 1714.2 C 668.249 1720.77 654.111 1731.47 647.678 1739.06 z M 1445.23 1822.77 C 1419.77 1849.79 1396.97 1869.19 1370.01 1893.93 C 1462.93 1891.22 1545.7 1867.03 1618.95 1808.3 C 1653.49 1780.61 1693.05 1741.44 1716.31 1703.56 C 1695.99 1712.29 1667.18 1725.98 1646.2 1728.53 C 1653.89 1712.01 1701.09 1628.94 1697.35 1615.74 C 1689.98 1623.85 1683.84 1633.47 1676.77 1642.12 C 1663.92 1657.57 1651.18 1673.11 1638.55 1688.74 C 1608.73 1726.15 1580.98 1762.39 1542.88 1792.35 C 1584.42 1739.35 1612.71 1704.7 1645.24 1645.6 C 1621.59 1668.13 1601.2 1684.08 1572.32 1699.93 C 1563.31 1704.88 1535.96 1717.88 1530.36 1722.93 C 1517.78 1734.3 1503.55 1756.68 1492.13 1770.51 C 1476.94 1788.9 1461.39 1805.31 1445.23 1822.77 z M 403.757 713.745 C 432.906 714.333 452.159 706.892 473.206 686.339 C 494.38 665.66 510.657 642.037 527.842 618.178 C 523.318 617.54 518.452 616.684 513.92 616.626 C 476.26 654.507 436.025 694.028 384.578 711.301 C 390.686 712.164 397.683 713.312 403.757 713.745 z M 1332.32 1153.58 C 1329.64 1141.28 1322.79 1124.54 1318.14 1112.3 C 1302.98 1103.77 1289.24 1094.08 1276.41 1082.28 C 1269.17 1075.62 1261.05 1065.86 1254.07 1059.7 C 1259.59 1085.3 1276.29 1131.86 1299.34 1146.47 C 1308.93 1152.56 1321.2 1153.25 1332.32 1153.58 z M 1304.42 709.716 C 1308.48 714.774 1310.81 716.707 1315.66 720.987 C 1337.7 739.302 1361.42 754.592 1391.26 748.583 C 1390.47 728.558 1377.16 689.279 1360.77 677.768 L 1361.17 678.769 C 1368.2 695.833 1383.33 720.332 1380.29 740.259 C 1357.91 743.658 1322.1 721.61 1304.42 709.716 z M 1526.88 1057.8 L 1527.67 1056.7 C 1520.34 1051.21 1507.51 1044.25 1499.17 1038.58 C 1480.76 1026.07 1463.02 1013 1445.18 1000.06 C 1436.35 993.66 1414.41 972.389 1407.48 969.608 C 1418.43 989.149 1430.23 1006.42 1443.21 1024.52 C 1468.01 1059.1 1485.84 1065.08 1526.88 1057.8 z M 1395.85 844.665 C 1444.67 862.273 1470.61 869.053 1524.35 863.386 C 1521.46 824.454 1502.6 790.643 1482.54 758.022 C 1515.4 765.803 1546.82 772.032 1580.93 770.915 C 1582.63 709.427 1551.32 642.609 1508.18 600.693 C 1503.2 595.853 1496.75 588.033 1490.17 585.549 C 1501.8 602.298 1514.56 617.546 1525.84 634.625 C 1545.96 665.114 1566.92 717.058 1569.78 753.458 C 1524.87 746.574 1481.63 739.857 1440.98 718.443 C 1471.05 765.816 1489.58 790.776 1503 847.055 C 1484.47 847.18 1465.57 847.234 1447.28 843.822 C 1402.2 835.41 1362.3 811.653 1326.32 784.262 C 1344.33 804.775 1365.41 826.437 1377.72 850.714 C 1385.89 866.82 1395.37 890.835 1398.29 908.733 C 1342.09 906.24 1294.51 889.204 1246.69 860.704 C 1259.57 891.695 1267.27 899.887 1268.82 935.793 C 1268.71 947.437 1268.83 958.831 1267.58 970.416 C 1248.31 964.642 1233.3 955.852 1217.11 950.8 C 1219.33 956.851 1221.52 962.998 1223.81 969.01 C 1242.16 980.719 1262.14 989.643 1283.11 995.49 C 1289.07 949.554 1285.52 931.889 1270.71 889.61 C 1288.71 906.953 1304.75 912.348 1328.65 919.628 C 1361.55 929.653 1390.03 926.573 1423.59 924.34 C 1419.11 909.068 1414.77 893.699 1409.48 878.682 C 1405.59 867.641 1399.12 855.484 1395.85 844.665 z M 1075 596.823 C 1072.19 587.398 1066.03 579.004 1061.56 570.268 C 1050.91 549.473 1046.54 526.674 1043.64 503.701 C 1042.71 496.28 1042.5 486.288 1040.8 479.211 C 1023.04 483.908 1025.55 558.974 1027.76 573.835 C 1040.31 581.216 1051.84 588.299 1065.18 594.311 C 1068.51 595.251 1071.6 596.196 1075 596.823 z M 1285.2 722.596 C 1289.54 739.499 1295.59 757.569 1289.34 774.431 C 1265.7 772.048 1245.78 767.187 1224.88 755.278 C 1228.6 758.829 1231.42 761.486 1235.5 764.716 C 1245.19 771.291 1251.68 776.072 1262.86 779.768 C 1293.62 789.937 1309.46 779.486 1298.18 746.545 C 1296.04 740.286 1290.54 726.473 1285.2 722.596 z M 1495.2 1462.08 L 1500.03 1456.27 C 1491.74 1448.46 1481.24 1440.77 1472.07 1433.76 C 1445.58 1413.52 1421.45 1390.8 1397.93 1367.22 C 1392.16 1361.44 1386.17 1352.95 1380.7 1347.8 C 1382.73 1354.21 1387.61 1362.53 1390.9 1368.56 C 1410.68 1404.89 1446.18 1447.18 1483.19 1466.38 C 1485.29 1467.47 1487.41 1468.51 1489.56 1469.5 L 1495.2 1462.08 z M 1306.08 1551.84 C 1305.43 1544.92 1304.9 1536.71 1303.47 1530.03 C 1294.87 1520.4 1274.1 1510.46 1262.82 1500.38 C 1256.56 1494.78 1235.56 1471.96 1231.23 1470.42 C 1237.47 1500.79 1274.66 1544.45 1306.08 1551.84 z M 1010.99 292.482 C 999.183 274.334 986.966 256.109 991.224 233.393 C 982.057 231.336 972.866 229.386 963.654 227.544 C 963.067 252.938 971.566 273.293 993.877 287.539 C 997.326 289.742 1006.99 292.88 1010.99 292.482 z M 1579.93 942.875 C 1600.29 929.419 1610.17 918.927 1627.19 903.234 C 1673.76 860.283 1690.13 830.656 1707.08 770.523 C 1720.02 725.277 1724.44 683.657 1725.07 636.486 C 1725.3 618.766 1726.29 604.675 1723.62 586.85 C 1714.09 621.156 1693.43 679.694 1666.38 704.028 C 1665.25 722.279 1661.71 749.602 1658.06 767.461 C 1656.05 761.147 1657.02 746.718 1656.43 739.336 C 1652.81 693.469 1636.8 649.638 1624.59 605.452 C 1617.07 577.105 1609.01 548.9 1600.44 520.852 C 1598.86 515.528 1595.22 500.441 1592.7 496.437 L 1592.75 498.23 C 1593.17 510.867 1595.14 525.033 1596.78 537.594 C 1612.15 655.894 1611.04 776.345 1591.65 894.109 C 1588.88 910.915 1583.34 926.451 1579.93 942.875 z M 1239.05 823.058 C 1231.11 823.027 1228.67 822.895 1220.91 821.416 C 1211.37 818.762 1203.17 816.198 1193.96 812.448 C 1203.29 820.036 1207.36 822.179 1218.29 827.257 C 1262.04 841.037 1249.31 809.631 1233.9 786.925 C 1235.73 801.132 1239.08 807.189 1239.05 823.058 z M 1539.51 1287.12 C 1549.01 1265.74 1554.24 1250.99 1561.77 1228.76 C 1543.5 1230.47 1535.21 1231.84 1517.57 1228.43 C 1523.83 1219.65 1531.5 1210.45 1536.45 1201.12 C 1553.65 1168.7 1560.05 1129.34 1572.12 1095.32 C 1578.07 1078.77 1584.21 1062.29 1590.51 1045.87 C 1593.47 1038.25 1598.65 1026.52 1600.78 1019.15 C 1588.68 1014.24 1583.92 1010.53 1573.29 1002.74 C 1559.13 1010.74 1540.54 1004.13 1527.03 997.436 C 1537.35 1021.48 1544.33 1045.05 1546.4 1071.24 C 1521.15 1079.21 1499.52 1078.06 1474.15 1079.03 C 1478.88 1089.9 1481.57 1096.39 1483.87 1108.01 C 1441.24 1121.81 1373.58 1133.88 1330.76 1118.18 C 1335 1132.81 1345.59 1151.47 1352.17 1165.59 C 1319.74 1171.44 1291.5 1166.96 1260.28 1158.11 C 1261.15 1174.03 1262.29 1190.87 1262.54 1206.76 C 1262.73 1218.7 1260.72 1232.13 1260.93 1244.31 C 1270.74 1241.56 1299.43 1236.22 1305.55 1233.28 C 1327.5 1222.73 1352.49 1189.37 1371.72 1171.17 C 1384.83 1159.53 1391.78 1154.7 1410.17 1155.27 C 1427.88 1155.82 1439.86 1171.24 1452.11 1182.94 C 1471.32 1201.28 1494.49 1215.52 1512.74 1234.68 C 1520.32 1242.64 1520.98 1255.1 1525.64 1264.63 C 1529.01 1271.32 1535.26 1280.58 1539.51 1287.12 z M 1523.02 1315.78 C 1525.05 1312.39 1526.4 1311 1526.15 1307.09 C 1524.95 1304.26 1524.04 1302.62 1521.69 1300.54 C 1519.4 1304.75 1519.29 1311.51 1520.34 1316.07 L 1521.61 1316.71 L 1523.02 1315.78 z M 1437.78 662 C 1445.1 664.066 1478.72 675.043 1477.78 658.888 C 1476.74 640.995 1453.62 611.216 1439.64 601.833 C 1450.69 619.751 1462.66 638.181 1469.18 658.387 C 1446.14 660.146 1440.19 656.199 1421.4 655.812 C 1427.14 658.197 1431.82 660.179 1437.78 662 z M 1207.03 1527.6 C 1210.07 1534.63 1215.12 1542.17 1223.3 1543.21 C 1220.22 1539.96 1210.61 1529.34 1207.03 1527.6 z M 1549.9 578.383 C 1550.67 561.021 1548.22 525.482 1531.77 514.801 C 1541.02 535.184 1544.3 548.253 1544.15 570.989 C 1522.41 567.828 1512.69 563.177 1493.36 558.728 L 1501.86 564.955 C 1519.9 573.395 1529.54 577.212 1549.9 578.383 z M 1794.87 1325.86 C 1781.92 1340.55 1760.96 1354.42 1749.84 1367.84 C 1741.23 1378.23 1733.99 1409.18 1726.35 1421.69 C 1706.2 1468.33 1677.67 1515.13 1642.53 1551.92 C 1675.96 1501.07 1702.64 1446.09 1721.89 1388.35 C 1711.88 1392.76 1701.9 1397.75 1692.08 1402.03 C 1659 1471.69 1634.95 1520.5 1588.4 1582.51 C 1557.11 1626.06 1529.12 1652.34 1489.44 1686.66 C 1487.36 1696.83 1485.58 1703.18 1482.24 1713.04 C 1501.19 1709.63 1521.12 1700.88 1538.4 1692.27 C 1608.18 1656.74 1668.11 1604.55 1712.91 1540.32 C 1745.57 1493.3 1768.14 1427.22 1784.17 1372.71 C 1787.36 1361.88 1795.51 1336.37 1794.87 1325.86 z M 1022.95 247.807 L 1025.69 244.512 C 1023.36 239.631 1008.4 237.214 1002.97 235.855 C 1002.06 251.513 1009.51 257.658 1022.95 247.807 z M 1516.54 984.375 L 1522.86 979.556 C 1525.36 976.956 1526.36 976.941 1526.36 974.316 C 1522.87 970.435 1513.18 963.215 1508.42 958.373 C 1503.31 953.177 1486.37 933.718 1482.23 931.545 C 1494.31 952.766 1501.48 964.977 1516.54 984.375 z M 1454.89 1097.41 L 1460.59 1095.61 L 1460.68 1094.52 C 1452.04 1090.13 1437.68 1085.54 1428.15 1081.65 C 1406.8 1072.92 1386.3 1062.23 1366.92 1049.72 C 1356.43 1042.86 1346.48 1035.19 1337.19 1026.76 C 1333.09 1023.09 1318.16 1008.34 1314.9 1006.6 C 1333.4 1040.76 1361.24 1088.5 1400.65 1102.6 C 1416.2 1108.16 1439.4 1101.75 1454.89 1097.41 z M 1570.81 888.164 C 1563.04 881.221 1558.53 876.624 1551.89 868.763 C 1549.64 866.107 1540.17 854.79 1538.59 853.574 C 1538.43 858.34 1538.26 864.213 1539.13 868.767 C 1541.42 880.708 1557.6 911.501 1564.64 920.321 L 1565.77 920.095 L 1566.21 918.609 C 1568.61 907.867 1569.84 899.183 1570.81 888.164 z M 1305.61 1362.8 C 1317.62 1392.64 1346.8 1436.7 1366.84 1461.6 C 1343.37 1441.96 1318.78 1430.5 1294.14 1412.52 C 1305.48 1433.72 1326.49 1452.64 1343.91 1469.28 C 1367.73 1486.99 1388.9 1500.81 1419.27 1504.66 C 1410.98 1478.32 1368.34 1438.76 1350 1416.28 C 1344.15 1409.11 1308.71 1364.93 1305.61 1362.8 z M 1562.57 1276.26 C 1548.13 1306.9 1519.19 1360.61 1514.01 1393.25 C 1590.03 1373.64 1648.97 1312.98 1687.07 1246.7 C 1722.25 1185.5 1753.01 1117.9 1769.63 1049.18 C 1772.38 1037.83 1783.01 974.841 1781.68 964.737 C 1771.32 990.917 1762.25 1018.94 1750.55 1044.28 C 1720.88 1108.56 1685.16 1170.2 1646.18 1229.26 C 1639.39 1239.54 1621.13 1270.35 1613.02 1276.32 C 1615.03 1269.49 1625.21 1255.42 1628.74 1248.14 C 1641.57 1221.66 1659.01 1195.23 1670.23 1168.22 C 1634.77 1200.3 1625.76 1205.61 1583.28 1224.46 C 1577.34 1239.97 1569.65 1261.69 1562.57 1276.26 z M 1401.14 1172.12 C 1390.34 1176.81 1378.99 1186.66 1370.99 1195.03 C 1331.07 1236.8 1316.39 1250.55 1258.15 1257.55 C 1256.17 1284.48 1253.14 1311.32 1249.06 1338.01 C 1247.63 1347.71 1246.15 1356.54 1243.78 1366.1 C 1243.29 1368.07 1244.38 1370.33 1245.44 1372.01 C 1258.89 1382.37 1273.43 1363.38 1280.54 1353.99 C 1295.42 1334.32 1307.25 1310.54 1327.02 1295.33 C 1339.96 1285.45 1374.05 1285.24 1378.13 1267.04 C 1375.3 1255.89 1361.36 1258.86 1355.7 1252.97 C 1360.34 1245.07 1382.92 1250.28 1390.83 1251.45 C 1388.86 1244.28 1387.68 1242.05 1384.32 1235.36 C 1417.13 1256.63 1392.69 1277.64 1408.33 1295.92 C 1436.9 1296.74 1433.76 1258.83 1439.53 1238.36 C 1441.16 1248.38 1441.63 1265.41 1449.75 1272.29 C 1452.71 1274.8 1459.41 1275.7 1463.09 1274.25 C 1463.15 1272.33 1452.36 1259.21 1449.29 1253.38 C 1460.74 1263.38 1468.69 1269.67 1481.33 1278.55 C 1472.67 1284.01 1460.56 1292.24 1459.3 1302.83 C 1456.05 1330.37 1476.81 1332.27 1495.93 1327.19 C 1491.83 1331.17 1487.18 1335.14 1484.87 1340.38 C 1477.11 1357.95 1474.11 1384.45 1491.59 1397.05 C 1500.38 1372.41 1507.15 1352.34 1508.98 1326.07 C 1509.41 1319.84 1511.84 1310.58 1511.52 1303.9 C 1507.81 1287.81 1509.49 1268.47 1505.77 1252.94 C 1505.09 1250.11 1498.73 1244.53 1496.6 1242.35 C 1484.01 1231.2 1469.71 1221.62 1457.19 1210.42 C 1440.22 1195.26 1427.04 1170.89 1401.14 1172.12 z" fill="rgb(15,62,56)" transform="translate(0,0)"></path>
<path d="M 1226.58 245.351 C 1230.75 245.178 1234.69 246.176 1238.83 246.95 C 1226.63 262.08 1193.32 280.163 1175.47 289.927 L 1165.32 294.855 C 1181.38 280.448 1196.97 264.599 1213.48 250.764 C 1217.65 247.27 1221.26 246.254 1226.58 245.351 z" fill="rgb(15,62,56)" transform="translate(0,0)"></path>
<path d="M 1193.96 812.448 C 1203.17 816.198 1211.37 818.762 1220.91 821.416 C 1220.05 823.515 1219.42 825.275 1218.29 827.257 C 1207.36 822.179 1203.29 820.036 1193.96 812.448 z" fill="rgb(254,254,254)" fill-opacity="0.286275" transform="translate(0,0)"></path>
<path d="M 1207.03 1527.6 C 1210.61 1529.34 1220.22 1539.96 1223.3 1543.21 C 1215.12 1542.17 1210.07 1534.63 1207.03 1527.6 z" fill="rgb(254,254,254)" fill-opacity="0.027451" transform="translate(0,0)"></path>
<path d="M 1849.09 775.042 L 1852.12 774.245 C 1851.46 781.904 1851.01 790.781 1849.39 798.19 C 1848.94 790.481 1849.06 782.763 1849.09 775.042 z" fill="rgb(15,62,56)" fill-opacity="0.952941" transform="translate(0,0)"></path>
<path d="M 1677.1 473.8 C 1678.23 478.68 1678.72 502.53 1677.35 506.177 C 1676.22 502.52 1675.96 502.406 1676.31 498.474 C 1677.08 492.279 1676.83 480.8 1677.1 473.8 z" fill="rgb(118,133,132)" fill-opacity="0.662745" transform="translate(0,0)"></path>
<metadata><recraft-signature>{"signed_by": "recraft", "signature_b64": "F07HNUJYdt2XXaCqqG3HklOtPdf4gx65tPr1UycDzBA59+fq8Uv0sxCO7SJAY7Vfe9b3ZdWBDKkrKzYeIH6mBQ==", "signing_algo": "Ed25519", "generation_timestamp": 1782749885, "identifier": "ca913d38-9dd1-4a15-8826-d7f87b4c6bae"}</recraft-signature></metadata></svg>