<svg xmlns="http://www.w3.org/2000/svg" height="1024" preserveAspectRatio="none" style="display: block;" version="1.1" viewBox="0 0 2048 2048" width="1024">
<defs>
	<linearGradient gradientUnits="userSpaceOnUse" id="Gradient1" x1="1105.73" x2="1106.54" y1="796.414" y2="787.704">
		<stop class="stop0" offset="0" stop-color="rgb(242,233,175)" stop-opacity="0.341176"></stop>
		<stop class="stop1" offset="1" stop-color="rgb(242,234,177)" stop-opacity="0.380392"></stop>
	</linearGradient>
	<linearGradient gradientUnits="userSpaceOnUse" id="Gradient2" x1="740.279" x2="740.722" y1="1362.59" y2="1344.33">
		<stop class="stop0" offset="0" stop-color="rgb(242,233,177)" stop-opacity="0.745098"></stop>
		<stop class="stop1" offset="1" stop-color="rgb(244,235,174)" stop-opacity="0.854902"></stop>
	</linearGradient>
</defs>
<path d="M 1019.3 77.2215 C 1022.48 77.0254 1025.54 76.9716 1028.68 77.577 C 1038.91 79.5477 1074.28 116.977 1085.39 126.37 C 1136.28 169.368 1193.99 205.892 1251.66 239.033 C 1377.69 311.45 1515.84 362.824 1653.91 406.958 C 1698.7 421.191 1743.83 434.328 1789.27 446.356 C 1810.53 452.161 1833.88 457.646 1854.86 464.506 C 1858.02 465.539 1861.07 470.501 1863.11 473.432 C 1862.91 483.967 1860.11 504.907 1858.96 516.053 C 1855.81 546.914 1852.33 577.74 1848.52 608.526 C 1820.91 833.402 1774.16 1041.66 1684.39 1250.17 C 1571.32 1516.17 1383.07 1743.39 1142.73 1903.94 C 1115.55 1921.8 1089.78 1937.67 1061.22 1953.25 C 1051.13 1958.75 1040.5 1968.56 1030.01 1972.73 C 1026.09 1973.12 1019.88 1973.06 1016.53 1971.14 C 972.041 1945.71 924.641 1916.88 882.836 1887.89 C 828.585 1850.7 776.961 1809.82 728.332 1765.54 C 713.992 1752.41 698.284 1735.97 684.404 1722.04 C 535.189 1571.36 418.331 1391.78 340.997 1194.32 C 259.746 992.663 218.137 769.426 192.689 554.135 C 191.036 529.913 183.754 493.5 187.27 470.882 C 188.638 462.085 262.768 445.645 273.053 442.848 C 309.873 432.527 346.527 421.622 383.001 410.138 C 531.468 364.868 680.799 308.043 815.332 229.959 C 872.155 196.978 926.512 160.056 974.77 115.383 C 985.677 105.287 1005.95 81.0395 1019.3 77.2215 z M 207.683 483.755 C 247.257 864.461 319.817 1207.19 546.03 1524.53 C 616.752 1624.56 700.397 1714.8 794.788 1792.89 C 841.971 1831.02 891.006 1866.79 941.714 1900.09 C 965.184 1915.25 990.187 1928.11 1013.22 1944.02 C 1016.98 1946.62 1021.13 1949.52 1025.01 1951.87 C 1047.96 1932.39 1084.53 1913.79 1110.71 1897.3 C 1409.91 1708.81 1616.27 1413.35 1724.42 1079.5 C 1761.6 964.742 1787.34 852.008 1807.39 732.029 C 1820.63 652.302 1831.04 572.131 1838.6 491.666 C 1838.83 488.692 1839.01 485.713 1839.13 482.733 C 1572.05 415.867 1280.37 315.691 1065.02 138.286 C 1051.07 126.793 1036.96 109.967 1022.84 99.7002 C 887.632 240.318 690.396 326.887 509.374 391.556 C 410.356 427.138 309.675 457.907 207.683 483.755 z" fill="rgb(5,57,42)" transform="translate(0,0)"></path>
<path d="M 1022.84 99.7002 C 1036.96 109.967 1051.07 126.793 1065.02 138.286 C 1280.37 315.691 1572.05 415.867 1839.13 482.733 C 1839.01 485.713 1838.83 488.692 1838.6 491.666 C 1831.04 572.131 1820.63 652.302 1807.39 732.029 C 1787.34 852.008 1761.6 964.742 1724.42 1079.5 C 1616.27 1413.35 1409.91 1708.81 1110.71 1897.3 C 1084.53 1913.79 1047.96 1932.39 1025.01 1951.87 C 1021.13 1949.52 1016.98 1946.62 1013.22 1944.02 C 990.187 1928.11 965.184 1915.25 941.714 1900.09 C 891.006 1866.79 841.971 1831.02 794.788 1792.89 C 700.397 1714.8 616.752 1624.56 546.03 1524.53 C 319.817 1207.19 247.257 864.461 207.683 483.755 C 309.675 457.907 410.356 427.138 509.374 391.556 C 690.396 326.887 887.632 240.318 1022.84 99.7002 z M 283.488 534.775 C 285.376 549.141 287.322 563.505 289.185 577.874 C 316.027 784.902 353.703 991.232 434.999 1184.72 C 455.672 1232.59 478.482 1279.5 503.361 1325.33 C 598.469 1500.19 715.873 1645.15 874.21 1767.14 C 894.989 1783.15 1007.74 1864.7 1024.94 1868.23 C 1075.58 1841 1132.46 1799.74 1178.13 1764.31 C 1309.13 1664.31 1420.09 1540.5 1505.2 1399.37 C 1519.6 1375.45 1532.81 1350.01 1545.99 1325.36 C 1595.92 1233.25 1636.17 1136.2 1666.08 1035.78 C 1698.76 927.335 1724.01 816.786 1741.64 704.903 C 1747.43 665.667 1752.74 626.359 1757.55 586.99 C 1759.55 571.049 1761.44 548.441 1764.17 533.147 C 1692.2 516.985 1623.68 495.74 1554.03 472.035 C 1375.63 411.312 1201.77 333.468 1052.69 216.529 C 1043 208.926 1032.81 200.946 1022.79 193.818 C 998.928 213.381 976.705 233.314 951.284 251.052 C 753.346 389.173 515.25 473.965 283.488 534.775 z" fill="rgb(247,236,176)" transform="translate(0,0)"></path>
<path d="M 1022.81 147.848 C 1065.58 181.18 1102.08 212.343 1147.94 242.554 C 1249.68 308.164 1357.99 362.978 1471.11 406.106 C 1574.11 445.586 1694.34 484.664 1801.7 509.799 C 1798.49 562.209 1788.81 617.809 1781.49 669.997 C 1731.77 1024.24 1612.83 1377.37 1363.87 1643 C 1326.39 1682.27 1286.94 1719.62 1245.68 1754.9 C 1194.05 1799.71 1140.38 1839.53 1082.17 1875.36 C 1063.7 1886.72 1042.39 1900.98 1023.31 1910.59 L 1022.22 1910.84 C 1013.81 1905.98 1003.82 1898.88 995.133 1893.54 C 945.942 1863.87 898.501 1831.39 853.046 1796.27 C 626.905 1621.6 462.159 1373.01 367.416 1104.95 C 328.975 993.499 299.413 879.182 279.005 763.068 C 268.051 701.796 259.077 640.186 252.099 578.335 C 249.487 556.17 247.797 533.748 244.959 511.653 C 262.322 506.46 280.656 501.896 298.219 496.83 C 346.239 482.909 394.079 468.37 441.725 453.219 C 478.154 441.088 514.347 428.26 550.283 414.742 C 716.387 352.846 891.534 269.592 1022.81 147.848 z M 283.488 534.775 C 285.376 549.141 287.322 563.505 289.185 577.874 C 316.027 784.902 353.703 991.232 434.999 1184.72 C 455.672 1232.59 478.482 1279.5 503.361 1325.33 C 598.469 1500.19 715.873 1645.15 874.21 1767.14 C 894.989 1783.15 1007.74 1864.7 1024.94 1868.23 C 1075.58 1841 1132.46 1799.74 1178.13 1764.31 C 1309.13 1664.31 1420.09 1540.5 1505.2 1399.37 C 1519.6 1375.45 1532.81 1350.01 1545.99 1325.36 C 1595.92 1233.25 1636.17 1136.2 1666.08 1035.78 C 1698.76 927.335 1724.01 816.786 1741.64 704.903 C 1747.43 665.667 1752.74 626.359 1757.55 586.99 C 1759.55 571.049 1761.44 548.441 1764.17 533.147 C 1692.2 516.985 1623.68 495.74 1554.03 472.035 C 1375.63 411.312 1201.77 333.468 1052.69 216.529 C 1043 208.926 1032.81 200.946 1022.79 193.818 C 998.928 213.381 976.705 233.314 951.284 251.052 C 753.346 389.173 515.25 473.965 283.488 534.775 z" fill="rgb(5,57,42)" transform="translate(0,0)"></path>
<path d="M 1023.3 159.828 C 1031 164.899 1050.29 182.768 1059.51 190.01 C 1089.89 214.092 1121.4 236.714 1153.93 257.801 C 1302.2 352.574 1450.54 413.661 1618.02 467.083 C 1675.58 485.646 1733.72 502.364 1792.35 517.211 C 1787.63 575.689 1778.37 634.218 1769.13 692.138 C 1757.97 762.167 1746 833.092 1729.09 901.97 C 1635.85 1281.65 1466.41 1590.75 1143.82 1822.85 C 1105.52 1850.41 1064.8 1875.58 1024.45 1900 C 1010.59 1892.21 995.21 1882.14 981.541 1873.62 C 950.778 1854.44 918.249 1833.42 889.239 1811.64 C 716.622 1683.85 575.434 1518.36 476.421 1327.77 C 420.58 1223.43 375.998 1113.46 343.428 999.687 C 323.085 930.013 305.364 849.585 291.77 778.453 C 283.09 730.879 275.54 683.105 269.126 635.172 C 264.117 596.256 260.061 556.742 254.549 517.962 C 301.176 508.357 361.063 488.96 406.999 474.844 C 470.838 455.246 533.855 433.06 595.892 408.341 C 761.389 343.45 889.113 277.849 1023.3 159.828 z M 283.488 534.775 C 285.376 549.141 287.322 563.505 289.185 577.874 C 316.027 784.902 353.703 991.232 434.999 1184.72 C 455.672 1232.59 478.482 1279.5 503.361 1325.33 C 598.469 1500.19 715.873 1645.15 874.21 1767.14 C 894.989 1783.15 1007.74 1864.7 1024.94 1868.23 C 1075.58 1841 1132.46 1799.74 1178.13 1764.31 C 1309.13 1664.31 1420.09 1540.5 1505.2 1399.37 C 1519.6 1375.45 1532.81 1350.01 1545.99 1325.36 C 1595.92 1233.25 1636.17 1136.2 1666.08 1035.78 C 1698.76 927.335 1724.01 816.786 1741.64 704.903 C 1747.43 665.667 1752.74 626.359 1757.55 586.99 C 1759.55 571.049 1761.44 548.441 1764.17 533.147 C 1692.2 516.985 1623.68 495.74 1554.03 472.035 C 1375.63 411.312 1201.77 333.468 1052.69 216.529 C 1043 208.926 1032.81 200.946 1022.79 193.818 C 998.928 213.381 976.705 233.314 951.284 251.052 C 753.346 389.173 515.25 473.965 283.488 534.775 z" fill="rgb(247,236,176)" transform="translate(0,0)"></path>
<path d="M 1022.79 193.818 C 1032.81 200.946 1043 208.926 1052.69 216.529 C 1201.77 333.468 1375.63 411.312 1554.03 472.035 C 1623.68 495.74 1692.2 516.985 1764.17 533.147 C 1761.44 548.441 1759.55 571.049 1757.55 586.99 C 1752.74 626.359 1747.43 665.667 1741.64 704.903 C 1724.01 816.786 1698.76 927.335 1666.08 1035.78 C 1636.17 1136.2 1595.92 1233.25 1545.99 1325.36 C 1532.81 1350.01 1519.6 1375.45 1505.2 1399.37 C 1420.09 1540.5 1309.13 1664.31 1178.13 1764.31 C 1132.46 1799.74 1075.58 1841 1024.94 1868.23 C 1007.74 1864.7 894.989 1783.15 874.21 1767.14 C 715.873 1645.15 598.469 1500.19 503.361 1325.33 C 478.482 1279.5 455.672 1232.59 434.999 1184.72 C 353.703 991.232 316.027 784.902 289.185 577.874 C 287.322 563.505 285.376 549.141 283.488 534.775 C 515.25 473.965 753.346 389.173 951.284 251.052 C 976.705 233.314 998.928 213.381 1022.79 193.818 z M 356.407 573.952 C 368.874 630.939 375.768 695.881 385.928 754.241 C 398.809 827.769 413.746 900.923 430.723 973.615 C 457.034 1085.31 488.37 1199.13 543.007 1300.49 C 578.03 1365.47 625.193 1427.89 671.001 1485.48 C 765.029 1604.59 878.499 1706.96 1006.62 1788.27 C 1012.29 1791.95 1018.08 1795.41 1024 1798.65 C 1038.04 1791.61 1052.78 1780.74 1065.78 1771.68 C 1087.22 1757.03 1108.26 1741.8 1128.88 1726.02 C 1285.31 1607.95 1431.99 1440.91 1521.41 1264.66 C 1548.73 1210.8 1569.35 1144.35 1587.5 1085.45 C 1632.76 938.117 1658.2 785.197 1679.9 632.878 C 1681.96 618.402 1686.77 591.716 1683.95 578.546 C 1682.52 571.848 1629.19 566.638 1621.51 565.553 L 1535.73 552.941 C 1525.71 551.487 1496.42 548.445 1488.58 545.854 C 1474.92 541.336 1453.74 529.387 1439.39 523.432 C 1430.67 518.379 1415.37 511.622 1405.84 507.104 C 1401.18 504.733 1396.04 502.464 1391.28 500.251 L 1381.82 495.721 L 1374.97 492.476 L 1339.9 476.121 C 1335.82 474.095 1331.56 472.322 1327.38 470.507 L 1325.23 469.22 C 1320.6 466.905 1315.4 464.592 1310.67 462.384 L 1308.3 461.157 C 1288.12 451.144 1265.58 440.635 1245.04 431.335 C 1238.25 426.204 1206.2 412.593 1196.43 407.996 L 1183.1 401.677 C 1173.12 396.578 1163.09 391.585 1153.01 386.698 C 1111.6 366.11 1064 344.318 1023.63 322.548 C 904.469 381.883 784.576 439.738 663.98 496.1 L 592.313 529.787 C 582.305 534.483 561.157 545.292 551.024 547.873 C 534.18 552.164 510.791 553.742 493.155 556.49 C 447.67 563.578 402.221 569.405 356.407 573.952 z M 1476.21 567.671 L 1407.78 865.789 C 1395.66 843.51 1379.68 823.603 1365.7 802.478 C 1362.45 797.571 1358.9 792.069 1355.38 787.386 C 1354.28 785.356 1352.25 782.685 1350.87 780.723 L 1348.53 777.651 L 1347.06 775.619 C 1334.14 755.478 1316.97 731.926 1303.02 712.271 L 1239.38 622.169 C 1201.18 567.927 1163.53 509.806 1123.33 457.166 C 1120.67 452.423 1113.91 443.524 1110.5 438.762 L 1108.72 435.049 C 1106.7 433.276 1101.52 425.643 1099.65 423.029 C 1098.55 421.081 1097.15 419.53 1095.74 417.77 C 1084.96 401.821 1073.93 386.042 1062.66 370.436 C 1073.46 374.496 1088.62 382.443 1099.58 387.557 C 1110.92 395.122 1150.76 413.154 1164.86 419.732 L 1168.89 421.89 C 1172.98 423.934 1180.97 428.17 1184.9 429.502 C 1186.46 430.241 1191.82 432.905 1193.15 433.216 C 1220.77 446.492 1248.39 460.826 1275.92 473.836 C 1286.75 479.425 1298.75 484.761 1309.9 489.753 C 1316.84 493.896 1331.02 499.875 1338.91 503.659 C 1343.59 506.014 1348.3 508.279 1353.06 510.452 C 1357.02 512.387 1362.76 515.463 1366.82 516.579 C 1374.37 520.747 1410.51 538.441 1417.89 540.344 L 1476.21 567.671 z M 1384.24 874.924 C 1369.25 870.78 1352.72 864.1 1338.1 858.377 L 1313.25 849.515 L 1297.82 843.857 L 1295.57 842.716 L 1289.29 840.666 L 1277.57 835.993 C 1269.61 833.12 1261.71 830.085 1253.87 826.89 L 1246.07 824.309 C 1241.02 821.692 1227.58 817.268 1222 815.477 C 1220.86 814.724 1218.85 814.344 1217.04 813.206 C 1210.96 810.932 1204.86 808.72 1198.73 806.569 L 1196.29 805.345 C 1191.05 803.256 1185.63 801.383 1180.32 799.474 C 1179.31 798.838 1176.51 797.741 1175.27 797.212 C 1169.35 794.786 1163.24 792.672 1157.21 790.505 C 1154.81 788.881 1142.34 784.402 1138.86 783.086 L 1134.17 781.245 C 1122.26 776.836 1110.28 772.115 1098.41 767.543 L 1090.93 764.719 C 1081.29 760.588 1067.91 756.027 1057.84 752.251 L 1039.85 745.816 C 1037.81 745.162 1037.93 745.103 1036.03 744.039 C 1034.12 739.118 1035.04 731.969 1035.22 726.354 C 1036.84 701.323 1035.94 663.249 1035.92 637.479 C 1035.9 608.045 1037.32 570.601 1035.91 542.301 C 1036.27 487.107 1036.27 431.911 1035.91 376.717 C 1043.52 385.495 1059.27 409.206 1066.75 419.658 C 1068.2 421.696 1072.4 427.933 1073.95 429.296 C 1075.03 430.911 1077.73 435.254 1078.98 436.295 C 1081.73 440.298 1086.49 447.628 1089.38 451.101 L 1095.18 459.4 L 1105.73 474.484 L 1233.89 657.437 C 1260.93 696.336 1289.62 738.636 1317.55 776.67 C 1320.44 781.661 1328.91 791.83 1329.81 794.465 C 1333.3 800.516 1344.22 817.071 1348.58 822.576 C 1359.71 840.281 1374.04 857.848 1384.24 874.924 z M 1390.63 903.979 C 1368.69 938.711 1342.66 974.993 1318.9 1008.64 L 1247.14 1110.82 C 1218.5 1151.37 1190.52 1193.17 1162.1 1233.83 C 1115.01 1299.87 1068.63 1366.41 1022.96 1433.43 C 1009.7 1414.46 997.335 1393.22 983.474 1374.75 L 969.086 1354.17 C 966.947 1350.84 965.433 1348.84 962.969 1345.73 C 962.005 1344.22 961.084 1343.14 959.977 1341.73 C 869.611 1210.66 778.27 1080.27 685.961 950.561 L 684.168 946.93 C 680.342 942.57 674.894 934.09 670.573 928.689 C 665.238 921.139 660.077 913.467 655.094 905.679 C 711.735 882.921 773.001 861.903 830.483 839.601 C 891.652 815.869 961.04 787.433 1023.16 766.879 C 1028.88 768.532 1033.94 770.537 1039.5 772.666 C 1044.65 774.555 1050.19 776.697 1055.36 778.422 L 1058.05 779.61 C 1065.03 782.235 1073.27 785.58 1080.26 787.858 L 1083.1 788.77 L 1093.87 792.973 L 1110.79 799.371 L 1122.38 803.935 L 1124.08 804.387 C 1127.75 805.795 1139.15 810.484 1142.34 811.314 C 1159.52 817.951 1184.77 828.467 1201.91 833.419 C 1208.26 836.376 1214.39 838.483 1220.97 840.851 C 1228.25 844.066 1235.85 846.8 1243.31 849.591 C 1246.73 850.942 1250.41 852.483 1253.86 853.691 C 1254.97 854.109 1258.67 855.596 1259.6 855.728 C 1267.09 859.085 1310.34 875.639 1317.73 877.424 L 1390.63 903.979 z M 991.412 1431.01 L 960.117 1418.36 L 944.628 1412.13 L 942.811 1411.61 C 936.287 1409.15 930.492 1406.92 924.118 1404.1 C 911.165 1398.91 898.157 1393.86 885.097 1388.94 L 883.719 1388.23 C 878.027 1385.94 871.211 1383.7 865.349 1381.63 C 860.537 1379.07 852.415 1376.45 847.051 1374.54 C 841.865 1371.66 833.737 1368.73 828.012 1366.47 C 825.589 1365.01 816.774 1361.42 813.726 1360.11 C 806.943 1357.38 800.128 1354.73 793.283 1352.15 L 786.139 1349.2 L 774.632 1345.2 L 767.346 1342.2 L 754.032 1337.17 L 752.332 1336.36 L 744.387 1333.3 L 735.747 1329.64 C 718.441 1321.68 692.501 1312.28 674.412 1305.05 C 633.305 1288.18 591.998 1271.8 550.501 1255.9 C 567.061 1180.79 590.058 1097.99 609.485 1023.04 L 624.915 964.121 C 628.305 951.186 632.629 936.447 634.447 923.369 C 639.317 928.99 645.332 937.73 650.406 944.063 C 651.576 946.092 657.41 955.001 659.205 956.126 C 660.536 958.082 662.767 961.694 664.38 963.108 L 924.661 1333.32 L 941.253 1357.33 C 946.186 1364.65 951.212 1371.9 956.33 1379.08 C 964.046 1391.28 972.207 1403.19 980.797 1414.78 C 984.211 1419.94 988.268 1425.78 991.412 1431.01 z M 1009.5 1466.13 C 1010.87 1488.78 1010.25 1517.76 1010.25 1540.65 L 1010.5 1643.94 C 1010.34 1676.31 1009.47 1708.18 1010.98 1740.55 C 987.106 1716.54 962.509 1688 938.948 1663.01 L 697.867 1404.2 C 666.503 1370.8 636.344 1335.93 603.512 1304.25 L 714.662 1348.62 C 726.383 1353.3 748.523 1362.9 759.847 1366.42 L 776.769 1372.8 C 780.968 1374.45 794.438 1380.05 798.045 1380.72 C 802.09 1382.3 815.161 1387.79 818.608 1388.75 C 849.715 1401.46 899.868 1422.79 930.743 1432.46 L 932.535 1433.34 L 934.663 1434.35 C 939.586 1436.73 942.982 1438.05 948.027 1439.91 C 955.091 1442.9 967.328 1448.57 974.145 1450.9 L 1009.5 1466.13 z M 1010.05 744.251 C 986.615 752.518 963.5 762.272 940.279 771.216 L 811.071 820.756 C 761.74 839.739 708.752 857.598 659.943 877.43 C 669.853 860.674 689.363 835.091 701.32 818.004 C 727.629 779.764 754.328 741.794 781.412 704.099 C 808.648 666.363 835.344 628.24 861.493 589.742 C 906.778 528.922 948.255 464.244 993.218 403.049 C 999.48 394.527 1005.97 384.576 1011.24 375.415 C 1009.47 397.644 1010.22 425.845 1010.16 448.698 L 1010.18 575.385 C 1009.69 586.005 1009.73 597.335 1009.9 608.017 C 1010.48 644.282 1009.14 681.079 1010.21 717.272 L 1010.05 744.251 z" fill="rgb(5,57,42)" transform="translate(0,0)"></path>
<path d="M 1023.63 322.548 C 1064 344.318 1111.6 366.11 1153.01 386.698 C 1143.34 385.531 1142.32 390.73 1134.64 391.187 L 1134.3 390.467 L 1135.54 390.037 C 1138.22 389.086 1140.16 388.826 1141.74 386.625 L 1141.46 385.019 L 1142.42 383.479 C 1137.85 383.7 1140.72 383.858 1136.68 386.581 L 1135.75 385.57 L 1136.44 381.116 C 1132.8 378.174 1128.1 379.973 1124.91 378.856 C 1122.12 377.877 1120.01 370.543 1114.39 371.206 C 1111.8 371.511 1108.72 373.505 1106.55 374.92 C 1101.54 378.19 1096.12 375.635 1090.99 378.095 C 1093.28 382.819 1097.28 381.877 1099.58 387.557 C 1088.62 382.443 1073.46 374.496 1062.66 370.436 C 1073.93 386.042 1084.96 401.821 1095.74 417.77 C 1091.36 415.843 1091.7 415.135 1087.79 415.763 C 1078.95 426.531 1077.25 415.57 1069.16 416.475 C 1067.53 418.138 1067.97 417.557 1066.75 419.658 C 1059.27 409.206 1043.52 385.495 1035.91 376.717 C 1036.27 431.911 1036.27 487.107 1035.91 542.301 C 1035.24 535.556 1034.61 530.248 1033.44 523.582 C 1031.92 534.381 1033.45 559.988 1033.71 571.568 C 1032.39 566.891 1031.73 563.145 1028.98 559.179 L 1027.05 558.358 C 1022.08 562.381 1020.28 582.43 1018.03 585.806 C 1016.86 584.57 1013.18 568.77 1012.71 565.633 C 1012.25 562.546 1013.38 538.339 1012.72 537.762 C 1010.2 551.986 1011.42 562.139 1010.18 575.385 L 1010.16 448.698 C 1010.22 425.845 1009.47 397.644 1011.24 375.415 C 1005.97 384.576 999.48 394.527 993.218 403.049 C 948.255 464.244 906.778 528.922 861.493 589.742 C 835.344 628.24 808.648 666.363 781.412 704.099 C 754.328 741.794 727.629 779.764 701.32 818.004 C 689.363 835.091 669.853 860.674 659.943 877.43 C 708.752 857.598 761.74 839.739 811.071 820.756 L 940.279 771.216 C 963.5 762.272 986.615 752.518 1010.05 744.251 L 1010.21 717.272 C 1011.12 707.734 1011.14 698.108 1011.31 688.524 L 1011.85 688.223 C 1012.11 691.962 1012.39 695.699 1012.69 699.435 C 1013.17 685.77 1013.3 673.421 1012.7 659.739 C 1012.5 655.202 1016.25 651.231 1015.63 642.294 L 1016.69 641.079 C 1020.55 643.784 1020.45 648.638 1023.95 651.364 C 1029.61 647.496 1028.03 639.214 1030.74 632.714 C 1032.18 635.203 1030.97 645.831 1030.92 649.049 C 1030.75 659.018 1033.22 663.69 1028.08 672.606 L 1028.51 674.212 C 1029.34 673.245 1029.99 672.483 1030.88 671.566 L 1031.25 675.981 L 1032.42 676.706 C 1033.12 671.187 1034.03 664.956 1034.49 659.484 C 1034.7 678.114 1034 708.564 1035.22 726.354 C 1035.04 731.969 1034.12 739.118 1036.03 744.039 C 1037.93 745.103 1037.81 745.162 1039.85 745.816 L 1039.23 749.743 L 1040.97 749.771 L 1040.75 749.491 C 1043.56 750.539 1044.96 750.448 1047.91 750.49 L 1049.14 751.73 C 1048.43 762.457 1039.55 759.753 1039.5 772.666 C 1033.94 770.537 1028.88 768.532 1023.16 766.879 C 961.04 787.433 891.652 815.869 830.483 839.601 C 773.001 861.903 711.735 882.921 655.094 905.679 C 660.077 913.467 665.238 921.139 670.573 928.689 C 664.763 927.428 648.389 925.261 648.39 934.786 C 648.39 937.752 649.895 941.034 650.406 944.063 C 645.332 937.73 639.317 928.99 634.447 923.369 C 632.629 936.447 628.305 951.186 624.915 964.121 L 609.485 1023.04 C 590.058 1097.99 567.061 1180.79 550.501 1255.9 C 591.998 1271.8 633.305 1288.18 674.412 1305.05 C 692.501 1312.28 718.441 1321.68 735.747 1329.64 C 723.478 1332.79 733.629 1337.29 716.864 1338.41 C 718.78 1340.14 718.599 1340.16 721.087 1340.69 C 717.022 1341.89 716.815 1341.2 714.732 1343.88 L 714.662 1348.62 L 603.512 1304.25 C 636.344 1335.93 666.503 1370.8 697.867 1404.2 L 938.948 1663.01 C 962.509 1688 987.106 1716.54 1010.98 1740.55 C 1009.47 1708.18 1010.34 1676.31 1010.5 1643.94 L 1010.25 1540.65 C 1010.25 1517.76 1010.87 1488.78 1009.5 1466.13 L 974.145 1450.9 C 978.014 1447.69 980.193 1442.09 978.497 1437.34 C 974.598 1426.43 965.293 1428 960.117 1418.36 L 991.412 1431.01 C 988.268 1425.78 984.211 1419.94 980.797 1414.78 C 983.225 1413.48 983.205 1413.67 984.69 1411.39 C 985.804 1403.58 979.059 1389.02 972.475 1388.04 L 971.433 1389.4 C 972.233 1392.2 972.688 1393.76 973.198 1396.67 L 971.373 1396.67 C 963.623 1384.07 972.546 1389.57 970.772 1381.78 L 968.857 1381.06 L 967.174 1381.92 L 966.028 1386.31 C 964.078 1386.1 963.761 1385 961.987 1383.12 C 963.296 1376.05 964.239 1373.54 961.154 1366.76 L 960.88 1364.98 C 969.177 1363.47 983.848 1382.71 988.95 1389.07 C 986.886 1383.82 983.021 1380.59 982.745 1376 L 983.474 1374.75 C 997.335 1393.22 1009.7 1414.46 1022.96 1433.43 C 1068.63 1366.41 1115.01 1299.87 1162.1 1233.83 C 1190.52 1193.17 1218.5 1151.37 1247.14 1110.82 L 1318.9 1008.64 C 1342.66 974.993 1368.69 938.711 1390.63 903.979 L 1317.73 877.424 C 1319.42 877.159 1332.04 878.748 1335.68 878.886 L 1335.85 877.698 L 1336.59 878.167 C 1328.6 875.23 1314.09 873.158 1310.07 867.449 L 1310.9 865.25 L 1310.3 867.346 L 1310 866.972 L 1311.62 864.91 L 1313.63 864.714 C 1319.91 863.872 1324.28 862.036 1330.04 861.338 C 1331.37 861.177 1333.16 865.225 1334.43 867.208 C 1337.7 866.912 1337.57 866.078 1340.64 863.465 L 1338.1 858.377 C 1352.72 864.1 1369.25 870.78 1384.24 874.924 C 1374.04 857.848 1359.71 840.281 1348.58 822.576 C 1352.2 822.6 1350.39 822.906 1354.02 820.789 C 1358.79 810.83 1339.01 795.705 1341.11 788.631 L 1342.7 788.776 L 1345.45 792.404 C 1351.08 792.904 1345.29 790.732 1350.9 789.281 C 1353.68 791.877 1354.05 791.803 1354.92 795.58 L 1353.92 796.939 L 1348.91 796.309 L 1349.34 798.344 L 1348.63 797.164 C 1351.27 800.886 1350.4 800.822 1353.99 802.496 C 1356.97 802.223 1358.88 801.721 1361.58 802.939 C 1362.32 804.595 1362.67 804.491 1362.39 805.703 C 1360.58 800.711 1355.81 791.925 1355.38 787.386 C 1358.9 792.069 1362.45 797.571 1365.7 802.478 C 1379.68 823.603 1395.66 843.51 1407.78 865.789 L 1476.21 567.671 L 1417.89 540.344 C 1424.62 539.884 1438.96 548.127 1447.63 549.01 C 1438.42 544.876 1422.57 538.765 1415.41 532.618 L 1415.54 530.91 L 1420.63 528.911 L 1420.25 527.624 C 1417.43 525.87 1417.64 525.941 1414.37 525.442 L 1412.34 527.18 L 1407.99 526.694 L 1406.97 528.77 C 1404.21 529.916 1405.57 529.855 1402.76 529.039 L 1401.87 526.885 C 1402.58 522.936 1401.69 524.619 1404.98 521.848 C 1409.28 516.729 1412.14 514.733 1418.56 518.765 C 1419.19 516.544 1418.99 517.426 1419.25 515.991 L 1420.51 517.806 C 1419.26 519.996 1418.88 519.968 1416.76 521.452 L 1418.37 522.8 C 1420.92 522.374 1421.03 521.833 1423.04 520.045 C 1436.63 525.001 1429.77 537.369 1440.61 528.548 L 1439.39 523.432 C 1453.74 529.387 1474.92 541.336 1488.58 545.854 C 1496.42 548.445 1525.71 551.487 1535.73 552.941 L 1621.51 565.553 C 1629.19 566.638 1682.52 571.848 1683.95 578.546 C 1686.77 591.716 1681.96 618.402 1679.9 632.878 C 1658.2 785.197 1632.76 938.117 1587.5 1085.45 C 1569.35 1144.35 1548.73 1210.8 1521.41 1264.66 C 1431.99 1440.91 1285.31 1607.95 1128.88 1726.02 C 1108.26 1741.8 1087.22 1757.03 1065.78 1771.68 C 1052.78 1780.74 1038.04 1791.61 1024 1798.65 C 1018.08 1795.41 1012.29 1791.95 1006.62 1788.27 C 878.499 1706.96 765.029 1604.59 671.001 1485.48 C 625.193 1427.89 578.03 1365.47 543.007 1300.49 C 488.37 1199.13 457.034 1085.31 430.723 973.615 C 413.746 900.923 398.809 827.769 385.928 754.241 C 375.768 695.881 368.874 630.939 356.407 573.952 C 402.221 569.405 447.67 563.578 493.155 556.49 C 510.791 553.742 534.18 552.164 551.024 547.873 C 561.157 545.292 582.305 534.483 592.313 529.787 L 663.98 496.1 C 784.576 439.738 904.469 381.883 1023.63 322.548 z" fill="rgb(247,236,176)" fill-opacity="0.988235" transform="translate(0,0)"></path>
<path d="M 1407.8 924.725 C 1415.01 932.11 1489.04 1226.99 1495.95 1258.03 C 1369.3 1306.67 1243.04 1356.33 1117.18 1406.99 C 1095.19 1415.61 1073.32 1424.56 1051.59 1433.83 C 1068.86 1412.16 1083.68 1389.71 1099.33 1366.93 C 1200.99 1218.91 1307.08 1073.3 1407.8 924.725 z" fill="rgb(5,57,42)" transform="translate(0,0)"></path>
<path d="M 984.289 369.846 C 985.059 369.932 984.611 369.786 985.39 370.733 C 966.051 395.548 947.313 423.38 929.34 449.306 L 853.205 558.772 L 635.592 867.152 C 634.439 853.773 627.985 827.602 624.845 813.503 L 587.548 655.271 C 580.887 627.096 572.854 597.312 567.253 569.127 C 602.258 550.473 642.301 533.132 678.471 516.35 L 874.977 423.144 C 910.237 406.201 950.397 388.434 984.289 369.846 z" fill="rgb(5,57,42)" transform="translate(0,0)"></path>
<path d="M 1438.89 1308.22 L 1438.99 1308.28 C 1439.03 1309.42 1417.9 1331.11 1415.64 1333.54 L 1035.98 1740.79 L 1035.47 1740.35 C 1033.37 1731.41 1034.88 1680.48 1034.88 1668.28 L 1035.1 1466.24 C 1067.72 1454.68 1103.02 1439.37 1135.34 1426.5 L 1361.35 1338.16 C 1387.11 1328.38 1412.95 1317.21 1438.89 1308.22 z" fill="rgb(5,57,42)" transform="translate(0,0)"></path>
<path d="M 1611.89 725.994 C 1611.69 730.522 1604.99 759.18 1603.57 765.538 L 1582.59 859.331 C 1571.68 906.951 1561.04 954.629 1550.66 1002.36 C 1535.32 1070.72 1520.94 1135.58 1510.86 1205.08 C 1505.52 1189.25 1500.08 1160.98 1494.78 1142.56 C 1472.45 1063.73 1454.21 982.362 1430.55 903.941 C 1458.73 878.799 1488.38 847.882 1515.92 821.354 C 1546.6 791.806 1583.78 757.514 1611.89 725.994 z" fill="rgb(5,57,42)" transform="translate(0,0)"></path>
<path d="M 433.169 730.533 C 435.994 731.841 454.973 751.459 458.833 755.109 L 530.564 823.487 C 558.096 849.404 588.976 877.923 615.306 904.837 C 609.684 918.639 602.802 949.738 598.429 965.886 C 589.445 998.08 580.675 1030.33 572.12 1062.64 C 565.781 1087.55 560.593 1112.72 553.605 1137.44 C 548.46 1157.17 541.63 1180.57 537.851 1200.23 C 535.087 1189.91 533.116 1175.31 530.728 1164.24 L 507.44 1054.83 C 483.513 946.541 458.756 838.44 433.169 730.533 z" fill="rgb(5,57,42)" transform="translate(0,0)"></path>
<path d="M 546.818 594.817 C 552.466 598.603 603.457 838.95 611.927 866.855 C 593.644 847.176 569.662 825.978 549.775 807.343 C 508.468 767.642 466.631 728.495 424.277 689.913 C 451.803 670.535 478.678 643.811 506.915 624.13 C 521.032 614.29 531.18 604.065 546.818 594.817 z" fill="rgb(5,57,42)" transform="translate(0,0)"></path>
<path d="M 1498.25 587.349 C 1500.41 588.49 1521.25 606.829 1525.05 610.034 C 1555.71 635.664 1586.02 661.711 1615.97 688.167 C 1578.01 728.779 1533.35 767.683 1493.92 807.427 C 1473.89 827.914 1453.39 845.784 1433.51 866.654 C 1440.16 844.635 1443.63 818.281 1449.53 795.549 C 1460.58 752.951 1469.2 709.285 1479.36 666.451 C 1485.69 639.77 1492.77 614.367 1498.25 587.349 z" fill="rgb(5,57,42)" transform="translate(0,0)"></path>
<path d="M 1457.64 1325.08 C 1456.58 1332.42 1424.61 1375.71 1418.91 1384.02 C 1347.98 1487.48 1263.35 1582.4 1166.6 1662.38 C 1141.14 1683.44 1114.43 1703 1088.96 1723.98 L 1088.65 1722.37 C 1097.73 1709.45 1118.62 1689.75 1129.95 1677.48 C 1152.09 1653.53 1174.43 1629.61 1196.59 1605.66 L 1457.64 1325.08 z" fill="rgb(5,57,42)" transform="translate(0,0)"></path>
<path d="M 600.425 1338.66 C 604.664 1341.13 625.239 1365.17 630.168 1370.57 L 695.13 1441.32 C 718.409 1466.25 744.199 1491.43 768.026 1516.29 C 805.414 1555.63 842.435 1595.32 879.085 1635.35 C 900.021 1658.07 938.745 1698.38 955.955 1722.43 C 950.147 1720.21 912.518 1688.87 906.023 1683.61 C 786.543 1586.91 679.601 1470.82 600.425 1338.66 z" fill="rgb(5,57,42)" transform="translate(0,0)"></path>
<path d="M 521.409 578.533 L 522.428 578.966 C 514.838 585.957 501.427 595.568 493.02 602.378 C 465.233 624.888 436.199 645.393 408.329 667.854 L 406.094 657.1 C 401.86 636.723 396.448 616.75 392.18 596.459 C 412.541 593.121 434.278 590.782 454.888 587.931 C 476.066 585 500.343 580.392 521.409 578.533 z" fill="rgb(5,57,42)" transform="translate(0,0)"></path>
<path d="M 1528.35 578.956 C 1537.95 578.486 1569.74 583.914 1580.37 585.653 C 1606.51 589.931 1630.09 593.095 1656.52 595.806 C 1650.57 613.868 1644.82 631.99 1639.24 650.168 C 1637.48 654.999 1635.53 662.153 1633.97 667.229 C 1598.92 637.614 1563.71 608.189 1528.35 578.956 z" fill="rgb(5,57,42)" transform="translate(0,0)"></path>
<path d="M 419.721 777.939 C 439.287 851.015 454.422 926.017 470.881 999.91 C 480.255 1041.99 493.519 1085.25 501.412 1127.14 C 488.21 1098.46 471.967 1034.85 464.208 1003.84 C 444.815 929.497 428.902 854.289 416.521 778.462 L 419.721 777.939 z" fill="rgb(5,57,42)" transform="translate(0,0)"></path>
<path d="M 1634.6 744.796 L 1635.62 746.485 C 1632.63 782.62 1619.07 846.051 1611.38 882.803 C 1600.78 934.999 1588.48 986.836 1574.5 1038.23 C 1568.39 1060.42 1562.19 1084.62 1553.75 1105.84 L 1553.21 1105.02 C 1555.54 1089.33 1561.45 1064.98 1565.12 1049.25 L 1585.82 961.36 C 1602.38 889.637 1617.36 816.123 1634.6 744.796 z" fill="rgb(5,57,42)" transform="translate(0,0)"></path>
<path d="M 416.521 778.462 C 415.901 774.87 412.155 753.207 412.295 750.684 C 415.8 760.623 417.442 767.641 419.721 777.939 L 416.521 778.462 z" fill="rgb(7,13,4)" transform="translate(0,0)"></path>
<path d="M 1023.16 766.879 C 1028.88 768.532 1033.94 770.537 1039.5 772.666 C 1044.65 774.555 1050.19 776.697 1055.36 778.422 L 1058.05 779.61 C 1065.03 782.235 1073.27 785.58 1080.26 787.858 L 1083.1 788.77 L 1093.87 792.973 L 1110.79 799.371 L 1122.38 803.935 L 1124.08 804.387 C 1127.75 805.795 1139.15 810.484 1142.34 811.314 C 1159.52 817.951 1184.77 828.467 1201.91 833.419 C 1208.26 836.376 1214.39 838.483 1220.97 840.851 C 1228.25 844.066 1235.85 846.8 1243.31 849.591 C 1246.73 850.942 1250.41 852.483 1253.86 853.691 C 1254.97 854.109 1258.67 855.596 1259.6 855.728 C 1267.09 859.085 1310.34 875.639 1317.73 877.424 L 1390.63 903.979 C 1368.69 938.711 1342.66 974.993 1318.9 1008.64 L 1247.14 1110.82 C 1218.5 1151.37 1190.52 1193.17 1162.1 1233.83 C 1115.01 1299.87 1068.63 1366.41 1022.96 1433.43 C 1009.7 1414.46 997.335 1393.22 983.474 1374.75 L 969.086 1354.17 C 966.947 1350.84 965.433 1348.84 962.969 1345.73 C 962.005 1344.22 961.084 1343.14 959.977 1341.73 C 869.611 1210.66 778.27 1080.27 685.961 950.561 L 684.168 946.93 C 680.342 942.57 674.894 934.09 670.573 928.689 C 665.238 921.139 660.077 913.467 655.094 905.679 C 711.735 882.921 773.001 861.903 830.483 839.601 C 891.652 815.869 961.04 787.433 1023.16 766.879 z" fill="rgb(5,57,42)" transform="translate(0,0)"></path>
<path d="M 550.501 1255.9 C 567.061 1180.79 590.058 1097.99 609.485 1023.04 L 624.915 964.121 C 628.305 951.186 632.629 936.447 634.447 923.369 C 639.317 928.99 645.332 937.73 650.406 944.063 C 651.576 946.092 657.41 955.001 659.205 956.126 C 660.536 958.082 662.767 961.694 664.38 963.108 L 924.661 1333.32 L 941.253 1357.33 C 946.186 1364.65 951.212 1371.9 956.33 1379.08 C 964.046 1391.28 972.207 1403.19 980.797 1414.78 C 984.211 1419.94 988.268 1425.78 991.412 1431.01 L 960.117 1418.36 L 944.628 1412.13 L 942.811 1411.61 C 936.287 1409.15 930.492 1406.92 924.118 1404.1 C 911.165 1398.91 898.157 1393.86 885.097 1388.94 L 883.719 1388.23 C 878.027 1385.94 871.211 1383.7 865.349 1381.63 C 860.537 1379.07 852.415 1376.45 847.051 1374.54 C 841.865 1371.66 833.737 1368.73 828.012 1366.47 C 825.589 1365.01 816.774 1361.42 813.726 1360.11 C 806.943 1357.38 800.128 1354.73 793.283 1352.15 L 786.139 1349.2 L 774.632 1345.2 L 767.346 1342.2 L 754.032 1337.17 L 752.332 1336.36 L 744.387 1333.3 L 735.747 1329.64 C 718.441 1321.68 692.501 1312.28 674.412 1305.05 C 633.305 1288.18 591.998 1271.8 550.501 1255.9 z" fill="rgb(5,57,42)" transform="translate(0,0)"></path>
<path d="M 1062.66 370.436 C 1073.46 374.496 1088.62 382.443 1099.58 387.557 C 1110.92 395.122 1150.76 413.154 1164.86 419.732 L 1168.89 421.89 C 1172.98 423.934 1180.97 428.17 1184.9 429.502 C 1186.46 430.241 1191.82 432.905 1193.15 433.216 C 1220.77 446.492 1248.39 460.826 1275.92 473.836 C 1286.75 479.425 1298.75 484.761 1309.9 489.753 C 1316.84 493.896 1331.02 499.875 1338.91 503.659 C 1343.59 506.014 1348.3 508.279 1353.06 510.452 C 1357.02 512.387 1362.76 515.463 1366.82 516.579 C 1374.37 520.747 1410.51 538.441 1417.89 540.344 L 1476.21 567.671 L 1407.78 865.789 C 1395.66 843.51 1379.68 823.603 1365.7 802.478 C 1362.45 797.571 1358.9 792.069 1355.38 787.386 C 1354.28 785.356 1352.25 782.685 1350.87 780.723 L 1348.53 777.651 L 1347.06 775.619 C 1334.14 755.478 1316.97 731.926 1303.02 712.271 L 1239.38 622.169 C 1201.18 567.927 1163.53 509.806 1123.33 457.166 C 1120.67 452.423 1113.91 443.524 1110.5 438.762 L 1108.72 435.049 C 1106.7 433.276 1101.52 425.643 1099.65 423.029 C 1098.55 421.081 1097.15 419.53 1095.74 417.77 C 1084.96 401.821 1073.93 386.042 1062.66 370.436 z" fill="rgb(5,57,42)" transform="translate(0,0)"></path>
<path d="M 1035.91 376.717 C 1043.52 385.495 1059.27 409.206 1066.75 419.658 C 1068.2 421.696 1072.4 427.933 1073.95 429.296 C 1075.03 430.911 1077.73 435.254 1078.98 436.295 C 1081.73 440.298 1086.49 447.628 1089.38 451.101 L 1095.18 459.4 L 1105.73 474.484 L 1233.89 657.437 C 1260.93 696.336 1289.62 738.636 1317.55 776.67 C 1320.44 781.661 1328.91 791.83 1329.81 794.465 C 1333.3 800.516 1344.22 817.071 1348.58 822.576 C 1359.71 840.281 1374.04 857.848 1384.24 874.924 C 1369.25 870.78 1352.72 864.1 1338.1 858.377 L 1313.25 849.515 L 1297.82 843.857 L 1295.57 842.716 L 1289.29 840.666 L 1277.57 835.993 C 1269.61 833.12 1261.71 830.085 1253.87 826.89 L 1246.07 824.309 C 1241.02 821.692 1227.58 817.268 1222 815.477 C 1220.86 814.724 1218.85 814.344 1217.04 813.206 C 1210.96 810.932 1204.86 808.72 1198.73 806.569 L 1196.29 805.345 C 1191.05 803.256 1185.63 801.383 1180.32 799.474 C 1179.31 798.838 1176.51 797.741 1175.27 797.212 C 1169.35 794.786 1163.24 792.672 1157.21 790.505 C 1154.81 788.881 1142.34 784.402 1138.86 783.086 L 1134.17 781.245 C 1122.26 776.836 1110.28 772.115 1098.41 767.543 L 1090.93 764.719 C 1081.29 760.588 1067.91 756.027 1057.84 752.251 L 1039.85 745.816 C 1037.81 745.162 1037.93 745.103 1036.03 744.039 C 1034.12 739.118 1035.04 731.969 1035.22 726.354 C 1036.84 701.323 1035.94 663.249 1035.92 637.479 C 1035.9 608.045 1037.32 570.601 1035.91 542.301 C 1036.27 487.107 1036.27 431.911 1035.91 376.717 z" fill="rgb(5,57,42)" transform="translate(0,0)"></path>
<path d="M 1011.24 375.415 C 1009.47 397.644 1010.22 425.845 1010.16 448.698 L 1010.18 575.385 C 1009.69 586.005 1009.73 597.335 1009.9 608.017 C 1010.48 644.282 1009.14 681.079 1010.21 717.272 L 1010.05 744.251 C 986.615 752.518 963.5 762.272 940.279 771.216 L 811.071 820.756 C 761.74 839.739 708.752 857.598 659.943 877.43 C 669.853 860.674 689.363 835.091 701.32 818.004 C 727.629 779.764 754.328 741.794 781.412 704.099 C 808.648 666.363 835.344 628.24 861.493 589.742 C 906.778 528.922 948.255 464.244 993.218 403.049 C 999.48 394.527 1005.97 384.576 1011.24 375.415 z" fill="rgb(5,57,42)" transform="translate(0,0)"></path>
<path d="M 603.512 1304.25 L 714.662 1348.62 C 726.383 1353.3 748.523 1362.9 759.847 1366.42 L 776.769 1372.8 C 780.968 1374.45 794.438 1380.05 798.045 1380.72 C 802.09 1382.3 815.161 1387.79 818.608 1388.75 C 849.715 1401.46 899.868 1422.79 930.743 1432.46 L 932.535 1433.34 L 934.663 1434.35 C 939.586 1436.73 942.982 1438.05 948.027 1439.91 C 955.091 1442.9 967.328 1448.57 974.145 1450.9 L 1009.5 1466.13 C 1010.87 1488.78 1010.25 1517.76 1010.25 1540.65 L 1010.5 1643.94 C 1010.34 1676.31 1009.47 1708.18 1010.98 1740.55 C 987.106 1716.54 962.509 1688 938.948 1663.01 L 697.867 1404.2 C 666.503 1370.8 636.344 1335.93 603.512 1304.25 z" fill="rgb(5,57,42)" transform="translate(0,0)"></path>
<path d="M 1010.18 575.385 C 1011.42 562.139 1010.2 551.986 1012.72 537.762 C 1013.38 538.339 1012.25 562.546 1012.71 565.633 C 1013.18 568.77 1016.86 584.57 1018.03 585.806 C 1020.28 582.43 1022.08 562.381 1027.05 558.358 L 1028.98 559.179 C 1031.73 563.145 1032.39 566.891 1033.71 571.568 C 1033.45 559.988 1031.92 534.381 1033.44 523.582 C 1034.61 530.248 1035.24 535.556 1035.91 542.301 C 1037.32 570.601 1035.9 608.045 1035.92 637.479 C 1035.94 663.249 1036.84 701.323 1035.22 726.354 C 1034 708.564 1034.7 678.114 1034.49 659.484 C 1034.03 664.956 1033.12 671.187 1032.42 676.706 L 1031.25 675.981 L 1030.88 671.566 C 1029.99 672.483 1029.34 673.245 1028.51 674.212 L 1028.08 672.606 C 1033.22 663.69 1030.75 659.018 1030.92 649.049 C 1030.97 645.831 1032.18 635.203 1030.74 632.714 C 1028.03 639.214 1029.61 647.496 1023.95 651.364 C 1020.45 648.638 1020.55 643.784 1016.69 641.079 L 1015.63 642.294 C 1016.25 651.231 1012.5 655.202 1012.7 659.739 C 1013.3 673.421 1013.17 685.77 1012.69 699.435 C 1012.39 695.699 1012.11 691.962 1011.85 688.223 L 1011.31 688.524 C 1011.14 698.108 1011.12 707.734 1010.21 717.272 C 1009.14 681.079 1010.48 644.282 1009.9 608.017 C 1009.73 597.335 1009.69 586.005 1010.18 575.385 z" fill="rgb(247,236,176)" fill-opacity="0.678431" transform="translate(0,0)"></path>
<path d="M 1184.9 429.502 C 1199.85 409.141 1240.65 459.992 1245.04 431.335 C 1265.58 440.635 1288.12 451.144 1308.3 461.157 C 1302.28 461.701 1297.25 462.572 1296.99 469.514 C 1298.88 472.07 1297.65 471.24 1300.93 471.903 C 1304.68 470.944 1310.31 467.176 1309.82 463.016 L 1310.67 462.384 C 1315.4 464.592 1320.6 466.905 1325.23 469.22 C 1319.8 469.79 1313.35 470.439 1313.06 476.958 C 1319.12 484.782 1328.66 478.378 1327 470.934 L 1327.38 470.507 C 1331.56 472.322 1335.82 474.095 1339.9 476.121 C 1336.01 478.206 1332.09 479.648 1329.9 483.246 L 1330.29 485.2 C 1336.12 488.559 1343.09 487.42 1350.39 491.157 L 1350.5 492.345 L 1348.16 494.557 L 1348.44 496.178 L 1353.05 498.661 C 1341.29 495.163 1348.66 501.483 1338.91 503.659 C 1331.02 499.875 1316.84 493.896 1309.9 489.753 L 1312.04 488.51 L 1312.25 486.633 C 1307.68 480.369 1286.47 475.118 1279.89 471.355 C 1278.46 459.502 1235.3 442.572 1223.62 442.038 C 1216.71 441.722 1204.16 426.554 1193.15 433.216 C 1191.82 432.905 1186.46 430.241 1184.9 429.502 z M 1287.34 464.611 C 1290.08 461.668 1292.64 459.961 1293.25 456.544 C 1291 454.446 1291.13 454.609 1288.19 453.606 C 1284.14 456.105 1282.18 456.652 1280.59 460.807 C 1281.6 464.338 1283.89 464.5 1287.34 464.611 z" fill="rgb(247,236,176)" fill-opacity="0.32549" transform="translate(0,0)"></path>
<path d="M 1288.19 453.606 C 1291.13 454.609 1291 454.446 1293.25 456.544 C 1292.64 459.961 1290.08 461.668 1287.34 464.611 C 1283.89 464.5 1281.6 464.338 1280.59 460.807 C 1282.18 456.652 1284.14 456.105 1288.19 453.606 z" fill="rgb(247,236,176)" fill-opacity="0.482353" transform="translate(0,0)"></path>
<path d="M 1099.58 387.557 C 1097.28 381.877 1093.28 382.819 1090.99 378.095 C 1096.12 375.635 1101.54 378.19 1106.55 374.92 C 1108.72 373.505 1111.8 371.511 1114.39 371.206 C 1120.01 370.543 1122.12 377.877 1124.91 378.856 C 1128.1 379.973 1132.8 378.174 1136.44 381.116 L 1135.75 385.57 L 1136.68 386.581 C 1140.72 383.858 1137.85 383.7 1142.42 383.479 L 1141.46 385.019 L 1141.74 386.625 C 1140.16 388.826 1138.22 389.086 1135.54 390.037 L 1134.3 390.467 L 1134.64 391.187 C 1142.32 390.73 1143.34 385.531 1153.01 386.698 C 1163.09 391.585 1173.12 396.578 1183.1 401.677 L 1181.73 402.285 C 1172.93 406.123 1166.97 410.704 1158.53 404.971 C 1157.79 407.228 1158.13 406.773 1158.49 409.457 L 1157.18 410.4 L 1151.64 409.466 C 1155.28 411.857 1163.02 415.623 1164.66 418.377 L 1164.86 419.732 C 1150.76 413.154 1110.92 395.122 1099.58 387.557 z" fill="rgb(247,236,176)" fill-opacity="0.854902" transform="translate(0,0)"></path>
<path d="M 1057.84 752.251 C 1067.91 756.027 1081.29 760.588 1090.93 764.719 C 1086.16 766.228 1079.45 767.713 1080.65 773.951 C 1087.91 778.334 1093.64 773.109 1098.41 767.543 C 1110.28 772.115 1122.26 776.836 1134.17 781.245 C 1129.93 782.383 1123.42 783.72 1125.16 789.251 C 1130.86 792.198 1137.39 788.758 1138.86 783.086 C 1142.34 784.402 1154.81 788.881 1157.21 790.505 L 1157.06 791.946 L 1160.55 794.624 C 1156.54 798.49 1149.78 802.169 1144.19 800.421 C 1142.23 798.302 1139.13 795.523 1136.97 793.454 C 1134.81 793.861 1132.65 794.252 1130.48 794.625 C 1115.23 797.392 1123.56 787.198 1107 788.84 C 1102.94 786.694 1098.5 780.036 1092.9 779.866 C 1087.01 779.687 1086.77 784.945 1081.19 786.142 L 1080.26 787.858 C 1073.27 785.58 1065.03 782.235 1058.05 779.61 C 1061.8 777.412 1066.3 775.71 1069.32 773.753 C 1060.15 770.604 1056.52 766.917 1048.2 768.8 C 1054.79 765.046 1058.78 768.251 1068.48 767.605 C 1071.57 764.822 1071.51 764.847 1073.71 761.295 C 1071.8 756.307 1062.08 762.615 1056.65 759.65 C 1057.32 756.606 1057.53 755.342 1057.84 752.251 z" fill="rgb(247,236,176)" fill-opacity="0.45098" transform="translate(0,0)"></path>
<path d="M 1196.43 407.996 C 1206.2 412.593 1238.25 426.204 1245.04 431.335 C 1240.65 459.992 1199.85 409.141 1184.9 429.502 C 1180.97 428.17 1172.98 423.934 1168.89 421.89 C 1167.46 419.087 1166.24 417.327 1166.07 414.192 C 1171.23 407.262 1188.04 424.126 1196.43 407.996 z" fill="rgb(247,236,176)" fill-opacity="0.466667" transform="translate(0,0)"></path>
<path d="M 808.561 1363.8 L 807.025 1370.21 C 810.124 1374.71 818.073 1375.59 823.249 1375.89 L 821.275 1378.46 C 816.981 1378.93 814.2 1376.73 807.987 1376.77 L 807.737 1378.14 C 811.034 1381.27 818.585 1381.54 823.043 1382.36 C 834.3 1384.44 840.494 1388.83 848.451 1377.86 L 846.683 1375.73 L 847.051 1374.54 C 852.415 1376.45 860.537 1379.07 865.349 1381.63 L 865.404 1383.05 C 876.964 1391.09 863.978 1392.49 883.719 1388.23 L 885.097 1388.94 C 882.02 1389.95 873.509 1393.64 871.425 1395.96 C 869.643 1405.51 888.586 1402.9 894.723 1408.87 C 886.963 1406.81 885.563 1407.83 877.692 1407.85 C 865.023 1398.52 876.164 1399.93 860.079 1399.03 C 856.048 1398.81 851.937 1383.56 838.49 1391.48 C 834.973 1393.55 831.43 1384.24 818.608 1388.75 C 815.161 1387.79 802.09 1382.3 798.045 1380.72 L 797.8 1380.19 C 797.984 1379.12 803.479 1369.72 804.512 1367.72 C 806.106 1365.2 805.914 1364.92 808.561 1363.8 z" fill="rgb(247,236,176)" fill-opacity="0.113725" transform="translate(0,0)"></path>
<path d="M 1339.9 476.121 L 1374.97 492.476 C 1370.9 494.381 1369.75 495.155 1366.11 497.82 L 1364.3 499.033 L 1364.26 501.196 C 1369.78 506.908 1395.8 518.255 1398.12 524.373 C 1389.24 529.441 1378.56 516.176 1366.82 516.579 C 1362.76 515.463 1357.02 512.387 1353.06 510.452 C 1357.41 510.248 1358.76 510.4 1361.75 508.024 L 1361.51 505.605 C 1359.07 502.27 1356.52 500.973 1353.05 498.661 L 1348.44 496.178 L 1348.16 494.557 L 1350.5 492.345 L 1350.39 491.157 C 1343.09 487.42 1336.12 488.559 1330.29 485.2 L 1329.9 483.246 C 1332.09 479.648 1336.01 478.206 1339.9 476.121 z" fill="rgb(247,236,176)" fill-opacity="0.592157" transform="translate(0,0)"></path>
<path d="M 885.097 1388.94 C 898.157 1393.86 911.165 1398.91 924.118 1404.1 C 919.985 1405.16 913.988 1407.27 911.635 1410.98 C 913.497 1418.84 927.697 1418.92 932.944 1425.01 C 933.866 1428.12 934.367 1429.95 932.535 1433.34 L 930.743 1432.46 L 931.293 1431.37 C 930.966 1430.47 930.638 1429.58 930.311 1428.69 C 925.46 1427.11 917.941 1424.21 913.682 1422.12 C 911.696 1419.01 909.678 1415.44 905.259 1416.41 C 899.488 1417.67 897.881 1413.02 894.723 1408.87 C 888.586 1402.9 869.643 1405.51 871.425 1395.96 C 873.509 1393.64 882.02 1389.95 885.097 1388.94 z M 904.062 1407.79 C 907.692 1404.39 908.464 1404.84 909.331 1400.9 C 907.065 1398.65 904.812 1398.25 901.39 1398.04 C 898.247 1400.22 897.063 1400.63 895.595 1404.17 L 895.965 1406.57 C 898.879 1408.66 900.572 1408.37 904.062 1407.79 z" fill="rgb(247,236,176)" fill-opacity="0.152941" transform="translate(0,0)"></path>
<path d="M 901.39 1398.04 C 904.812 1398.25 907.065 1398.65 909.331 1400.9 C 908.464 1404.84 907.692 1404.39 904.062 1407.79 C 900.572 1408.37 898.879 1408.66 895.965 1406.57 L 895.595 1404.17 C 897.063 1400.63 898.247 1400.22 901.39 1398.04 z" fill="rgb(247,236,176)" fill-opacity="0.27451" transform="translate(0,0)"></path>
<path d="M 1161.68 808.947 L 1164.15 808.181 C 1163.48 805.995 1163.55 806.259 1163.25 804.069 C 1164.67 800.856 1164.71 801.729 1168.95 799.753 C 1167.54 803.23 1166.85 803.102 1167.74 805.844 C 1172.88 805.708 1173.96 801.291 1179.67 801 L 1180.13 802.896 C 1176.02 807.859 1176.25 808.29 1170.45 810.488 C 1173.55 812.883 1178.67 810.15 1183.02 814.732 C 1185.13 816.944 1199.45 822.527 1202.73 822.416 C 1204.38 817.92 1212.56 813.7 1217.04 813.206 C 1218.85 814.344 1220.86 814.724 1222 815.477 C 1221.13 820.51 1221.73 818.698 1218.2 822.916 C 1214.45 824.835 1210.68 824.116 1206.47 823.65 C 1209.08 827.108 1209.37 827.438 1212.59 830.309 C 1215.64 830.534 1219.7 830.081 1221.5 831.454 C 1219.31 831.469 1217.04 831.551 1214.88 831.551 C 1209.71 831.553 1207.14 827.222 1202.4 829.014 C 1201.6 831.48 1201.54 830.253 1202.16 832.724 L 1201.91 833.419 C 1184.77 828.467 1159.52 817.951 1142.34 811.314 C 1146.88 809.579 1156.02 809.913 1161.68 808.947 z" fill="rgb(247,236,176)" fill-opacity="0.0588235" transform="translate(0,0)"></path>
<path d="M 1366.82 516.579 C 1378.56 516.176 1389.24 529.441 1398.12 524.373 C 1395.8 518.255 1369.78 506.908 1364.26 501.196 L 1364.3 499.033 L 1366.11 497.82 C 1368.16 501.347 1366.75 500.304 1369.98 501.651 C 1373.07 500.679 1374.78 499.507 1377.94 499.889 C 1377.79 503.181 1377.25 501.807 1378.94 504.295 C 1383.53 505.175 1385.75 501.039 1391.28 500.251 C 1396.04 502.464 1401.18 504.733 1405.84 507.104 C 1403.15 509.566 1402.14 511.631 1399.76 514.338 C 1399.1 518.192 1398.71 516.528 1400.53 519.584 L 1404.98 521.848 C 1401.69 524.619 1402.58 522.936 1401.87 526.885 L 1402.76 529.039 C 1405.57 529.855 1404.21 529.916 1406.97 528.77 L 1407.99 526.694 L 1412.34 527.18 L 1414.37 525.442 C 1417.64 525.941 1417.43 525.87 1420.25 527.624 L 1420.63 528.911 L 1415.54 530.91 L 1415.41 532.618 C 1422.57 538.765 1438.42 544.876 1447.63 549.01 C 1438.96 548.127 1424.62 539.884 1417.89 540.344 C 1410.51 538.441 1374.37 520.747 1366.82 516.579 z" fill="rgb(247,236,176)" fill-opacity="0.737255" transform="translate(0,0)"></path>
<path d="M 818.608 1388.75 C 831.43 1384.24 834.973 1393.55 838.49 1391.48 C 851.937 1383.56 856.048 1398.81 860.079 1399.03 C 876.164 1399.93 865.023 1398.52 877.692 1407.85 C 885.563 1407.83 886.963 1406.81 894.723 1408.87 C 897.881 1413.02 899.488 1417.67 905.259 1416.41 C 909.678 1415.44 911.696 1419.01 913.682 1422.12 C 917.941 1424.21 925.46 1427.11 930.311 1428.69 C 930.638 1429.58 930.966 1430.47 931.293 1431.37 L 930.743 1432.46 C 899.868 1422.79 849.715 1401.46 818.608 1388.75 z" fill="rgb(247,236,176)" fill-opacity="0.0196078" transform="translate(0,0)"></path>
<path d="M 650.406 944.063 C 649.895 941.034 648.39 937.752 648.39 934.786 C 648.389 925.261 664.763 927.428 670.573 928.689 C 674.894 934.09 680.342 942.57 684.168 946.93 C 678.405 949.334 678.687 950.104 675.469 956.487 C 670.35 955.506 665.826 954.3 660.655 954.677 L 659.205 956.126 C 657.41 955.001 651.576 946.092 650.406 944.063 z" fill="rgb(247,236,176)" fill-opacity="0.792157" transform="translate(0,0)"></path>
<path d="M 1193.15 433.216 C 1204.16 426.554 1216.71 441.722 1223.62 442.038 C 1235.3 442.572 1278.46 459.502 1279.89 471.355 L 1275.92 473.836 C 1248.39 460.826 1220.77 446.492 1193.15 433.216 z" fill="rgb(247,236,176)" fill-opacity="0.0431373" transform="translate(0,0)"></path>
<path d="M 774.632 1345.2 L 786.139 1349.2 C 781.682 1350.85 776.23 1352.3 774.205 1356.57 C 775.236 1362.02 778.315 1362.8 783.3 1361.43 C 785.904 1358.7 790.111 1352.81 793.283 1352.15 C 800.128 1354.73 806.943 1357.38 813.726 1360.11 C 810.82 1361.07 810.67 1361.61 808.561 1363.8 C 805.914 1364.92 806.106 1365.2 804.512 1367.72 C 796.226 1369.35 794.97 1368.83 787.036 1365.8 C 784.158 1367.05 778.628 1369.11 776.499 1371.09 L 776.769 1372.8 L 759.847 1366.42 L 764.891 1364.83 C 764.137 1363.81 763.081 1363.39 762 1362.75 L 761.749 1360.67 C 765.083 1356.65 771.625 1346.64 774.632 1345.2 z" fill="rgb(247,236,176)" fill-opacity="0.729412" transform="translate(0,0)"></path>
<path d="M 1222 815.477 C 1227.58 817.268 1241.02 821.692 1246.07 824.309 C 1245.71 826.635 1245.72 825.65 1245.81 827.256 C 1240.64 829.062 1231.64 829.598 1229.58 830.955 L 1230.52 832.333 C 1237.51 833.505 1244.69 829.702 1246.22 845.465 C 1246.38 847.116 1244.81 848.798 1243.31 849.591 C 1235.85 846.8 1228.25 844.066 1220.97 840.851 L 1222.91 839.306 C 1223.62 834.868 1223.38 836.222 1221.5 831.454 C 1219.7 830.081 1215.64 830.534 1212.59 830.309 C 1209.37 827.438 1209.08 827.108 1206.47 823.65 C 1210.68 824.116 1214.45 824.835 1218.2 822.916 C 1221.73 818.698 1221.13 820.51 1222 815.477 z" fill="rgb(247,236,176)" fill-opacity="0.290196" transform="translate(0,0)"></path>
<path d="M 944.628 1412.13 L 960.117 1418.36 C 965.293 1428 974.598 1426.43 978.497 1437.34 C 980.193 1442.09 978.014 1447.69 974.145 1450.9 C 967.328 1448.57 955.091 1442.9 948.027 1439.91 C 952.513 1436.44 955.953 1425.74 954.859 1420.67 C 950.03 1417.62 951.444 1420.7 945.332 1418.8 C 943.6 1415.49 944.143 1416.53 944.628 1412.13 z" fill="rgb(247,236,176)" fill-opacity="0.705882" transform="translate(0,0)"></path>
<path d="M 714.662 1348.62 L 714.732 1343.88 C 716.815 1341.2 717.022 1341.89 721.087 1340.69 C 727.81 1341.31 733.608 1344.49 739.781 1347.32 C 749.661 1347.63 762.484 1359.57 768.199 1348.98 C 767.734 1345.96 768.529 1345.01 767.346 1342.2 L 774.632 1345.2 C 771.625 1346.64 765.083 1356.65 761.749 1360.67 L 762 1362.75 C 763.081 1363.39 764.137 1363.81 764.891 1364.83 L 759.847 1366.42 C 748.523 1362.9 726.383 1353.3 714.662 1348.62 z" fill="url(#Gradient2)" transform="translate(0,0)"></path>
<path d="M 1259.6 855.728 C 1270.8 855.417 1281.66 866.343 1288.24 859.526 C 1288.82 851.926 1274.69 852.423 1269.8 845.225 C 1269.91 841.339 1269.41 843.242 1272.33 839.642 C 1274.73 847.995 1280.16 846.034 1287.54 843.732 L 1289.29 840.666 L 1295.57 842.716 C 1274.37 855.02 1307.4 861.512 1313.63 864.714 L 1311.62 864.91 L 1310 866.972 L 1310.3 867.346 L 1310.9 865.25 L 1310.07 867.449 C 1314.09 873.158 1328.6 875.23 1336.59 878.167 L 1335.85 877.698 L 1335.68 878.886 C 1332.04 878.748 1319.42 877.159 1317.73 877.424 C 1310.34 875.639 1267.09 859.085 1259.6 855.728 z" fill="rgb(247,236,176)" fill-opacity="0.721569" transform="translate(0,0)"></path>
<path d="M 1350.87 780.723 C 1352.25 782.685 1354.28 785.356 1355.38 787.386 C 1355.81 791.925 1360.58 800.711 1362.39 805.703 C 1362.67 804.491 1362.32 804.595 1361.58 802.939 C 1358.88 801.721 1356.97 802.223 1353.99 802.496 C 1350.4 800.822 1351.27 800.886 1348.63 797.164 L 1349.34 798.344 L 1348.91 796.309 L 1353.92 796.939 L 1354.92 795.58 C 1354.05 791.803 1353.68 791.877 1350.9 789.281 C 1345.29 790.732 1351.08 792.904 1345.45 792.404 L 1342.7 788.776 L 1341.11 788.631 C 1339.01 795.705 1358.79 810.83 1354.02 820.789 C 1350.39 822.906 1352.2 822.6 1348.58 822.576 C 1344.22 817.071 1333.3 800.516 1329.81 794.465 C 1335.81 785.704 1336.7 784.737 1346.6 785.523 C 1347.81 784.464 1349.74 782.039 1350.87 780.723 z" fill="rgb(247,236,176)" fill-opacity="0.745098" transform="translate(0,0)"></path>
<path d="M 1253.87 826.89 C 1261.71 830.085 1269.61 833.12 1277.57 835.993 L 1272.33 839.642 C 1269.41 843.242 1269.91 841.339 1269.8 845.225 C 1274.69 852.423 1288.82 851.926 1288.24 859.526 C 1281.66 866.343 1270.8 855.417 1259.6 855.728 C 1258.67 855.596 1254.97 854.109 1253.86 853.691 C 1258.47 854.117 1265.98 855.733 1267.63 850.35 C 1263.59 842.469 1254.27 843.018 1247.48 837.641 C 1246.03 834.154 1246.1 835.851 1246.99 832.393 C 1249.9 829.083 1250.01 828.796 1253.87 826.89 z" fill="rgb(247,236,176)" fill-opacity="0.521569" transform="translate(0,0)"></path>
<path d="M 1295.57 842.716 L 1297.82 843.857 C 1296.16 846.993 1294.04 850.045 1294.23 853.456 L 1295.56 854.928 C 1303.08 854.763 1304.68 851.104 1313.25 849.515 L 1338.1 858.377 L 1340.64 863.465 C 1337.57 866.078 1337.7 866.912 1334.43 867.208 C 1333.16 865.225 1331.37 861.177 1330.04 861.338 C 1324.28 862.036 1319.91 863.872 1313.63 864.714 C 1307.4 861.512 1274.37 855.02 1295.57 842.716 z" fill="rgb(247,236,176)" fill-opacity="0.776471" transform="translate(0,0)"></path>
<path d="M 941.253 1357.33 C 943.392 1353.3 943.524 1353.23 947.285 1350.75 C 947.545 1353.92 947.683 1353.71 949.715 1356.23 C 955.896 1355.57 966.302 1359.11 969.918 1364.51 L 971.652 1364.71 C 970.832 1360.8 969.804 1358.29 969.086 1354.17 L 983.474 1374.75 L 982.745 1376 C 983.021 1380.59 986.886 1383.82 988.95 1389.07 C 983.848 1382.71 969.177 1363.47 960.88 1364.98 L 961.154 1366.76 C 960.563 1371.48 960.497 1375.37 956.983 1378.84 L 956.33 1379.08 C 951.212 1371.9 946.186 1364.65 941.253 1357.33 z" fill="rgb(247,236,176)" fill-opacity="0.32549" transform="translate(0,0)"></path>
<path d="M 1110.5 438.762 C 1113.91 443.524 1120.67 452.423 1123.33 457.166 C 1122.49 464.905 1123.68 471.408 1123.96 479.126 C 1117.72 478.042 1108.81 474.012 1105.73 474.484 L 1095.18 459.4 C 1099.57 458.236 1098.44 459.196 1101 456.163 C 1103.39 457.346 1102.94 457.243 1105.01 459.085 C 1105.76 461.897 1105.71 462.316 1107.19 464.758 C 1108.94 464.936 1110.7 465.078 1112.46 465.184 C 1113.28 466.684 1116.58 471.13 1117.91 471.985 C 1122.83 450.525 1099.64 452.619 1110.5 438.762 z" fill="rgb(247,236,176)" fill-opacity="0.0352941" transform="translate(0,0)"></path>
<path d="M 1317.55 776.67 C 1320.41 770.462 1314.95 758.814 1315.59 751.32 C 1327.65 758.432 1334.4 775.316 1347.06 775.619 L 1348.53 777.651 C 1334.25 777.146 1329.74 765.173 1322.17 766.025 C 1317.92 773.236 1326.02 777.719 1332.13 778.358 C 1337.49 778.919 1342.08 783.303 1346.6 785.523 C 1336.7 784.737 1335.81 785.704 1329.81 794.465 C 1328.91 791.83 1320.44 781.661 1317.55 776.67 z" fill="rgb(247,236,176)" fill-opacity="0.0901961" transform="translate(0,0)"></path>
<path d="M 1039.85 745.816 L 1057.84 752.251 C 1057.53 755.342 1057.32 756.606 1056.65 759.65 C 1062.08 762.615 1071.8 756.307 1073.71 761.295 C 1071.51 764.847 1071.57 764.822 1068.48 767.605 C 1058.78 768.251 1054.79 765.046 1048.2 768.8 L 1046.73 772.372 C 1049.14 776.363 1050.86 773.192 1055.36 778.422 C 1050.19 776.697 1044.65 774.555 1039.5 772.666 C 1039.55 759.753 1048.43 762.457 1049.14 751.73 L 1047.91 750.49 C 1044.96 750.448 1043.56 750.539 1040.75 749.491 L 1040.97 749.771 L 1039.23 749.743 L 1039.85 745.816 z" fill="rgb(247,236,176)" fill-opacity="0.705882" transform="translate(0,0)"></path>
<path d="M 924.118 1404.1 C 930.492 1406.92 936.287 1409.15 942.811 1411.61 C 929.751 1418.08 943.709 1429.04 934.663 1434.35 L 932.535 1433.34 C 934.367 1429.95 933.866 1428.12 932.944 1425.01 C 927.697 1418.92 913.497 1418.84 911.635 1410.98 C 913.988 1407.27 919.985 1405.16 924.118 1404.1 z" fill="rgb(247,236,176)" fill-opacity="0.270588" transform="translate(0,0)"></path>
<path d="M 1180.32 799.474 C 1185.63 801.383 1191.05 803.256 1196.29 805.345 C 1191.96 806.156 1191.65 806.083 1188.33 808.771 L 1187.19 811.161 C 1190.34 817.382 1197.39 813.803 1201.24 810.304 C 1200.46 808.144 1200.87 809.139 1197.81 807.565 L 1198.73 806.569 C 1204.86 808.72 1210.96 810.932 1217.04 813.206 C 1212.56 813.7 1204.38 817.92 1202.73 822.416 C 1199.45 822.527 1185.13 816.944 1183.02 814.732 C 1178.67 810.15 1173.55 812.883 1170.45 810.488 C 1176.25 808.29 1176.02 807.859 1180.13 802.896 L 1179.67 801 L 1180.32 799.474 z" fill="rgb(247,236,176)" fill-opacity="0.266667" transform="translate(0,0)"></path>
<path d="M 1099.65 423.029 C 1101.52 425.643 1106.7 433.276 1108.72 435.049 C 1099.2 441.309 1106.88 444.136 1101.34 452.274 C 1096.79 447.891 1089.84 438.503 1086.64 436.727 L 1084.97 434.985 C 1081.97 434.3 1082.44 434.794 1078.98 436.295 C 1077.73 435.254 1075.03 430.911 1073.95 429.296 C 1079.04 422.675 1086.79 431.558 1091.7 434.966 C 1097.3 433.931 1089.99 430.006 1099.65 423.029 z" fill="rgb(247,236,176)" fill-opacity="0.482353" transform="translate(0,0)"></path>
<path d="M 828.012 1366.47 C 833.737 1368.73 841.865 1371.66 847.051 1374.54 L 846.683 1375.73 L 848.451 1377.86 C 840.494 1388.83 834.3 1384.44 823.043 1382.36 C 818.585 1381.54 811.034 1381.27 807.737 1378.14 L 807.987 1376.77 C 814.2 1376.73 816.981 1378.93 821.275 1378.46 L 823.249 1375.89 C 826.221 1372.07 827.679 1371.02 828.012 1366.47 z" fill="rgb(247,236,176)" fill-opacity="0.254902" transform="translate(0,0)"></path>
<path d="M 961.154 1366.76 C 964.239 1373.54 963.296 1376.05 961.987 1383.12 C 963.761 1385 964.078 1386.1 966.028 1386.31 L 967.174 1381.92 L 968.857 1381.06 L 970.772 1381.78 C 972.546 1389.57 963.623 1384.07 971.373 1396.67 L 973.198 1396.67 C 972.688 1393.76 972.233 1392.2 971.433 1389.4 L 972.475 1388.04 C 979.059 1389.02 985.804 1403.58 984.69 1411.39 C 983.205 1413.67 983.225 1413.48 980.797 1414.78 C 972.207 1403.19 964.046 1391.28 956.33 1379.08 L 956.983 1378.84 C 960.497 1375.37 960.563 1371.48 961.154 1366.76 z" fill="rgb(247,236,176)" fill-opacity="0.862745" transform="translate(0,0)"></path>
<path d="M 1246.07 824.309 L 1253.87 826.89 C 1250.01 828.796 1249.9 829.083 1246.99 832.393 C 1246.1 835.851 1246.03 834.154 1247.48 837.641 C 1254.27 843.018 1263.59 842.469 1267.63 850.35 C 1265.98 855.733 1258.47 854.117 1253.86 853.691 C 1250.41 852.483 1246.73 850.942 1243.31 849.591 C 1244.81 848.798 1246.38 847.116 1246.22 845.465 C 1244.69 829.702 1237.51 833.505 1230.52 832.333 L 1229.58 830.955 C 1231.64 829.598 1240.64 829.062 1245.81 827.256 C 1245.72 825.65 1245.71 826.635 1246.07 824.309 z" fill="rgb(247,236,176)" fill-opacity="0.384314" transform="translate(0,0)"></path>
<path d="M 1183.1 401.677 L 1196.43 407.996 C 1188.04 424.126 1171.23 407.262 1166.07 414.192 C 1166.24 417.327 1167.46 419.087 1168.89 421.89 L 1164.86 419.732 L 1164.66 418.377 C 1163.02 415.623 1155.28 411.857 1151.64 409.466 L 1157.18 410.4 L 1158.49 409.457 C 1158.13 406.773 1157.79 407.228 1158.53 404.971 C 1166.97 410.704 1172.93 406.123 1181.73 402.285 L 1183.1 401.677 z" fill="rgb(247,236,176)" fill-opacity="0.721569" transform="translate(0,0)"></path>
<path d="M 942.811 1411.61 L 944.628 1412.13 C 944.143 1416.53 943.6 1415.49 945.332 1418.8 C 951.444 1420.7 950.03 1417.62 954.859 1420.67 C 955.953 1425.74 952.513 1436.44 948.027 1439.91 C 942.982 1438.05 939.586 1436.73 934.663 1434.35 C 943.709 1429.04 929.751 1418.08 942.811 1411.61 z" fill="rgb(247,236,176)" fill-opacity="0.439216" transform="translate(0,0)"></path>
<path d="M 1066.75 419.658 C 1067.97 417.557 1067.53 418.138 1069.16 416.475 C 1077.25 415.57 1078.95 426.531 1087.79 415.763 C 1091.7 415.135 1091.36 415.843 1095.74 417.77 C 1097.15 419.53 1098.55 421.081 1099.65 423.029 C 1089.99 430.006 1097.3 433.931 1091.7 434.966 C 1086.79 431.558 1079.04 422.675 1073.95 429.296 C 1072.4 427.933 1068.2 421.696 1066.75 419.658 z" fill="rgb(247,236,176)" fill-opacity="0.701961" transform="translate(0,0)"></path>
<path d="M 938.205 1334.39 C 952.385 1338.17 950.689 1349.01 962.969 1345.73 C 965.433 1348.84 966.947 1350.84 969.086 1354.17 C 969.804 1358.29 970.832 1360.8 971.652 1364.71 L 969.918 1364.51 C 966.302 1359.11 955.896 1355.57 949.715 1356.23 C 947.683 1353.71 947.545 1353.92 947.285 1350.75 L 947.345 1348.15 C 943.518 1344.08 940.61 1339.4 938.205 1334.39 z" fill="rgb(247,236,176)" fill-opacity="0.423529" transform="translate(0,0)"></path>
<path d="M 927.816 1328.76 C 926.979 1323.51 925.761 1320.82 928.169 1316.59 C 937.186 1314.13 946.681 1340.45 959.977 1341.73 C 961.084 1343.14 962.005 1344.22 962.969 1345.73 C 950.689 1349.01 952.385 1338.17 938.205 1334.39 L 936.028 1334.13 L 933.638 1336.03 C 930.516 1334.43 929.897 1332.14 927.816 1328.76 z" fill="rgb(247,236,176)" fill-opacity="0.223529" transform="translate(0,0)"></path>
<path d="M 1405.84 507.104 C 1415.37 511.622 1430.67 518.379 1439.39 523.432 L 1440.61 528.548 C 1429.77 537.369 1436.63 525.001 1423.04 520.045 C 1421.03 521.833 1420.92 522.374 1418.37 522.8 L 1416.76 521.452 C 1418.88 519.968 1419.26 519.996 1420.51 517.806 L 1419.25 515.991 C 1418.99 517.426 1419.19 516.544 1418.56 518.765 C 1412.14 514.733 1409.28 516.729 1404.98 521.848 L 1400.53 519.584 C 1398.71 516.528 1399.1 518.192 1399.76 514.338 C 1402.14 511.631 1403.15 509.566 1405.84 507.104 z" fill="rgb(247,236,176)" fill-opacity="0.8" transform="translate(0,0)"></path>
<path d="M 675.469 956.487 C 678.687 950.104 678.405 949.334 684.168 946.93 L 685.961 950.561 C 681.163 959.685 687.237 964.155 688.553 975.734 L 687.459 975.931 C 683.43 972.035 682.816 971.166 679.893 966.363 L 672.778 963.455 C 669.753 962.207 667.518 961.582 664.38 963.108 C 662.767 961.694 660.536 958.082 659.205 956.126 L 660.655 954.677 C 665.826 954.3 670.35 955.506 675.469 956.487 z" fill="rgb(247,236,176)" fill-opacity="0.360784" transform="translate(0,0)"></path>
<path d="M 1157.21 790.505 C 1163.24 792.672 1169.35 794.786 1175.27 797.212 C 1172.48 797.988 1170.95 797.991 1168.95 799.753 C 1164.71 801.729 1164.67 800.856 1163.25 804.069 C 1163.55 806.259 1163.48 805.995 1164.15 808.181 L 1161.68 808.947 C 1159.97 807.457 1159.11 806.9 1157.25 805.577 C 1152.97 804.586 1150 805.893 1145.68 807.057 C 1145.36 806.802 1145.04 806.547 1144.72 806.291 L 1143.16 805.093 C 1134.78 798.59 1133.52 799.751 1124.08 804.387 L 1122.38 803.935 L 1122.33 802.193 C 1130.96 796.28 1134.46 796.461 1144.19 800.421 C 1149.78 802.169 1156.54 798.49 1160.55 794.624 L 1157.06 791.946 L 1157.21 790.505 z" fill="rgb(247,236,176)" fill-opacity="0.313725" transform="translate(0,0)"></path>
<path d="M 1101.34 452.274 C 1106.88 444.136 1099.2 441.309 1108.72 435.049 L 1110.5 438.762 C 1099.64 452.619 1122.83 450.525 1117.91 471.985 C 1116.58 471.13 1113.28 466.684 1112.46 465.184 C 1110.7 465.078 1108.94 464.936 1107.19 464.758 C 1105.71 462.316 1105.76 461.897 1105.01 459.085 C 1102.94 457.243 1103.39 457.346 1101 456.163 C 1099.71 454.738 1100.04 455.115 1099.15 453.383 L 1101.34 452.274 z" fill="rgb(247,236,176)" fill-opacity="0.27451" transform="translate(0,0)"></path>
<path d="M 754.032 1337.17 L 767.346 1342.2 C 768.529 1345.01 767.734 1345.96 768.199 1348.98 C 762.484 1359.57 749.661 1347.63 739.781 1347.32 C 747.465 1344.86 745.127 1339.86 754.032 1337.17 z" fill="rgb(247,236,176)" fill-opacity="0.854902" transform="translate(0,0)"></path>
<path d="M 1080.26 787.858 L 1081.19 786.142 C 1086.77 784.945 1087.01 779.687 1092.9 779.866 C 1098.5 780.036 1102.94 786.694 1107 788.84 L 1107.91 791.119 C 1112.66 791.244 1113.47 791.304 1117.76 793.254 L 1118.89 794.794 C 1117.52 797.952 1118.49 796.514 1115.33 798.846 L 1110.79 799.371 L 1093.87 792.973 C 1097.15 789.872 1097.97 789.765 1098.46 786.073 L 1096.72 784.652 C 1089.72 784.322 1089.37 785.138 1083.1 788.77 L 1080.26 787.858 z" fill="url(#Gradient1)" transform="translate(0,0)"></path>
<path d="M 924.661 1333.32 L 927.816 1328.76 C 929.897 1332.14 930.516 1334.43 933.638 1336.03 L 936.028 1334.13 L 938.205 1334.39 C 940.61 1339.4 943.518 1344.08 947.345 1348.15 L 947.285 1350.75 C 943.524 1353.23 943.392 1353.3 941.253 1357.33 L 924.661 1333.32 z" fill="rgb(247,236,176)" fill-opacity="0.0901961" transform="translate(0,0)"></path>
<path d="M 787.036 1365.8 C 794.97 1368.83 796.226 1369.35 804.512 1367.72 C 803.479 1369.72 797.984 1379.12 797.8 1380.19 L 798.045 1380.72 C 794.438 1380.05 780.968 1374.45 776.769 1372.8 L 776.499 1371.09 C 778.628 1369.11 784.158 1367.05 787.036 1365.8 z" fill="rgb(247,236,176)" fill-opacity="0.541176" transform="translate(0,0)"></path>
<path d="M 808.561 1363.8 C 810.67 1361.61 810.82 1361.07 813.726 1360.11 C 816.774 1361.42 825.589 1365.01 828.012 1366.47 C 827.679 1371.02 826.221 1372.07 823.249 1375.89 C 818.073 1375.59 810.124 1374.71 807.025 1370.21 L 808.561 1363.8 z" fill="rgb(247,236,176)" fill-opacity="0.462745" transform="translate(0,0)"></path>
<path d="M 735.747 1329.64 L 744.387 1333.3 C 741.823 1336.8 740.035 1336.92 735.95 1338.39 C 734.542 1340.7 735.166 1339.62 736.046 1343.65 L 737.232 1344.97 C 741.106 1344.85 744.833 1340.05 747.072 1337.19 C 748.855 1336.89 750.54 1336.57 752.332 1336.36 L 754.032 1337.17 C 745.127 1339.86 747.465 1344.86 739.781 1347.32 C 733.608 1344.49 727.81 1341.31 721.087 1340.69 C 718.599 1340.16 718.78 1340.14 716.864 1338.41 C 733.629 1337.29 723.478 1332.79 735.747 1329.64 z" fill="rgb(247,236,176)" fill-opacity="0.909804" transform="translate(0,0)"></path>
<path d="M 1346.6 785.523 C 1342.08 783.303 1337.49 778.919 1332.13 778.358 C 1326.02 777.719 1317.92 773.236 1322.17 766.025 C 1329.74 765.173 1334.25 777.146 1348.53 777.651 L 1350.87 780.723 C 1349.74 782.039 1347.81 784.464 1346.6 785.523 z" fill="rgb(247,236,176)" fill-opacity="0.270588" transform="translate(0,0)"></path>
<path d="M 1279.89 471.355 C 1286.47 475.118 1307.68 480.369 1312.25 486.633 L 1312.04 488.51 L 1309.9 489.753 C 1298.75 484.761 1286.75 479.425 1275.92 473.836 L 1279.89 471.355 z" fill="rgb(247,236,176)" fill-opacity="0.168627" transform="translate(0,0)"></path>
<path d="M 1124.08 804.387 C 1133.52 799.751 1134.78 798.59 1143.16 805.093 L 1144.72 806.291 C 1145.04 806.547 1145.36 806.802 1145.68 807.057 C 1150 805.893 1152.97 804.586 1157.25 805.577 C 1159.11 806.9 1159.97 807.457 1161.68 808.947 C 1156.02 809.913 1146.88 809.579 1142.34 811.314 C 1139.15 810.484 1127.75 805.795 1124.08 804.387 z" fill="rgb(247,236,176)" fill-opacity="0.258824" transform="translate(0,0)"></path>
<path d="M 1338.91 503.659 C 1348.66 501.483 1341.29 495.163 1353.05 498.661 C 1356.52 500.973 1359.07 502.27 1361.51 505.605 L 1361.75 508.024 C 1358.76 510.4 1357.41 510.248 1353.06 510.452 C 1348.3 508.279 1343.59 506.014 1338.91 503.659 z" fill="rgb(247,236,176)" fill-opacity="0.435294" transform="translate(0,0)"></path>
<path d="M 1107 788.84 C 1123.56 787.198 1115.23 797.392 1130.48 794.625 C 1132.65 794.252 1134.81 793.861 1136.97 793.454 C 1139.13 795.523 1142.23 798.302 1144.19 800.421 C 1134.46 796.461 1130.96 796.28 1122.33 802.193 L 1122.38 803.935 L 1110.79 799.371 L 1115.33 798.846 C 1118.49 796.514 1117.52 797.952 1118.89 794.794 L 1117.76 793.254 C 1113.47 791.304 1112.66 791.244 1107.91 791.119 L 1107 788.84 z" fill="rgb(247,236,176)" fill-opacity="0.392157" transform="translate(0,0)"></path>
<path d="M 1201.91 833.419 L 1202.16 832.724 C 1201.54 830.253 1201.6 831.48 1202.4 829.014 C 1207.14 827.222 1209.71 831.553 1214.88 831.551 C 1217.04 831.551 1219.31 831.469 1221.5 831.454 C 1223.38 836.222 1223.62 834.868 1222.91 839.306 L 1220.97 840.851 C 1214.39 838.483 1208.26 836.376 1201.91 833.419 z" fill="rgb(247,236,176)" fill-opacity="0.164706" transform="translate(0,0)"></path>
<path d="M 1048.2 768.8 C 1056.52 766.917 1060.15 770.604 1069.32 773.753 C 1066.3 775.71 1061.8 777.412 1058.05 779.61 L 1055.36 778.422 C 1050.86 773.192 1049.14 776.363 1046.73 772.372 L 1048.2 768.8 z" fill="rgb(247,236,176)" fill-opacity="0.552941" transform="translate(0,0)"></path>
<path d="M 1086.64 436.727 C 1089.84 438.503 1096.79 447.891 1101.34 452.274 L 1099.15 453.383 C 1100.04 455.115 1099.71 454.738 1101 456.163 C 1098.44 459.196 1099.57 458.236 1095.18 459.4 L 1089.38 451.101 L 1089.88 446.984 C 1087.2 442.255 1086.82 441.972 1086.64 436.727 z" fill="rgb(247,236,176)" fill-opacity="0.145098" transform="translate(0,0)"></path>
<path d="M 793.283 1352.15 C 790.111 1352.81 785.904 1358.7 783.3 1361.43 C 778.315 1362.8 775.236 1362.02 774.205 1356.57 C 776.23 1352.3 781.682 1350.85 786.139 1349.2 L 793.283 1352.15 z" fill="rgb(247,236,176)" fill-opacity="0.807843" transform="translate(0,0)"></path>
<path d="M 1090.93 764.719 L 1098.41 767.543 C 1093.64 773.109 1087.91 778.334 1080.65 773.951 C 1079.45 767.713 1086.16 766.228 1090.93 764.719 z" fill="rgb(247,236,176)" fill-opacity="0.698039" transform="translate(0,0)"></path>
<path d="M 1325.23 469.22 L 1327.38 470.507 L 1327 470.934 C 1328.66 478.378 1319.12 484.782 1313.06 476.958 C 1313.35 470.439 1319.8 469.79 1325.23 469.22 z" fill="rgb(247,236,176)" fill-opacity="0.494118" transform="translate(0,0)"></path>
<path d="M 1297.82 843.857 L 1313.25 849.515 C 1304.68 851.104 1303.08 854.763 1295.56 854.928 L 1294.23 853.456 C 1294.04 850.045 1296.16 846.993 1297.82 843.857 z" fill="rgb(247,236,176)" fill-opacity="0.894118" transform="translate(0,0)"></path>
<path d="M 1308.3 461.157 L 1310.67 462.384 L 1309.82 463.016 C 1310.31 467.176 1304.68 470.944 1300.93 471.903 C 1297.65 471.24 1298.88 472.07 1296.99 469.514 C 1297.25 462.572 1302.28 461.701 1308.3 461.157 z" fill="rgb(247,236,176)" fill-opacity="0.533333" transform="translate(0,0)"></path>
<path d="M 1277.57 835.993 L 1289.29 840.666 L 1287.54 843.732 C 1280.16 846.034 1274.73 847.995 1272.33 839.642 L 1277.57 835.993 z" fill="rgb(247,236,176)" fill-opacity="0.745098" transform="translate(0,0)"></path>
<path d="M 1134.17 781.245 L 1138.86 783.086 C 1137.39 788.758 1130.86 792.198 1125.16 789.251 C 1123.42 783.72 1129.93 782.383 1134.17 781.245 z" fill="rgb(247,236,176)" fill-opacity="0.666667" transform="translate(0,0)"></path>
<path d="M 1196.29 805.345 L 1198.73 806.569 L 1197.81 807.565 C 1200.87 809.139 1200.46 808.144 1201.24 810.304 C 1197.39 813.803 1190.34 817.382 1187.19 811.161 L 1188.33 808.771 C 1191.65 806.083 1191.96 806.156 1196.29 805.345 z" fill="rgb(247,236,176)" fill-opacity="0.403922" transform="translate(0,0)"></path>
<path d="M 744.387 1333.3 L 752.332 1336.36 C 750.54 1336.57 748.855 1336.89 747.072 1337.19 C 744.833 1340.05 741.106 1344.85 737.232 1344.97 L 736.046 1343.65 C 735.166 1339.62 734.542 1340.7 735.95 1338.39 C 740.035 1336.92 741.823 1336.8 744.387 1333.3 z" fill="rgb(247,236,176)" fill-opacity="0.960784" transform="translate(0,0)"></path>
<path d="M 1374.97 492.476 L 1381.82 495.721 C 1380.8 497.48 1380.86 497.321 1380.9 499.53 L 1377.94 499.889 C 1374.78 499.507 1373.07 500.679 1369.98 501.651 C 1366.75 500.304 1368.16 501.347 1366.11 497.82 C 1369.75 495.155 1370.9 494.381 1374.97 492.476 z" fill="rgb(247,236,176)" fill-opacity="0.74902" transform="translate(0,0)"></path>
<path d="M 1083.1 788.77 C 1089.37 785.138 1089.72 784.322 1096.72 784.652 L 1098.46 786.073 C 1097.97 789.765 1097.15 789.872 1093.87 792.973 L 1083.1 788.77 z" fill="rgb(247,236,176)" fill-opacity="0.309804" transform="translate(0,0)"></path>
<path d="M 865.349 1381.63 C 871.211 1383.7 878.027 1385.94 883.719 1388.23 C 863.978 1392.49 876.964 1391.09 865.404 1383.05 L 865.349 1381.63 z" fill="rgb(247,236,176)" fill-opacity="0.0235294" transform="translate(0,0)"></path>
<path d="M 1078.98 436.295 C 1082.44 434.794 1081.97 434.3 1084.97 434.985 L 1086.64 436.727 C 1086.82 441.972 1087.2 442.255 1089.88 446.984 L 1089.38 451.101 C 1086.49 447.628 1081.73 440.298 1078.98 436.295 z" fill="rgb(247,236,176)" fill-opacity="0.290196" transform="translate(0,0)"></path>
<path d="M 1175.27 797.212 C 1176.51 797.741 1179.31 798.838 1180.32 799.474 L 1179.67 801 C 1173.96 801.291 1172.88 805.708 1167.74 805.844 C 1166.85 803.102 1167.54 803.23 1168.95 799.753 C 1170.95 797.991 1172.48 797.988 1175.27 797.212 z" fill="rgb(247,236,176)" fill-opacity="0.501961" transform="translate(0,0)"></path>
<path d="M 1381.82 495.721 L 1391.28 500.251 C 1385.75 501.039 1383.53 505.175 1378.94 504.295 C 1377.25 501.807 1377.79 503.181 1377.94 499.889 L 1380.9 499.53 C 1380.86 497.321 1380.8 497.48 1381.82 495.721 z" fill="rgb(247,236,176)" fill-opacity="0.662745" transform="translate(0,0)"></path>
<metadata><recraft-signature>{"signed_by": "recraft", "signature_b64": "WtubjLAAlqHt8CqxFBCNJO5WPtVlqZmU0o/ju6XSjBOC8tsXDmpAHne5D5H3JVyWRWJlnFHOJj9zxHMOviBCDA==", "signing_algo": "Ed25519", "generation_timestamp": 1782749873, "identifier": "f2ea7980-c0a0-44af-8b93-5c71c0b03fcc"}</recraft-signature></metadata></svg>