<svg xmlns="http://www.w3.org/2000/svg" height="1024" preserveAspectRatio="none" style="display: block;" version="1.1" viewBox="0 0 2048 2048" width="1024">
<path d="M 817.542 843.859 C 823.265 844.478 905.434 952.444 914.218 964.033 C 916.558 967.119 916.519 1002.56 916.661 1010.53 C 902.26 987.503 883.604 964.799 866.844 943.2 C 849.574 920.942 831.555 895.898 813.537 874.429 C 796.845 880.61 776.735 891.686 760.103 899.037 C 724.912 914.59 691.2 931.558 656.818 948.744 C 582.619 985.075 508.7 1021.98 435.067 1059.44 L 352.913 1100.58 C 342.363 1105.94 321.71 1115.6 313.17 1122.51 C 328.014 1124.16 342.779 1126.46 357.423 1129.4 C 450.069 1148.11 551.092 1189.93 627.158 1247.38 C 636.172 1254.19 657.368 1272.7 663.637 1282.13 C 672.706 1269.63 683.248 1258.98 697.511 1252.47 C 711.965 1245.91 726.752 1240.1 741.813 1235.09 C 759.936 1229.16 854.77 1203.1 867.455 1207.89 L 867.936 1209.7 C 866.543 1216.52 861.526 1227.1 857.508 1232.77 C 816.727 1240.34 695.616 1263.45 678.618 1302.28 C 697.119 1308.5 715.686 1314.52 734.314 1320.35 C 731.734 1315.52 729.2 1310.33 728.872 1304.78 C 728.546 1299.27 730.207 1294.21 733.915 1290.09 C 744.35 1278.51 818.889 1251.17 835.761 1250.99 C 838.141 1250.97 839.909 1251.61 841.66 1253.23 L 841.641 1255.52 C 834.2 1266.94 810.11 1273.2 798.987 1280.53 C 796.054 1284.42 794.472 1292.55 795.665 1296.7 C 802.087 1319.03 838.34 1329.24 858.494 1331.08 C 870.443 1332.11 882.464 1331.93 894.377 1330.55 C 898.437 1330.1 910.917 1327.61 913.56 1329.19 C 912.601 1343.15 901.131 1344.01 889.484 1346.07 C 858.375 1351.59 824.965 1343.72 799.062 1325.84 C 791.11 1320.35 782.22 1310.73 781.057 1300.76 C 780.099 1290.93 783.03 1288.3 788.809 1281.35 C 775.584 1285.35 760.466 1290.06 748.459 1296.88 C 740.637 1301.33 743.555 1310 748.446 1315.66 C 752.775 1320.57 757.967 1324.64 763.763 1327.68 C 771.422 1331.7 789.968 1337.15 798.881 1340 C 834.762 1351.5 869.91 1363.37 907.74 1366.23 C 926.023 1318.19 946.252 1279.38 972.189 1235.14 C 963.085 1235.25 951.729 1236.32 942.518 1236.95 C 945.58 1227.5 948.35 1218.13 953.941 1209.86 C 964.028 1209.7 976.387 1211.35 986.979 1211.91 C 990.981 1206.94 993.559 1202.88 997.001 1197.52 C 992.962 1181.07 984.127 1161.85 979.905 1146.98 C 977.305 1137.83 984.444 1104.55 986.464 1092.89 C 993.094 1106.87 999.012 1121.17 1004.19 1135.74 C 1008.14 1146.71 1011.33 1157.43 1016.32 1167.96 C 1062.01 1102.98 1100.12 1052.83 1158.6 998.946 C 1177.07 1001.51 1208.15 1009.11 1227.75 1013.09 L 1365.98 1041.24 L 1465.64 1061.81 C 1491.4 1066.96 1522.79 1072.75 1548.01 1079.79 C 1539.49 1086.18 1519.98 1103.15 1512.38 1110.44 C 1569.25 1129.53 1622.93 1154.29 1678.03 1177.37 C 1668.06 1182.31 1639.35 1201.82 1631.09 1209.09 C 1642.51 1212.7 1653.74 1216.89 1664.74 1221.64 C 1688 1231.58 1710.93 1242.26 1733.5 1253.66 C 1747.18 1260.53 1766.46 1271.05 1780.18 1276.64 C 1770.91 1282.54 1758.34 1288.33 1748.33 1293.62 L 1690.71 1324.7 C 1726.77 1339.52 1766.83 1367.65 1801.16 1387.35 C 1787.92 1392.6 1774.88 1398.33 1762.07 1404.54 C 1787.65 1419.02 1815.96 1438.04 1841.97 1453.63 C 1834.45 1457.78 1826.9 1461.86 1819.31 1465.86 C 1845 1480.17 1868.38 1496.17 1893.46 1511.05 C 1878.63 1514.37 1864.78 1518.76 1850.41 1523.53 C 1859.59 1529.07 1869.97 1535.81 1879.67 1540.25 C 1884.25 1542.35 1892.39 1543.99 1897.43 1545.59 C 1915.29 1551.24 1922.39 1565.69 1916.15 1583.24 C 1914.23 1588.49 1910.55 1596.79 1905.4 1599.74 C 1881.65 1613.36 1857.08 1625.8 1832.8 1638.5 L 1689.04 1714.22 L 1429.04 1850.86 C 1335.1 1900.98 1240.55 1949.95 1145.41 1997.77 C 1136.3 1995.58 1116.59 1988.06 1107.21 1984.74 C 1081.47 1975.65 1055.78 1966.42 1030.15 1957.03 C 953.636 1929.87 877.405 1901.91 801.471 1873.16 L 577.008 1790.56 C 547.458 1779.76 517.973 1768.79 488.553 1757.65 C 472.708 1751.66 453.657 1745.01 438.562 1738.26 L 436.815 1725.72 C 443.411 1711 452.535 1699.9 463.742 1688.58 L 215.626 1345.21 C 197.713 1320.17 178.461 1295.89 160.749 1270.64 C 150.8 1256.45 139.788 1244.21 131.869 1228.62 C 137.93 1196.46 188.181 1153.96 217.923 1146.63 C 227.7 1136.73 245.857 1115.92 255.597 1108.07 L 269.346 1113.78 C 289.191 1105.93 314.118 1092.15 333.568 1082.23 C 366.469 1065.86 399.281 1049.3 432.003 1032.57 C 512.417 992.109 593.117 952.22 674.098 912.906 C 719.927 890.532 771.198 864.11 817.542 843.859 z M 924.059 1402.79 L 916.598 1390.64 C 906.949 1388.55 898.313 1386.63 888.495 1385.28 C 896.602 1402.23 909.335 1417.54 919.766 1433.36 L 993.623 1545.36 L 1073.74 1666.81 C 1087.93 1688.65 1111.66 1727.45 1127.06 1746.43 C 1127.63 1722.44 1128.14 1704.04 1131.64 1680.24 C 1148.93 1542.37 1197.76 1406.28 1285.1 1297.19 C 1332.89 1237.49 1392.84 1183.14 1450.16 1132.76 C 1462.04 1122.32 1479.37 1108.32 1489.63 1096.77 C 1451.39 1085.07 1401.74 1076.69 1362.3 1068.25 C 1326.83 1060.65 1291.18 1052.6 1255.73 1045.2 C 1236.67 1041.2 1217.67 1036.97 1198.72 1032.51 C 1189.58 1030.41 1175.41 1027.57 1166.86 1024.73 C 1151.16 1040.13 1127.58 1062.69 1114.1 1078.83 C 1039.55 1168.02 954.664 1290.3 924.059 1402.79 z M 179.393 1253.09 C 182.867 1260.1 200.661 1283.38 206.627 1291.79 C 231.297 1326.96 256.441 1361.79 282.053 1396.27 C 336.472 1470.4 389.461 1547.77 444.25 1620.94 C 453.677 1633.35 462.955 1645.88 472.082 1658.51 C 488.795 1681.94 522.327 1731.81 541.456 1752.56 C 542.515 1753.7 610.765 1777.4 617.772 1780.12 C 696.043 1810.32 774.66 1839.61 853.607 1868 C 929.139 1895.86 1007.32 1925.35 1083.51 1951.05 C 1089.42 1953.04 1095.41 1954.81 1101.46 1956.34 C 1090.04 1933.96 1066.31 1901.85 1051.98 1879.75 C 1009.05 1813.83 965.526 1748.31 921.411 1683.18 L 826.252 1538.96 C 810.729 1515.06 789.332 1479.97 772.928 1457.94 C 719.477 1438.81 665.849 1420.18 612.052 1402.05 L 379.501 1321.67 L 253.25 1277.56 C 231.842 1270.07 201.215 1258.41 179.393 1253.09 z M 1273.03 1671.73 L 1276.14 1672.95 C 1283.95 1665.28 1311.31 1648.53 1321.33 1642.11 C 1378.94 1605.18 1437.65 1579.15 1500.62 1553.4 C 1538.38 1537.73 1576.5 1522.95 1614.94 1509.05 C 1671.86 1488.96 1729.15 1471.62 1786.51 1453.24 C 1766.74 1440.6 1749.24 1430.41 1729.86 1416.54 C 1715.61 1423.23 1698.69 1429.83 1684.02 1436.17 L 1601.02 1472.94 C 1577.69 1483.44 1555.41 1495.21 1532.51 1506.24 C 1465.69 1538.44 1400.33 1573.21 1340.17 1616.9 C 1315.84 1634.56 1294.28 1650.19 1273.03 1671.73 z M 1830.6 1500.83 C 1819.79 1495.74 1798.51 1485.38 1787.8 1482.18 C 1699.57 1507.5 1612.75 1537.47 1527.69 1571.96 C 1458.14 1599.51 1393.53 1625.32 1329.87 1665.97 C 1315.04 1675.44 1297.84 1685.04 1285.69 1697.74 C 1295.66 1693.17 1306.01 1686.73 1315.55 1681.13 C 1345.09 1664.21 1392.08 1644.32 1423.61 1632 C 1519.5 1594.53 1620.61 1566.18 1719.17 1536.35 C 1757.48 1524.75 1793.77 1517.16 1830.6 1500.83 z M 257.28 1136.9 C 252.906 1141.34 248.467 1145.96 244.017 1150.3 C 272.809 1162.83 310.15 1175.03 340.261 1185.12 C 374.521 1196.49 408.665 1208.21 442.689 1220.27 L 581.003 1268.99 C 601.116 1276.01 632.831 1287.81 652.635 1293.32 C 657.508 1294.81 657.698 1295.76 661.797 1294.66 C 663.025 1292.88 663.844 1292.13 663.039 1289.82 C 656.598 1271.33 509.614 1206.48 484.004 1195.94 C 466.88 1189.07 449.528 1182.79 431.978 1177.1 C 404.79 1168.15 377.142 1160.66 349.154 1154.67 C 336.901 1152.16 324.344 1150.04 311.988 1148.18 C 290.877 1145 276.665 1147.01 257.28 1136.9 z M 801.232 1458.4 C 837.776 1509.22 871.134 1565.52 905.99 1617.63 C 952.85 1687.69 999.792 1757.55 1045.59 1828.33 L 1109.27 1926.41 C 1118.14 1939.92 1129.63 1958.55 1139 1971.39 L 1140.63 1973.1 C 1143.3 1970.8 1145.08 1965.53 1146.57 1962.08 C 1138.31 1945.86 1124.55 1925.28 1114.46 1909.54 L 1048.61 1808.45 C 1022.32 1767.4 995.671 1726.42 968.602 1685.87 C 918.819 1611.29 871.746 1535.07 819.667 1462.05 C 836.569 1452.03 860.454 1425.46 877.148 1411.99 C 875.252 1408.47 873 1403.78 870.441 1400.87 C 843.573 1419.74 825.36 1439.56 801.232 1458.4 z M 1183.68 1938.28 C 1181.54 1942.27 1177.69 1948.26 1177.56 1952.46 L 1178.82 1953.53 C 1180.45 1953.16 1182.23 1952.8 1183.81 1952.3 C 1200.01 1944.8 1217.46 1935.16 1233.48 1926.75 C 1259.23 1913.36 1284.9 1899.82 1310.48 1886.12 L 1458.23 1808.17 L 1888.67 1582.09 C 1891.77 1580.49 1893.61 1579.26 1895.44 1576.28 C 1895.5 1570.76 1893.2 1568.78 1888.04 1568.88 C 1866.82 1578 1837.07 1594.82 1816.24 1606.16 C 1788.01 1621.39 1759.62 1636.34 1731.09 1650.99 C 1587.98 1724.6 1445.36 1799.14 1303.22 1874.6 C 1263.43 1895.44 1224.02 1918.01 1183.68 1938.28 z M 478.711 1709.81 C 473.614 1715.75 472.311 1717.68 468.391 1724.48 C 473.139 1725.99 483.01 1728.82 487.235 1730.58 L 494.084 1732.76 L 494.811 1731.97 C 489.388 1724.69 484.28 1716.8 478.711 1709.81 z M 1202.49 1828.3 C 1201.63 1831.1 1199.69 1836 1200.01 1838.58 L 1202.21 1838.17 C 1224.37 1825.9 1247.3 1814.46 1269.74 1802.59 L 1376.85 1745.48 C 1432.67 1716.05 1493.07 1683.51 1549.37 1654.53 C 1569.21 1644.31 1754.4 1551.66 1756.19 1546.57 L 1753.39 1545.89 C 1691.81 1568.94 1637.39 1596.76 1579 1626.09 C 1456.78 1687.47 1331.76 1746.49 1215.76 1819.13 C 1211.16 1822 1207.28 1825.46 1202.49 1828.3 z M 791.933 1436.25 C 805.957 1424.54 836.033 1400.22 847.087 1386.61 C 831.056 1379.46 806.844 1372.15 789.601 1366.45 L 702.22 1337.06 L 400.669 1233.16 L 295.802 1197.08 C 277.016 1190.63 251.538 1182.64 233.772 1175.11 C 231.47 1183.61 216.732 1191.65 209.677 1197.68 C 199.176 1206.66 191.789 1214.94 183.337 1225.86 C 317.473 1275 452.111 1322.76 587.231 1369.13 L 693.031 1405.98 C 723.914 1416.47 758.113 1427.37 787.949 1439.77 L 791.933 1436.25 z M 171.521 1220.47 C 182.03 1201.92 205.721 1188.67 222.696 1177.26 C 225.385 1175.46 224.847 1175.49 224.571 1173.72 C 222.34 1172.14 220.957 1170.71 218.311 1170.72 C 208.99 1175.62 160.385 1206.15 166.048 1218.16 C 168.254 1219.41 169.545 1220.73 171.521 1220.47 z M 1190.36 1907.23 C 1197.13 1903.99 1203.84 1900.6 1210.47 1897.08 C 1249.78 1878.08 1293.53 1852.82 1332.26 1831.94 L 1502.04 1742.24 L 1653.07 1662.88 C 1720.08 1628.35 1789.84 1593.11 1855.78 1556.88 C 1851.99 1553.31 1828.8 1534.94 1825.52 1534.06 C 1796.41 1550.48 1763.03 1565.85 1732.98 1580.61 C 1684.66 1604.2 1636.62 1628.36 1588.88 1653.08 L 1334.43 1786.8 C 1287.79 1811.55 1241.95 1837.21 1194.61 1860.84 C 1193.92 1876.81 1191.12 1892.01 1190.36 1907.23 z M 1616.3 1185.57 C 1584.92 1175.77 1552.87 1162.62 1521.28 1152.62 C 1514.75 1150.55 1492.11 1141.97 1487.29 1141.62 C 1338.17 1269.37 1229.12 1377.01 1178.65 1573.06 C 1169.74 1607.7 1157.42 1658.83 1154.6 1694.08 C 1154.1 1700 1153.93 1705.94 1154.08 1711.88 C 1164.66 1668.98 1169.48 1652.6 1187.53 1612.72 C 1228.8 1530.84 1287.98 1470.68 1353.7 1408.32 C 1393.23 1370.9 1433.76 1334.55 1475.24 1299.3 C 1519.08 1261.93 1569.54 1219.1 1616.3 1185.57 z M 1228.76 1683.81 C 1238.58 1671.68 1246.93 1663.85 1257.48 1652.63 C 1254.27 1650.98 1252.66 1655.27 1249.97 1650.27 C 1241.72 1660.96 1234.08 1672.12 1227.1 1683.68 L 1227.7 1684.31 L 1226.66 1684.48 C 1226.71 1685.9 1226.85 1685.16 1226.13 1686.68 C 1227.31 1686.13 1226.69 1686.6 1227.47 1684.78 L 1227.43 1684.97 L 1228.31 1684.78 L 1227.26 1685.65 L 1227.8 1684.23 L 1228.76 1683.81 z M 1719.77 1279.05 C 1710.2 1272.58 1615.1 1228.74 1606.77 1227.89 C 1542.42 1279.39 1478.97 1330.16 1418.56 1386.43 C 1321.5 1476.84 1203.71 1585.26 1177.57 1721.57 C 1187.03 1699.66 1205.29 1668.06 1219.29 1648.52 C 1331.73 1501.03 1498.4 1404.41 1656.59 1313.62 C 1675.86 1302.56 1701.97 1291.83 1719.77 1279.05 z M 836.749 1467.88 C 878.166 1526.6 914.878 1585.95 954.332 1645.59 L 1074.77 1829.74 C 1097.46 1864.17 1119.79 1898.84 1141.75 1933.75 L 1151.56 1950.05 C 1168.1 1915.19 1167.82 1901.03 1175.7 1866.13 C 1144.66 1814.72 1113.85 1768.28 1081.22 1717.93 C 1043.18 1658.43 1004.55 1599.31 965.322 1540.59 C 948.922 1516.13 932.695 1491.55 916.644 1466.85 C 908.483 1454.33 896.125 1434.06 887.074 1423.16 C 873.544 1434.63 860.036 1445.96 847.224 1458.24 C 843.925 1461.4 840.246 1464.98 836.749 1467.88 z M 1662.13 1339.89 C 1642.77 1353.46 1624.08 1362.77 1604.47 1374.82 C 1580.86 1389.33 1556.65 1403.31 1533.14 1417.73 C 1468.9 1457.31 1407.71 1501.64 1350.1 1550.36 C 1334.59 1563.49 1254.62 1633.19 1252.01 1650.31 C 1253.98 1650.98 1257.31 1651.09 1258.78 1650.05 C 1272.72 1640.17 1285.77 1625.94 1299.47 1615.22 C 1313.88 1603.87 1329.38 1590.68 1344.52 1580.6 C 1366.43 1566.01 1389.81 1552.37 1412.6 1539.14 C 1485.08 1497.37 1559.88 1459.76 1636.64 1426.5 C 1657.65 1417.22 1675.97 1409.52 1697.5 1401.45 C 1710.12 1396.72 1730.92 1389.01 1742.43 1382.97 C 1734.75 1378.36 1666.01 1339.6 1662.13 1339.89 z M 1234.58 1780.09 C 1285.89 1749.3 1338.07 1719.99 1391.07 1692.22 C 1404.97 1685 1467.33 1656.06 1474.13 1650.31 L 1473.59 1649.16 L 1471 1649.09 C 1456.63 1653.36 1441.8 1660.1 1427.74 1665.47 C 1367.63 1688.43 1310.44 1717.61 1258.98 1756.49 C 1254.31 1760.03 1233.88 1776.19 1232.52 1780.88 L 1234.58 1780.09 z" fill="rgb(24,56,36)" transform="translate(0,0)"></path>
<path d="M 217.769 1281.46 C 243.28 1290.78 273.331 1300.09 299.325 1308.93 L 425.626 1352.78 L 760.921 1470.02 C 771.055 1482.38 786.211 1506.68 795.799 1521.14 L 868.627 1632.69 L 1067.22 1929.47 C 1041.15 1921.77 1015.92 1911.39 990.379 1902.13 C 944.288 1885.55 898.295 1868.69 852.403 1851.56 L 549.035 1738.77 C 531.993 1713.02 507.064 1682.16 488.556 1655.85 L 302.841 1397.28 C 274.578 1358.5 245.807 1320.58 217.769 1281.46 z M 697.785 1712.04 C 756.836 1686.15 600.588 1454.72 517.961 1460.19 C 452.068 1493.71 619.095 1721.06 697.785 1712.04 z" fill="rgb(24,56,36)" transform="translate(0,0)"></path>
<path d="M 1234.79 1079.35 C 1289.77 1099.35 1341.73 1110.64 1397.57 1126.2 C 1381.04 1140.93 1360.84 1155.76 1343.6 1170.67 C 1305.24 1203.56 1269.75 1239.66 1237.52 1278.58 C 1223.33 1295.61 1204.65 1317.54 1192.26 1335.71 C 1149.57 1398.31 1113.47 1463.2 1091.26 1536.06 C 1081.12 1569.32 1076.63 1585.61 1079.81 1620.77 C 1080.57 1627.25 1082.27 1631.86 1084.26 1638.05 C 1065.87 1609.11 1062.31 1582.49 1067.25 1549.18 C 1073.19 1509.16 1084.7 1477.13 1100.6 1440.4 C 1143.96 1340.32 1214.8 1256.49 1296.16 1184.96 C 1318.51 1165.3 1342.1 1148.56 1365.9 1130.78 C 1350.32 1124.8 1329.37 1122.66 1313.97 1116.02 C 1293.62 1107.24 1246.72 1096.79 1234.79 1079.35 z" fill="rgb(24,56,36)" transform="translate(0,0)"></path>
<path d="M 1181.92 1232.69 C 1186.41 1233.29 1191.09 1234.86 1195.48 1236.14 C 1179.02 1261.62 1157.7 1286.7 1141.11 1311.81 C 1105.1 1366.31 1068.33 1428.81 1050.51 1491.95 C 1044.55 1513.08 1041.97 1536.27 1037.57 1557.78 C 1037.28 1558.46 1037.56 1557.97 1036.24 1559.46 C 1031.5 1554 1027.3 1518.78 1027.93 1510.54 C 1036.16 1404.19 1109.89 1304.62 1181.92 1232.69 z" fill="rgb(24,56,36)" transform="translate(0,0)"></path>
<path d="M 1188.28 1064.6 L 1201.25 1068.85 C 1138.2 1136.15 1085.93 1196.76 1039.28 1276.89 C 1002.33 1340.36 979.042 1382.54 968.811 1455.95 C 968.735 1457.12 968.333 1458.5 968.059 1459.69 L 966.69 1459.9 C 949.567 1438.41 973.818 1363.88 985.586 1341.52 C 1034.81 1248 1108.66 1134.89 1188.28 1064.6 z" fill="rgb(24,56,36)" transform="translate(0,0)"></path>
<path d="M 1126.93 1226.84 L 1127.73 1227.68 C 1125.06 1239.87 1088.26 1295.97 1079.89 1311.26 C 1051.63 1362.9 1017.12 1412.3 1002.69 1470.53 C 1000.96 1477.49 998.712 1504.82 997.913 1506.6 L 996.874 1505.61 C 962.955 1429.72 1070.06 1275.42 1126.93 1226.84 z" fill="rgb(24,56,36)" transform="translate(0,0)"></path>
<path d="M 1163.62 1147.26 C 1195.38 1157.26 1227.95 1165.45 1259.77 1176.53 C 1250.55 1185.47 1234.11 1197.42 1223.31 1206.73 C 1220.19 1209.58 1218.35 1212.03 1213.89 1210.35 C 1203.99 1206.6 1194.13 1202.8 1184.16 1199.24 C 1166.02 1192.66 1147.62 1186.82 1129 1181.74 C 1138.41 1172.12 1153.91 1155.01 1163.62 1147.26 z" fill="rgb(24,56,36)" transform="translate(0,0)"></path>
<path d="M 1201.29 1114.89 C 1208.45 1116.24 1221.11 1120.31 1228.78 1122.44 C 1253.16 1129.19 1277.4 1136.42 1301.49 1144.13 C 1298.15 1146.98 1294.03 1150.05 1290.53 1152.8 C 1288.16 1154.81 1288.25 1154.71 1285.36 1155.91 C 1273.82 1152.53 1200.73 1125.18 1194.57 1119.74 C 1195.37 1118 1199.26 1116.12 1201.29 1114.89 z" fill="rgb(24,56,36)" transform="translate(0,0)"></path>
<path d="M 1249.97 1650.27 C 1252.66 1655.27 1254.27 1650.98 1257.48 1652.63 C 1246.93 1663.85 1238.58 1671.68 1228.76 1683.81 L 1227.8 1684.23 L 1227.26 1685.65 L 1228.31 1684.78 L 1227.43 1684.97 L 1227.47 1684.78 C 1226.69 1686.6 1227.31 1686.13 1226.13 1686.68 C 1226.85 1685.16 1226.71 1685.9 1226.66 1684.48 L 1227.7 1684.31 L 1227.1 1683.68 C 1234.08 1672.12 1241.72 1660.96 1249.97 1650.27 z" fill="rgb(248,251,249)" fill-opacity="0.988235" transform="translate(0,0)"></path>
<path d="M 1273.03 1671.73 L 1276.14 1672.95 C 1271.21 1678.09 1252.43 1693.18 1246.22 1698.43 C 1250.93 1690.73 1265.68 1676.53 1273.03 1671.73 z" fill="rgb(248,251,249)" transform="translate(0,0)"></path>
<path d="M 791.898 47.5211 C 799.529 50.0379 807.903 54.4456 815.594 57.2817 C 912.342 93.2434 996.967 163.608 1018.59 268.939 C 1032.39 336.15 1014.73 383.935 978.102 439.005 C 986.92 464.926 990.411 475.436 993.348 503.907 C 1015.36 463.339 1024.15 445.67 1052.04 408.711 C 1051.07 332.436 1061.42 278.005 1104.21 213.527 C 1165.21 121.617 1258.38 80.3392 1363.43 61.0034 C 1388.72 56.3489 1414.82 53.8233 1439.98 49.2239 C 1405.3 75.4812 1366.32 130.913 1350.63 171.707 C 1335.02 212.295 1320.97 264.488 1289.36 297.216 C 1265.37 322.053 1216.79 344.793 1185.45 361.045 L 1106.04 402.153 C 1096.92 406.778 1064.21 421.888 1059.7 427.985 C 998.375 510.809 957.258 660.042 962.229 759.018 C 1017.35 660.516 1067.76 607.656 1169.25 552.556 C 1192.8 539.769 1217.79 528.507 1241.25 516.033 C 1216.27 394.525 1299.58 304.069 1410.83 274.071 C 1425.62 270.082 1440.45 263.019 1456.02 259.039 C 1426.47 306.676 1437.95 321.219 1428.1 374.664 C 1423.69 398.588 1413.56 416.357 1399.85 436.045 C 1362.99 490.294 1303.71 513.103 1246.22 538.412 C 1229.56 545.746 1205.11 556.85 1190.11 567.248 C 1202.6 571.569 1236.97 574.79 1251.56 577.305 C 1272.41 580.9 1292.69 584.925 1313.45 589.048 C 1263.85 590.623 1210.51 583.155 1161.39 582.999 C 1115.42 612.029 1080.8 638.556 1046.79 684.228 C 1006.21 738.728 975.022 807.143 964.24 875.082 C 962.548 885.744 967.778 912.16 969.536 923.586 C 1028.66 817.17 1113.05 744.136 1222.93 692.288 C 1256.53 676.436 1289.86 664.542 1323.3 649.146 C 1328.27 640.912 1334.81 624.186 1339.27 615.022 C 1354 584.781 1373.6 555.868 1400.67 535.57 C 1452.53 496.673 1512.42 483.703 1576.14 487.208 C 1588.96 487.913 1600.28 487.729 1613.26 489.428 C 1564.22 519.216 1539.01 570.059 1492.54 602.974 C 1491.13 603.97 1490.03 605.286 1490.06 606.978 C 1511.67 609.8 1537.32 605.528 1560.19 609.351 C 1632.33 621.411 1705.21 659.265 1756.83 710.749 C 1692.37 707.06 1623.58 740.805 1558.94 747.021 C 1499.22 752.764 1447.97 733.476 1394.1 712.005 C 1364 700.682 1339.2 686.163 1305.98 682.142 C 1271.58 695.641 1174.91 749.462 1149.08 776.522 C 1162.7 772.385 1177.71 766.541 1191.47 762.069 C 1248.08 743.663 1304.75 751.643 1350.45 790.658 C 1375.69 812.209 1386.74 827.698 1417.32 843.387 C 1402.77 847.724 1384.13 851.664 1368.73 854.761 C 1314.4 865.44 1237.97 878.201 1185.85 854.978 C 1151 839.448 1145.18 824.147 1101.06 815.494 C 1055.23 859.301 996.788 938.156 985.34 1000.75 C 979.547 1032.44 977.525 1063.58 970.059 1096.71 C 954.997 1161.19 937.047 1224.95 916.262 1287.82 C 921.047 1287.07 923.495 1286.35 928.151 1284.93 C 925.048 1292.99 922.636 1299.64 918.466 1307.27 C 894.891 1317.39 861.919 1314.44 839.52 1301.9 C 835.212 1299.49 826.506 1293.84 824.508 1289.38 C 824.806 1288.47 844.756 1259.39 847.133 1255.74 C 883.319 1200.27 908.787 1138.9 922.936 1074.22 C 927.652 1054.4 927.601 1033.05 929.885 1013.28 C 934.187 976.035 928.885 943.993 921.687 907.648 C 919.517 896.688 921.139 863.299 916.777 855.796 C 880.353 793.149 825.688 726.488 763.46 688.375 C 759.842 696.402 754.791 703.465 750.74 711.146 C 732.788 745.184 714.252 780.178 675.993 794.71 C 636.664 809.648 594.694 805.229 553.626 804.172 C 535.441 803.704 516.807 804.787 498.595 805.642 C 509.09 785.381 551.714 733.295 568.442 717.876 C 612.881 676.916 686.851 665.149 745.773 668.294 C 706.358 638.362 631.603 645.713 584.142 642.204 C 527.013 637.981 502.241 617.764 460.727 583.665 C 424.223 553.681 380.741 513.271 338.849 492.6 C 358.301 488.535 378.901 481.706 398.219 477.927 C 465.992 464.673 532.246 460.754 596.51 490.757 C 663.227 521.904 699.825 555.506 726.223 625.118 C 740.88 636.369 775.146 656.097 792.874 667.513 C 846.286 701.91 876.278 730.509 918.012 777.032 C 919.815 764.824 919.496 750.85 921.514 738.266 C 924.522 721.728 926.815 703.724 930.315 687.396 C 936.718 657.524 938.717 644.841 926.635 615.879 C 907.371 569.702 878.269 530.353 842.306 495.832 C 763.078 500.265 676.719 511.358 627.981 434.365 C 603.873 396.28 592.902 382.631 555.652 356.182 C 627.192 343.399 690.703 334.876 758.461 370.108 C 811.038 397.447 832.132 431.531 848.922 485.327 C 884.299 513.099 925.487 559.085 949.569 596.921 C 963.276 563.563 974.008 520.048 974.917 484.07 C 975.167 474.174 973.722 459.291 972.916 449.158 C 927.647 430.307 887.389 401.176 855.329 364.071 C 818.677 320.802 794.563 260.44 811.067 204.365 C 828.962 143.568 835.69 98.8222 791.898 47.5211 z M 909.504 209.746 C 931.975 264.314 952.018 320.258 964.186 378.088 C 967.197 392.397 968.687 405.553 973.908 419.303 L 975.247 419.557 C 981.905 410.49 991.855 343.744 992.283 329.849 C 992.662 317.562 993.252 299.312 991.066 286.406 C 977.725 207.64 927.308 152.12 864.949 107.025 C 861.471 104.509 858.135 102.273 854.333 100.346 C 861.594 143.554 858.827 163.671 852.401 207.039 C 845.14 256.051 877.104 311.684 905.608 349.366 C 912.116 357.968 952.275 410.666 958.717 409.381 C 960.398 395.703 926.71 278.196 921.084 256.483 C 918.867 247.929 901.861 197.983 897.857 187.01 L 899.271 187.96 L 897.632 185.27 L 898.854 187.075 L 897.576 185.869 L 898.015 187.128 L 898.816 187.062 C 903.564 195.563 905.799 200.671 909.504 209.746 z M 1260.75 164.861 L 1264.79 162.528 L 1265.08 163.222 C 1258.74 169.698 1250.44 176.086 1243.56 182.295 C 1232.36 192.527 1221.37 202.982 1210.59 213.654 C 1181.89 242.057 1124.78 314.639 1106.1 349.87 C 1125.55 339.423 1145.33 329.113 1165.39 320.429 C 1208.33 301.846 1249.2 287.448 1274.49 245.142 C 1295.08 210.691 1308.12 172.586 1325.76 136.566 C 1329.35 129.254 1338.03 116.535 1339.99 109.484 C 1337.81 109.067 1338.71 108.987 1337.29 109.272 C 1203.41 128.806 1108.13 209.561 1087.76 346.992 C 1120.45 291.991 1162.21 242.92 1211.28 201.857 C 1227.65 187.908 1242.11 175.987 1260.75 164.861 z M 536.264 783.605 C 553.186 782.489 571.92 779.167 588.28 778.465 C 632.85 776.553 656.927 783.298 694.549 752.793 C 711.76 737.581 726.905 716.34 737.96 696.274 C 691.93 709.468 643.721 733.136 601.973 756.335 C 630.435 730.667 661.187 714.457 696.938 700.833 C 702.699 698.638 720.183 694.295 722.043 689.912 C 718.985 687.26 716.925 687.389 712.663 687.866 C 640.067 695.997 594.982 714.313 547.489 769.88 C 543.62 774.35 539.877 778.927 536.264 783.605 z M 1164.59 788.613 C 1203.23 786.856 1234.61 783.14 1271.28 800.537 C 1281.96 805.601 1289.99 807.863 1298.32 817.037 C 1254.89 803.541 1204.29 791.708 1158.67 802.843 L 1157.38 803.147 C 1157.13 803.212 1156.87 803.276 1156.61 803.341 C 1160.4 805.435 1164.75 807.989 1168.64 809.756 C 1187.61 819.178 1204.46 826.572 1225.4 831.395 C 1263.89 840.258 1323.19 836.725 1362.47 830.892 C 1335.1 800.732 1294.91 773.763 1253.02 772.042 C 1245.74 771.779 1238.46 771.897 1231.2 772.397 C 1210.22 774.499 1183.92 780.562 1164.59 788.613 z M 1397.97 652.421 L 1397.83 653.033 C 1401.85 657.282 1426.56 653.11 1433.98 652.636 C 1491.11 648.987 1536.4 655.897 1591.32 671.509 C 1568.54 670.831 1546.58 665.884 1522.41 665.258 C 1480.02 664.158 1433.05 664.296 1391.08 670.934 C 1390.07 671.095 1389.78 673.433 1389.51 674.419 C 1393.03 677.642 1406.39 681.964 1411.16 683.622 C 1446.13 695.778 1481.52 710.317 1518.52 714.756 C 1565.42 720.384 1611.89 707.05 1657.04 696.243 C 1670.62 692.994 1684.62 691.106 1698.35 688.511 L 1698.51 687.17 C 1691.6 678.222 1646.14 657.346 1634.24 652.482 C 1570.45 626.408 1507.14 625.626 1440.55 640.805 C 1428.63 643.523 1408.9 647.817 1397.97 652.421 z M 692.675 609.002 C 662.307 534.171 547.025 485.061 470.446 493.371 C 445.491 495.695 429.796 497.601 405.638 504.503 C 416.212 511.353 425.961 517.716 436.108 525.245 C 464.029 545.962 490.797 570.214 520.373 588.482 C 552.727 608.466 595.129 610.837 632.177 612.244 C 645.665 612.757 659.844 614.2 673.16 614.308 C 634.427 589.296 570.546 557.111 528.092 537.588 C 518.452 533.457 506.48 528.694 497.3 523.986 L 497.161 523.298 L 495.801 522.761 C 564.974 542.612 631.184 571.616 692.675 609.002 z M 1356.88 625.3 C 1370.47 612.769 1382.7 598.767 1395.9 586.324 C 1417.05 566.398 1448.64 547.549 1475.34 535.945 C 1481.11 533.958 1486.76 531.983 1492.61 530.225 C 1454.11 556.556 1407.13 586.625 1378.37 624.81 C 1393.98 623.306 1400.96 619.328 1414.54 614.953 C 1462.85 599.4 1489.29 570.531 1523.18 535.027 C 1530.02 527.864 1543.81 514.886 1549.67 508.049 L 1549.61 507.558 C 1491.48 509.4 1433 529.011 1392.38 572.126 C 1377.75 587.815 1365.76 605.773 1356.88 625.3 z M 823.903 471.76 C 803.815 401.042 687.967 354.663 620.351 362.5 C 616.12 362.996 610.919 363.458 606.821 364.279 C 625.064 384.37 641.409 405.239 659.034 425.304 C 688.791 459.177 740.452 468.934 784.483 471.04 C 789.427 471.241 794.377 471.248 799.321 471.06 C 758.213 442.167 715.445 415.709 671.239 391.824 L 671.372 390.076 L 670.73 389.932 L 670.106 391.074 L 668.879 389.658 L 670.743 389.782 L 670.341 391.048 C 673.332 389.959 672.618 390.45 676.57 392.049 C 731.523 410.341 776.185 441.332 823.903 471.76 z M 1258.06 490.488 C 1279.96 445.722 1321.99 386.842 1358.38 353.197 C 1363.61 348.909 1368.96 344.606 1374.12 340.252 C 1346.87 373.843 1324.57 404.105 1302.83 441.601 C 1294.45 456.043 1285.58 468.595 1278.24 484.03 C 1372.74 446.927 1411.52 402.852 1411.56 298.77 L 1410.98 298.211 C 1329.59 329.227 1252.7 396.176 1258.06 490.488 z" fill="rgb(24,56,36)" transform="translate(0,0)"></path>
<path d="M 1370.52 660.61 C 1378.26 657.852 1390.01 653.467 1397.97 652.421 L 1397.83 653.033 L 1397.74 655.341 C 1394.17 658.387 1376.28 659.906 1370.52 660.61 z" fill="rgb(248,251,249)" transform="translate(0,0)"></path>
<path d="M 722.043 689.912 L 722.809 687.681 C 726.618 686.679 734.759 685.817 738.073 688.06 C 733.898 689.618 727.333 692.445 723.1 691.075 L 722.043 689.912 z" fill="rgb(248,251,249)" transform="translate(0,0)"></path>
<path d="M 550.555 1056.66 C 617.196 1088.65 704.32 1162.36 724.358 1235.23 C 720.127 1232.11 717.73 1229.97 713.897 1226.46 C 703.614 1216.38 693.911 1205.48 683.728 1195.49 C 669.645 1181.67 654.292 1168.36 639.927 1154.83 C 605.384 1122.29 572.994 1095.12 531.576 1071.14 L 550.555 1056.66 z" fill="rgb(24,56,36)" transform="translate(0,0)"></path>
<path d="M 684.396 994.073 C 693.686 999.935 716.175 1020.57 724.145 1028.91 C 770.821 1077.71 814.104 1141.9 814.116 1211.32 L 805.674 1194.4 C 772.623 1127.74 720.732 1052.06 660.642 1007.32 C 667.163 1002.37 676.996 997.535 684.396 994.073 z" fill="rgb(24,56,36)" transform="translate(0,0)"></path>
<path d="M 488.896 1088.71 C 504.325 1097.05 522.057 1104.2 537.183 1112.82 C 589.956 1142.88 661.728 1193.5 687.952 1249.48 L 677.453 1241.82 C 621.029 1199.45 565.279 1155.26 502.508 1122.4 C 491.51 1116.65 479.98 1111.26 469.4 1104.84 C 476.222 1099.6 482.786 1094.8 488.896 1088.71 z" fill="rgb(24,56,36)" transform="translate(0,0)"></path>
<path d="M 610.128 1027.08 C 665.747 1061.38 716.41 1113.31 745.709 1172.55 C 752.916 1187.12 757.447 1203.16 761.482 1218.88 L 752.951 1207.39 C 719.861 1159.19 684.298 1117.5 639.957 1079.2 C 625.185 1066.44 602.396 1053.77 589.644 1041.01 L 610.128 1027.08 z" fill="rgb(24,56,36)" transform="translate(0,0)"></path>
<path d="M 744.952 968.078 C 750.27 972.682 755.487 977.4 760.601 982.23 C 809.014 1028.08 857.505 1093.24 859.466 1161.93 C 857.19 1158.74 854.892 1154.89 852.779 1151.54 C 818.679 1098.43 788.16 1043.31 743.55 997.909 C 737.764 992.02 731.659 986.515 725.916 980.551 C 733.22 976.242 738.064 973.047 744.952 968.078 z" fill="rgb(24,56,36)" transform="translate(0,0)"></path>
<path d="M 837.48 1004.62 C 841.805 1007.42 849.235 1016.02 853.234 1020.94 C 870.719 1042.45 887.912 1070 895.406 1097.06 C 895.79 1098.44 894.974 1106.87 894.812 1108.52 L 893.754 1108.63 C 890.134 1104.5 885.314 1095.74 882.325 1090.82 C 865.586 1063.27 851.675 1033.6 837.48 1004.62 z" fill="rgb(24,56,36)" transform="translate(0,0)"></path>
<path d="M 940.502 1251.59 C 945.189 1252.32 945.998 1252.1 946.614 1256.47 C 945.1 1260.75 942.799 1263.02 939.928 1266.55 L 936.809 1268.13 L 935.29 1267.53 C 934.473 1262.92 938.366 1255.95 940.502 1251.59 z" fill="rgb(24,56,36)" fill-opacity="0.964706" transform="translate(0,0)"></path>
<metadata><recraft-signature>{"signed_by": "recraft", "signature_b64": "inedzlQ89/qTllmqnPdD1kRMREnlop0W75RXbK/hEZvgVuCU0ncs2SfMSV+yUzyn/3XWlt6PMYWJpMgp28HoDQ==", "signing_algo": "Ed25519", "generation_timestamp": 1782749413, "identifier": "db7e420e-b471-4ea1-bd3a-dd983a6d77bc"}</recraft-signature></metadata></svg>