<svg xmlns="http://www.w3.org/2000/svg" height="1024" preserveAspectRatio="none" style="display: block;" version="1.1" viewBox="0 0 2048 2048" width="1024">
<path d="M 21.1543 24.5151 C 41.3 23.0204 76.7234 24.1387 98.0348 24.1231 L 249.764 24.0219 L 507.394 23.8389 C 557.606 23.6201 607.818 23.7171 658.029 24.1299 C 681.675 79.1728 702.495 133.928 725.035 189.284 L 915.995 667.656 L 983.101 833.782 L 1007.79 896.732 C 1012.64 909.186 1018.26 924.984 1024.07 936.654 C 1031.31 922.364 1042.7 890.153 1049.4 873.694 L 1114.01 712.619 L 1281.96 290.595 L 1357.15 100.482 C 1367.36 75.2131 1376.31 49.5565 1387.64 24.7492 C 1411.42 22.9209 1450.27 24.0919 1475.31 24.0847 L 1640.81 24.0557 L 1894.22 24.0698 C 1937.6 24.0838 1985.34 23.1116 2028.41 24.4001 C 2023.64 37.9308 2016.57 51.3351 2011.63 64.6871 C 1995.25 108.886 1976.05 152.463 1959.21 196.348 C 1880.08 400.228 1799.84 603.676 1718.5 806.682 C 1699.71 855.447 1679.65 902.144 1660.68 950.4 C 1585.08 1145.52 1507.7 1339.95 1428.54 1533.66 L 1305.43 1841.56 C 1281.39 1901.89 1256.61 1967.4 1231.16 2026.68 L 813.035 2027.12 C 809.014 2011.79 796.593 1983.72 790.207 1967.83 L 750.292 1867.53 L 615.323 1529.84 L 216.111 518.489 L 80.2329 177.419 C 65.9024 141.924 51.7501 106.358 37.7764 70.7206 C 32.3272 56.9529 24.7238 39.9582 20.0699 26.4526 L 21.1543 24.5151 z M 830.011 2004.87 L 1078.88 2004.57 C 1123.47 2004.7 1170.59 2005.83 1215.07 2004.96 C 1224.8 1984.64 1234.69 1957.78 1243.03 1936.48 L 1277.15 1850.68 L 1373.61 1611.29 L 1708.88 768.782 C 1774.89 604.82 1839.7 440.38 1903.32 275.475 C 1922.58 225.683 1942.23 176.043 1962.27 126.559 C 1971.38 103.632 1986.18 69.4975 1992.79 47.002 L 1579.19 47.7494 L 1460.6 47.7299 C 1444.89 47.7267 1416.44 48.62 1401.53 47.529 L 1138.93 709.088 L 1080.37 856.047 C 1061.7 902.195 1041.19 951.633 1024.76 998.527 C 984.323 896.203 943.235 794.137 901.502 692.335 L 642.849 46.9005 L 242.538 47.4036 L 120.683 47.2172 C 99.815 47.1408 73.6535 46.3211 53.2781 47.2366 C 78.1402 107.58 102.084 171.737 126.218 232.785 C 172.741 347.186 218.32 461.969 262.951 577.121 L 572.462 1358.97 L 760.125 1831.19 L 801.11 1932.65 C 810.453 1956.26 819.863 1981.8 830.011 2004.87 z" fill="rgb(22,61,45)" transform="translate(0,0)"></path>
<path d="M 102.915 84.0902 C 125.015 83.5642 149.301 84.2541 171.56 84.3246 L 296.256 84.29 C 402.821 84.1169 512.124 82.9325 618.49 84.2374 C 629.012 107.434 639.426 137.522 649.195 161.739 C 673.52 220.567 697.301 279.62 720.535 338.888 L 919.537 834.523 L 977.179 978.484 C 983.05 993.441 1015.08 1081.93 1023.95 1086.61 L 1026.76 1085.69 C 1034.82 1077.65 1105.95 891.162 1117.98 861.06 L 1428.06 84.2866 C 1447.61 83.3092 1477.77 84.3534 1498.29 84.3617 L 1642.59 84.3948 L 1830.38 84.458 C 1867.51 84.3919 1907.22 83.5035 1944.11 84.494 C 1931.46 108.427 1922.4 131.415 1912.27 156.499 L 1869.07 265.353 L 1691.97 712.407 C 1639.71 839.523 1591.46 966.476 1540.71 1093.86 L 1349.27 1571.43 C 1308.91 1674.9 1267.44 1777.94 1224.87 1880.52 C 1218.11 1896.3 1211.61 1912.2 1205.37 1928.2 C 1201.36 1938.5 1194.16 1958.56 1188.8 1967.63 C 1101.57 1969.77 1012.95 1966.2 925.609 1967.67 C 902.368 1968.06 877.642 1968.22 854.472 1967.51 C 834.315 1913.76 810.626 1857.41 789.11 1803.99 L 684.444 1542.26 L 406.073 838.988 L 220.576 371.223 L 147.789 190.238 C 133.776 155.892 119.255 117.007 102.915 84.0902 z M 239.281 174.993 C 243.682 189.306 251.972 208.522 257.709 222.978 C 267.819 248.39 277.737 273.877 287.464 299.438 L 414.485 624.153 L 735.105 1437.22 L 873.56 1784.08 C 885.873 1815.14 900.3 1847.36 912.024 1878.07 L 1136.24 1877.99 C 1150.54 1843.61 1164.42 1806.5 1178.19 1771.72 L 1265.35 1552.1 L 1573.62 774.807 L 1735.52 362.72 L 1785.99 236.561 C 1793.05 218.619 1804.35 192.278 1809.36 174.387 C 1793.05 175.231 1770.08 174.536 1753.17 174.582 L 1639.3 174.811 L 1533.83 174.68 C 1519.76 174.621 1496.77 175.185 1483.15 174.283 C 1452.45 253.225 1421.03 331.883 1388.88 410.246 L 1153.74 1001.62 L 1072.08 1211.65 L 1049.14 1272.3 C 1043.51 1286.88 1038.28 1299.26 1033.12 1315.7 C 1029.85 1326.13 1031.86 1368.94 1051.15 1363.43 C 1055.62 1362.15 1059.92 1349.94 1061.7 1346 C 1072.94 1317.9 1082.19 1288.74 1093.11 1260.56 L 1223.91 924.404 L 1411.48 454.248 L 1473.14 298.76 C 1482.45 275.251 1498.9 230.811 1509.37 209.774 C 1519.44 209.198 1529.66 209.23 1539.75 209.374 C 1612.22 210.41 1684.82 208.766 1757.27 209.341 L 1323.14 1306.19 L 1179.82 1664.08 L 1135.46 1775.63 C 1127.02 1796.76 1117.38 1818.4 1110.36 1839.91 C 1071.13 1839.43 1031.89 1839.26 992.659 1839.4 C 976.101 1839.4 952.11 1840.21 936.345 1839.36 C 925.517 1809.21 912.86 1779.57 901.115 1749.73 L 811.115 1525.43 L 643.189 1101.85 L 292.931 210.835 C 342.59 208.958 401.357 210.404 451.683 210.591 C 468.178 210.734 484.674 210.743 501.169 210.618 C 511.316 210.512 527.339 209.864 536.974 210.737 C 549.914 239.595 559.8 266.558 571.611 295.58 C 598.074 360.587 624.178 425.738 649.923 491.032 L 829.083 940.92 L 884.472 1081.77 C 897.764 1116.26 911.834 1151.26 925.755 1185.54 C 943.633 1229.56 964.175 1180.88 954.894 1158.63 C 946.011 1132.21 934.75 1107.43 924.772 1081.53 C 898.321 1012.55 871.011 943.907 842.848 875.61 L 668.772 437.926 L 603.512 274.238 C 591.178 243.821 573.683 204.824 563.217 174.181 L 485.522 174.495 L 321.565 174.788 C 295.636 174.812 264.969 174.054 239.281 174.993 z" fill="rgb(22,61,45)" transform="translate(0,0)"></path>
<metadata><recraft-signature>{"signed_by": "recraft", "signature_b64": "Gq6963FAeEol5buaSrYJP2z5nS+p4qVBlabrcSQLb7ZrnNeIqrFvbG0Dfz+XEdfMBvqsdBepVq8GIxU6LgV3AQ==", "signing_algo": "Ed25519", "generation_timestamp": 1782749860, "identifier": "c0ed6542-964b-4833-a390-193e3ef39661"}</recraft-signature></metadata></svg>