<svg xmlns="http://www.w3.org/2000/svg" height="1024" preserveAspectRatio="none" style="display: block;" version="1.1" viewBox="0 0 2048 2048" width="1024">
<path d="M 1022.93 97.5543 C 1025.81 98.2888 1027.82 99.4693 1029.84 101.651 C 1053.5 127.275 1078.42 151.882 1103.13 176.529 L 1407.9 482.11 L 1943.88 1016.88 C 1950.26 1023.25 1947.29 1025.98 1941.63 1031.83 C 1925.04 1049 1907.85 1065.68 1890.87 1082.49 L 1806.82 1166.43 L 1301.54 1670.64 L 1111.52 1862.34 L 1055.1 1919.16 C 1045.87 1928.47 1033.96 1941.31 1024.37 1949.52 C 1018.04 1945.71 984.795 1910.93 977.063 1903.24 L 840.973 1767.5 L 253.134 1179.56 C 215.552 1142.39 178.205 1105 141.095 1067.36 C 132.277 1058.47 123.402 1049.66 114.515 1040.84 C 109.02 1035.39 101.197 1030.67 98.4401 1023.59 C 99.198 1020.44 102.458 1017.58 104.915 1015.09 L 1022.93 97.5543 z" fill="rgb(226,195,106)" transform="translate(0,0)"></path>
<path d="M 1023.42 189.752 C 1027.73 191.919 1062.21 229.204 1068.39 235.461 L 1231.01 399.48 L 1860.3 1025.07 C 1829.55 1052.25 1799.53 1084.04 1770.19 1113.23 L 1611.2 1271.51 L 1024.76 1857.12 C 1024.17 1857.21 1023.58 1857.3 1022.98 1857.4 C 1015.15 1848.64 1006.89 1841.42 998.618 1833.12 C 980.789 1815.06 962.828 1797.13 944.736 1779.33 L 808.117 1642.47 L 403.593 1237.34 L 265.594 1099.29 C 240.643 1074.46 213.723 1049.43 189.632 1023.98 C 250.001 963.196 310.69 902.728 371.696 842.581 L 595.444 619.02 L 874.415 339.415 C 923.586 290.062 973.762 238.357 1023.42 189.752 z" fill="rgb(72,68,17)" transform="translate(0,0)"></path>
<path d="M 1023.93 227.736 C 1028.45 230.942 1042.13 245.556 1047.3 250.665 L 1106.09 309.616 L 1260.76 465.211 L 1607.01 811.992 L 1718.96 924.463 C 1751.77 957.237 1786.17 990.855 1818.02 1024.46 C 1756.86 1089.14 1690.41 1152.61 1627.32 1215.57 L 1163.14 1680.2 C 1117.47 1726.51 1068.81 1772.64 1023.96 1819.77 C 1019.65 1817.25 986.308 1782.37 980.412 1776.48 L 836.469 1632.63 C 632.899 1431.02 430.767 1227.96 230.09 1023.46 C 267.885 982.616 307.887 943.735 347.14 904.363 L 569.812 681.686 L 849.177 401.481 C 885.525 364.672 922.2 328.187 959.198 292.031 C 980.334 270.982 1002.32 248.06 1023.93 227.736 z" fill="rgb(226,195,106)" transform="translate(0,0)"></path>
<path d="M 1022.51 262.738 C 1033.39 272.488 1048.89 288.958 1059.76 299.76 C 1095.92 335.673 1131.75 372.165 1167.71 408.339 L 1443.95 685.107 L 1662.26 901.579 L 1736.47 975.027 C 1752.76 991.296 1770.17 1008.05 1785 1025.51 C 1761.21 1050.31 1736.53 1073.51 1712.33 1097.82 C 1647.82 1163.18 1582.78 1228.02 1517.2 1292.31 L 1180.67 1628.68 C 1129.01 1680.46 1075.5 1731.46 1025.12 1784.34 L 1023.44 1784.56 C 1004.5 1766.43 987.01 1747.79 968.602 1729.32 L 863.324 1624.07 L 614.529 1375.03 L 408.5 1168.72 L 321.073 1081.65 C 301.964 1062.7 281.258 1043.17 263.134 1023.46 C 269.899 1014.91 280.437 1004.86 288.098 996.865 C 308.202 975.888 329.504 956.066 350.083 935.521 L 511.79 772.821 L 1022.51 262.738 z" fill="rgb(72,68,17)" transform="translate(0,0)"></path>
<path d="M 1057.05 420.904 C 1064.53 426.849 1087.64 453.093 1096.15 461.774 L 1192.33 558.678 L 1356.88 724.252 L 1434.55 801.904 C 1450.85 818.167 1467.23 833.761 1483.06 850.535 C 1475.21 860.883 1461.73 873.071 1452.36 882.35 C 1436.13 898.7 1419.8 914.95 1403.38 931.099 C 1383.3 910.31 1361.3 889.299 1340.69 868.892 L 1243.98 772.578 C 1224.11 752.82 1192.02 723.183 1174.99 702.781 L 1174.99 967.998 L 1385.76 968.024 C 1386.4 1005.63 1385.93 1044.54 1385.98 1082.25 L 1174.89 1081.22 L 1174.98 1346.39 C 1187.6 1333.74 1200.09 1320.97 1212.45 1308.07 C 1255.01 1264.97 1297.78 1222.08 1340.77 1179.41 C 1360.89 1159.37 1383.81 1134.19 1404.4 1115.68 L 1485.41 1196.89 C 1476.39 1205.21 1466.92 1215.45 1457.98 1224.25 C 1433.34 1248.4 1408.86 1272.7 1384.52 1297.16 L 1172.56 1511.18 C 1135.18 1549.17 1095.31 1591.12 1057.35 1627.85 C 1055.8 1574.41 1057.03 1514.79 1057.06 1461.02 L 1057.28 1149.26 L 1057.05 420.904 z" fill="rgb(226,195,106)" transform="translate(0,0)"></path>
<path d="M 990.407 420.817 L 990.917 421.324 C 993.438 428.162 991.758 588.548 991.813 608.361 L 992.051 1629.82 C 952.272 1596.42 912.624 1547.82 872.067 1512.76 L 872.252 1403 C 872.268 1381.66 871.638 1357.2 872.861 1336.2 C 856.414 1308.99 836.554 1268.51 821.561 1239.37 C 801.712 1200.8 777.502 1157.47 759.717 1118.56 C 727.801 1179.6 697.256 1244.53 665.924 1306.42 C 634.652 1276.11 604.05 1241.6 571.957 1210.34 C 552.738 1191.6 533.961 1172.4 515.642 1152.78 C 514.389 1067.47 516.139 980.275 515.972 894.64 C 529.641 883.194 545.583 865.231 558.553 852.407 C 583.536 827.703 608.081 801.911 633.392 777.56 C 635.068 817.997 633.818 867.457 633.679 908.374 L 633.139 1114.07 C 673.428 1034.98 716.946 954.627 758.375 875.967 C 779.29 914.269 798.814 953.791 818.86 992.557 C 836.53 1026.73 854.9 1060.66 872.201 1095 L 872.895 536.867 C 899.901 509.403 928.565 483.32 955.466 455.697 C 966.867 443.99 978.6 432.098 990.407 420.817 z" fill="rgb(226,195,106)" transform="translate(0,0)"></path>
<metadata><recraft-signature>{"signed_by": "recraft", "signature_b64": "aaA7EH+0jQdnsNebL9sIIYPjpH9gea1KPQJovssGwIoDjMw/LJUfj0Gg5QZAjGK1vzQu3Pxk9n4ybSimU9/TCw==", "signing_algo": "Ed25519", "generation_timestamp": 1782749402, "identifier": "b21ce497-e82e-49e6-9ce8-d0f45e193a29"}</recraft-signature></metadata></svg>